<svg width="190" height="41" viewBox="0 0 190 41" fill="none" xmlns="http://www.w3.org/2000/svg">
<path d="M38.2734 22.7484C38.2734 24.5724 39.4156 25.613 40.9974 25.613C42.2802 25.613 43.2998 24.7907 43.2998 23.5199C43.2998 22.0996 42.038 21.6391 41.0781 21.2982C38.5156 20.4012 36.4524 19.6148 36.4524 16.8131C36.4524 14.4897 38.4558 12.9678 40.7971 12.9678C43.3207 12.9678 45.2643 14.7618 45.2643 17.3513H42.9619C42.9619 15.9698 42.1605 15.031 40.8688 15.031C39.7296 15.031 38.7757 15.629 38.7757 16.825C38.7757 18.0211 39.7774 18.5055 40.818 18.8852C43.0008 19.6686 45.6261 20.5896 45.6261 23.2717C45.6261 26.1572 43.4224 27.6791 40.818 27.6791C38.2764 27.6791 35.9919 25.8851 35.9919 22.7514L38.2734 22.7484Z" fill="#15372F"/>
<path d="M52.599 15.3778H49.1425V13.3176H58.3849V15.3778H54.9014V27.3383H52.599V15.3778Z" fill="#15372F"/>
<path d="M61.7548 20.3265C61.7548 16.52 64.4997 12.9768 69.0058 12.9768C73.5119 12.9768 76.2538 16.52 76.2538 20.3265C76.2538 24.1329 73.5119 27.6762 69.0058 27.6762C64.4997 27.6762 61.7548 24.1239 61.7548 20.3265ZM73.8318 20.3265C73.8318 17.6025 71.9899 15.0399 69.0058 15.0399C66.0216 15.0399 64.1797 17.6025 64.1797 20.3265C64.1797 23.0504 66.0216 25.619 69.0058 25.619C71.9899 25.619 73.8318 23.0504 73.8318 20.3265Z" fill="#15372F"/>
<path d="M80.8855 13.3176H85.9209C87.0553 13.3142 88.1563 13.7021 89.0381 14.4159C89.9198 15.1298 90.5285 16.1258 90.7614 17.2361C90.9942 18.3465 90.8371 19.5031 90.3165 20.5111C89.7958 21.519 88.9435 22.3166 87.9033 22.7694L90.6871 27.3353H88.0648L85.4993 23.1282H83.1969V27.3353H80.8945L80.8855 13.3176ZM88.5552 18.2214C88.5552 16.6815 87.5146 15.3778 85.9119 15.3778H83.1879V21.059H85.9209C87.5146 21.065 88.5552 19.7643 88.5552 18.2214Z" fill="#15372F"/>
<path d="M99.7352 21.6481L94.0689 13.3176H96.8318L100.871 19.2649L104.935 13.3176H107.698L102.017 21.6481V27.3293H99.7352V21.6481Z" fill="#15372F"/>
<path d="M120.606 17.3423L117.362 27.3353H115.702L110.852 13.3176H113.274L116.498 23.3106L119.742 13.3176H121.446L124.691 23.3106L127.914 13.3176H130.336L125.492 27.3353H123.83L120.606 17.3423Z" fill="#15372F"/>
<path d="M133.308 20.3265C133.308 16.52 136.05 12.9768 140.556 12.9768C145.062 12.9768 147.816 16.52 147.816 20.3265C147.816 24.1329 145.071 27.6762 140.565 27.6762C136.059 27.6762 133.308 24.1239 133.308 20.3265ZM145.382 20.3265C145.382 17.6025 143.54 15.0399 140.556 15.0399C137.572 15.0399 135.73 17.6025 135.73 20.3265C135.73 23.0504 137.572 25.619 140.556 25.619C143.54 25.619 145.382 23.0504 145.382 20.3265Z" fill="#15372F"/>
<path d="M152.436 13.3176H157.462C158.597 13.3142 159.698 13.7021 160.58 14.4159C161.461 15.1298 162.07 16.1258 162.303 17.2361C162.536 18.3465 162.379 19.5031 161.858 20.5111C161.337 21.519 160.485 22.3166 159.445 22.7694L162.229 27.3353H159.606L157.044 23.1282H154.741V27.3353H152.436V13.3176ZM160.109 18.2214C160.109 16.6815 159.065 15.3778 157.462 15.3778H154.741V21.059H157.462C159.065 21.065 160.109 19.7643 160.109 18.2214Z" fill="#15372F"/>
<path d="M169.243 15.3778H165.781V13.3176H175.026V15.3778H171.546V27.3383H169.243V15.3778Z" fill="#15372F"/>
<path d="M187.193 21.4059H181.404V27.3353H179.102V13.3176H181.404V19.3397H187.193V13.3176H189.495V27.3353H187.193V21.4059Z" fill="#15372F"/>
<path d="M22.5437 3.59385C17.4167 -1.19795 9.04765 -1.19795 3.89552 3.59385C1.38228 5.95212 0 9.08812 0 12.3997C0 12.8764 0 13.8047 0 13.8047V28.6066C0 31.9432 1.38228 35.0542 3.89552 37.4124C6.45902 39.8209 9.85189 41 13.2196 41C16.5874 41 19.9802 39.7958 22.5437 37.4124C25.057 35.0542 26.4393 31.9432 26.4393 28.6066V12.3997C26.4393 9.08812 25.057 5.95212 22.5437 3.59385ZM22.5437 19.8007L15.3559 13.1524C14.9538 12.776 14.3506 12.8011 13.9736 13.2025C13.6217 13.6039 13.6217 14.2061 14.0239 14.5824L21.2369 21.2056C23.348 23.1876 24.5041 25.7967 24.5041 28.5815C24.5041 31.3662 23.348 34.0005 21.2369 35.9573C16.8136 40.0717 9.65083 40.0717 5.22753 35.9573C3.11641 33.9754 1.96032 31.3662 1.96032 28.5564V18.8975C2.51324 19.7254 3.16668 20.5031 3.92065 21.2056L10.8069 27.5027C10.9828 27.6783 11.2342 27.7536 11.4604 27.7536C11.7117 27.7536 11.9881 27.6532 12.1892 27.4274C12.5411 27.026 12.5159 26.4239 12.1389 26.0476L5.22753 19.8007C3.11641 17.8187 1.96032 15.2096 1.96032 12.4248C1.96032 9.64005 3.11641 7.00581 5.22753 5.04895C9.6257 0.909439 16.8136 0.909439 21.2117 5.02386C23.3228 7.00581 24.4789 9.61496 24.4789 12.4248V22.1088C23.9511 21.2809 23.2977 20.5031 22.5437 19.8007Z" fill="#15372F"/>
<path d="M8.21828 7.65815C10.9828 5.09918 15.4564 5.09918 18.221 7.65815C19.3017 8.66167 19.9802 9.91607 20.2315 11.2959C20.3321 11.8729 19.8797 12.3998 19.3017 12.3998H19.2263C18.7487 12.3998 18.3718 12.0485 18.2964 11.597C18.1204 10.6436 17.6429 9.76554 16.8889 9.06307C14.8784 7.18148 11.586 7.18148 9.55029 9.06307C8.59526 9.94115 8.06748 11.1454 8.06748 12.3998C8.06748 13.6542 8.59526 14.8333 9.55029 15.7365L9.75135 15.9372L18.221 23.8399C19.553 25.0943 20.3069 26.8003 20.3069 28.6066C20.3069 30.4129 19.5781 32.0938 18.221 33.3733C16.8387 34.6528 15.0291 35.3051 13.2196 35.3051C11.4101 35.3051 9.60056 34.6528 8.21828 33.3733C7.13759 32.3698 6.45901 31.0903 6.20769 29.7105C6.10716 29.1334 6.55954 28.6066 7.13758 28.6066H7.21298C7.6905 28.6066 8.06748 28.9578 8.14288 29.4094C8.31881 30.3628 8.79632 31.2408 9.55029 31.9433C11.5609 33.8249 14.8532 33.8249 16.8889 31.9433C17.844 31.0652 18.3718 29.861 18.3718 28.6066C18.3718 27.3522 17.844 26.1731 16.8889 25.2699L8.3942 17.3421C8.34394 17.2919 8.26854 17.2418 8.21828 17.1916C6.86113 15.9121 6.10716 14.2312 6.10716 12.4249C6.10716 10.6185 6.86113 8.93764 8.21828 7.65815Z" fill="#15372F"/>
</svg>
