<svg width="37" height="51" viewBox="0 0 37 51" fill="none" xmlns="http://www.w3.org/2000/svg">
<path d="M20.9658 2.50471C20.9684 1.124 19.8512 0.00260721 18.4705 4.47035e-06C17.0898 -0.00259827 15.9684 1.11458 15.9658 2.49529L18.4658 2.5L20.9658 2.50471ZM16.6088 49.8528C17.5833 50.831 19.1662 50.8339 20.1443 49.8595L36.0842 33.9796C37.0623 33.0051 37.0653 31.4222 36.0908 30.4441C35.1164 29.4659 33.5335 29.4629 32.5553 30.4374L18.3865 44.5528L4.2711 30.3841C3.29663 29.4059 1.71372 29.4029 0.735569 30.3774C-0.242581 31.3519 -0.245565 32.9348 0.728904 33.9129L16.6088 49.8528ZM18.4658 2.5L15.9658 2.49529L15.8799 48.0837L18.3799 48.0884L20.8799 48.0931L20.9658 2.50471L18.4658 2.5Z" fill="#E4DCD4"/>
</svg>
