<svg width="16" height="16" viewBox="0 0 16 16" fill="none" xmlns="http://www.w3.org/2000/svg">
<g clip-path="url(#clip0_67_7977)">
<path d="M6.9706 1.76024C7.53867 1.19125 8.46068 1.19125 9.02874 1.76024L9.70164 2.43424C9.9747 2.70775 10.3454 2.86131 10.7319 2.86099L11.6843 2.86021C12.4883 2.85955 13.1403 3.51151 13.1396 4.31554L13.1388 5.26794C13.1385 5.65442 13.2921 6.02513 13.5656 6.29819L14.2396 6.97109C14.8086 7.53916 14.8086 8.46116 14.2396 9.02923L13.5656 9.70213C13.2921 9.97519 13.1385 10.3459 13.1388 10.7324L13.1396 11.6848C13.1403 12.4888 12.4883 13.1408 11.6843 13.1401L10.7319 13.1393C10.3454 13.139 9.9747 13.2926 9.70164 13.5661L9.02874 14.2401C8.46068 14.8091 7.53867 14.8091 6.9706 14.2401L6.29771 13.5661C6.02464 13.2926 5.65393 13.139 5.26745 13.1393L4.31505 13.1401C3.51102 13.1408 2.85907 12.4888 2.85972 11.6848L2.8605 10.7324C2.86082 10.3459 2.70726 9.97519 2.43376 9.70213L1.75976 9.02923C1.19076 8.46116 1.19076 7.53916 1.75976 6.97109L2.43376 6.29819C2.70726 6.02513 2.86082 5.65442 2.8605 5.26794L2.85972 4.31554C2.85907 3.51151 3.51102 2.85955 4.31505 2.86021L5.26745 2.86099C5.65393 2.86131 6.02464 2.70775 6.29771 2.43424L6.9706 1.76024Z" stroke="white" stroke-width="1.5"/>
<path d="M6.66699 5.99984C6.66699 5.26346 7.26395 4.6665 8.00033 4.6665C8.73671 4.6665 9.33366 5.26346 9.33366 5.99984C9.33366 6.26527 9.2561 6.51259 9.1224 6.72036C8.72393 7.33962 8.00033 7.93012 8.00033 8.6665V8.99984" stroke="white" stroke-width="1.5" stroke-linecap="round"/>
<path d="M7.99499 11.3335H8.00098" stroke="white" stroke-width="2" stroke-linecap="round" stroke-linejoin="round"/>
</g>
<defs>
<clipPath id="clip0_67_7977">
<rect width="16" height="16" fill="white"/>
</clipPath>
</defs>
</svg>
