<svg width="30" height="40" viewBox="0 0 30 40" fill="none" xmlns="http://www.w3.org/2000/svg">
<rect width="30" height="40" rx="2" fill="#3D96BC"/>
<path d="M6.10938 25.8812V31.7624H20.7478H22.821V26.6785L23.2106 19.8413V15.0912L23.8916 8.23779H9.54817L6.79738 10.9606V14.1191L6.10938 18.6931V25.8812Z" fill="white" stroke="white"/>
<path d="M25.1 10.3125C25.1541 10.5098 25.1226 10.8897 25.1053 11.1034C25.105 11.1071 25.1047 11.1108 25.1044 11.1145C25.1003 11.1628 25.0986 11.2092 25.0966 11.2646C25.0917 11.3991 25.0853 11.5781 25.0407 11.9451C25.0405 11.9772 25.0401 12.0096 25.0398 12.0423C25.0389 12.1165 25.0378 12.1921 25.0362 12.2691C25.0122 13.4398 24.9398 14.6041 24.8576 15.7692C24.8576 15.7841 24.8576 15.7992 24.8575 15.8145C24.8575 16.1052 24.8572 16.4698 24.8312 16.6974C24.7982 16.9874 24.769 17.1828 24.744 17.345C24.6779 18.2697 24.6166 19.1972 24.5793 20.1233C24.5677 20.4136 24.5584 20.7045 24.5521 20.9947C24.5462 21.2627 24.5422 21.5298 24.5397 21.7977C24.549 21.9533 24.5607 22.1023 24.5716 22.2401C24.5868 22.4332 24.6004 22.6055 24.6028 22.7479C24.6089 23.0888 24.5786 23.4762 24.5561 23.7656C24.5524 23.8126 24.5489 23.8569 24.5458 23.8977C24.5485 24.1263 24.5518 24.3555 24.5552 24.5848C24.55 24.6001 24.5446 24.6154 24.5391 24.631C24.4703 24.8246 24.4655 25.0667 24.4579 25.4419C24.4544 25.6102 24.4507 25.7941 24.4405 26.0229C24.4341 26.1681 24.4068 26.2405 24.3845 26.2998C24.378 26.3178 24.3718 26.3347 24.3668 26.3518C24.3495 26.4103 24.3652 26.4725 24.3836 26.5452C24.4076 26.6391 24.4364 26.7516 24.4042 26.9014C24.3866 26.9826 24.3738 27.0551 24.3647 27.1204C24.3206 27.447 24.3653 27.6102 24.4005 27.7431C24.413 27.7895 24.4243 27.831 24.43 27.8733C24.4485 28.0188 24.4215 28.2091 24.3871 28.3632C24.3601 28.48 24.3773 28.7218 24.4026 28.9012C24.4121 28.9714 24.4098 29.0636 24.407 29.1706C24.404 29.2877 24.4008 29.4107 24.4094 29.5552C24.4314 29.9081 24.4412 30.097 24.4491 30.2471C24.4513 30.2909 24.4533 30.3311 24.4554 30.3707C24.4621 30.4966 24.4658 30.655 24.4693 30.8133C24.4735 31.0059 24.4775 31.1954 24.4863 31.3452C24.4566 31.7264 24.4216 32.1063 24.3833 32.4877C24.3636 32.6834 24.2978 32.8684 24.1988 33.0011C24.0997 33.1338 23.9762 33.2041 23.8529 33.197C23.7296 33.19 23.6151 33.1057 23.5317 32.9632C23.4483 32.8207 23.4032 32.632 23.4032 32.4381C23.4033 32.0475 23.4001 31.6564 23.3991 31.265C23.3978 30.7889 23.4003 30.3075 23.4146 29.8329C23.4247 29.4988 23.4372 29.1648 23.4518 28.8289C23.4532 28.7954 23.4548 28.7615 23.4563 28.7274C23.4337 28.4416 23.4133 28.1644 23.4086 27.9668C23.4049 27.7982 23.4239 27.6876 23.4405 27.5833C23.4518 27.5121 23.4619 27.4502 23.4621 27.3887C23.4622 27.3554 23.4615 27.3097 23.4606 27.2539C23.4599 27.2082 23.4591 27.1558 23.4586 27.0978C23.4564 26.8757 23.4586 26.5722 23.4892 26.2887C23.506 26.136 23.5364 25.9527 23.5652 25.7809C23.6065 25.5366 23.6449 25.3038 23.6375 25.1886C23.6245 24.982 23.6449 24.7507 23.6631 24.5419C23.6804 24.344 23.6954 24.1732 23.6771 24.0732C23.6553 23.9532 23.6675 23.8563 23.6857 23.707C23.6984 23.6039 23.7138 23.4763 23.7227 23.3051C23.7331 23.1067 23.7535 22.9648 23.7708 22.8465C23.7951 22.6794 23.8135 22.5507 23.7891 22.3627C23.7621 22.1528 23.7468 21.9319 23.7606 21.7602C23.7669 21.6817 23.7678 21.5917 23.7687 21.4978C23.7699 21.3737 23.7711 21.2439 23.7851 21.125C23.7966 21.0271 23.8224 20.9461 23.8451 20.8751C23.8522 20.8529 23.859 20.8316 23.865 20.811C23.8664 20.7329 23.8677 20.6548 23.8687 20.5767C23.8651 20.5639 23.8611 20.5505 23.857 20.5366C23.8364 20.4664 23.8111 20.3801 23.7999 20.2739C23.7821 20.1057 23.7987 19.9588 23.8163 19.8038C23.8299 19.6831 23.8442 19.5575 23.8432 19.4133C23.8425 19.3151 23.8351 19.2025 23.8277 19.0914C23.8169 18.9264 23.8061 18.7633 23.8176 18.6502C23.8219 18.6078 23.8377 18.5717 23.8534 18.536C23.8535 18.5359 23.8536 18.5357 23.8537 18.5355C23.8548 18.5331 23.8558 18.5307 23.8569 18.5283C23.8513 18.2536 23.8445 17.9767 23.837 17.7011C23.8337 17.6771 23.8304 17.6528 23.8271 17.6288C23.8113 17.5114 23.7958 17.3979 23.7721 17.3237C23.7463 17.2431 23.7346 17.0395 23.7223 16.8281C23.7142 16.6887 23.7058 16.5435 23.6931 16.4264C23.6856 16.3577 23.7025 16.294 23.7199 16.2263C23.7361 16.1637 23.7528 16.0996 23.7505 16.0294C23.7493 15.9943 23.7437 15.9563 23.7377 15.9158C23.7324 15.8802 23.7267 15.8428 23.7236 15.8034C23.7208 15.7663 23.7309 15.684 23.7439 15.5794C23.7519 15.5147 23.7609 15.4416 23.7687 15.3653C23.7633 15.1589 23.7582 14.958 23.7539 14.7517C23.7412 14.7086 23.7243 14.6711 23.7023 14.6414C23.6864 14.6201 23.6674 14.6019 23.6479 14.5832C23.6214 14.5577 23.594 14.5314 23.5724 14.4957C23.5556 14.4677 23.5493 14.4351 23.557 14.4136C23.5606 14.4037 23.5671 14.3955 23.573 14.3884C23.5797 14.3802 23.5857 14.3729 23.5858 14.3639C23.5858 14.3574 23.5812 14.3505 23.5758 14.342C23.567 14.3285 23.5558 14.311 23.5559 14.2847C23.5564 14.187 23.5624 14.0773 23.5683 13.9711C23.5749 13.8493 23.5813 13.7317 23.5797 13.6391C23.5779 13.538 23.5984 13.3829 23.6187 13.2362C23.6328 13.1351 23.647 13.0269 23.6538 12.9379C23.6604 12.8492 23.6526 12.7633 23.6452 12.6707C23.6362 12.5625 23.6274 12.4609 23.6443 12.3765C23.6478 12.3595 23.667 12.3368 23.6911 12.3096C23.7081 12.2901 23.7276 12.2679 23.7456 12.2426C23.7472 12.1656 23.7491 12.09 23.7513 12.0159C23.7524 11.9806 23.7535 11.9457 23.7546 11.9111C23.7522 11.9071 23.7496 11.903 23.7471 11.8989C23.747 11.8988 23.747 11.8987 23.7469 11.8987C23.6891 11.8052 23.6099 11.6837 23.6622 11.507C23.6755 11.4631 23.699 11.4361 23.72 11.4119C23.7408 11.3882 23.7593 11.3675 23.7638 11.3339C23.7688 11.2963 23.7573 11.2521 23.7448 11.2047C23.7272 11.138 23.7075 11.0665 23.7287 10.9898C23.7302 10.9847 23.7318 10.9792 23.7334 10.9735C23.7485 10.9184 23.7708 10.8435 23.8142 10.7628C23.8301 10.528 23.848 10.2899 23.867 10.0568C23.8987 9.66256 23.9336 9.27214 23.9682 8.8799C23.9852 8.6906 24.0455 8.50665 24.1388 8.37469C24.2323 8.24159 24.3496 8.16979 24.4707 8.16895C24.592 8.16765 24.7088 8.2488 24.7976 8.38564C24.8864 8.522 24.9397 8.70862 24.9494 8.89878C24.9649 9.21123 24.9802 9.52273 24.9937 9.83496C24.9959 9.85153 24.998 9.86835 25 9.88526C25.0146 10.0042 25.0463 10.1218 25.0782 10.2328C25.0855 10.2589 25.0929 10.2855 25.1 10.3125Z" fill="#042A21"/>
<path d="M10.593 14.4857C10.8028 14.3987 11.2029 14.3234 11.4125 14.2525C11.4164 14.2513 11.4203 14.25 11.4242 14.2488C11.4745 14.2328 11.5206 14.215 11.5739 14.1927C11.7005 14.1366 11.8708 14.0722 12.2174 13.8747C12.3112 13.8061 12.4033 13.7327 12.4951 13.6548C12.612 13.5556 12.7279 13.4483 12.8459 13.3341C13.129 13.0694 13.2536 12.6903 13.3564 12.0986C13.3949 11.9252 13.3777 11.7143 13.3317 11.5872C13.3958 11.6058 13.167 11.429 12.8072 11.352C12.8073 11.3508 12.8066 11.3495 12.8045 11.3482C12.8031 11.3484 12.8011 11.3486 12.7985 11.349C12.7768 11.349 12.6792 11.3788 12.5887 11.4423C12.5359 11.475 12.4347 11.5866 12.3632 11.6758C12.1799 11.9036 12.0627 12.1133 11.9694 12.2769C11.7311 12.7894 11.5442 13.3586 11.4174 13.9214C11.3561 14.1804 11.3704 14.4618 11.4571 14.6522C11.4992 14.746 11.66 14.9335 11.8029 15.0793C12.0461 15.3284 12.3172 15.5666 12.5961 15.7928C12.8306 15.9825 13.0728 16.1649 13.3189 16.3344C13.3383 16.3477 13.3578 16.3603 13.3778 16.3725C13.515 16.4438 13.6591 16.4859 13.7991 16.5111C13.9959 16.5465 14.1836 16.5496 14.3419 16.5529C14.7226 16.5626 15.1914 16.5339 15.5669 16.5164C15.581 16.5158 15.5949 16.5152 15.6086 16.5146C15.634 16.5144 15.6591 16.5125 15.6836 16.5091C15.8567 16.4665 16.055 16.3423 16.2383 16.1796C16.254 16.1729 16.27 16.166 16.2863 16.1589C16.4682 16.0783 16.6464 15.9113 16.8822 15.6199C16.9029 15.5943 16.9229 15.5664 16.9419 15.5356C17.0175 15.4142 17.0763 15.2456 17.1213 14.987C17.1392 14.8864 17.1593 14.8094 17.1807 14.7482C17.1921 14.7259 17.2025 14.707 17.2112 14.689C17.2176 14.6757 17.2231 14.6628 17.227 14.6497C17.2405 14.6046 17.2139 14.5576 17.1789 14.5262C17.1618 14.5107 17.1426 14.4989 17.1284 14.4934C17.1719 14.5649 17.1963 14.5485 17.1207 14.5254C17.0089 14.4886 16.8543 14.4905 16.7289 14.4959C16.5804 14.5003 16.4857 14.6347 16.4167 14.7346C16.4078 14.7475 16.3989 14.7604 16.3899 14.7731C16.3811 14.7927 16.3747 14.8102 16.3673 14.8264C16.3356 14.8907 16.2624 15.0182 16.2111 15.1783C16.1671 15.2965 16.179 15.5803 16.2105 15.805C16.2177 15.8584 16.2207 15.9242 16.2223 16.0007C16.2232 16.0278 16.2251 16.0548 16.2292 16.0816C16.2419 16.1585 16.2651 16.2246 16.3587 16.3423C16.3668 16.3525 16.3751 16.363 16.3837 16.3738C16.5434 16.5399 16.7597 16.6404 16.8943 16.705C16.9372 16.7248 16.9779 16.7428 17.0193 16.7601C17.1501 16.8149 17.3186 16.8808 17.4956 16.9404C17.6736 17.0007 17.8602 17.055 18.0177 17.0933L17.8845 17.0674C17.9159 17.0676 17.9479 17.0678 17.9768 17.0677C18.4607 17.1204 18.9468 17.1742 19.458 17.273C19.6999 17.3265 19.9146 17.3945 20.1612 17.61C20.1785 17.6191 20.2222 17.6546 20.2368 17.6675C20.254 17.6957 20.2709 17.7267 20.2843 17.7573C20.3927 18.0665 20.264 18.1665 20.162 18.2214C20.0513 18.2786 19.8873 18.1834 19.7689 18.1824C19.7579 18.1834 19.7478 18.1854 19.736 18.1856L19.7954 18.2308C19.7185 18.2699 19.5026 18.2636 19.3022 18.2419C18.8372 18.189 18.3417 18.1725 17.8449 18.1503C17.8309 18.1497 17.8171 18.1491 17.8034 18.1485C17.7794 18.1456 17.7105 18.1345 17.6879 18.1261C17.0905 17.9446 16.4918 17.7608 15.8975 17.2897C15.7834 17.1932 15.6678 17.0798 15.5647 16.9276C15.4199 16.7344 15.2409 16.3404 15.2559 16.0073C15.2562 15.9208 15.2567 15.8333 15.2582 15.7444C15.259 15.6987 15.26 15.6527 15.2615 15.6063C15.2399 15.2341 15.2299 14.7788 15.4402 14.3839C15.5203 14.2327 15.6285 14.1109 15.7335 14.0252C15.807 13.9669 15.8848 13.9127 15.9655 13.8642C16.0736 13.7994 16.1863 13.7433 16.3143 13.6926C16.3828 13.6657 16.4835 13.631 16.614 13.6134C16.628 13.6115 16.6423 13.6098 16.657 13.6083C16.7508 13.5983 16.8731 13.5808 17.0454 13.5778C17.1327 13.5775 17.2322 13.5785 17.3676 13.607C17.4959 13.6368 17.7079 13.6976 17.8814 13.9215C18.0679 14.1759 18.1166 14.4457 18.1067 14.6884C18.1036 14.7517 18.0957 14.816 18.083 14.8799C18.0457 15.036 18 15.2406 17.9252 15.4474C17.8317 15.7181 17.6679 15.9808 17.5233 16.1408C17.4836 16.1855 17.4503 16.2251 17.4251 16.2591C17.2611 16.4822 17.0235 16.7117 16.7802 16.8897C16.5497 17.0615 16.3103 17.1808 16.1697 17.2591C16.0301 17.3378 15.8837 17.3797 15.6831 17.388C15.6557 17.3882 15.6258 17.3885 15.5948 17.3888C15.465 17.3899 15.3023 17.394 15.0756 17.4056C14.813 17.4186 14.6204 17.4052 14.4571 17.3873C14.2261 17.3603 14.0545 17.3337 13.7836 17.3092C13.4823 17.2823 13.1547 17.1731 12.9364 17.0158C12.9156 17.0012 12.8943 16.9859 12.8725 16.97C12.8033 16.9191 12.7259 16.8646 12.6475 16.808C12.5158 16.7131 12.3799 16.6112 12.265 16.5061C12.1704 16.4195 12.1035 16.3344 12.0451 16.2587C12.027 16.2352 12.0093 16.2123 11.9922 16.1908C11.914 16.126 11.8367 16.0606 11.7594 15.994C11.7444 15.986 11.7288 15.978 11.7121 15.9692C11.6294 15.9257 11.5273 15.8708 11.4157 15.7843C11.2387 15.6462 11.1079 15.4972 10.9747 15.3173C10.9107 15.2281 10.846 15.141 10.7742 14.9971C10.7363 14.917 10.706 14.8365 10.6788 14.7521C10.6303 14.6021 10.5929 14.4299 10.5786 14.2583C10.5634 14.0834 10.5719 13.9106 10.5965 13.7679C10.6061 13.7112 10.6174 13.6575 10.6296 13.6123C10.6446 13.5567 10.6693 13.514 10.6944 13.4702C10.6946 13.47 10.6947 13.4698 10.6948 13.4696C10.6965 13.4667 10.6982 13.4638 10.6999 13.4609C10.7689 13.1036 10.8549 12.751 10.9615 12.4001C10.9682 12.3688 10.9752 12.3372 10.9824 12.3059C11.0174 12.1528 11.0571 12.0038 11.0728 11.9011C11.0901 11.7896 11.1822 11.5287 11.3249 11.2509C11.4186 11.0683 11.5361 10.878 11.6689 10.7163C11.7411 10.6285 11.8363 10.559 11.9521 10.4982C11.9602 10.4941 11.9684 10.4901 11.9767 10.4862C12.0787 10.4377 12.1856 10.3961 12.3075 10.3441C12.3688 10.3181 12.4371 10.2887 12.5172 10.2636C12.5877 10.2415 12.6678 10.2228 12.7579 10.2158C12.813 10.2118 12.918 10.213 13.0549 10.2489C13.0919 10.26 13.1344 10.2731 13.1816 10.2883C13.2684 10.3162 13.3711 10.3506 13.4843 10.3954C13.769 10.4836 14.1843 10.6569 14.4003 11.1119C14.404 11.1199 14.4078 11.128 14.4115 11.1362C14.4558 11.2059 14.493 11.2627 14.53 11.307C14.5564 11.3385 14.5836 11.3649 14.6108 11.3924C14.6479 11.43 14.6856 11.4705 14.7188 11.5318C14.7449 11.5796 14.7599 11.6396 14.7569 11.6809C14.7555 11.7002 14.7505 11.7151 14.7459 11.7288C14.7407 11.7444 14.7359 11.758 14.7372 11.7743C14.7381 11.7861 14.7435 11.7979 14.7499 11.8126C14.7601 11.8363 14.7731 11.8674 14.774 11.9154C14.7762 12.0425 14.7652 12.1818 14.7406 12.32C14.7334 12.359 14.7259 12.3992 14.7181 12.44C14.6884 12.5972 14.6534 12.7636 14.6239 12.9024C14.5915 13.0569 14.511 13.2838 14.3922 13.5069C14.3102 13.6626 14.2102 13.8133 14.1177 13.9371C14.0276 14.0584 13.9335 14.1857 13.8328 14.2997C13.8267 14.3066 13.8206 14.3134 13.8144 14.3203C13.7252 14.4228 13.6336 14.5216 13.5375 14.5886C13.517 14.6029 13.4817 14.6093 13.4371 14.6172C13.4053 14.6228 13.3694 14.6288 13.3307 14.6387C13.2119 14.7395 13.0868 14.8369 12.956 14.9281C12.9529 14.9334 12.9497 14.9389 12.9465 14.9444C12.9464 14.9445 12.9464 14.9446 12.9464 14.9447C12.8743 15.0681 12.7627 15.2428 12.5088 15.3254C12.4453 15.3456 12.3969 15.3446 12.3551 15.3426C12.3137 15.3407 12.2764 15.3389 12.2323 15.3555C12.1825 15.3743 12.1295 15.4119 12.0715 15.4512C11.9892 15.5068 11.8955 15.5661 11.7859 15.5836C11.7784 15.5848 11.7701 15.5861 11.762 15.5873C11.6839 15.5996 11.5666 15.6155 11.4463 15.6056C11.1193 15.6854 10.7914 15.73 10.4674 15.75C10.335 15.7581 10.2047 15.7621 10.0725 15.7627C9.69208 15.763 9.31327 15.7601 8.93354 15.7549C8.68845 15.7515 8.45193 15.7029 8.27706 15.6172C8.10164 15.5315 7.99908 15.4164 8 15.295C7.99528 15.174 8.08906 15.055 8.25672 14.9586C8.42366 14.8624 8.65276 14.7974 8.89408 14.7743C9.26799 14.7388 9.64142 14.701 10.0164 14.6628C10.0339 14.661 10.0513 14.6591 10.0685 14.6571C10.0874 14.6535 10.1063 14.6498 10.1249 14.6463C10.2649 14.6197 10.3889 14.5726 10.5104 14.5214C10.538 14.5097 10.5652 14.4977 10.593 14.4857Z" fill="#042A21"/>
<path d="M11.4383 23.7743C11.6149 23.8277 11.9064 24.0389 12.0744 24.1544C12.0774 24.1565 12.0805 24.1586 12.0836 24.1607C12.1234 24.1882 12.162 24.2122 12.2075 24.2403C12.2588 24.2719 12.3181 24.3083 12.3981 24.3605C12.4786 24.4136 12.5797 24.4823 12.7231 24.5721C12.8072 24.6103 12.8903 24.6452 12.975 24.6781C13.7061 24.968 14.451 24.9802 15.3021 24.772C15.4504 24.7406 15.5926 24.6819 15.7326 24.5918C15.7409 24.5852 15.7494 24.5784 15.7579 24.5714C15.9238 24.4391 16.1066 24.2089 16.2339 24.058C16.3969 23.8676 16.5054 23.7189 16.595 23.5969C16.7365 23.361 16.8681 23.1085 16.9992 22.8479C17.0804 22.6892 17.1035 22.5749 17.093 22.3062C17.1216 22.3702 17.0746 22.2433 16.9604 22.1582C16.8506 22.0654 16.7074 21.9758 16.5571 21.8939C16.4492 21.8352 16.3359 21.7797 16.2201 21.7266C16.1256 21.6826 16.0092 21.6534 15.8843 21.6394C15.6707 21.6156 15.4343 21.6333 15.2083 21.6808C15.0789 21.719 14.9595 21.7685 14.8686 21.8188C14.8328 21.8387 14.801 21.8593 14.7828 21.8751C14.7593 21.9028 14.7478 21.9291 14.7248 21.972C14.6439 22.1129 14.5496 22.489 14.4931 22.7555C14.4897 22.7712 14.4864 22.7868 14.4831 22.8022C14.4773 22.8295 14.472 22.8552 14.4671 22.8793C14.4452 23.0906 14.4338 23.3011 14.4399 23.5028C14.4349 23.5162 14.4297 23.5288 14.4246 23.5431C14.3624 23.7129 14.3638 23.9338 14.4535 24.2202C14.4945 24.3459 14.5537 24.4748 14.6598 24.6507C14.6959 24.711 14.7207 24.7629 14.7374 24.808C14.743 24.8335 14.7461 24.8559 14.7501 24.8767C14.7525 24.8896 14.7554 24.9019 14.7597 24.9137C14.7746 24.9544 14.8197 24.9746 14.8752 24.9944C14.948 25.0205 15.0382 25.0464 15.1386 25.1401C15.2072 25.204 15.2754 25.2561 15.339 25.2989C15.5407 25.4337 15.7109 25.4375 15.8285 25.4404C15.8727 25.4409 15.9157 25.4419 15.9553 25.4473C16.0864 25.4659 16.2624 25.5391 16.3954 25.6055C16.5002 25.6584 16.7321 25.692 16.9106 25.7023C16.978 25.7063 17.0661 25.7263 17.1705 25.7492C17.2785 25.773 17.4032 25.7998 17.5406 25.8156C17.886 25.8549 18.0713 25.8749 18.2193 25.8914C18.2618 25.8961 18.3009 25.9004 18.3403 25.9046C18.465 25.9179 18.6185 25.9384 18.7746 25.9589C18.8596 25.97 18.9449 25.9811 19.0269 25.9912C19.0376 25.9925 19.0687 26.0012 19.0792 26.0036C19.1807 26.0262 19.2763 26.048 19.3584 26.0655C19.7363 26.2024 20.1071 26.351 20.493 26.5841C20.6195 26.6629 20.736 26.7642 20.8356 26.9116C20.8399 26.9152 20.8514 26.9277 20.8556 26.9316C20.8998 27.0107 20.9423 27.1191 20.9465 27.1964C20.9557 27.4061 20.8606 27.509 20.7502 27.5603C20.6371 27.6116 20.4936 27.5696 20.366 27.5274C20.3189 27.5131 20.2883 27.5194 20.2442 27.5062L20.2605 27.5224C20.1959 27.5167 20.1052 27.4842 20.0136 27.4404C19.7158 27.2983 19.3543 27.1892 18.9965 27.0939C18.9245 27.0748 18.8539 27.0569 18.781 27.0387L18.8283 27.0499C18.432 26.99 18.0357 26.9235 17.6404 26.8431C17.31 26.7759 16.98 26.7026 16.6491 26.6193C16.6148 26.6106 16.5808 26.6019 16.5471 26.5932C16.2598 26.5556 15.9731 26.5074 15.7678 26.4555C15.5994 26.4132 15.4811 26.356 15.3796 26.3042C15.3108 26.2689 15.2476 26.2352 15.1798 26.2082C15.1439 26.1938 15.0938 26.1744 15.0302 26.1465C14.9946 26.1309 14.952 26.1112 14.9084 26.089C14.6991 25.976 14.3545 25.8317 14.0609 25.4484C14.028 25.4034 13.9962 25.3537 13.9672 25.3006C13.9152 25.1931 13.8444 25.0512 13.7857 24.9001C13.6716 24.617 13.6316 24.331 13.5961 24.1996C13.5296 23.9639 13.5293 23.6924 13.5475 23.467C13.5644 23.249 13.5941 23.0684 13.5852 22.9624C13.577 22.8625 13.5904 22.7771 13.6161 22.6691C13.6228 22.6413 13.6302 22.6128 13.6384 22.5811C13.6658 22.4778 13.6983 22.3502 13.7439 22.1677C13.7976 21.956 13.8676 21.7992 13.9475 21.6665C14.0594 21.489 14.1744 21.3382 14.4016 21.1802C14.409 21.1751 14.4165 21.17 14.4242 21.1649C14.6572 21.0127 14.8869 20.9393 15.0811 20.9113C15.1688 20.8993 15.2681 20.8831 15.3731 20.8716C15.5119 20.8562 15.6609 20.8495 15.7984 20.8671C15.9117 20.8814 16.0042 20.9165 16.0835 20.9513C16.1084 20.9622 16.1318 20.973 16.1547 20.9834C16.2447 21.0017 16.3353 21.0264 16.4257 21.0601C16.4416 21.062 16.4586 21.0642 16.4764 21.0668C16.4876 21.0685 16.4992 21.0703 16.5112 21.0725C16.58 21.0811 16.6622 21.0939 16.7552 21.1256C16.9238 21.1834 17.0589 21.2695 17.1987 21.3725C17.3078 21.4541 17.4196 21.5414 17.5573 21.6638C17.6491 21.7494 17.769 21.856 17.8532 22.0508C17.8794 22.1137 17.8991 22.1858 17.906 22.2618C17.924 22.377 17.9381 22.5315 17.9213 22.644C17.9139 22.6983 17.893 22.7441 17.8706 22.7875C17.8705 22.7877 17.8704 22.7879 17.8702 22.7881C17.8687 22.7911 17.8672 22.7941 17.8657 22.797C17.847 22.932 17.8098 23.0651 17.7595 23.1886C17.6968 23.3471 17.6328 23.5076 17.5647 23.6689C17.5576 23.6927 17.5503 23.7167 17.5428 23.7405C17.5067 23.8571 17.4685 23.9709 17.4542 24.0519C17.4388 24.1396 17.3517 24.3367 17.2386 24.5441C17.165 24.6798 17.0796 24.8194 17.0064 24.9358C16.9637 25.0039 16.9021 25.053 16.8371 25.101C16.7764 25.1459 16.7129 25.1901 16.6547 25.2511C16.6257 25.2815 16.5961 25.3175 16.5634 25.3551C16.5344 25.3884 16.5028 25.4231 16.4665 25.4567C16.4328 25.4877 16.3466 25.5441 16.2284 25.6055C16.1553 25.6434 16.0701 25.6829 15.9787 25.7197C15.8629 25.7805 15.7408 25.8319 15.6149 25.8725C15.5137 25.906 15.4105 25.9382 15.3052 25.9681C15.2639 25.9921 15.2286 26.0184 15.2024 26.0475C15.1836 26.0684 15.1685 26.0916 15.1527 26.1153C15.1312 26.1475 15.1087 26.1808 15.0734 26.2105C15.0458 26.2337 15.0105 26.2474 14.9843 26.2448C14.9722 26.2435 14.9622 26.2389 14.9531 26.2346C14.9427 26.2298 14.9336 26.2254 14.9235 26.2273C14.9163 26.2287 14.9096 26.2345 14.9012 26.2416C14.8878 26.253 14.8703 26.2677 14.8405 26.2727C14.7303 26.2914 14.6021 26.3035 14.4752 26.3101C14.3339 26.3177 14.1951 26.3181 14.0837 26.3211C13.9589 26.325 13.7804 26.3005 13.6059 26.2632C13.4841 26.2375 13.3637 26.2061 13.2613 26.181C13.1607 26.1564 13.0547 26.1416 12.9511 26.1233C12.8285 26.1019 12.7094 26.0753 12.6195 26.0276C12.6013 26.0179 12.5836 25.9917 12.5619 25.9587C12.5465 25.9353 12.5298 25.9087 12.5092 25.8819C12.3913 25.8362 12.2782 25.7865 12.166 25.7317C12.1609 25.7321 12.1556 25.7325 12.1504 25.7329C12.1503 25.733 12.1502 25.733 12.1502 25.733C12.0344 25.7438 11.8661 25.7514 11.72 25.6114C11.7071 25.599 11.6968 25.5866 11.6883 25.5744C11.6742 25.5524 11.6661 25.5309 11.6585 25.5109C11.6474 25.4809 11.637 25.4538 11.6107 25.4339C11.5812 25.4114 11.5365 25.3994 11.4885 25.3866C11.4205 25.3681 11.345 25.3475 11.2897 25.2908C11.2859 25.287 11.2819 25.2828 11.2778 25.2785C11.2373 25.2375 11.1787 25.1772 11.1309 25.098C10.9305 24.9591 10.7308 24.8138 10.5311 24.6464C10.3728 24.5109 10.2133 24.3725 10.0526 24.1556C9.93037 23.9797 9.81176 23.7985 9.70006 23.6121C9.59595 23.4386 9.53869 23.2398 9.54753 23.0683C9.55569 22.8963 9.62984 22.7702 9.74193 22.7243C9.85352 22.6768 9.98458 22.6868 10.1227 22.747C10.2606 22.8074 10.3956 22.9161 10.5072 23.0539C10.6269 23.202 10.7552 23.349 10.887 23.4928C10.9219 23.5259 10.9808 23.575 11.0471 23.623C11.0585 23.6296 11.0698 23.6359 11.0814 23.6426C11.1674 23.6921 11.2666 23.7235 11.368 23.7536C11.391 23.7603 11.4149 23.7674 11.4383 23.7743Z" fill="#042A21"/>
</svg>
