<svg width="30" height="40" viewBox="0 0 30 40" fill="none" xmlns="http://www.w3.org/2000/svg">
<rect width="30" height="40" rx="2" fill="#189271"/>
<path d="M9.14048 10.7855C10.113 11.1184 11.3081 11.6026 11.9338 11.8483C11.9899 11.2396 12.0282 10.4848 12.1643 9.7899L12.1779 9.75882C12.5048 9.01175 12.8514 8.21942 13.7052 7.69765C14.5615 7.1743 15.3067 6.92346 16.0948 7.16875C16.5165 7.29997 16.9872 7.64279 17.5298 8.19351C18.1138 8.78633 18.8975 9.6071 19.3115 9.39261C19.4702 9.31041 19.6392 8.91826 19.9791 8.4768C20.3793 7.95694 20.9017 7.26063 21.5182 7.26945C22.4934 7.28339 23.3281 7.31028 23.9582 7.90313C25.0531 8.93324 25.8625 9.70868 25.9196 10.9806C25.9686 12.0698 26.019 13.3268 25.6831 14.1958C25.402 14.9227 23.2106 16.5783 23.87 17.111C24.1944 17.3731 24.8826 17.5378 25.2418 18.2606C25.4319 18.643 25.5988 20.1455 25.2369 21.1388C25.1363 21.415 24.6202 22.5931 23.6303 24.0265C23.1477 24.7253 22.9365 24.951 22.7645 25.0589C22.5914 25.1674 22.4066 25.3067 22.0683 25.2792C20.6644 25.1649 19.6623 24.7238 19.3471 24.9103C19.1952 25.0001 19.1965 25.4802 18.6755 26.5814C18.2055 27.5749 17.9477 28.0605 17.2555 28.4511C16.0815 29.1136 14.9961 29.4832 13.6591 28.9633C12.7342 28.6036 11.9339 28.2197 11.3834 27.2298C10.5709 25.7689 9.9678 24.7924 9.75398 24.9005C9.60909 24.9738 9.42174 25.1432 9.24425 25.2458C8.68964 25.5663 8.1544 25.9506 6.70594 25.6878C5.74625 25.5137 5.11404 25.3964 4.6679 24.7849C4.34552 24.343 4.04322 23.7944 4.04592 22.9515C4.04932 21.8852 4.0607 20.8122 4.33007 20.1324C4.57679 19.5097 4.79464 18.985 5.12336 18.6598C5.78511 18.0053 6.27818 17.6478 6.91464 17.5121C7.05836 17.4814 7.16115 17.4588 7.048 17.343C6.68162 16.968 6.10336 16.5327 5.80686 16.034C5.45352 15.4397 5.19411 14.645 5.50859 14.0117C5.85638 13.3113 6.71613 11.6136 7.8855 10.9791C8.1944 10.8115 8.65661 10.6198 9.14048 10.7855Z" fill="white"/>
<path d="M12.3571 12.0038C12.25 11.993 10.4831 11.2451 9.14048 10.7855C8.65661 10.6198 8.19439 10.8115 7.8855 10.9791C6.71613 11.6136 5.85638 13.3113 5.50859 14.0117C5.19411 14.645 5.45352 15.4397 5.80686 16.034C6.10336 16.5327 6.68162 16.968 7.048 17.343C7.16115 17.4588 7.05836 17.4814 6.91464 17.5121C6.27818 17.6478 5.78511 18.0053 5.12336 18.6598C4.79464 18.985 4.57679 19.5097 4.33007 20.1324C4.0607 20.8122 4.04932 21.8852 4.04592 22.9515C4.04322 23.7944 4.34552 24.343 4.6679 24.7849C5.11404 25.3964 5.74625 25.5137 6.70594 25.6878C8.1544 25.9506 8.68964 25.5663 9.24425 25.2458C9.42174 25.1432 9.60909 24.9738 9.75398 24.9005C9.9678 24.7924 10.5709 25.7689 11.3834 27.2298C11.9339 28.2197 12.7342 28.6036 13.6591 28.9633C14.9961 29.4832 16.0815 29.1136 17.2555 28.4511C17.9477 28.0605 18.2055 27.5749 18.6755 26.5814C19.1965 25.4802 19.1952 25.0001 19.3471 24.9103C19.6623 24.7238 20.6644 25.1649 22.0683 25.2792C22.4066 25.3067 22.5914 25.1674 22.7645 25.0589C22.9365 24.951 23.1477 24.7253 23.6303 24.0265C24.6202 22.5931 25.1363 21.415 25.2369 21.1388C25.5988 20.1455 25.4319 18.643 25.2418 18.2606C24.8826 17.5378 24.1944 17.3731 23.87 17.111C23.2106 16.5783 25.402 14.9227 25.6831 14.1958C26.019 13.3268 25.9686 12.0698 25.9196 10.9806C25.8625 9.70868 25.0531 8.93324 23.9582 7.90313C23.3281 7.31028 22.4934 7.28339 21.5182 7.26945C20.9017 7.26063 20.3793 7.95694 19.9791 8.4768C19.6392 8.91826 19.4702 9.31041 19.3115 9.39261C18.8975 9.6071 18.1138 8.78633 17.5298 8.19351C16.9872 7.64279 16.5165 7.29997 16.0948 7.16875C15.3067 6.92346 14.5615 7.1743 13.7052 7.69765C12.8395 8.22667 12.4952 9.0338 12.1643 9.7899C12.016 10.5472 11.9837 11.3756 11.9182 12.0086C11.9037 12.1654 11.8967 12.3625 11.8895 12.5656" stroke="white" stroke-width="2"/>
<path d="M10.3378 18.8189C10.6057 18.6316 10.9039 18.4739 10.9988 18.3619C11.0029 18.3618 11.0114 18.3554 11.0206 18.3445C11.0216 18.3433 11.0226 18.342 11.0237 18.3406C11.0378 18.3224 11.0517 18.2938 11.0669 18.2487C11.1005 18.1317 11.1616 17.9648 11.1827 17.3185C11.1801 17.2579 11.1767 17.1972 11.1759 17.1088C11.1709 17.3115 11.2874 17.4933 11.3319 17.5354C11.3813 17.5875 11.3828 17.5794 11.3615 17.5676C11.3516 17.5615 11.3369 17.5528 11.3187 17.5428C11.2112 17.4783 11.0754 17.4826 11.0055 17.5109C10.373 17.7825 10.2552 17.9408 10.1321 18.4559C10.0073 19.0486 10.3422 19.5533 11.0971 20.3394C11.1188 20.3622 11.1418 20.3866 11.1654 20.4124C11.2111 20.4624 11.2616 20.5199 11.3141 20.5875C11.4771 20.8072 11.8123 20.9571 12.1123 21.0527C12.4259 21.1569 12.7134 21.2097 12.9522 21.2553C12.9957 21.2664 13.0371 21.2738 13.0777 21.2782C13.3245 21.2839 13.632 21.1551 13.9707 20.936C14.3216 20.7392 14.604 20.1677 14.8591 19.5703C15.0801 19.0624 15.3064 18.407 15.2749 18.1139C15.2735 18.1021 15.2718 18.0969 15.2742 18.1017C15.2665 18.0787 15.1538 17.8889 15.0772 17.7795C15.0354 17.7182 14.992 17.658 14.9512 17.6063C14.9311 17.5808 14.9109 17.5567 14.8968 17.5413C14.9004 17.5323 14.8151 17.4985 14.9898 17.5896C15.1918 17.647 15.1498 17.608 15.1564 17.6168C15.1507 17.6176 15.1304 17.6227 15.1089 17.6301C15.0649 17.645 15.0121 17.6686 14.9662 17.694C14.9115 17.7232 14.8588 17.7652 14.8557 17.7707C14.8955 17.6946 14.6784 18.2609 14.6996 18.1775C14.7005 18.2775 14.7079 18.3667 14.7238 18.46C14.7638 18.6291 14.8453 18.8617 14.8996 19.0904C14.8969 19.0532 14.8869 19.0274 14.8853 19.0183C14.8902 19.0133 15.2159 19.182 15.4298 19.2591C15.4677 19.2745 15.5069 19.2905 15.5473 19.3073C15.9105 19.4641 16.4698 19.4737 16.9107 19.4107C16.988 19.4005 17.0614 19.3889 17.1302 19.3768C17.2537 19.3462 17.3785 19.3113 17.5051 19.2735C17.5928 19.2462 17.8384 19.0888 18.0423 18.9325C18.0677 18.9225 18.0934 18.9124 18.1199 18.9018C18.2979 18.8312 18.4841 18.7174 18.7079 18.5616C18.8681 18.4516 19.0406 18.2982 19.2243 18.0843C19.3983 17.8815 19.5823 17.6241 19.7692 17.2939C19.8886 17.0809 19.9704 16.9785 20.0386 16.8944C20.0584 16.8698 20.0772 16.8456 20.0942 16.8215C20.1514 16.7393 20.1709 16.6341 20.1877 16.5127C20.1879 16.5099 20.1882 16.5072 20.1884 16.5044C20.1987 16.3714 20.1964 16.2017 20.2627 15.9609C20.3529 15.6245 20.37 15.3389 20.3694 15.1151C20.3621 15.0429 20.2973 15.045 20.1499 14.9553C20.148 14.9542 20.146 14.953 20.144 14.9519C20.1104 14.9455 20.0838 14.9475 20.0571 14.9445C19.9866 14.9339 19.8134 14.8927 19.5407 14.8891C19.5589 14.8839 19.593 14.8742 19.6296 14.8534C19.704 14.8164 19.7529 14.7321 19.7183 14.7794C19.6869 14.8062 19.5944 15.1754 19.5691 15.4085C19.5545 15.5186 19.5201 15.6621 19.48 15.8327C19.4763 15.8485 19.4726 15.8644 19.469 15.8804C19.4263 16.0674 19.385 16.2835 19.378 16.5102C19.3654 17.0808 19.4522 17.33 19.5188 17.5445C19.5393 17.6049 19.5604 17.6612 19.5836 17.7181C19.6237 17.8169 19.674 17.9313 19.7342 18.0598C19.7382 18.06 19.7875 18.1338 19.8538 18.2074C20.0352 18.413 20.2989 18.6582 20.4967 18.8326C20.5102 18.8471 20.5238 18.8618 20.5376 18.8766C20.8868 19.2562 21.2948 19.5596 21.7856 19.8056L21.7362 19.7851C21.7934 19.8091 21.8522 19.8325 21.9119 19.8551C22.2153 19.9705 22.5103 20.1201 22.7208 20.2897C22.7414 20.3063 22.7611 20.323 22.7797 20.3397L22.7691 20.3377C22.9251 20.4854 23.0165 20.6281 23.0131 20.7779C23.0076 20.9248 22.8738 21.0701 22.6223 21.1417C22.5886 21.1477 22.5618 21.1546 22.5338 21.1608C22.2482 21.224 21.873 21.2079 21.4969 21.0961C21.4229 21.074 21.3486 21.0507 21.2741 21.0256C21.2659 21.0221 21.2407 21.0125 21.2327 21.0084C20.6183 20.7567 20.0071 20.3772 19.508 19.8933C19.4749 19.8616 19.4421 19.8302 19.4094 19.7987C19.091 19.4623 18.7752 19.2773 18.422 18.5987C18.2246 18.1552 18.0567 17.5869 18.0446 17.0391C18.0268 16.5043 18.1093 16.0037 18.224 15.5341C18.2675 15.3577 18.3127 15.1815 18.3636 15.0002C18.382 14.9348 18.4012 14.8689 18.4217 14.8019C18.4773 14.591 18.4762 14.4405 18.6736 14.0827C18.7046 14.0336 18.7708 13.9158 18.927 13.7936C19.0829 13.6697 19.292 13.6085 19.4278 13.5968C19.6499 13.5601 19.9698 13.5309 20.2604 13.5898C20.5602 13.645 20.8399 13.8011 21.0217 13.9811C21.0927 14.054 21.182 14.1461 21.2709 14.2692C21.4221 14.4677 21.5364 14.7777 21.5458 15.0316C21.5479 15.0645 21.549 15.0998 21.5487 15.1369C21.5489 15.1936 21.5495 15.2637 21.5495 15.3455C21.5392 15.6958 21.5773 16.2352 21.3295 16.9312C21.2726 17.0759 21.2088 17.2196 21.1392 17.3575C20.9947 17.6445 20.7919 17.9627 20.5687 18.2476C20.2527 18.6579 19.8876 18.986 19.7133 19.163C19.6144 19.2657 19.5011 19.3656 19.3775 19.4579C19.1607 19.6197 18.9261 19.7816 18.6937 19.9298C18.3947 20.1182 18.1079 20.2885 17.8055 20.3903C17.7864 20.3974 17.7681 20.4046 17.7511 20.4118C17.5381 20.5011 17.339 20.537 17.0362 20.5679C16.8252 20.5873 16.5641 20.609 16.1938 20.5971C15.7648 20.5802 15.4506 20.4802 15.2029 20.3647C15.1698 20.3492 15.1379 20.3333 15.1067 20.3171C14.8633 20.1799 14.6571 20.0991 14.2967 19.8813C14.1472 19.7785 13.9316 19.6242 13.8501 19.277C13.7955 19.0618 13.7185 18.8381 13.6899 18.5758C13.6766 18.4527 13.6675 18.3147 13.6672 18.1775C13.6813 17.9602 13.7031 17.9557 13.7211 17.8764C13.7597 17.7461 13.8016 17.6312 13.8512 17.513C13.8761 17.4542 13.9028 17.3954 13.9348 17.3334C13.9758 17.2635 13.9751 17.2311 14.1078 17.0762C14.1201 17.0637 14.1327 17.0517 14.1449 17.0406C14.3846 16.8381 14.5593 16.8042 14.7335 16.7604C14.7876 16.7487 14.8407 16.7394 14.8966 16.7317C14.9978 16.7195 15.0211 16.6513 15.3298 16.7317C15.5349 16.8353 15.5185 16.8652 15.5732 16.9117C15.6128 16.954 15.6451 16.9925 15.6761 17.0307C15.6968 17.0485 15.7186 17.0672 15.7409 17.0868C15.8519 17.1852 15.9781 17.3007 16.1093 17.4817C16.1535 17.5469 16.1864 17.5846 16.245 17.7144C16.4045 18.1711 16.3061 18.4154 16.253 18.6778C16.1882 18.9282 16.103 19.163 16.0171 19.432C15.9642 19.5969 15.9071 19.781 15.8464 19.9643C15.8398 19.9842 15.8333 20.0039 15.8268 20.0235C15.7285 20.3207 15.6167 20.6224 15.4977 20.8241C15.4535 20.8996 15.3989 20.957 15.3433 21.0124C15.343 21.0126 15.3427 21.0128 15.3425 21.013C15.3387 21.0168 15.3349 21.0206 15.3311 21.0244C15.1667 21.3217 14.9341 21.6363 14.613 21.8676C14.4319 22.0006 14.2346 22.1342 14.0075 22.2481C13.9611 22.2753 13.9126 22.3019 13.863 22.327C13.6217 22.452 13.3416 22.5302 13.1512 22.5724C13.0808 22.589 12.9709 22.6028 12.8344 22.6005C12.6414 22.6018 12.3733 22.59 12.0806 22.5525C11.79 22.5161 11.4727 22.4477 11.2031 22.3567C11.0454 22.3041 10.9073 22.2113 10.7748 22.1026C10.651 22.0009 10.5318 21.8858 10.3972 21.7643C10.3295 21.703 10.2558 21.6373 10.1816 21.5612C10.1611 21.5402 10.1404 21.5183 10.1198 21.4954C10.1012 21.4798 10.077 21.4585 10.0496 21.4328C10.0136 21.3985 9.93575 21.2993 9.80744 21.1495C9.72923 21.0575 9.63488 20.9476 9.53382 20.8255C9.24227 20.5273 8.94086 20.164 8.73805 19.7035C8.68127 19.6136 8.62899 19.5337 8.57825 19.4713C8.54184 19.4265 8.50434 19.3879 8.46692 19.3478C8.41602 19.2926 8.36409 19.2324 8.31839 19.1407C8.28248 19.0684 8.26233 18.9795 8.26655 18.9171C8.26851 18.8887 8.27536 18.8665 8.28168 18.8465C8.28895 18.8235 8.29561 18.8032 8.29428 18.7787C8.29332 18.7611 8.28641 18.7428 8.27833 18.7209C8.26548 18.6858 8.24907 18.6392 8.25021 18.5672C8.25219 18.4469 8.263 18.32 8.28276 18.1915C8.3051 18.046 8.33859 17.895 8.38402 17.745C8.47584 17.4354 8.628 17.1335 8.77575 16.9098C8.93601 16.6548 9.26094 16.3468 9.60664 16.1542C9.84169 16.0176 10.1 15.9194 10.2315 15.8666C10.2332 15.8659 10.2349 15.8652 10.2365 15.8646C10.5101 15.7442 10.7826 15.6733 11.062 15.651C11.3999 15.6232 11.7387 15.685 11.9839 15.8102C12.0336 15.8353 12.0862 15.8863 12.1449 15.9525C12.1551 15.964 12.1655 15.976 12.1762 15.9884C12.2017 16.0227 12.2319 16.0614 12.2696 16.1056C12.3626 16.1649 12.4725 16.2351 12.6048 16.378C12.7325 16.5108 12.8998 16.7949 12.8941 17.1052C12.8938 17.141 12.8957 17.206 12.8974 17.2695C12.9011 17.2767 12.9048 17.2846 12.9086 17.2918C12.9087 17.2919 12.9088 17.292 12.9089 17.2921C12.9928 17.4608 13.119 17.7235 13.0181 18.131C12.9916 18.2341 12.9518 18.2979 12.9153 18.3542C12.8793 18.4097 12.8464 18.4583 12.8244 18.5363C12.7992 18.625 12.7881 18.7368 12.7623 18.8662C12.7268 19.0459 12.6569 19.2701 12.4868 19.4563C12.4753 19.4688 12.4627 19.4822 12.4493 19.4961C12.4396 19.5062 12.4294 19.5165 12.4187 19.5271C12.3109 19.6307 12.1474 19.7581 11.9683 19.8346C11.4822 20.2 10.9925 20.3376 10.6669 20.4884C10.5985 20.5191 10.5371 20.5491 10.4837 20.5788C10.0164 20.8956 9.24385 21.1779 8.60881 21.1729C8.52579 21.1747 8.44507 21.1762 8.36207 21.1777C8.00286 21.1835 7.65348 21.1252 7.39495 21.0133C7.13669 20.9014 6.98927 20.7465 6.99023 20.5849C6.98707 20.4234 7.12179 20.266 7.36205 20.1354C7.60269 20.005 7.93074 19.9125 8.27655 19.872C8.35647 19.8627 8.43421 19.8533 8.51421 19.8436C8.91763 19.7879 9.20585 19.6698 9.53012 19.4291C9.5507 19.4119 9.57189 19.3941 9.59515 19.3752C9.6172 19.3572 9.6411 19.3375 9.66652 19.3167C9.87828 19.1515 10.0602 19.0248 10.2178 18.9079C10.2595 18.8773 10.2994 18.8476 10.3378 18.8189Z" fill="#042A21"/>
<rect width="30" height="40" rx="2" fill="#B38DC4"/>
<path d="M9.26524 30.7704C9.55808 30.8355 9.83234 30.9368 10.0459 31.0289C10.2604 31.1839 10.3507 31.2521 10.4385 31.3201C10.8833 31.6679 11.4714 32.1657 11.8611 32.6051C12.0184 32.8418 12.1877 33.311 12.0982 33.8542C11.9928 34.4946 11.8765 35.2338 11.4336 35.4425C11.2161 35.545 10.8395 35.6535 10.387 35.5696C9.52449 35.4097 8.33912 35.0633 7.93007 34.4574C7.75089 34.1921 7.58841 33.734 7.67939 33.1704L7.68176 33.1558C7.83614 32.1994 7.97173 31.3595 8.48687 31.0092C8.74448 30.8341 9.01354 30.7144 9.26524 30.7704Z" fill="white"/>
<path d="M9.07409 31.701C9.16511 31.7971 9.23974 31.7303 9.17564 31.7371C9.17491 31.7371 9.17417 31.7371 9.17342 31.7371C9.16342 31.7372 9.15339 31.7409 9.14003 31.7467C9.11829 31.7565 9.08884 31.7698 9.02154 31.7957C9.01747 31.789 9.00993 31.7798 8.99137 31.7754C8.98642 31.7829 8.97775 31.7943 8.96585 31.8112C8.81608 31.9983 8.6286 32.675 8.46427 33.2971C8.45274 33.3312 8.44254 33.3654 8.43374 33.3998C8.43371 33.4054 8.43373 33.411 8.43379 33.4167C8.43368 33.5277 8.45668 33.6533 8.44793 33.7378C8.43595 33.8463 8.43287 33.925 8.43164 33.989C8.44199 34.0272 8.45452 34.0636 8.46705 34.0949C8.52935 34.3009 8.94497 34.5933 9.35707 34.7543C9.5072 34.8155 9.66443 34.8679 9.82511 34.9114C9.97336 34.9516 10.124 34.9849 10.2768 35.0124C10.3508 35.0139 10.4237 35.0122 10.4909 35.009C10.5026 35.0075 10.5139 35.0059 10.525 35.0041C10.6084 34.9909 10.6769 34.9704 10.7322 34.9619C10.864 34.9426 11.0178 34.9375 11.128 34.9153C11.1457 34.9119 11.1619 34.9084 11.1764 34.9049C11.1774 34.9042 11.1784 34.9036 11.1793 34.903C11.1685 34.8966 11.1767 34.8836 11.2001 34.8256C11.2077 34.8256 11.2156 34.8256 11.2239 34.8252C11.3278 34.8181 11.3763 34.7201 11.4269 34.5343C11.4491 34.4526 11.4723 34.3525 11.5032 34.2289C11.523 34.1492 11.564 34.1123 11.5977 34.0821C11.6076 34.0731 11.6168 34.0647 11.6246 34.0559C11.6514 34.0256 11.635 33.9856 11.6156 33.9383C11.5958 33.8899 11.5727 33.8336 11.5894 33.7705C11.5931 33.7581 11.5995 33.7457 11.6094 33.7327C11.7557 33.5292 11.6539 33.4143 11.5848 33.3586C11.5639 33.3407 11.5447 33.3255 11.5323 33.309C11.4927 33.2557 11.5005 33.1699 11.5161 33.0951C11.5301 33.0362 11.4555 32.948 11.3919 32.9264C11.3888 32.9252 11.3859 32.924 11.3832 32.9227L11.4318 32.9858C11.4013 32.9666 11.3709 32.9335 11.335 32.8957C11.2922 32.8506 11.2409 32.7982 11.1728 32.7546C11.0003 32.6446 10.9058 32.5876 10.8305 32.5413C10.809 32.5281 10.7889 32.5159 10.7687 32.5038C10.7049 32.4657 10.629 32.4144 10.5513 32.3632C10.4583 32.3018 10.363 32.2407 10.2847 32.2011C10.1847 32.1017 10.0842 32.0018 9.98298 31.9028C9.92791 31.8486 9.87246 31.7954 9.81179 31.7393C9.72747 31.6609 9.67861 31.5346 9.68177 31.3868C9.68451 31.2387 9.73902 31.0823 9.83467 30.9482C9.93099 30.8146 10.0616 30.7128 10.2023 30.6639C10.3426 30.6148 10.4799 30.6226 10.5876 30.6856C10.664 30.7303 10.744 30.7788 10.8209 30.827C10.9602 30.9151 11.096 31.0042 11.2294 31.0974C11.4811 31.2732 11.7251 31.4626 11.9538 31.6802C12.102 31.8216 12.2466 31.9715 12.387 32.1388C12.3981 32.1551 12.4378 32.1984 12.4465 32.2161C12.4598 32.237 12.4728 32.2584 12.4847 32.2789C12.5017 32.3084 12.5171 32.337 12.5317 32.3656C12.6907 32.5744 12.7965 32.7952 12.8471 32.961C12.8888 33.0979 12.8807 33.2047 12.8709 33.2935C12.8641 33.3546 12.8561 33.4083 12.8597 33.4616C12.8616 33.4905 12.865 33.5297 12.8675 33.5774C12.8731 33.6803 12.8738 33.8233 12.8492 33.9779C12.8343 34.0743 12.8115 34.1814 12.7743 34.2845C12.7392 34.3818 12.6826 34.4952 12.6242 34.6049C12.5413 34.7623 12.452 34.9108 12.4359 34.9987C12.4091 35.153 12.3162 35.3265 12.1948 35.4797C12.081 35.627 11.9357 35.7468 11.8591 35.8342C11.8103 35.8916 11.7505 35.9326 11.6789 35.9632C11.6352 35.981 11.5868 35.9935 11.5305 36.0054C11.4456 36.023 11.3437 36.04 11.2082 36.0637C11.0518 36.0902 10.9378 36.0779 10.844 36.0643C10.7112 36.0438 10.6182 36.022 10.4698 36.045C10.4127 36.0535 10.3541 36.0577 10.2966 36.0571C10.2064 36.0595 10.1195 36.0508 10.0498 36.0271C10.0013 36.0106 9.94385 35.9995 9.8845 35.9874C9.80555 35.9713 9.72278 35.9532 9.65136 35.9191C9.59277 35.891 9.55008 35.8463 9.51297 35.8065C9.50136 35.7941 9.49026 35.7822 9.4794 35.7714C9.43076 35.758 9.38202 35.7442 9.33327 35.7302C9.3239 35.7327 9.31396 35.7356 9.30358 35.7385C9.25155 35.7533 9.18688 35.7707 9.11442 35.7653C8.99962 35.7566 8.91238 35.7056 8.82202 35.6495C8.75149 35.6056 8.67944 35.5588 8.58736 35.5227C8.52483 35.4981 8.4494 35.4761 8.37383 35.451C8.26191 35.4142 8.14928 35.369 8.08499 35.3123C8.06104 35.2913 8.04915 35.259 8.03867 35.2273C8.03865 35.2271 8.03862 35.227 8.03859 35.2268C8.03788 35.2247 8.03714 35.2225 8.03642 35.2204C7.8596 35.114 7.67846 34.9838 7.51513 34.7878C7.50448 34.7785 7.49389 34.7688 7.48341 34.759C7.47753 34.7537 7.47168 34.7483 7.46586 34.7428C7.38937 34.6712 7.32352 34.5975 7.26556 34.5552C7.20213 34.5097 7.11138 34.3584 7.04152 34.1891C6.99495 34.0785 6.95612 33.9606 6.92208 33.863C6.90212 33.8062 6.91665 33.7471 6.93372 33.6893C6.94963 33.6348 6.96759 33.5809 6.96184 33.5225C6.95897 33.4934 6.95052 33.4617 6.94217 33.4277C6.93483 33.3974 6.92752 33.366 6.92426 33.3322C6.92122 33.3015 6.93698 33.2332 6.96214 33.1493C6.97068 33.1205 6.98013 33.0909 6.99036 33.0592C6.99774 33.0398 7.00515 33.0196 7.01227 32.999C7.0196 32.8728 7.02783 32.745 7.03861 32.6149C7.02534 32.5851 7.00627 32.5575 6.97977 32.5338C6.96077 32.5167 6.93725 32.5009 6.91329 32.4844C6.88068 32.462 6.84701 32.4387 6.82201 32.4103C6.80246 32.3881 6.79735 32.3649 6.80955 32.3522C6.81523 32.3462 6.82453 32.3426 6.83295 32.3394C6.84259 32.3356 6.85116 32.3323 6.85206 32.3264C6.85268 32.3221 6.84742 32.3166 6.84106 32.3098C6.83091 32.2989 6.81784 32.2847 6.82069 32.2672C6.83123 32.2024 6.85112 32.1296 6.87223 32.0564C6.89553 31.9755 6.92033 31.8944 6.93288 31.8269C6.94693 31.7511 6.99875 31.6485 7.05673 31.5438C7.09692 31.4713 7.14057 31.3964 7.17386 31.3298C7.20671 31.2638 7.22566 31.1872 7.24921 31.1095C7.27688 31.0172 7.31241 30.9225 7.37528 30.8597C7.38805 30.8469 7.42096 30.8416 7.46197 30.8362C7.49094 30.8325 7.5245 30.8282 7.55797 30.8212C7.62044 30.7324 7.69382 30.6442 7.77984 30.561C7.78041 30.5556 7.78106 30.5501 7.78169 30.5445C7.78169 30.5444 7.78168 30.5443 7.78167 30.5442C7.79263 30.4449 7.82234 30.3059 7.95065 30.2205C7.97249 30.2063 7.99923 30.1957 8.03183 30.1904C8.0725 30.1838 8.10923 30.197 8.14194 30.2092C8.17415 30.2212 8.20262 30.2323 8.22939 30.2226C8.25994 30.2117 8.28499 30.1787 8.31565 30.1425C8.35814 30.0919 8.41333 30.0341 8.4958 30.029C8.50139 30.0287 8.50743 30.0284 8.5137 30.028C8.5729 30.0246 8.6653 30.0209 8.76635 30.0527C8.95465 30.015 9.1893 30.0062 9.42062 30.072C9.46604 30.0871 9.51064 30.1031 9.55455 30.1197C9.82385 30.222 10.0685 30.3491 10.3004 30.4892C10.4134 30.5576 10.4939 30.6807 10.519 30.8299C10.544 30.9793 10.5113 31.1407 10.431 31.2808C10.3518 31.4217 10.2394 31.5372 10.1188 31.6121C9.9977 31.6864 9.87815 31.713 9.77823 31.689C9.61527 31.6493 9.45234 31.6194 9.29665 31.6006C9.28796 31.6015 9.27928 31.6023 9.2707 31.603C9.20692 31.6081 9.14305 31.6386 9.08316 31.6715C9.07612 31.6754 9.06911 31.6793 9.06216 31.6832C9.06596 31.6892 9.06995 31.6952 9.07409 31.701Z" fill="#042A21"/>
<path d="M8.77756 27.8815L5.45508 26.0425L5.73483 23.3731L7.47266 22.5425L9.25213 23.3731L21.4353 23.9877L22.4808 22.5425L23.7859 22.8392L24.735 24.3816V26.9917L22.7774 28.2968L20.7605 29.0086L19.0995 30.4917L15.1249 29.0086H13.3453L10.4979 28.2968L8.77756 27.8815Z" fill="white" stroke="white"/>
<path d="M10.4533 17.7465C10.5623 17.2325 10.9754 16.3284 11.2102 15.8448C11.2144 15.8359 11.2187 15.827 11.2229 15.8181C11.2783 15.7028 11.3281 15.5931 11.3864 15.4652C11.4537 15.3174 11.5332 15.1444 11.6419 14.9158C11.7522 14.6805 11.9093 14.363 12.0555 13.9944C12.0989 13.8511 12.1195 13.7574 12.1253 13.6667C12.1246 13.699 12.1242 13.6205 12.1165 13.5579C12.0323 12.8874 11.8351 12.0531 11.6656 11.2754C11.5231 10.4893 10.9197 9.63726 10.5862 8.48832C10.5376 8.35598 10.5856 8.4012 10.4363 8.25414C10.5451 8.333 10.5439 8.28589 10.3895 8.27126C10.8178 8.28081 10.8686 8.13525 10.9095 8.12208C10.9428 8.09177 10.9382 8.09125 10.9325 8.09766C10.9176 8.11246 10.8828 8.15776 10.8492 8.20619C10.78 8.30558 10.7028 8.42894 10.6269 8.55226C10.4737 8.80224 10.317 9.06591 10.1565 9.32866C10.1133 9.39972 10.0725 9.46536 10.0282 9.53567C10.0083 9.56989 9.98889 9.60288 9.96738 9.63904C9.6429 10.1559 9.26747 10.8414 8.58265 11.2641C8.51873 11.3018 8.47432 11.3483 8.26728 11.3932C8.18492 11.41 8.00744 11.4178 7.84671 11.3541C7.68395 11.2944 7.55178 11.1727 7.48422 11.0753C7.27143 10.7065 7.35213 10.681 7.33249 10.5981C7.33423 10.4777 7.3458 10.4392 7.35369 10.3936C7.37085 10.3106 7.38727 10.2594 7.40337 10.2096C7.43556 10.1128 7.4674 10.0363 7.49908 9.96539C7.59095 9.76224 7.68564 9.59417 7.78439 9.43781C8.05197 9.02541 8.26001 8.73199 8.43775 8.47737C8.79595 7.91601 9.14969 7.35864 9.48964 6.79539C9.61171 6.59301 9.73645 6.39184 9.87456 6.18749C10.0339 5.97418 10.0951 5.80472 10.4722 5.50139C11.6489 4.9302 12.3697 5.33459 13.1611 5.51164C13.856 5.76364 14.1317 6.15237 14.4976 6.46681C14.5261 6.49372 14.553 6.51919 14.5815 6.54617C15.1083 7.05453 15.5724 7.55486 16.0676 8.03166C16.273 8.23043 16.4805 8.42464 16.6909 8.609C16.9771 8.85968 17.2682 9.10632 17.5611 9.34248C17.869 9.57252 18.1712 9.78198 18.4501 9.96021C18.854 10.2197 19.1701 10.3859 19.5067 10.5537C19.5622 10.5894 19.623 10.5969 19.7878 10.7619C20.05 11.0919 20.0033 11.2295 20.0407 11.3403C20.0617 11.4538 20.0756 11.5531 20.089 11.6546C20.115 11.8535 20.1355 12.0474 20.1546 12.2401C20.1997 12.7029 20.233 13.1481 20.2615 13.5239C20.2705 13.643 20.279 13.7552 20.2869 13.8588C20.3578 14.4335 20.429 15.0071 20.503 15.5793C20.5008 15.6185 20.4983 15.6575 20.4957 15.6974C20.4837 15.8874 20.4863 16.0931 20.5007 16.3249C20.5251 16.7024 20.5773 17.1546 20.6659 17.7231C20.7149 18.03 20.7743 18.3678 20.8677 18.7353C20.8954 18.8444 20.9271 18.9571 20.9631 19.0735C21.0648 19.3971 21.1038 19.5724 21.1342 19.7179C21.1433 19.7605 21.1524 19.8007 21.1632 19.8405C21.2006 19.9776 21.2842 20.1032 21.3867 20.249C21.5197 20.4388 21.6843 20.6601 21.8326 21.0046C21.8604 21.0694 21.8884 21.1329 21.9156 21.1937C22.366 22.3797 22.3166 22.8717 22.3999 23.3051C22.4107 23.405 22.4177 23.5001 22.4165 23.5994C22.4063 23.7332 22.3521 23.857 22.2987 23.9373C22.1903 24.096 22.0998 24.1529 22.0393 24.2016C21.7694 24.3793 21.6321 24.3553 21.5235 24.3766C21.4125 24.388 21.3129 24.3913 21.2141 24.3923C21.0176 24.3938 20.8312 24.3841 20.6673 24.3711C20.5411 24.3611 20.3642 24.3621 20.1672 24.3691C19.8875 24.3793 19.566 24.4021 19.2951 24.4269C19.1222 24.4429 18.8875 24.4439 18.6113 24.4444C18.326 24.4449 17.9954 24.4449 17.6422 24.4609C16.7491 24.5013 16.2748 24.5186 15.8932 24.5325C15.7838 24.5364 15.6827 24.5399 15.5816 24.5436C15.3552 24.5518 15.0864 24.5581 14.8086 24.5633C14.6891 24.5654 14.5689 24.5663 14.449 24.566C13.9482 24.5655 13.4361 24.5382 13.0484 24.5119C12.3375 24.4191 11.6761 24.258 11.1235 24.2536C10.8977 24.2499 10.6419 24.2744 10.3516 24.2993C10.1234 24.3179 9.87188 24.325 9.60456 24.2834C9.35352 24.2579 9.09251 24.1259 8.94527 23.9753C8.79354 23.8252 8.72412 23.6809 8.6798 23.5621C8.54684 23.1396 8.62607 22.932 8.75644 22.8376C8.8942 22.7404 9.14455 22.8724 9.40691 23.0473C9.56213 23.1494 9.64468 23.1214 9.66394 23.0817C9.81344 23.0605 9.99932 23.0276 10.2096 22.9985C10.4776 22.962 10.7742 22.9145 11.1001 22.9014C11.9323 22.8743 12.6336 23.0306 13.3109 23.0796C13.8142 23.124 14.3164 23.1426 14.8259 23.1414C15.5048 23.1401 16.1887 23.1395 16.8701 23.1431C17.7157 23.1473 18.5606 23.1533 19.4043 23.1565C19.4913 23.1568 19.5765 23.1571 19.6647 23.1573C19.8284 23.1468 19.9913 23.1361 20.1511 23.1253C20.657 23.0907 21.2685 23.0482 21.4105 23.0098C21.4206 23.0028 21.2973 23.0435 21.2436 23.0861C21.2657 23.0707 21.2648 23.0653 21.2251 23.1064C21.19 23.1421 21.0906 23.2714 21.073 23.4551C21.0941 23.2971 21.1064 23.1302 21.1116 22.988C21.1166 22.8385 21.1134 22.7039 21.0913 22.5727C21.0793 22.5025 21.06 22.4072 21.0305 22.2981C20.9881 22.1406 20.9211 21.9489 20.8322 21.7967C20.5781 21.3545 20.265 20.7905 20.046 20.2099C19.9144 19.8643 19.7939 19.4522 19.7154 19.0367C19.7035 18.9738 19.6924 18.911 19.6821 18.8485C19.5729 18.1788 19.5464 17.5866 19.4914 17.291C19.4441 17.0259 19.4089 16.7406 19.3805 16.4543C19.3535 16.1823 19.3325 15.9086 19.3134 15.6525C19.2762 15.1519 19.2454 14.715 19.1921 14.4703C19.1284 14.1779 19.1154 13.9243 19.0957 13.5478C19.082 13.2873 19.0654 12.9658 19.0243 12.5348C19.0189 12.4784 19.0137 12.4227 19.0091 12.3713C18.9719 11.9669 18.9522 11.6219 18.928 11.4502C18.9194 11.4137 18.9438 11.475 18.9742 11.5008C19.0734 11.5769 18.9468 11.4798 18.8855 11.4482C18.8116 11.4044 18.7335 11.3586 18.6553 11.3123C18.4976 11.2191 18.3334 11.1222 18.1444 11.0146C17.6623 10.7395 17.1967 10.4058 16.8625 10.1142C16.7086 9.97997 16.5316 9.83327 16.3481 9.67743C16.2346 9.5811 16.1233 9.48541 16.0085 9.38325C15.8758 9.26514 15.7488 9.14442 15.6336 9.02518C15.4568 8.84213 15.33 8.67378 15.2189 8.52494C15.1843 8.47848 15.1511 8.43387 15.1187 8.39129C14.9769 8.25116 14.8363 8.11064 14.6963 7.97102C14.6701 7.95195 14.6422 7.93186 14.6135 7.91132C14.4683 7.80711 14.2908 7.67859 14.0914 7.50809C14.0125 7.44081 13.9382 7.375 13.868 7.31247C13.646 7.11487 13.4501 6.91488 13.2548 6.74203C13.1174 6.6215 12.9931 6.52791 12.8734 6.49001C12.7756 6.45921 12.6707 6.43052 12.5617 6.40608C12.3352 6.35527 12.0741 6.31889 11.8287 6.31083C11.4698 6.29104 11.1602 6.37726 11.1112 6.41752C11.113 6.41597 11.1142 6.41478 11.1149 6.41396C11.1139 6.40647 11.0368 6.45812 10.9794 6.50167C10.9791 6.50186 10.9788 6.50204 10.9785 6.50223C10.9743 6.50539 10.9701 6.5087 10.9659 6.51208C10.7938 6.75377 10.6249 7.05552 10.4643 7.35199C10.2966 7.66253 10.1264 7.97056 9.95476 8.27724C9.9282 8.33212 9.90114 8.38759 9.87444 8.44219C9.74348 8.70981 9.6154 8.96875 9.54791 9.14663C9.48074 9.32589 9.25882 9.72943 9.03808 10.155C9.02497 10.181 9.01216 10.2072 8.99961 10.2339C8.95262 10.3339 8.90935 10.4399 8.87747 10.5371C8.86171 10.5851 8.84843 10.6328 8.84315 10.663C8.84068 10.6764 8.84012 10.6908 8.84557 10.6696C8.84697 10.6539 8.85694 10.6489 8.85114 10.5363C8.84897 10.5107 8.84372 10.4587 8.82252 10.3904C8.79147 10.3117 8.76475 10.1761 8.53864 10.0089C8.31257 9.84645 8.01621 9.87588 7.92109 9.9114C7.79438 9.95242 7.76824 9.97673 7.72396 10.0039C7.85862 9.91727 7.79856 9.95388 7.82054 9.93691C7.82772 9.92953 7.83679 9.92018 7.84777 9.90848C7.90496 9.84819 8.0106 9.76825 8.11556 9.67495C8.21551 9.58569 8.3176 9.48377 8.40643 9.34713C8.4499 9.28011 8.49282 9.20082 8.53657 9.11638C8.57568 9.04115 8.61646 8.96027 8.66018 8.87878C8.69218 8.81952 8.76017 8.71776 8.85136 8.57726C8.88315 8.5281 8.91718 8.47568 8.95311 8.42012C9.04152 8.28342 9.14147 8.12721 9.24673 7.95971C9.33424 7.79809 9.42231 7.63523 9.52556 7.46174C9.57875 7.37345 9.63222 7.28576 9.71094 7.17891C9.75165 7.12503 9.79493 7.06779 9.87421 6.99069C9.96804 6.93471 10.0265 6.73908 10.5534 6.74016C10.7295 6.75894 10.9927 6.77476 11.302 6.95715C11.3644 6.98976 11.4248 7.02764 11.4806 7.06876C11.5512 7.11046 11.6294 7.15811 11.7023 7.20359C11.7757 7.24925 11.8466 7.29268 11.9178 7.34402C12.0143 7.41394 12.1141 7.49984 12.2107 7.63382C12.2808 7.73077 12.334 7.84864 12.3539 7.93418C12.3545 7.93798 12.355 7.94169 12.3554 7.94531C12.3578 7.96778 12.3549 7.98643 12.3524 8.00337C12.3495 8.02272 12.347 8.04008 12.3534 8.05844C12.3581 8.07161 12.3686 8.08332 12.3815 8.09754C12.4021 8.12003 12.429 8.15013 12.4489 8.20225C12.5231 8.39749 12.6148 8.62103 12.7214 8.85526C12.8391 9.11463 12.9738 9.39324 13.0856 9.63135C13.2112 9.89477 13.3602 10.3224 13.4455 10.7674C13.4513 10.7966 13.4568 10.8261 13.4622 10.8558C13.5029 11.0935 13.543 11.3282 13.5829 11.5326C13.6261 11.7533 13.6894 11.9812 13.7487 12.2039C13.8201 12.4717 13.8863 12.735 13.9053 12.9767C13.9089 13.0246 13.8941 13.0904 13.874 13.172C13.86 13.2319 13.8432 13.2978 13.8283 13.3795C13.8386 13.4951 13.8531 13.6001 13.8407 13.7995C13.8212 14.0696 13.7516 14.3261 13.6853 14.5299C13.6851 14.5417 13.6847 14.554 13.6843 14.5666C13.6844 14.5668 13.6844 14.567 13.6844 14.5672C13.6775 14.8456 13.6532 15.2099 13.4087 15.6069C13.3932 15.632 13.3777 15.6547 13.3624 15.6754C13.3184 15.7333 13.2769 15.7719 13.2384 15.8081C13.1884 15.8541 13.1433 15.896 13.1052 15.9688C13.0617 16.0521 13.0326 16.1578 13.0007 16.2738C12.9559 16.4366 12.9067 16.6174 12.8085 16.7767C12.8018 16.7876 12.7946 16.7993 12.7871 16.8116C12.7163 16.9273 12.6121 17.0987 12.4841 17.2586C12.2426 17.7924 12.0113 18.3271 11.7998 18.866C11.7822 18.9109 11.7647 18.9558 11.7474 19.0007C11.4175 19.859 11.1231 20.7423 10.8634 21.6325C10.7795 21.921 10.679 22.1979 10.5726 22.4361C10.5099 22.5793 10.4439 22.7083 10.3756 22.8208C10.1883 23.1313 10.0068 23.2702 9.84812 23.2697C9.68475 23.2377 9.56441 23.009 9.51464 22.6459C9.49633 22.5125 9.48781 22.3652 9.48908 22.2065C9.49242 21.9272 9.52898 21.6208 9.59426 21.3142C9.7633 20.5251 9.95738 19.7447 10.1848 18.9665C10.1949 18.9251 10.2052 18.8836 10.2158 18.8423C10.2457 18.7252 10.2722 18.6103 10.297 18.4965C10.3374 18.3109 10.3731 18.1294 10.4105 17.9483C10.4244 17.8809 10.4385 17.8139 10.4533 17.7465Z" fill="#042A21"/>
<path d="M17.9122 14.5967C17.7846 14.6808 17.5323 14.6654 17.3954 14.6595C17.3928 14.6594 17.3903 14.6594 17.3878 14.6593C17.3553 14.6578 17.3252 14.6593 17.2894 14.6613C17.2064 14.6664 17.0882 14.6716 16.8621 14.6524C16.7982 14.6632 16.7385 14.6737 16.6837 14.684C16.6085 14.6942 16.4923 14.7371 16.5864 14.6949C16.4231 14.7306 15.9926 15.2664 15.7077 15.8265C15.7048 15.8342 15.702 15.8418 15.6992 15.8494C15.6993 15.8492 15.6995 15.8491 15.6996 15.8489C15.7056 15.8356 15.6933 15.9942 15.6782 16.092C15.6535 16.2223 15.6448 16.3284 15.6388 16.4142C15.6524 16.5078 15.6739 16.6017 15.7026 16.6925C15.6093 16.6142 15.7546 16.7937 15.9442 16.8752C16.1389 16.9755 16.3632 17.0509 16.6493 17.1732C16.6497 17.1735 16.6501 17.1737 16.6506 17.174C16.6574 17.1778 16.6722 17.1838 16.7068 17.1969C16.7255 17.2045 16.7458 17.2109 16.7961 17.2353C16.8232 17.2503 16.8546 17.2608 16.9296 17.3246C16.9655 17.3585 17.0234 17.4086 17.0744 17.5299C17.1297 17.6496 17.1179 17.8428 17.071 17.9377C16.9409 18.218 16.7811 18.3435 16.6638 18.4591C16.5138 18.5969 16.3951 18.7046 16.3338 18.7931C16.3153 18.8377 16.3121 18.8733 16.3174 18.897C16.3141 18.9163 16.3114 18.9351 16.309 18.9535C16.2953 19.0576 16.2925 19.1488 16.2825 19.2214C16.2575 19.3952 16.2128 19.5921 16.1978 19.748C16.1951 19.773 16.1931 19.7974 16.1918 19.8193C16.2106 19.9402 16.2418 20.0618 16.2811 20.162C16.2766 20.17 16.2723 20.1793 16.2676 20.1877C16.2415 20.2227 16.249 20.2928 16.2218 20.2634C16.1987 20.2577 16.1877 20.265 16.2531 20.296C16.2988 20.3169 16.3805 20.3428 16.4979 20.3679C16.5737 20.384 16.6138 20.4215 16.647 20.4526C16.6569 20.4616 16.6662 20.4701 16.6759 20.477C16.7095 20.5009 16.7488 20.4805 16.7945 20.4555C16.8541 20.4231 16.9232 20.3829 17.0177 20.4205C17.0201 20.4215 17.0226 20.4225 17.025 20.4234C17.1392 20.5374 17.1984 20.3946 17.191 20.3154C17.1919 20.29 17.1922 20.2667 17.198 20.2474C17.2159 20.1868 17.3005 20.1269 17.3872 20.0729C17.4574 20.031 17.5101 19.8855 17.5879 19.7197C17.62 19.6614 17.6611 19.5885 17.8231 19.4701C17.8324 19.4637 17.8418 19.4574 17.8514 19.4512C17.9899 19.3601 18.1769 19.2938 18.3558 19.2606C18.8048 19.1945 18.9609 19.2661 19.102 19.2852C19.1406 19.2932 19.176 19.3014 19.2103 19.3096C19.3194 19.3354 19.4434 19.377 19.5589 19.4189C19.6976 19.4692 19.8247 19.5183 19.9137 19.5399C19.9642 19.5704 20.0107 19.5979 20.0389 19.6153C20.0575 19.6353 20.1049 19.6293 19.9352 19.6275L19.7273 19.6611C19.6791 19.6901 19.6928 19.7106 19.7213 19.6949C19.7304 19.6904 19.7454 19.6868 19.7657 19.6833L19.7348 19.7342C19.7452 19.7899 19.8095 19.8163 19.9014 19.7673C20.0317 19.7118 20.1944 19.6665 20.3585 19.6824C20.522 19.6985 20.6778 19.7601 20.784 19.8883C20.8573 19.9677 20.9 20.1436 20.8316 20.3366C20.8258 20.3447 20.8123 20.3713 20.8059 20.3789C20.7849 20.4372 20.7539 20.4949 20.7127 20.5488C20.5852 20.7146 20.4041 20.8835 20.1372 20.9802C20.1008 20.9871 19.9983 21.0121 19.9614 21.0086C19.6788 21.0068 19.599 20.954 19.4954 20.9256C19.4003 20.8931 19.3238 20.8624 19.2514 20.8331C18.9333 20.7003 18.6531 20.5881 18.5202 20.5721C18.4526 20.5634 18.4979 20.578 18.553 20.5352C18.6265 20.4775 18.5949 20.4917 18.5737 20.5207C18.5647 20.5314 18.554 20.5447 18.5428 20.5592C18.487 20.7098 18.3825 20.9381 18.2615 21.0957C18.1624 21.2273 18.0427 21.3083 17.932 21.3691C17.8552 21.4113 17.7819 21.4453 17.7086 21.4869C17.669 21.5092 17.6136 21.5398 17.5412 21.5709C17.4157 21.6257 17.231 21.6786 17.032 21.6817C16.8871 21.6864 16.7169 21.6799 16.549 21.6424C16.4188 21.6134 16.2643 21.5586 16.1106 21.4872C15.8911 21.3889 15.6722 21.2347 15.543 21.1481C15.4286 21.0773 15.3083 20.9544 15.231 20.8009C15.147 20.622 15.1475 20.5551 15.1276 20.4568C15.0993 20.2826 15.0946 20.1403 15.0573 20.0612C15.0132 19.9669 15.0192 19.8801 15.0356 19.755C15.0475 19.6684 15.0642 19.5632 15.0824 19.4211C15.1041 19.2572 15.1475 19.1455 15.1865 19.0532C15.2426 18.9234 15.2886 18.832 15.3038 18.6736C15.3107 18.6056 15.3228 18.5367 15.3405 18.4705C15.384 18.3299 15.454 18.2161 15.5239 18.1411C15.576 18.085 15.6296 18.0234 15.6841 17.9662C15.7562 17.8902 15.8287 17.822 15.899 17.7784C15.9572 17.7425 16.0152 17.7324 16.0648 17.7237C16.0802 17.721 16.0948 17.7184 16.1081 17.7155C16.1382 17.6846 16.1633 17.6556 16.1808 17.6312C16.1797 17.6242 16.178 17.6169 16.1759 17.6097C16.1676 17.5808 16.151 17.5519 16.1328 17.5443C16.0894 17.6277 16.0782 17.809 16.1298 17.9172C16.1769 18.0268 16.2278 18.0691 16.2566 18.097C16.3163 18.1483 16.3342 18.1539 16.3467 18.163C16.3891 18.1913 16.3105 18.168 16.2521 18.145C16.2049 18.1262 16.1529 18.0952 16.0962 18.0628C16.026 18.0229 15.9485 17.9811 15.8481 17.9523C15.7797 17.9326 15.6971 17.9171 15.6123 17.8981C15.4868 17.8705 15.3541 17.832 15.2704 17.7741C15.2389 17.7525 15.2197 17.7189 15.2013 17.685C15.2013 17.6848 15.2012 17.6846 15.2012 17.6844C15.1999 17.6821 15.1987 17.6799 15.1974 17.6776C15.0267 17.5858 14.8118 17.4641 14.6556 17.1716C14.6313 17.1276 14.6082 17.0831 14.5861 17.038C14.5739 17.0213 14.5618 17.0043 14.5501 16.9872C14.4924 16.9038 14.4411 16.8187 14.3913 16.7663C14.337 16.7096 14.2713 16.5442 14.2239 16.3552C14.1924 16.2316 14.1686 16.0979 14.1492 15.9811C14.1378 15.9129 14.1615 15.8465 14.1892 15.779C14.2152 15.7156 14.2443 15.6518 14.255 15.5735C14.2606 15.5339 14.2622 15.4893 14.2673 15.4386C14.2718 15.394 14.2787 15.3453 14.2941 15.2919C14.2964 15.2839 14.2999 15.2744 14.3044 15.2636C14.3153 15.2379 14.3442 15.1943 14.3805 15.1398C14.4072 15.0998 14.4383 15.0533 14.4695 15.0036C14.5201 14.8586 14.5773 14.7105 14.6426 14.5632C14.6425 14.5249 14.6358 14.4879 14.6208 14.4526C14.61 14.4273 14.5946 14.4017 14.5788 14.3757C14.5574 14.3402 14.5357 14.3031 14.5252 14.262C14.5168 14.23 14.5232 14.201 14.5413 14.1897C14.5497 14.1845 14.5604 14.183 14.5702 14.1817C14.5813 14.1802 14.5912 14.179 14.595 14.1723C14.5977 14.1675 14.5954 14.1594 14.5927 14.1494C14.5885 14.1334 14.5831 14.1126 14.5948 14.093C14.6381 14.0202 14.6968 13.941 14.7588 13.8636C14.8277 13.7775 14.9012 13.6936 14.9578 13.6212C15.0209 13.54 15.1413 13.4439 15.2789 13.3547C15.3746 13.2923 15.4788 13.2335 15.5711 13.1818C15.6334 13.1467 15.696 13.1048 15.762 13.0632C15.8109 13.0346 15.8605 13.0097 15.8966 12.9917C16.042 12.9216 16.1344 12.8873 16.221 12.888C16.238 12.8885 16.2634 12.9086 16.2946 12.9342C16.3155 12.9526 16.3391 12.9738 16.3648 12.9927C16.4578 12.9752 16.5439 12.9629 16.6303 12.9528C16.6328 12.949 16.6353 12.9452 16.6379 12.9413C16.638 12.9412 16.638 12.9411 16.638 12.941C16.6965 12.8526 16.7812 12.732 16.9189 12.7829C16.9541 12.7958 16.9773 12.8241 16.9987 12.8496C17.0196 12.8746 17.0383 12.897 17.0627 12.8998C17.0898 12.9031 17.1198 12.8837 17.153 12.8627C17.1995 12.8333 17.2509 12.8007 17.3073 12.8227C17.3111 12.8242 17.3151 12.8259 17.3194 12.8275C17.3596 12.8432 17.42 12.8664 17.4804 12.9181C17.6504 12.9213 17.8191 12.9293 17.9871 12.9403C18.267 12.9587 18.5447 12.9855 18.8223 13.0155C18.9573 13.0303 19.0881 13.1042 19.1839 13.2246C19.2787 13.3452 19.3339 13.5013 19.3335 13.6628C19.3351 13.8244 19.2822 13.9807 19.193 14.1031C19.1027 14.2254 18.9799 14.3031 18.8509 14.3237C18.6402 14.357 18.4308 14.3922 18.2218 14.4274C18.211 14.4312 18.2002 14.4349 18.1893 14.4384C18.1086 14.4645 18.0352 14.5135 17.9624 14.5629C17.9456 14.5742 17.9289 14.5856 17.9122 14.5967Z" fill="#042A21"/>
<path d="M7.73342 23.6959C7.67832 23.762 7.57947 23.7213 7.50356 23.7065C7.50225 23.7062 7.50093 23.7059 7.49962 23.7057C7.48255 23.702 7.46606 23.7015 7.44638 23.7014C7.39874 23.702 7.33631 23.7001 7.18082 23.6781C7.14613 23.6862 7.11132 23.6945 7.0767 23.703C7.07912 23.7025 7.08131 23.7019 7.08325 23.7014C7.14004 23.6667 6.93783 23.7743 6.77197 23.9625C6.59618 24.148 6.40901 24.3863 6.224 24.637C6.22051 24.644 6.217 24.6511 6.21343 24.6584C6.15255 24.7814 6.0798 24.9346 6.00621 25.0366C5.99965 25.044 5.993 25.0508 5.98621 25.0569C5.91375 25.1232 5.86141 25.1793 5.81828 25.2293C5.67513 25.5278 5.65607 25.9631 5.73632 26.4156C5.73851 26.4311 5.74108 26.446 5.74424 26.461C5.76414 26.5554 5.8044 26.6433 5.86996 26.7297C5.9301 26.809 6.01117 26.8863 6.10837 26.9607C6.17399 26.9931 6.24261 27.0196 6.30852 27.0439C6.40117 27.078 6.48867 27.1083 6.55702 27.1442C6.65996 27.1982 6.76891 27.2763 6.87151 27.3604C6.90233 27.39 6.93114 27.4167 6.95894 27.4393C6.97108 27.4491 6.98293 27.4582 6.99442 27.4662C7.06831 27.4864 7.15001 27.498 7.24347 27.5034C7.24843 27.5108 7.25356 27.5185 7.25873 27.5264C7.32545 27.6247 7.43883 27.6385 7.62951 27.6436C7.71291 27.6458 7.81196 27.6461 7.93129 27.6508C8.00876 27.6537 8.04981 27.6866 8.0831 27.7135C8.09296 27.7214 8.10229 27.7288 8.11175 27.7347C8.14478 27.7548 8.1764 27.7309 8.21568 27.7025C8.26232 27.6679 8.31752 27.6266 8.39389 27.6497C8.39844 27.6513 8.40306 27.6531 8.40776 27.6552C8.64968 27.7627 8.74525 27.6588 8.80366 27.5852C8.82136 27.5632 8.83602 27.5433 8.85347 27.5301C8.90803 27.488 8.99866 27.494 9.07447 27.5109C9.13494 27.5251 9.2248 27.4566 9.27465 27.3869C9.29399 27.3607 9.32776 27.3431 9.36646 27.3206C9.40678 27.2971 9.45216 27.2683 9.4888 27.2213C9.57985 27.1022 9.61866 27.0326 9.65368 26.9755C9.66346 26.9591 9.67247 26.9437 9.6816 26.9278C9.71053 26.8773 9.74933 26.8167 9.80127 26.74C9.81947 26.7133 9.84001 26.6839 9.86325 26.6523L9.79403 26.7396C9.82299 26.6783 9.84802 26.6192 9.86376 26.5688C9.98148 26.4213 10.0912 26.2771 10.1968 26.1168C10.2071 26.1011 10.2194 26.0863 10.2335 26.0724L10.2278 26.0848C10.2784 26.0416 10.3357 26.0778 10.447 26.0406C10.5792 26.0085 10.7436 25.9917 10.9053 26.0234C11.0666 26.0553 11.2163 26.1243 11.3153 26.2398C11.3991 26.324 11.417 26.5005 11.3951 26.6115C11.3939 26.6134 11.3916 26.6199 11.3904 26.6218C11.3872 26.6443 11.3817 26.6665 11.374 26.6879C11.2925 26.9172 11.1918 27.1502 11.0775 27.3673C11.0461 27.4271 11.0137 27.4858 10.9802 27.5438C10.9663 27.5591 10.9327 27.6108 10.9167 27.6239C10.8177 27.7584 10.639 27.9831 10.4313 28.1534C10.2422 28.3117 10.0241 28.4464 9.79719 28.5446C9.77404 28.5547 9.74954 28.5649 9.72667 28.5741C9.55411 28.6947 9.3651 28.7906 9.22903 28.837C9.11696 28.8756 9.02792 28.87 8.95474 28.8637C8.90466 28.8591 8.85878 28.8545 8.81714 28.8619C8.79437 28.8658 8.7631 28.8723 8.7249 28.8795C8.65416 28.8931 8.55904 28.9091 8.45304 28.9164C8.34978 28.924 8.23407 28.9247 8.12192 28.9068C8.02842 28.8918 7.91861 28.8592 7.81273 28.8259C7.66137 28.7787 7.51842 28.7287 7.44299 28.7372C7.31028 28.7529 7.15445 28.7165 7.01344 28.6714C6.87924 28.6292 6.76051 28.5786 6.68101 28.5798C6.58544 28.5812 6.51435 28.5387 6.41926 28.4684C6.36463 28.4276 6.30188 28.3771 6.2244 28.3148C6.21383 28.3056 6.20245 28.2962 6.19015 28.2866C6.10675 28.2216 6.05245 28.1593 6.00608 28.1057C5.94034 28.0298 5.89018 27.9725 5.77451 27.9389C5.64592 27.9016 5.51543 27.8378 5.43495 27.7529C5.39842 27.7145 5.35147 27.6755 5.30293 27.6318C5.2388 27.5742 5.17187 27.5074 5.12705 27.4308C5.09006 27.3676 5.07918 27.2999 5.07245 27.241C5.07032 27.2226 5.06852 27.2049 5.06639 27.1883C5.03482 27.1414 5.00489 27.0925 4.97713 27.0421C4.96821 27.0363 4.9586 27.0302 4.94865 27.0236C4.89898 26.9909 4.83776 26.9459 4.79162 26.8737C4.74485 26.8002 4.72359 26.7239 4.7142 26.6468C4.71127 26.6138 4.71064 26.5798 4.71028 26.5453C4.70951 26.4704 4.7097 26.3922 4.68922 26.3051C4.67527 26.2457 4.65171 26.1784 4.62999 26.1101C4.59755 26.0088 4.56974 25.904 4.57774 25.8288C4.5807 25.8007 4.5997 25.7757 4.61885 25.7515C4.61896 25.7513 4.61908 25.7512 4.6192 25.7511C4.6205 25.7495 4.62177 25.7478 4.62307 25.7462C4.60184 25.5667 4.5927 25.3792 4.60462 25.1853C4.60207 25.1679 4.5998 25.1503 4.59777 25.1327C4.58769 25.0469 4.58325 24.9609 4.56477 24.899C4.54433 24.832 4.56612 24.6771 4.61301 24.514C4.63047 24.4524 4.651 24.3897 4.67167 24.3299C4.6807 24.2978 4.68867 24.2665 4.69462 24.2372C4.70296 24.1964 4.73912 24.1727 4.77647 24.1485C4.8114 24.1257 4.84707 24.1028 4.86251 24.0641C4.8702 24.0448 4.87343 24.0212 4.87692 23.9959C4.88006 23.9736 4.88343 23.9499 4.89025 23.9269C4.89654 23.9057 4.93021 23.8686 4.97355 23.8216C5.00056 23.7922 5.03096 23.7595 5.0617 23.7233C5.11262 23.611 5.16677 23.4981 5.22613 23.3846C5.22533 23.3524 5.21829 23.3201 5.20319 23.2881C5.19242 23.265 5.17719 23.241 5.16171 23.2165C5.14065 23.183 5.11907 23.1483 5.1076 23.1122C5.09867 23.084 5.10365 23.0604 5.11996 23.0537C5.12758 23.0506 5.13755 23.0511 5.14657 23.0515C5.15691 23.052 5.1661 23.0525 5.16932 23.0475C5.17164 23.0438 5.16911 23.0366 5.16611 23.0278C5.16136 23.0136 5.15547 22.9951 5.16534 22.9802C5.20194 22.9253 5.25112 22.8668 5.30262 22.8086C5.35926 22.7445 5.41884 22.6809 5.46175 22.6248C5.51044 22.5612 5.60652 22.4905 5.71315 22.4218C5.78733 22.3738 5.86675 22.3268 5.93561 22.2821C6.00284 22.2384 6.067 22.1781 6.13865 22.1208C6.22373 22.0522 6.32354 21.9875 6.42629 21.9698C6.44722 21.9662 6.48045 21.9805 6.52058 22.0001C6.54896 22.014 6.58131 22.0304 6.61573 22.045C6.63736 22.0389 6.65927 22.0332 6.68142 22.0281C6.7438 22.0136 6.80655 22.0014 6.86984 21.9912C6.87192 21.9874 6.87411 21.9834 6.87625 21.9795C6.87628 21.9794 6.87631 21.9793 6.87634 21.9792C6.92412 21.8896 6.99965 21.7659 7.13726 21.8159C7.17192 21.8287 7.19558 21.8571 7.21649 21.8827C7.23708 21.9079 7.25503 21.9306 7.2789 21.9338C7.30604 21.9376 7.33641 21.919 7.37069 21.8993C7.4186 21.8717 7.47499 21.8418 7.5324 21.8682C7.5363 21.87 7.5405 21.8719 7.54487 21.8739C7.58614 21.8928 7.64767 21.9218 7.7052 21.981C7.8843 22.0065 8.06937 22.0513 8.25559 22.1272C8.32341 22.1549 8.39121 22.1868 8.45812 22.2235C8.61737 22.3205 8.77381 22.4232 8.92933 22.5333C9.02571 22.6017 9.09137 22.7237 9.10044 22.8681C9.11146 23.0139 9.0556 23.161 8.99441 23.3104C8.92868 23.4592 8.79031 23.5628 8.67084 23.6344C8.54812 23.7047 8.43361 23.7288 8.33965 23.7014C8.18864 23.6568 8.03349 23.6166 7.87576 23.5771C7.87478 23.5771 7.87378 23.5771 7.87278 23.5772C7.8686 23.579 7.86444 23.5808 7.86033 23.5825C7.82952 23.5946 7.79207 23.6308 7.7573 23.6694C7.74926 23.6782 7.74129 23.6872 7.73342 23.6959Z" fill="#042A21"/>
<path d="M10.4512 27.3936C10.546 27.3695 10.6173 27.4629 10.659 27.5146C10.6597 27.5155 10.6605 27.5165 10.6613 27.5174C10.671 27.5295 10.6819 27.5388 10.6948 27.5495C10.7258 27.5751 10.7665 27.6094 10.832 27.7138C10.8599 27.7306 10.8882 27.7484 10.9152 27.7662C11.2098 27.9606 11.4785 28.1868 11.7548 28.3873C11.7588 28.3885 11.7629 28.3898 11.767 28.3911C11.8311 28.411 11.9066 28.4317 11.9588 28.4625C11.9674 28.4686 11.9749 28.4754 11.9811 28.4831C12.0219 28.5337 12.0518 28.5738 12.0783 28.6078C12.2475 28.7009 12.4579 28.7361 12.713 28.6663C12.7355 28.6602 12.7587 28.6534 12.7832 28.6457C12.8327 28.6311 12.8808 28.6118 12.9272 28.5878C12.9861 28.5573 13.0424 28.52 13.096 28.4766C13.119 28.4397 13.1371 28.4006 13.1529 28.364C13.1751 28.3125 13.1927 28.2658 13.2146 28.2351C13.2673 28.1617 13.3602 28.1048 13.4308 28.0556C13.4423 28.0477 13.4532 28.04 13.4631 28.0328C13.498 27.9751 13.5314 27.9152 13.5642 27.8534C13.5721 27.8537 13.5802 27.8541 13.5886 27.8545C13.6928 27.859 13.7372 27.7977 13.8048 27.6981C13.8343 27.6546 13.8685 27.6035 13.9144 27.5461C13.944 27.509 13.9858 27.5074 14.0201 27.5059C14.0302 27.5054 14.0396 27.505 14.0479 27.5037C14.0761 27.4993 14.0683 27.4697 14.0589 27.4347C14.0467 27.3894 14.032 27.335 14.091 27.3138C14.1449 27.2943 14.1808 27.2718 14.2043 27.2475L14.179 27.2923C14.2237 27.2384 14.1893 27.1789 14.1602 27.1334C14.1484 27.1144 14.1374 27.0976 14.1333 27.0832C14.1199 27.0367 14.1664 26.9952 14.2189 26.966C14.2605 26.9433 14.2525 26.8647 14.2291 26.8009C14.2204 26.7767 14.2277 26.7499 14.2363 26.7175C14.2452 26.6841 14.2553 26.645 14.2495 26.5987C14.2347 26.4814 14.2271 26.4189 14.2214 26.3687C14.2204 26.3599 14.2195 26.3515 14.2185 26.3431L14.2103 26.386C14.2093 26.3816 14.2082 26.3773 14.2071 26.373C14.1979 26.3379 14.1913 26.2978 14.183 26.2591C14.1732 26.2128 14.1608 26.1679 14.1421 26.134C14.1644 26.048 14.1843 25.954 14.1969 25.8509C14.2036 25.7982 14.2686 25.7367 14.3814 25.6751C14.4943 25.6138 14.6452 25.5585 14.8068 25.5267C14.9684 25.4952 15.1297 25.4905 15.2587 25.5205C15.3876 25.55 15.4726 25.6121 15.4954 25.689C15.5409 25.8429 15.5777 26.008 15.5941 26.1802C15.608 26.3225 15.6068 26.4695 15.5923 26.6043C15.5889 26.6126 15.5878 26.6401 15.5839 26.6482C15.5749 26.7033 15.5641 26.7583 15.5508 26.8132C15.5218 26.9334 15.486 27.0546 15.4422 27.177C15.4377 27.1895 15.433 27.2024 15.4283 27.2149C15.4352 27.3315 15.4322 27.453 15.4143 27.5363C15.3997 27.605 15.3595 27.6451 15.3249 27.6784C15.3011 27.7014 15.2797 27.7214 15.2697 27.7473C15.2644 27.7611 15.258 27.7805 15.2499 27.8041C15.2485 27.8081 15.2471 27.8122 15.2457 27.8164C15.2346 27.8299 15.2155 27.8797 15.203 27.8918C15.1707 27.9645 15.1162 28.0815 15.0184 28.1608C14.9731 28.1975 14.9083 28.2323 14.8459 28.2654C14.7567 28.3127 14.6723 28.3562 14.6586 28.3987C14.6343 28.4737 14.5663 28.5323 14.5047 28.5832C14.446 28.6319 14.3934 28.6735 14.3907 28.72C14.3873 28.7757 14.3519 28.7972 14.2988 28.828C14.262 28.8493 14.2168 28.8751 14.1652 28.92C14.1057 28.9716 14.0493 28.9949 14.0016 29.0135C13.934 29.0399 13.8841 29.0574 13.8508 29.1355C13.8135 29.2224 13.7556 29.3004 13.688 29.3313C13.6573 29.3454 13.6266 29.3678 13.5939 29.3906C13.5505 29.4207 13.5032 29.4513 13.4511 29.4626C13.4083 29.472 13.3627 29.4594 13.3234 29.4473C13.3111 29.4435 13.2994 29.4399 13.2884 29.4369C13.2594 29.4513 13.2304 29.4651 13.2008 29.4788C13.198 29.4856 13.1952 29.493 13.1921 29.5007C13.1804 29.53 13.1657 29.5645 13.1427 29.5939C13.1374 29.6023 13.1312 29.6102 13.1239 29.6175C13.0761 29.666 13.0129 29.6696 12.9473 29.6708C12.8956 29.6718 12.8418 29.6718 12.7846 29.6921C12.7456 29.7061 12.7024 29.7295 12.6575 29.7515C12.5914 29.7842 12.5213 29.8132 12.4696 29.8066C12.4502 29.8042 12.4322 29.7857 12.4146 29.7672C12.4146 29.7671 12.4145 29.767 12.4144 29.7668C12.4132 29.7656 12.412 29.7643 12.4108 29.7631C12.2918 29.7884 12.1676 29.8053 12.0412 29.8114C12.03 29.8156 12.0185 29.8196 12.0071 29.8234C11.9512 29.842 11.8956 29.8576 11.8551 29.8847C11.8117 29.9144 11.7112 29.9168 11.6061 29.91C11.5558 29.907 11.5044 29.9022 11.4562 29.8992C11.4414 29.8991 11.4271 29.8994 11.4133 29.9002C11.3831 29.9019 11.3654 29.8733 11.3478 29.8439C11.3316 29.8164 11.3154 29.7883 11.2879 29.7828C11.274 29.7801 11.257 29.7824 11.2387 29.7849C11.2226 29.7871 11.2057 29.7894 11.1893 29.7882C11.1741 29.7871 11.1486 29.7643 11.1169 29.7348C11.0973 29.7166 11.0752 29.696 11.0514 29.6761C10.9743 29.6554 10.8982 29.6328 10.8232 29.6081C10.8005 29.6171 10.7772 29.6317 10.7535 29.6536C10.7365 29.6692 10.7185 29.6892 10.7001 29.7095C10.675 29.7372 10.649 29.7657 10.6228 29.7856C10.6024 29.8012 10.5865 29.8034 10.5833 29.7908C10.5818 29.7849 10.583 29.776 10.584 29.7679C10.5853 29.7586 10.5863 29.7504 10.5831 29.7489C10.5808 29.7479 10.5756 29.7522 10.5692 29.7573C10.559 29.7655 10.5458 29.7761 10.5365 29.7717C10.5017 29.7555 10.466 29.7306 10.4314 29.7058C10.3929 29.6782 10.356 29.6513 10.3222 29.6371C10.2842 29.6213 10.246 29.5722 10.2087 29.5229C10.1827 29.4885 10.157 29.4541 10.1314 29.4306C10.1064 29.4075 10.0705 29.4 10.0352 29.3924C9.99302 29.3833 9.95275 29.3745 9.93598 29.3394C9.93264 29.3323 9.93939 29.3068 9.94797 29.275C9.95405 29.2524 9.96102 29.2266 9.96603 29.2019C9.93191 29.1794 9.89761 29.1551 9.86496 29.1306C9.86186 29.1326 9.85868 29.1346 9.85546 29.1367C9.8554 29.1367 9.85533 29.1368 9.85527 29.1368C9.78252 29.1836 9.6815 29.2464 9.66468 29.1551C9.66043 29.1319 9.66949 29.1009 9.67772 29.0731C9.6858 29.0458 9.69312 29.0214 9.68636 29.0103C9.67882 28.9979 9.65578 29.0017 9.63091 29.006C9.59592 29.0119 9.55711 29.0186 9.55013 28.9808C9.54965 28.9782 9.54915 28.9754 9.54859 28.9725C9.54329 28.9454 9.5357 28.9054 9.54585 28.8434C9.48426 28.7787 9.4271 28.7127 9.3699 28.643C9.27637 28.5282 9.1868 28.4066 9.10027 28.2807C9.05855 28.2196 9.0561 28.1133 9.10394 27.99C9.15222 27.867 9.24486 27.7372 9.3633 27.6274C9.48057 27.5162 9.60915 27.4252 9.71976 27.3634C9.83109 27.3027 9.92034 27.2825 9.97354 27.3063C10.061 27.3462 10.1517 27.3852 10.2423 27.4248C10.2483 27.4253 10.2542 27.4259 10.26 27.4267C10.3036 27.4328 10.3581 27.418 10.4136 27.4037C10.4264 27.4005 10.4387 27.3968 10.4512 27.3936Z" fill="#042A21"/>
<path d="M22.3363 21.5649C22.339 21.5619 22.3417 21.559 22.3445 21.5562C22.5998 21.4151 22.8891 21.443 23.0287 21.4593C23.0314 21.4596 23.0341 21.4599 23.0367 21.4602C23.0717 21.4644 23.1037 21.4658 23.1408 21.4677C23.2281 21.4723 23.3464 21.4797 23.5639 21.5428C23.591 21.5438 23.6179 21.5449 23.6446 21.5462C23.7494 21.5525 23.8546 21.5717 23.952 21.6011C24.8612 21.9778 24.9124 22.4557 25.1087 22.7908C25.2656 23.1462 25.365 23.476 25.4602 23.8036C25.4639 23.8114 25.4676 23.8194 25.4713 23.8272C25.4844 23.855 25.4981 23.8842 25.5119 23.9143C25.6151 24.1485 25.6519 24.3789 25.6446 24.52C25.6318 24.7406 25.597 24.8658 25.5696 24.9691C25.5514 25.1456 25.5274 25.3082 25.5061 25.4646C25.4386 26.0286 25.1913 26.4028 24.9635 26.7478C24.8582 26.9014 24.749 27.0463 24.6386 27.1873C24.5369 27.3172 24.4331 27.4433 24.3279 27.5668C24.2767 27.6487 24.2307 27.727 24.1855 27.8007C24.1227 27.9033 24.0641 27.9937 24.0066 28.0595C23.9518 28.1222 23.8876 28.182 23.8191 28.2379C23.7026 28.3341 23.5762 28.4114 23.4701 28.4689C23.4416 28.4844 23.4141 28.4988 23.389 28.5118C23.2634 28.6065 23.1319 28.6928 22.9966 28.7704C22.9844 28.7691 22.9721 28.7675 22.9596 28.7657C22.8041 28.7431 22.6623 28.8065 22.4296 28.8817C22.3286 28.9141 22.2108 28.9477 22.0707 28.973C21.9804 28.9892 21.9279 28.9644 21.8858 28.9443C21.8734 28.9383 21.8618 28.9327 21.8504 28.9285C21.8114 28.9142 21.7786 28.9431 21.7387 28.9768C21.6872 29.0205 21.6232 29.0726 21.5273 29.0462C21.2255 28.9598 21.1118 29.0446 21.0181 29.1124C20.9912 29.1319 20.9663 29.1495 20.9407 29.1597C20.93 29.164 20.9186 29.1673 20.9068 29.1696C20.7675 29.1896 20.6006 29.1368 20.5013 29.0707C20.4072 29.0134 20.2203 28.9686 20.0834 28.9341C20.0308 28.9216 19.9719 28.886 19.908 28.8428C19.8417 28.7981 19.7701 28.7454 19.6874 28.7011C19.4796 28.5884 19.3832 28.5238 19.3034 28.4732C19.2808 28.4587 19.2602 28.4452 19.2395 28.4318C19.174 28.3895 19.0986 28.3328 19.0244 28.2764C18.9767 28.2402 18.9296 28.2042 18.8849 28.1718C18.8589 28.1524 18.8059 28.073 18.7845 28.0486C18.7498 28.009 18.7167 27.9719 18.686 27.9398C18.5768 27.7229 18.4605 27.4856 18.3831 27.1642C18.3747 27.1275 18.3708 27.091 18.3718 27.0585C18.3715 26.9434 18.4144 26.7953 18.5006 26.7216C18.6111 26.6158 18.7668 26.5609 18.9306 26.5461C19.0948 26.5318 19.2565 26.5641 19.3853 26.6168C19.4854 26.6634 19.5528 26.6776 19.5991 26.7289C19.6124 26.7416 19.623 26.7555 19.6307 26.7696C19.6914 26.8794 19.8041 27.0289 19.9276 27.1855C19.9476 27.2109 19.9675 27.2359 19.9882 27.2619L19.8983 27.1516C20.0781 27.3019 20.2462 27.4494 20.3983 27.582C20.5202 27.6885 20.6372 27.7818 20.7282 27.8399C20.7375 27.8458 20.7465 27.8515 20.755 27.8567C20.8505 27.8591 20.8787 27.8169 20.8616 27.8037C20.8602 27.8023 20.8587 27.8014 20.8571 27.8011C20.9247 27.7959 20.9772 27.8117 21.023 27.8251C21.0593 27.8357 21.0914 27.8448 21.1229 27.8407C21.1399 27.8384 21.1627 27.8341 21.1902 27.8287C21.3031 27.8069 21.4868 27.7649 21.6583 27.7722C21.7348 27.7757 21.8262 27.7913 21.9142 27.8027C22.04 27.8195 22.1593 27.8265 22.2069 27.7952C22.2903 27.7407 22.3975 27.7182 22.4919 27.6921C22.5817 27.6677 22.6592 27.6405 22.6836 27.5938C22.7125 27.5381 22.7567 27.526 22.8232 27.5035C22.8693 27.4878 22.9258 27.4672 22.9906 27.4218C23.012 27.4069 23.0323 27.3938 23.0518 27.3821C23.1045 27.3492 23.1526 27.3258 23.1947 27.3052C23.2782 27.2639 23.3417 27.2309 23.3854 27.1325C23.4337 27.0233 23.4926 26.9209 23.5632 26.8624C23.5953 26.8357 23.6255 26.7994 23.6564 26.7612C23.6971 26.7108 23.7388 26.6575 23.7895 26.6188C23.831 26.5871 23.8821 26.5736 23.9273 26.5611C23.9415 26.5572 23.955 26.5534 23.9675 26.5491C23.9918 26.5162 24.0155 26.4831 24.0384 26.4495C24.038 26.4412 24.0374 26.4323 24.0368 26.423C24.0335 26.3766 24.0287 26.3201 24.0429 26.2661C24.0653 26.1805 24.1175 26.1297 24.1713 26.0735C24.2128 26.0301 24.2552 25.9833 24.279 25.9202C24.2954 25.8769 24.304 25.8246 24.3092 25.775C24.3175 25.7003 24.3173 25.6338 24.3388 25.595C24.3468 25.5807 24.3693 25.5715 24.3916 25.5619C24.3917 25.5618 24.3918 25.5618 24.392 25.5618C24.3935 25.5611 24.395 25.5604 24.3965 25.5598C24.3985 25.5135 24.3963 25.4699 24.3902 25.4316C24.3835 25.3433 24.3765 25.2567 24.3684 25.1726C24.3635 25.1595 24.3587 25.1463 24.354 25.1335C24.3307 25.0702 24.3072 25.011 24.2733 24.974C24.2365 24.9337 24.2143 24.8336 24.1849 24.7463C24.1659 24.6887 24.1437 24.6375 24.117 24.6055C24.1015 24.5869 24.1178 24.5655 24.134 24.5431C24.1491 24.5225 24.1638 24.5009 24.1539 24.4886C24.1507 24.4846 24.145 24.4816 24.1383 24.4794C24.1329 24.4735 24.1271 24.4676 24.1212 24.4616C24.1061 24.4462 24.0902 24.4301 24.0771 24.412C24.065 24.3954 24.0578 24.3486 24.0489 24.2903C24.0431 24.2535 24.037 24.2133 24.0279 24.1706C23.9724 24.073 23.9171 23.9769 23.8622 23.8836C23.8363 23.8703 23.8069 23.8625 23.7731 23.8615C23.7489 23.8607 23.7216 23.8635 23.6935 23.866C23.6554 23.8694 23.6161 23.8733 23.5816 23.8699C23.5547 23.8673 23.5395 23.8569 23.5434 23.8427C23.5453 23.8362 23.5513 23.829 23.5566 23.8225C23.5628 23.8151 23.5682 23.8084 23.5661 23.8046C23.5646 23.8018 23.5576 23.8016 23.5491 23.8013C23.5354 23.8007 23.518 23.8003 23.5119 23.7892C23.4893 23.7478 23.4706 23.6999 23.4521 23.6547C23.432 23.605 23.4117 23.5583 23.389 23.5293C23.3633 23.496 23.3536 23.4374 23.3465 23.3884C23.3417 23.3543 23.3381 23.3247 23.3333 23.3097C23.3284 23.2946 23.3128 23.2982 23.309 23.3113C23.3033 23.3263 23.3196 23.3563 23.3605 23.3529C23.3684 23.3521 23.3873 23.3332 23.4087 23.3079C23.4239 23.29 23.4405 23.2689 23.4562 23.2492C23.4782 23.2559 23.5048 23.2606 23.5303 23.2616C23.5038 23.2594 23.4777 23.257 23.4517 23.2545C23.4494 23.2578 23.447 23.2611 23.4446 23.2645C23.4446 23.2646 23.4445 23.2647 23.4445 23.2647C23.3904 23.3412 23.3188 23.4458 23.2344 23.377C23.213 23.3596 23.2003 23.3286 23.1888 23.3007C23.1774 23.2733 23.1674 23.2488 23.1515 23.2433C23.1336 23.237 23.112 23.253 23.0894 23.2707C23.0575 23.2954 23.0242 23.3235 22.9923 23.2976C22.9901 23.2958 22.9877 23.2939 22.9853 23.292C22.962 23.2736 22.9289 23.2468 22.8957 23.193C22.8383 23.1862 22.7862 23.1843 22.7833 23.1739C22.7382 23.1797 22.696 23.1846 22.6559 23.1894C22.4737 23.1976 22.2929 23.2809 22.3543 23.1798C22.3687 23.1483 22.3735 23.0749 22.3393 23.0288C22.2987 23.0641 22.247 23.0954 22.1855 23.1225C22.0596 23.1768 21.9039 23.2122 21.7423 23.2142C21.5808 23.2169 21.4237 23.1607 21.3092 23.0591C21.2532 23.0094 21.2099 22.9517 21.1809 22.89C21.16 22.7243 21.2169 22.5258 21.3088 22.3929C21.6189 21.9824 21.8688 21.9158 22.0752 21.8035C22.0855 21.7965 22.0958 21.7897 22.1061 21.7832C22.1821 21.7348 22.2422 21.6703 22.2985 21.6075C22.3113 21.5931 22.324 21.5788 22.3363 21.5649Z" fill="#042A21"/>
<path d="M15.9648 27.9537C16.046 27.9969 16.0241 28.0924 16.0135 28.1443C16.0133 28.1453 16.0131 28.1462 16.013 28.1472C16.0104 28.1595 16.0108 28.1708 16.0114 28.1838C16.0131 28.2148 16.0146 28.2569 15.9809 28.3452C15.987 28.3677 15.9925 28.3896 15.9971 28.4102C16.0123 28.4934 16.0449 28.5851 15.9975 28.5298C15.9931 28.5745 16.0252 28.675 16.1134 28.7894C16.116 28.7907 16.1187 28.7919 16.1213 28.7932C16.1726 28.818 16.2439 28.8476 16.2766 28.8966C16.3179 28.9591 16.3476 29.01 16.3721 29.0532C16.5269 29.1826 16.7131 29.3034 16.9177 29.4074C16.9398 29.4212 16.9647 29.4337 16.9917 29.4445C17.0437 29.4654 17.1035 29.4798 17.1673 29.4864C17.2262 29.4925 17.2883 29.493 17.3518 29.4884C17.3888 29.4715 17.4237 29.4505 17.4557 29.4305C17.5005 29.4023 17.5398 29.376 17.5731 29.3653C17.6532 29.3397 17.7518 29.3546 17.828 29.3628C17.8404 29.3642 17.8522 29.3654 17.8631 29.3663C17.9188 29.3454 17.9742 29.3223 18.0292 29.2978C18.0345 29.3031 18.0399 29.3088 18.0454 29.3146C18.1144 29.3865 18.1771 29.3703 18.2734 29.3414C18.3152 29.3288 18.364 29.3135 18.4228 29.3011C18.4606 29.2932 18.4903 29.3191 18.5146 29.3401C18.5218 29.3463 18.5285 29.3521 18.5348 29.3565C18.5567 29.3713 18.5651 29.3443 18.5741 29.3126C18.5741 29.3125 18.5741 29.3125 18.5741 29.3124C18.5834 29.2719 18.5909 29.2243 18.6359 29.2468C18.7834 29.3161 18.7953 29.2142 18.7933 29.1444C18.7932 29.1235 18.7927 29.1048 18.796 29.0922C18.8065 29.0516 18.8569 29.0543 18.9077 29.0682C18.948 29.0794 18.9746 29.0208 18.9813 28.9636C18.984 28.942 18.9999 28.9285 19.0189 28.9119C19.0385 28.8948 19.0614 28.8742 19.0743 28.839C19.1067 28.75 19.1241 28.7017 19.1386 28.6628C19.1428 28.6517 19.1467 28.6414 19.1505 28.6309C19.1624 28.5976 19.1816 28.5598 19.2016 28.5203C19.2256 28.4731 19.2507 28.4233 19.2643 28.379C19.2687 28.3756 19.2732 28.3721 19.2777 28.3687L19.2275 28.4313C19.2803 28.3909 19.3333 28.3443 19.3598 28.3386C19.3613 28.3386 19.3626 28.3389 19.3639 28.3394C19.3749 28.3452 19.4407 28.3907 19.5642 28.3923C19.6868 28.3969 19.8471 28.3832 20.0114 28.3951C20.1753 28.4069 20.334 28.4376 20.4464 28.5169C20.5598 28.5932 20.6036 28.7348 20.5734 28.8388C20.5704 28.8497 20.5673 28.8603 20.5642 28.8708C20.5139 29.0369 20.4604 29.1572 20.3989 29.276C20.3882 29.2847 20.3676 29.3218 20.3561 29.3293C20.3509 29.3379 20.3456 29.3464 20.3403 29.355C20.2616 29.4812 20.1677 29.6107 20.0456 29.7296C19.9604 29.8126 19.8647 29.8933 19.7596 29.9672C19.7488 29.9748 19.7378 29.9823 19.7268 29.9898C19.666 30.0879 19.5916 30.1824 19.5292 30.236C19.4777 30.2803 19.4234 30.2859 19.3783 30.2893C19.3469 30.2917 19.3196 30.2932 19.2976 30.3063C19.2857 30.3134 19.2702 30.3239 19.2511 30.3364C19.1906 30.3763 19.0929 30.4352 18.9821 30.4606C18.9563 30.466 18.9284 30.4695 18.9013 30.4697C18.8451 30.4702 18.7762 30.4562 18.7112 30.4415C18.6183 30.4207 18.5334 30.3985 18.4999 30.4215C18.4408 30.4621 18.3597 30.4617 18.289 30.4595C18.2212 30.4576 18.1624 30.4545 18.1356 30.4877C18.1033 30.5275 18.0674 30.5207 18.0148 30.5097C17.9782 30.502 17.9337 30.4924 17.8753 30.4938C17.8079 30.4954 17.7578 30.478 17.7158 30.4628C17.6564 30.4412 17.6134 30.4242 17.5517 30.4661C17.4832 30.5127 17.4057 30.5416 17.3444 30.528C17.3163 30.5219 17.2845 30.5229 17.2507 30.5233C17.2061 30.5239 17.1582 30.5233 17.116 30.5045C17.0811 30.4891 17.0547 30.4542 17.0324 30.423C17.0254 30.4133 17.0187 30.4039 17.0123 30.3956C16.9844 30.3924 16.9564 30.3889 16.928 30.3851C16.9226 30.3894 16.9169 30.3942 16.9108 30.3991C16.8807 30.4238 16.8414 30.4532 16.7972 30.4618C16.7263 30.4751 16.6721 30.4418 16.6182 30.4041C16.6011 30.3923 16.584 30.3799 16.566 30.3683C16.5472 30.354 16.5261 30.3418 16.5006 30.3359C16.4714 30.3292 16.435 30.3296 16.3985 30.3298C16.3445 30.3301 16.2902 30.3297 16.2614 30.3056C16.2506 30.2966 16.2472 30.2738 16.244 30.251C16.244 30.2509 16.244 30.2508 16.244 30.2506C16.2438 30.2491 16.2435 30.2476 16.2433 30.246C16.1573 30.2288 16.0694 30.2111 15.9797 30.1914C15.9705 30.193 15.9612 30.1945 15.952 30.1959C15.9069 30.2028 15.8624 30.2086 15.8254 30.2286C15.7853 30.2503 15.7133 30.24 15.6354 30.2253C15.5844 30.2157 15.5309 30.2042 15.4826 30.2004C15.4545 30.1982 15.4431 30.1678 15.4322 30.1366C15.422 30.1075 15.4119 30.0776 15.3866 30.0679C15.374 30.063 15.3572 30.0625 15.339 30.0618C15.323 30.0612 15.306 30.0603 15.2902 30.0561C15.2755 30.0522 15.2547 30.0249 15.2288 29.9891C15.2126 29.9669 15.1948 29.9416 15.1747 29.9161C15.1012 29.8767 15.027 29.8313 14.9538 29.7781C14.9277 29.7785 14.8995 29.784 14.8687 29.796C14.8466 29.8047 14.8224 29.8172 14.7974 29.8296C14.7634 29.8465 14.7279 29.8636 14.694 29.8711C14.6674 29.877 14.649 29.8708 14.6483 29.8559C14.648 29.8489 14.6515 29.8402 14.6547 29.8323C14.6583 29.8233 14.6616 29.8153 14.6584 29.812C14.656 29.8097 14.6491 29.8113 14.6407 29.8132C14.6272 29.8161 14.6096 29.8197 14.6002 29.8097C14.565 29.7725 14.5313 29.7233 14.5 29.6731C14.465 29.6172 14.4332 29.5601 14.4016 29.5177C14.4002 29.5158 14.3989 29.5139 14.3975 29.512C14.3497 29.4402 14.3245 29.3395 14.314 29.2562C14.3061 29.1953 14.3032 29.1401 14.2957 29.097C14.2885 29.0552 14.2641 29.0187 14.2416 28.9851C14.2144 28.9437 14.1899 28.9057 14.2012 28.866C14.2035 28.8581 14.2258 28.8437 14.2539 28.8261C14.2738 28.8136 14.2966 28.7994 14.3172 28.7847C14.308 28.7433 14.3007 28.7022 14.295 28.6621C14.2914 28.6613 14.2878 28.6605 14.284 28.6596C14.2839 28.6596 14.2839 28.6596 14.2838 28.6596C14.1994 28.6418 14.0836 28.6133 14.1379 28.5401C14.1518 28.5215 14.1804 28.5071 14.2063 28.4942C14.2316 28.4815 14.2544 28.4704 14.2578 28.4584C14.2616 28.4449 14.2431 28.4323 14.2231 28.4184C14.195 28.3989 14.1636 28.3766 14.1866 28.3478C14.1881 28.3458 14.1899 28.3437 14.1916 28.3415C14.2079 28.3208 14.2322 28.2902 14.2846 28.2576C14.2907 28.177 14.301 28.0976 14.3142 28.019C14.3361 27.8877 14.3659 27.7595 14.3992 27.6301C14.4155 27.5672 14.4911 27.5053 14.6128 27.4625C14.7347 27.4201 14.8917 27.3998 15.0532 27.4049C15.2147 27.409 15.3701 27.4345 15.4914 27.4698C15.6124 27.5058 15.6885 27.5519 15.7073 27.6015C15.7378 27.6822 15.7701 27.7638 15.8017 27.8435C15.8053 27.8475 15.8088 27.8516 15.8121 27.8557C15.8368 27.8859 15.8844 27.9118 15.9321 27.9366C15.9431 27.9423 15.9541 27.948 15.9648 27.9537Z" fill="#042A21"/>
</svg>
