<svg width="53" height="57" viewBox="0 0 53 57" fill="none" xmlns="http://www.w3.org/2000/svg">
<g filter="url(#filter0_d_141_674)">
<rect x="13.7559" y="14.6387" width="22" height="26" rx="2" transform="rotate(-7.52992 13.7559 14.6387)" fill="#189271" shape-rendering="crispEdges"/>
<rect x="12.6334" y="13.7783" width="24" height="28" rx="3" transform="rotate(-7.52992 12.6334 13.7783)" stroke="white" stroke-width="2" shape-rendering="crispEdges"/>
<path d="M22.2313 29.3245C22.1958 29.2617 22.3625 29.0384 22.4663 28.8701C22.4681 28.8673 22.4699 28.8644 22.4717 28.8616C22.4956 28.8242 22.5158 28.787 22.5394 28.7431C22.5712 28.6837 22.6095 28.6119 22.6729 28.5078C22.7207 28.4299 22.7825 28.3339 22.8668 28.2096C22.9085 28.1196 22.9508 28.0295 22.9939 27.9393C23.3935 27.1011 23.8209 26.2676 24.2502 25.4337C24.3191 25.2999 24.3881 25.1657 24.4571 25.0314C24.4621 25.0186 24.4672 25.0055 24.4724 24.9924C24.5724 24.738 24.6953 24.4216 24.8042 24.2356C24.9425 23.9995 25.0448 23.8416 25.13 23.7129C25.4284 23.1245 25.7176 22.5348 26.0183 21.9311C26.1277 21.7246 26.1874 21.5606 26.3978 21.2686C26.4349 21.2242 26.4726 21.1719 26.5756 21.0978C26.6549 21.0225 26.9668 20.9339 27.1513 21.0271C27.4662 21.1911 27.4349 21.2598 27.4946 21.3132C27.5927 21.4417 27.689 21.5699 27.7843 21.6964C27.9375 21.8994 28.0883 22.1 28.2396 22.2868C28.3387 22.3867 28.4357 22.474 28.5228 22.544C28.5701 22.5822 28.6145 22.6151 28.6539 22.6419C28.727 22.695 28.7934 22.742 28.8495 22.7854C29.0553 22.9502 29.3535 23.1805 29.4125 23.2192C29.4113 23.2193 29.4092 23.2191 29.4061 23.2186C29.3533 23.2068 29.3294 23.2116 29.3169 23.2141C29.2971 23.213 29.3021 23.2104 29.2956 23.2093C29.2195 23.231 29.2345 23.2493 29.3035 23.1138C29.3162 23.1057 29.3299 23.0963 29.3454 23.0847C29.3718 23.065 29.3988 23.0398 29.4429 22.9957C29.4999 22.9559 29.5074 22.8699 29.806 22.7595C29.9196 22.7226 30.0925 22.7366 30.1826 22.7763C30.2774 22.8139 30.324 22.8527 30.3586 22.8809C30.4242 22.938 30.4492 22.9735 30.4745 23.0055C30.521 23.0676 30.5509 23.1152 30.5827 23.1637C30.6455 23.2605 30.708 23.3566 30.7801 23.4685C30.8032 23.5045 30.8262 23.5404 30.851 23.5796C30.9182 23.6859 30.9912 23.8054 31.0686 23.9397C31.137 24.0584 31.1442 24.1355 31.1506 24.199C31.1524 24.2175 31.1541 24.2349 31.1572 24.2517C31.1677 24.3094 31.2172 24.3464 31.2758 24.3904C31.3517 24.4472 31.4427 24.5153 31.4832 24.6538C31.6126 25.0951 31.7863 25.2166 31.9166 25.3066C31.9551 25.3333 31.9897 25.357 32.0187 25.3854C32.0663 25.4321 32.1085 25.4979 32.1441 25.5686C32.1771 25.635 32.2046 25.7062 32.2255 25.7708C32.2585 25.8746 32.4089 26.0247 32.5396 26.1222C32.589 26.1593 32.6403 26.2215 32.7027 26.2942C32.7672 26.3695 32.8436 26.4559 32.9399 26.536C33.184 26.7378 33.3197 26.8426 33.4279 26.9284C33.4589 26.9528 33.4878 26.9755 33.517 26.9981C33.609 27.0696 33.7203 27.1627 33.8347 27.258C33.9141 27.3242 33.9948 27.3916 34.0708 27.4533L34.0024 27.3936C34.0586 27.4285 34.111 27.4591 34.1593 27.485C34.4132 27.7002 34.6689 27.9032 34.9374 28.0872C35.0399 28.1576 35.1257 28.2528 35.1925 28.3695C35.2215 28.4139 35.2309 28.4515 35.2388 28.491C35.2663 28.6418 35.2782 28.8161 35.2153 28.9686C35.153 29.1201 35.0288 29.246 34.8326 29.2839C34.7824 29.2937 34.7293 29.2968 34.6862 29.3016C34.5582 29.3135 34.4139 29.2847 34.2831 29.2203C33.9264 29.0449 33.5826 28.843 33.2583 28.6251C33.213 28.5948 33.1678 28.5638 33.1226 28.5323C33.1106 28.5212 33.0722 28.4915 33.0616 28.4791C32.7668 28.2179 32.4657 27.9469 32.1774 27.6452C31.9496 27.407 31.7271 27.1527 31.5204 26.8809C31.4991 26.853 31.478 26.8248 31.4571 26.7965C31.2896 26.6339 31.1299 26.4598 31.0112 26.3098C30.9841 26.2761 30.9587 26.2433 30.9361 26.2131C30.8408 26.0853 30.7983 25.9773 30.762 25.8848C30.737 25.8211 30.7153 25.7651 30.6821 25.7151C30.6644 25.6885 30.6389 25.6524 30.6086 25.6093C30.4844 25.4326 30.2761 25.1327 30.1378 24.8312C30.0763 24.6973 30.0173 24.5348 29.9609 24.3813C29.936 24.3134 29.9117 24.2475 29.8881 24.1868C29.8339 24.0488 29.7829 23.9362 29.7365 23.8832C29.6999 23.8413 29.6645 23.7947 29.6387 23.7603C29.6267 23.7441 29.614 23.7286 29.6227 23.7366C29.6294 23.7416 29.6353 23.7521 29.6894 23.7885C29.7227 23.8183 29.9398 23.9155 30.1312 23.8486C30.444 23.7033 30.3434 23.6841 30.3577 23.6927C30.348 23.7011 30.3256 23.7309 30.3014 23.7633C30.1822 23.9422 29.9279 24.1877 29.7342 24.2834C29.7165 24.2937 29.6984 24.3031 29.6799 24.3118C29.5205 24.3783 29.3857 24.4272 29.0748 24.3387C29.0355 24.3246 29.005 24.3105 28.9759 24.2959C28.8334 24.222 28.7203 24.1374 28.5658 24.0269C28.3906 23.8991 28.2919 23.7883 28.2091 23.6938C28.1095 23.5784 28.0371 23.487 27.914 23.3941C27.893 23.3779 27.8706 23.3611 27.8474 23.3444C27.658 23.2079 27.5008 23.0517 27.4073 22.9103C27.3649 22.8458 27.311 22.7776 27.2559 22.7072C27.1829 22.614 27.1078 22.5169 27.0532 22.4189C27.0082 22.3381 26.9886 22.2589 26.971 22.1889C26.9655 22.1671 26.9601 22.1461 26.9544 22.1264C26.9103 22.0691 26.8659 22.0124 26.8212 21.9565C26.81 21.9505 26.7979 21.9443 26.7855 21.938C26.7694 21.9298 26.7524 21.921 26.7347 21.9116C26.7111 21.9003 26.6869 21.8895 26.6779 21.8955C26.6774 21.8961 26.6512 21.9485 26.8596 22.0099C27.1326 22.0448 27.2127 21.9116 27.2219 21.9152C27.2373 21.9009 27.2262 21.9127 27.2154 21.9273C27.1909 21.9594 27.154 22.008 27.1167 22.0608C27.0593 22.1426 27.0001 22.2342 26.9513 22.3523C26.9499 22.3558 26.9484 22.3592 26.947 22.3627C26.9134 22.4466 26.8839 22.5458 26.8547 22.6451C26.8112 22.793 26.7689 22.9401 26.7166 23.032C26.6967 23.0674 26.6654 23.0896 26.6337 23.1133C26.6335 23.1134 26.6333 23.1134 26.6332 23.1135C26.631 23.1151 26.6289 23.1167 26.6267 23.1183C26.5403 23.361 26.4558 23.6059 26.3721 23.8512C26.3683 23.8737 26.3642 23.8966 26.3601 23.9193C26.3403 24.0298 26.3211 24.1372 26.3252 24.2147C26.3299 24.298 26.2762 24.4814 26.2194 24.6744C26.1821 24.801 26.1436 24.9316 26.1191 25.0417C26.1049 25.1059 26.0619 25.1545 26.0176 25.2044C25.9763 25.251 25.9339 25.2987 25.9126 25.3617C25.902 25.3932 25.8958 25.4296 25.8893 25.4683C25.8835 25.5025 25.8774 25.5386 25.8676 25.575C25.8584 25.6088 25.8177 25.6754 25.7655 25.7608C25.7332 25.8136 25.6966 25.8735 25.66 25.9374C25.6491 25.9682 25.6382 25.9989 25.6273 26.0296C25.5731 26.1813 25.5182 26.3327 25.4623 26.4837C25.4627 26.5279 25.4702 26.5693 25.4867 26.6069C25.4985 26.6339 25.5153 26.6599 25.5326 26.6865C25.556 26.7226 25.5802 26.7601 25.5937 26.8031C25.6042 26.8368 25.6 26.869 25.5828 26.8841C25.5747 26.8911 25.5639 26.8946 25.5541 26.8977C25.5429 26.9013 25.533 26.9045 25.5297 26.9124C25.5274 26.9181 25.5305 26.9264 25.5342 26.9366C25.5401 26.9529 25.5477 26.9741 25.5381 26.9969C25.5025 27.082 25.4552 27.1756 25.4087 27.267C25.3571 27.3688 25.3063 27.4683 25.2737 27.5512C25.2372 27.6442 25.1575 27.7634 25.0772 27.883C25.021 27.967 24.9651 28.0497 24.9231 28.1247C24.8823 28.1972 24.8568 28.2821 24.8323 28.3635C24.8027 28.462 24.7745 28.5555 24.7203 28.6224C24.7094 28.6358 24.6781 28.6435 24.6384 28.654C24.6104 28.6612 24.5783 28.6696 24.5469 28.6811C24.5013 28.7765 24.4546 28.8713 24.4065 28.9657C24.408 28.9706 24.4094 28.9755 24.4109 28.9805C24.4109 28.9806 24.411 28.9807 24.411 28.9808C24.4432 29.0889 24.4858 29.2368 24.3718 29.3566C24.3667 29.3619 24.3614 29.3671 24.3558 29.3722C24.3222 29.4026 24.2829 29.4128 24.2476 29.4219C24.2132 29.4304 24.1818 29.4392 24.1635 29.4642C24.1425 29.4931 24.1386 29.5377 24.1338 29.5868C24.127 29.6558 24.1189 29.7336 24.0607 29.788C24.0568 29.7917 24.0525 29.7956 24.0481 29.7997C24.006 29.8395 23.9434 29.8985 23.8525 29.9466C23.7426 30.1185 23.5813 30.3506 23.3739 30.5309C23.3446 30.5558 23.3157 30.58 23.2868 30.6041C22.9884 30.8521 22.6782 31.0873 22.3499 31.3079C22.1896 31.4154 21.9935 31.4684 21.8085 31.4482C21.6249 31.428 21.4632 31.3357 21.3996 31.1858C21.3317 31.0394 21.2873 30.8879 21.3105 30.7244C21.332 30.5624 21.408 30.4103 21.5248 30.2923C21.7158 30.1002 21.9015 29.8956 22.0834 29.6864C22.0916 29.674 22.1002 29.6612 22.1083 29.6493C22.1638 29.5683 22.2007 29.4788 22.2358 29.3871C22.2362 29.3796 22.2362 29.3725 22.2359 29.3655C22.2354 29.351 22.2335 29.3375 22.2313 29.3245Z" fill="white"/>
<path d="M24.3653 25.6195C24.2692 25.6963 24.0807 25.6574 23.976 25.6314C23.9741 25.631 23.9722 25.6305 23.9703 25.6301C23.9454 25.6241 23.9216 25.621 23.8936 25.6173C23.8263 25.6078 23.7361 25.5979 23.5434 25.5156C23.4849 25.5072 23.4245 25.4963 23.3627 25.4822C23.329 25.4745 23.2936 25.4656 23.2589 25.456C22.6627 25.2922 22.1903 24.926 21.8902 24.6848C21.8861 24.6831 21.8821 24.6815 21.878 24.68C21.8588 24.6725 21.841 24.6664 21.8303 24.6635C21.9642 24.7283 22.1792 24.7415 22.3135 24.6995C22.4554 24.6591 22.5227 24.6057 22.5665 24.5725C22.65 24.5027 22.6593 24.4776 22.669 24.4648C22.6826 24.4408 22.6654 24.4571 22.6488 24.4676C22.5866 24.5122 22.5252 24.5753 22.477 24.6186C22.2904 24.9258 22.1086 25.2861 21.9498 25.6429C21.9453 25.653 21.9409 25.6632 21.9364 25.6735C21.8904 25.7789 21.8459 25.8842 21.8032 25.99C21.7596 26.0978 21.717 26.2057 21.6748 26.314C21.6632 26.3826 21.6552 26.4498 21.6471 26.5122C21.6361 26.5994 21.6247 26.678 21.6045 26.7378C21.5562 26.8815 21.4527 27.0222 21.3736 27.1253C21.3606 27.1424 21.3489 27.1572 21.3374 27.1726C21.2982 27.2674 21.2588 27.361 21.2162 27.4567C21.2071 27.4595 21.1979 27.462 21.1884 27.4645C21.0864 27.491 21.0287 27.5693 20.9614 27.6742C20.9515 27.6898 20.9412 27.7066 20.9301 27.7244C20.8942 27.7824 20.8524 27.8499 20.7971 27.9256C20.7615 27.9744 20.7161 27.9825 20.6792 27.9888C20.6683 27.9907 20.6582 27.9926 20.6492 27.9952C20.6183 28.0045 20.624 28.0381 20.6306 28.0781C20.6392 28.1299 20.6496 28.1921 20.5843 28.2242C20.3761 28.3263 20.3985 28.4438 20.4154 28.5329C20.4204 28.559 20.4247 28.5828 20.4228 28.6028C20.4164 28.668 20.3468 28.7222 20.2789 28.7535C20.2251 28.7782 20.1979 28.8792 20.1904 28.965C20.1876 28.9975 20.167 29.03 20.1421 29.069C20.1167 29.1088 20.0868 29.1554 20.0688 29.2141C20.0233 29.3625 19.9951 29.4421 19.972 29.5062C19.9704 29.5106 19.9689 29.515 19.9673 29.5193C19.9601 29.5361 19.9528 29.5525 19.9451 29.5692C19.9131 29.6389 19.8602 29.7275 19.787 29.8197C19.7531 29.8626 19.7149 29.9059 19.6743 29.9473C19.6301 29.9961 19.5892 30.0399 19.5569 30.0784C19.3838 30.181 19.2153 30.2546 19.0478 30.3188C19.0335 30.3256 19.028 30.3275 19.0224 30.3296C18.9304 30.363 18.8379 30.3262 18.7358 30.243C18.6331 30.1597 18.5282 30.0364 18.4481 29.8925C18.3684 29.7485 18.3188 29.5939 18.3162 29.4571C18.3136 29.3201 18.3592 29.2148 18.413 29.1716C18.4167 29.1688 18.4202 29.166 18.4238 29.1632C18.5242 29.0792 18.6244 28.9871 18.7046 28.9019C18.7234 28.882 18.7411 28.8624 18.7569 28.8438C18.7617 28.8251 18.7809 28.7924 18.8128 28.7364C18.8407 28.6904 18.8699 28.644 18.9006 28.5977C18.975 28.4852 19.0532 28.3721 19.1337 28.2604C19.142 28.2489 19.1505 28.2372 19.1588 28.2258C19.1873 28.1067 19.2188 27.9891 19.2517 27.9132C19.2788 27.8505 19.3235 27.8207 19.3618 27.795C19.3882 27.7774 19.4115 27.7617 19.424 27.7388C19.4306 27.7265 19.4388 27.709 19.4486 27.688C19.4887 27.602 19.5566 27.4561 19.6683 27.3537C19.7179 27.3083 19.7873 27.2633 19.8538 27.22C19.9278 27.1719 19.9981 27.1261 20.0322 27.0857C20.0427 27.073 20.0491 27.0625 20.0523 27.052C20.0745 26.9728 20.1372 26.9086 20.1931 26.8481C20.2464 26.7905 20.292 26.739 20.2864 26.6924C20.28 26.6359 20.3098 26.6091 20.3548 26.5665C20.3856 26.5375 20.4236 26.501 20.4605 26.4433C20.5032 26.3763 20.5479 26.337 20.5863 26.3026C20.6402 26.2542 20.6806 26.2173 20.6779 26.1324C20.6745 26.0389 20.6855 25.9484 20.725 25.8908C20.7434 25.864 20.7558 25.8315 20.7692 25.796C20.7864 25.7501 20.8048 25.7004 20.8366 25.6629C20.863 25.6314 20.9049 25.613 20.9418 25.597C20.9533 25.5919 20.9643 25.587 20.9743 25.5819C20.9858 25.5521 20.9965 25.5231 21.0071 25.4933C21.0042 25.4867 21.0008 25.4796 20.9974 25.4723C20.9802 25.435 20.9585 25.3906 20.9567 25.3444C20.9562 25.3311 20.957 25.3186 20.9589 25.3068C20.9679 25.2518 20.999 25.2107 21.0317 25.167C21.0627 25.1257 21.0949 25.0828 21.1103 25.0245C21.1206 24.9855 21.1244 24.9368 21.1276 24.8899C21.133 24.8187 21.138 24.7491 21.1655 24.7087C21.1758 24.6935 21.1998 24.6861 21.2236 24.6789C21.2238 24.6788 21.2239 24.6788 21.2241 24.6788C21.2257 24.6783 21.2273 24.6778 21.2289 24.6773C21.2536 24.5642 21.2776 24.4486 21.3029 24.331C21.3017 24.3196 21.3005 24.3084 21.2996 24.2965C21.2949 24.24 21.2909 24.1846 21.272 24.1406C21.2517 24.0929 21.2649 24.0006 21.292 23.8872C21.3104 23.8125 21.3336 23.7289 21.3733 23.6281C21.3985 23.5685 21.4517 23.5207 21.5617 23.4428C21.6143 23.4078 21.6807 23.3599 21.8048 23.3092C21.9228 23.2577 22.1495 23.22 22.3401 23.2814C22.367 23.2893 22.3932 23.2986 22.4184 23.3089C22.4377 23.3134 22.4606 23.3156 22.482 23.317C22.5047 23.3187 22.5275 23.3203 22.5492 23.3253C22.5694 23.3299 22.6029 23.3595 22.64 23.3956C22.6634 23.4181 22.6878 23.4428 22.7136 23.4664C22.7983 23.4983 22.8765 23.528 22.9518 23.5558C22.9751 23.5479 22.9987 23.5339 23.0228 23.5125C23.0401 23.4972 23.0584 23.4776 23.0769 23.4575C23.1021 23.43 23.128 23.4016 23.1533 23.3814C23.1732 23.3657 23.1877 23.3629 23.1903 23.3751C23.1914 23.3807 23.19 23.3896 23.1887 23.3975C23.1872 23.4067 23.186 23.4148 23.1889 23.4161C23.191 23.417 23.196 23.4126 23.2021 23.4072C23.2117 23.3987 23.2241 23.3876 23.2325 23.3913C23.2636 23.4049 23.2947 23.4261 23.325 23.4461C23.3586 23.4684 23.3909 23.4891 23.4198 23.4969C23.4522 23.5057 23.4855 23.5451 23.5192 23.5831C23.5427 23.6095 23.5665 23.6354 23.5892 23.6503C23.6115 23.6649 23.6409 23.6611 23.6682 23.6565C23.6955 23.6519 23.7209 23.6466 23.7384 23.6594C23.7412 23.6618 23.7438 23.665 23.7461 23.6692C23.7489 23.6741 23.7475 23.6996 23.7467 23.7316C23.7462 23.7543 23.7458 23.7803 23.7472 23.8046C23.7761 23.8112 23.8071 23.8184 23.8393 23.8259C23.841 23.8228 23.8428 23.8196 23.8446 23.8163C23.8446 23.8162 23.8446 23.8161 23.8447 23.816C23.8856 23.7422 23.9347 23.6398 23.9798 23.7107C23.9915 23.7287 23.9969 23.76 24.0021 23.7882C24.0071 23.8159 24.0118 23.8406 24.022 23.8467C24.0336 23.8537 24.0498 23.8386 24.0671 23.822C24.0915 23.7988 24.1182 23.7726 24.1416 23.8005C24.1432 23.8024 24.1449 23.8045 24.1467 23.8066C24.1639 23.8265 24.1896 23.8557 24.2152 23.9127C24.2983 23.9316 24.3842 23.9507 24.4718 23.9695C24.6178 24.0008 24.7688 24.0312 24.9206 24.0565C24.9943 24.069 25.0692 24.1382 25.1339 24.2532C25.1981 24.3685 25.2483 24.5193 25.2695 24.6795C25.2915 24.8395 25.2777 24.9991 25.2286 25.1267C25.1797 25.2541 25.1014 25.3375 25.0151 25.3616C24.8745 25.4004 24.7329 25.4355 24.5888 25.4645C24.5812 25.468 24.5736 25.4714 24.566 25.4745C24.5099 25.498 24.4572 25.5436 24.4029 25.5888C24.3905 25.5991 24.3779 25.6095 24.3653 25.6195Z" fill="white"/>
</g>
<defs>
<filter id="filter0_d_141_674" x="0" y="0" width="52.7285" height="56.1702" filterUnits="userSpaceOnUse" color-interpolation-filters="sRGB">
<feFlood flood-opacity="0" result="BackgroundImageFix"/>
<feColorMatrix in="SourceAlpha" type="matrix" values="0 0 0 0 0 0 0 0 0 0 0 0 0 0 0 0 0 0 127 0" result="hardAlpha"/>
<feOffset dy="2"/>
<feGaussianBlur stdDeviation="6"/>
<feComposite in2="hardAlpha" operator="out"/>
<feColorMatrix type="matrix" values="0 0 0 0 0 0 0 0 0 0 0 0 0 0 0 0 0 0 0.06 0"/>
<feBlend mode="normal" in2="BackgroundImageFix" result="effect1_dropShadow_141_674"/>
<feBlend mode="normal" in="SourceGraphic" in2="effect1_dropShadow_141_674" result="shape"/>
</filter>
</defs>
</svg>
