<svg width="53" height="57" viewBox="0 0 53 57" fill="none" xmlns="http://www.w3.org/2000/svg">
<g filter="url(#filter0_d_141_679)">
<rect x="17.2676" y="11.748" width="22" height="26" rx="2" transform="rotate(7.78061 17.2676 11.748)" fill="#E3A369" shape-rendering="crispEdges"/>
<rect x="16.4122" y="10.6219" width="24" height="28" rx="3" transform="rotate(7.78061 16.4122 10.6219)" stroke="white" stroke-width="2" shape-rendering="crispEdges"/>
<path d="M21.5641 28.1507C21.5465 28.0807 21.7662 27.9094 21.9108 27.7744C21.9133 27.7721 21.9157 27.7699 21.9182 27.7676C21.9511 27.7379 21.9804 27.7074 22.0148 27.6712C22.0612 27.6224 22.1171 27.5632 22.2057 27.4795C22.2723 27.417 22.3573 27.3407 22.4715 27.2431C22.5354 27.1673 22.6 27.0916 22.6654 27.0159C23.2721 26.313 23.9045 25.622 24.5388 24.9311C24.6405 24.8202 24.7425 24.709 24.8445 24.5976C24.8528 24.5866 24.8611 24.5754 24.8696 24.564C25.0331 24.3451 25.2353 24.0723 25.3894 23.9217C25.5852 23.7305 25.7255 23.6053 25.8417 23.5036C26.2848 23.0149 26.7195 22.5224 27.169 22.0196C27.3289 21.8493 27.4299 21.7069 27.7099 21.4808C27.7574 21.4478 27.8076 21.4073 27.9265 21.363C28.0229 21.3113 28.3471 21.3082 28.5005 21.4468C28.7608 21.6882 28.7125 21.7462 28.756 21.8134C28.8167 21.9633 28.8757 22.1124 28.9343 22.2596C29.0284 22.4958 29.1208 22.7291 29.2174 22.9492C29.2867 23.0717 29.3572 23.1815 29.4227 23.2721C29.4583 23.3214 29.4924 23.3649 29.5233 23.4011C29.5798 23.4716 29.6314 23.5345 29.6741 23.5912C29.829 23.8045 30.0558 24.1053 30.1025 24.1582C30.1014 24.158 30.0994 24.1572 30.0965 24.156C30.0487 24.1307 30.0244 24.129 30.0117 24.1281C29.9929 24.1217 29.9984 24.1206 29.9924 24.1178C29.9132 24.1186 29.923 24.1402 30.0253 24.0278C30.0396 24.0233 30.0553 24.0179 30.0733 24.0108C30.104 23.9987 30.1367 23.9816 30.1909 23.9506C30.2564 23.9273 30.2863 23.8464 30.6035 23.8188C30.7228 23.8131 30.8858 23.8723 30.9622 23.9344C31.0438 23.9957 31.0785 24.0454 31.1044 24.0818C31.1526 24.1541 31.1673 24.1949 31.1833 24.2325C31.2117 24.3047 31.228 24.3585 31.2459 24.4136C31.2809 24.5237 31.3158 24.6329 31.3558 24.7598C31.3686 24.8006 31.3812 24.8413 31.3948 24.8857C31.4315 25.0059 31.4705 25.1404 31.5096 25.2905C31.5442 25.423 31.5309 25.4993 31.5203 25.5622C31.5171 25.5805 31.5141 25.5977 31.5127 25.6148C31.5076 25.6732 31.5455 25.722 31.5905 25.7799C31.6486 25.8547 31.7184 25.9444 31.721 26.0887C31.7292 26.5485 31.8647 26.7115 31.9666 26.8328C31.9967 26.8687 32.0238 26.9006 32.0443 26.9357C32.0779 26.9933 32.1012 27.0679 32.1168 27.1455C32.1311 27.2183 32.1389 27.2942 32.142 27.362C32.1464 27.4708 32.2518 27.6553 32.3522 27.7839C32.39 27.8327 32.423 27.9063 32.464 27.9929C32.5063 28.0825 32.5572 28.1861 32.629 28.2887C32.8111 28.5478 32.9144 28.6847 32.9961 28.796C33.0195 28.8277 33.0414 28.8573 33.0635 28.8868C33.1334 28.9801 33.2162 29.0992 33.3013 29.2214C33.3604 29.3062 33.4205 29.3925 33.4775 29.4721L33.4273 29.3964C33.4723 29.445 33.5147 29.4882 33.5545 29.526C33.7425 29.8006 33.9356 30.0639 34.146 30.3123C34.2262 30.4073 34.2838 30.5217 34.3174 30.652C34.3337 30.7024 34.3329 30.7411 34.33 30.7813C34.3167 30.934 34.2822 31.1053 34.1812 31.2358C34.0812 31.3655 33.9281 31.4541 33.7289 31.4388C33.6779 31.4351 33.6259 31.424 33.583 31.4173C33.4564 31.3949 33.3248 31.3291 33.2157 31.2324C32.9179 30.969 32.6396 30.6835 32.3844 30.3878C32.3488 30.3465 32.3134 30.3048 32.278 30.2624C32.2694 30.2486 32.2403 30.2097 32.2333 30.195C32.0178 29.8652 31.7991 29.5244 31.6006 29.1572C31.4438 28.8673 31.2964 28.5633 31.1688 28.2466C31.1556 28.214 31.1427 28.1812 31.13 28.1484C31.0114 27.9474 30.9033 27.7373 30.8284 27.5613C30.8112 27.5216 30.7953 27.4832 30.7816 27.4482C30.7234 27.2998 30.7109 27.1844 30.7003 27.0856C30.693 27.0175 30.6869 26.9578 30.668 26.9008C30.6579 26.8705 30.643 26.8289 30.6251 26.7793C30.552 26.5761 30.4303 26.2319 30.3765 25.9045C30.3525 25.7591 30.3385 25.5869 30.3246 25.4239C30.3185 25.3518 30.3125 25.2818 30.3058 25.2171C30.2899 25.0697 30.2705 24.9476 30.2398 24.8842C30.2155 24.8341 30.1936 24.7798 30.1778 24.7398C30.1706 24.721 30.1624 24.7027 30.1687 24.7127C30.1738 24.7194 30.1768 24.731 30.2193 24.7804C30.2435 24.818 30.4273 24.969 30.6295 24.955C30.9696 24.8975 30.8776 24.8524 30.8892 24.8645C30.8776 24.8701 30.8482 24.8929 30.8163 24.9177C30.654 25.0588 30.344 25.2284 30.1318 25.2696C30.1121 25.2748 30.0921 25.2792 30.0719 25.2826C29.9006 25.3047 29.7577 25.3163 29.4813 25.1488C29.447 25.1248 29.4214 25.1032 29.3971 25.0815C29.2792 24.9725 29.1925 24.8611 29.0727 24.7137C28.9374 24.5441 28.8714 24.4112 28.8166 24.2982C28.751 24.1606 28.7053 24.0533 28.611 23.9312C28.5951 23.9101 28.5779 23.8879 28.5599 23.8657C28.4133 23.684 28.3029 23.4919 28.2501 23.3308C28.2262 23.2574 28.1922 23.1773 28.1577 23.095C28.1119 22.9858 28.0651 22.8723 28.0383 22.7633C28.0162 22.6735 28.0182 22.592 28.0197 22.5198C28.0202 22.4973 28.0206 22.4757 28.0203 22.4551C27.9928 22.3883 27.965 22.3219 27.9366 22.2561C27.9274 22.2473 27.9174 22.2382 27.9071 22.2288C27.8938 22.2166 27.8796 22.2037 27.865 22.1899C27.8453 22.1728 27.8248 22.1561 27.8145 22.1594C27.8139 22.1598 27.7748 22.2035 27.9596 22.3177C28.2137 22.4235 28.3261 22.3161 28.334 22.3221C28.3527 22.3124 28.3388 22.3208 28.3246 22.332C28.2925 22.3565 28.244 22.3937 28.1941 22.4347C28.1172 22.4984 28.0358 22.5711 27.9576 22.6722C27.9553 22.6752 27.953 22.6781 27.9508 22.6811C27.8961 22.7532 27.8415 22.841 27.7871 22.9291C27.7061 23.0603 27.6265 23.1909 27.5518 23.2658C27.5232 23.2947 27.4872 23.3079 27.4503 23.3223C27.4501 23.3223 27.4499 23.3224 27.4497 23.3224C27.4473 23.3234 27.4448 23.3244 27.4423 23.3253C27.2949 23.5366 27.1487 23.7505 27.0032 23.9649C26.9935 23.9857 26.9836 24.0067 26.9736 24.0275C26.9253 24.1289 26.8784 24.2274 26.862 24.3032C26.8445 24.3848 26.7443 24.5474 26.6385 24.7186C26.5691 24.8309 26.4975 24.9467 26.4449 25.0464C26.4142 25.1046 26.3598 25.1401 26.304 25.1765C26.2518 25.2105 26.1983 25.2454 26.1611 25.3005C26.1426 25.3281 26.127 25.3615 26.1105 25.3972C26.0959 25.4286 26.0805 25.4619 26.0614 25.4944C26.0436 25.5246 25.9868 25.5781 25.9139 25.6466C25.8688 25.689 25.8176 25.7371 25.7655 25.7891C25.7469 25.8159 25.7282 25.8427 25.7096 25.8694C25.6173 26.0014 25.5243 26.1329 25.4306 26.2638C25.4193 26.3065 25.4156 26.3484 25.4215 26.3891C25.4258 26.4182 25.4352 26.4477 25.4448 26.4779C25.4579 26.519 25.4713 26.5615 25.4729 26.6066C25.4742 26.6418 25.4617 26.6718 25.441 26.6818C25.4314 26.6864 25.4201 26.687 25.4098 26.6874C25.3981 26.6879 25.3876 26.6884 25.3824 26.6951C25.3787 26.6999 25.3794 26.7088 25.3803 26.7196C25.3817 26.7369 25.3834 26.7593 25.3682 26.7788C25.3113 26.8515 25.241 26.9292 25.1721 27.0052C25.0953 27.0897 25.0201 27.1722 24.9668 27.2436C24.9071 27.3237 24.7987 27.4176 24.6897 27.5118C24.6132 27.5779 24.5375 27.6429 24.4772 27.7041C24.4187 27.7634 24.3716 27.8385 24.3266 27.9106C24.2719 27.9977 24.2201 28.0804 24.1502 28.1307C24.1361 28.1407 24.1039 28.1398 24.0628 28.1395C24.0339 28.1391 24.0008 28.1387 23.9674 28.1415C23.8983 28.2215 23.8281 28.3006 23.7569 28.3789C23.757 28.384 23.757 28.3892 23.7572 28.3944C23.7572 28.3945 23.7572 28.3946 23.7572 28.3947C23.7597 28.5074 23.7617 28.6614 23.6201 28.7468C23.6139 28.7506 23.6074 28.7542 23.6006 28.7576C23.5601 28.778 23.5196 28.7775 23.4832 28.777C23.4477 28.7761 23.4151 28.7763 23.3908 28.7956C23.363 28.8179 23.3474 28.8599 23.3298 28.906C23.3051 28.9707 23.2767 29.0436 23.2062 29.0807C23.2014 29.0832 23.1963 29.0859 23.1909 29.0887C23.1398 29.116 23.0639 29.1563 22.9635 29.1787C22.8121 29.3155 22.5953 29.4968 22.3476 29.6159C22.3128 29.6322 22.2785 29.6479 22.2443 29.6635C21.891 29.8239 21.5297 29.9688 21.1548 30.095C20.9718 30.1563 20.7686 30.1557 20.5956 30.0873C20.4238 30.0193 20.2922 29.8877 20.2704 29.7263C20.2436 29.5671 20.2408 29.4093 20.3064 29.2577C20.3699 29.1071 20.4833 28.9805 20.6271 28.8976C20.8621 28.7626 21.0952 28.6144 21.3259 28.4606C21.3371 28.4508 21.3488 28.4408 21.3597 28.4314C21.4346 28.368 21.4939 28.2913 21.5519 28.2122C21.5543 28.2051 21.5562 28.1982 21.5578 28.1914C21.5611 28.1773 21.5628 28.1638 21.5641 28.1507Z" fill="white"/>
<path d="M24.6002 25.1403C24.4872 25.189 24.3157 25.1017 24.2216 25.049C24.2199 25.048 24.2181 25.0471 24.2164 25.0462C24.194 25.0338 24.1718 25.0246 24.1458 25.0136C24.0835 24.9866 23.999 24.9533 23.8349 24.823C23.7807 24.7995 23.7253 24.7731 23.6695 24.7431C23.639 24.7268 23.6072 24.7088 23.5763 24.6904C23.0445 24.375 22.6856 23.8971 22.4598 23.5852C22.4562 23.5825 22.4528 23.5799 22.4493 23.5773C22.4327 23.5651 22.4172 23.5545 22.4076 23.5489C22.5196 23.6467 22.7236 23.7162 22.8641 23.7112C23.0117 23.7096 23.0908 23.6759 23.1417 23.6554C23.2407 23.6102 23.2563 23.5884 23.2691 23.5787C23.2885 23.5591 23.2676 23.5703 23.2488 23.576C23.177 23.6026 23.1011 23.6472 23.0432 23.6763C22.7821 23.9233 22.5116 24.2228 22.2643 24.525C22.2573 24.5336 22.2503 24.5423 22.2432 24.551C22.1711 24.6406 22.1003 24.7304 22.0312 24.8211C21.9607 24.9135 21.8911 25.0064 21.8218 25.0997C21.7925 25.1628 21.767 25.2255 21.7428 25.2836C21.7091 25.3648 21.6774 25.4376 21.6421 25.4899C21.5576 25.6157 21.4206 25.7241 21.3171 25.8027C21.3 25.8157 21.2848 25.8269 21.2696 25.8387C21.2068 25.9198 21.1441 25.9997 21.0778 26.0808C21.0683 26.081 21.0587 26.081 21.0489 26.0809C20.9435 26.0795 20.8671 26.1398 20.7746 26.2232C20.7609 26.2357 20.7465 26.2491 20.7312 26.2634C20.6812 26.3099 20.623 26.3639 20.5498 26.4223C20.5025 26.46 20.4566 26.4558 20.4193 26.4522C20.4083 26.4512 20.398 26.4502 20.3886 26.4504C20.3564 26.4512 20.3531 26.4851 20.3489 26.5255C20.3435 26.5777 20.3371 26.6404 20.2656 26.6541C20.0379 26.6976 20.0285 26.8169 20.0212 26.9073C20.0191 26.9338 20.0171 26.9579 20.0099 26.9767C19.9865 27.0378 19.9051 27.0718 19.8313 27.084C19.7729 27.0936 19.72 27.1839 19.6901 27.2646C19.6788 27.2952 19.6504 27.3212 19.6161 27.3522C19.5811 27.3839 19.5399 27.421 19.5071 27.4728C19.424 27.6039 19.3757 27.6733 19.3366 27.729C19.3339 27.7328 19.3312 27.7366 19.3286 27.7404C19.3172 27.7547 19.3058 27.7686 19.294 27.7826C19.2447 27.8414 19.1703 27.9129 19.0754 27.9825C19.0313 28.0149 18.983 28.0466 18.9329 28.0758C18.8774 28.1112 18.8265 28.1427 18.7851 28.1713C18.591 28.2245 18.4091 28.251 18.2306 28.2687C18.215 28.2715 18.2092 28.2719 18.2033 28.2724C18.1057 28.2803 18.0262 28.2204 17.9497 28.1132C17.8726 28.0058 17.804 27.8592 17.7648 27.6992C17.7259 27.5392 17.7188 27.3771 17.7524 27.2444C17.7862 27.1116 17.858 27.0221 17.9213 26.9946C17.9255 26.9929 17.9296 26.9911 17.9339 26.9893C18.0529 26.9349 18.1738 26.8725 18.2737 26.8115C18.2971 26.7972 18.3193 26.783 18.3395 26.7693C18.3491 26.7524 18.3762 26.726 18.4217 26.6804C18.4608 26.6434 18.5013 26.6064 18.5431 26.5698C18.6446 26.481 18.7499 26.3925 18.857 26.3061C18.868 26.2972 18.8793 26.2881 18.8903 26.2793C18.9492 26.172 19.0107 26.0669 19.0624 26.0023C19.1052 25.9491 19.1562 25.9321 19.1999 25.9174C19.2299 25.9073 19.2566 25.8984 19.2746 25.8796C19.2843 25.8695 19.2968 25.8548 19.3118 25.8371C19.3732 25.7648 19.4773 25.642 19.612 25.5727C19.6718 25.542 19.7506 25.5169 19.8262 25.4927C19.9103 25.4658 19.9902 25.4402 20.0337 25.4103C20.0472 25.4008 20.0562 25.3924 20.062 25.3831C20.1044 25.3126 20.1818 25.2672 20.2517 25.2236C20.3182 25.1821 20.3759 25.1445 20.3827 25.0981C20.3916 25.0419 20.4273 25.0239 20.482 24.9947C20.5194 24.9749 20.5657 24.9497 20.6164 24.9038C20.6753 24.8504 20.7289 24.8244 20.775 24.8013C20.8397 24.7689 20.8884 24.7439 20.9083 24.6613C20.9297 24.5703 20.9641 24.4859 21.0175 24.4408C21.0423 24.4197 21.0628 24.3917 21.0851 24.3609C21.1138 24.3213 21.1447 24.2782 21.1853 24.2504C21.2191 24.2269 21.2643 24.2203 21.3041 24.2146C21.3166 24.2127 21.3285 24.2109 21.3395 24.2087C21.3584 24.1829 21.3765 24.1578 21.3945 24.1318C21.3934 24.1247 21.3921 24.117 21.3907 24.109C21.3839 24.0685 21.3747 24.0199 21.3852 23.9748C21.3882 23.962 21.3923 23.9501 21.3973 23.9392C21.4205 23.8886 21.4613 23.8571 21.5044 23.8236C21.5452 23.792 21.5876 23.759 21.6179 23.7069C21.638 23.672 21.6546 23.6261 21.6701 23.5816C21.6941 23.5144 21.7173 23.4486 21.7544 23.4169C21.7684 23.4049 21.7935 23.4041 21.8184 23.4035C21.8186 23.4035 21.8187 23.4035 21.8188 23.4035C21.8205 23.4035 21.8222 23.4034 21.8239 23.4034C21.8776 23.3008 21.9313 23.1956 21.9867 23.0889C21.9886 23.0775 21.9904 23.0664 21.9927 23.0548C22.003 22.999 22.0138 22.9445 22.0072 22.8971C22.0002 22.8458 22.0373 22.7601 22.0934 22.6579C22.1309 22.5907 22.1753 22.5163 22.2402 22.4295C22.2803 22.3787 22.3442 22.3466 22.4709 22.3005C22.5309 22.2807 22.6075 22.252 22.7407 22.2359C22.8681 22.2174 23.0966 22.2408 23.2642 22.3504C23.2881 22.3652 23.311 22.381 23.3326 22.3976C23.35 22.407 23.3715 22.4152 23.3917 22.4222C23.4131 22.4298 23.4348 22.4374 23.4544 22.4479C23.4726 22.4577 23.4971 22.4951 23.5234 22.5398C23.54 22.5676 23.557 22.5979 23.5756 22.6274C23.6489 22.6806 23.7166 22.7299 23.7818 22.7766C23.8064 22.7751 23.8328 22.7678 23.8617 22.7536C23.8824 22.7434 23.9052 22.7293 23.9284 22.7148C23.9599 22.695 23.9924 22.6744 24.0222 22.6616C24.0456 22.6517 24.0603 22.6528 24.0595 22.6652C24.0591 22.671 24.0554 22.6791 24.0521 22.6865C24.0483 22.6949 24.0449 22.7024 24.0474 22.7044C24.0492 22.7059 24.0552 22.7029 24.0624 22.6994C24.074 22.6937 24.0889 22.6863 24.0959 22.692C24.1223 22.7134 24.1468 22.742 24.1707 22.7694C24.1972 22.7997 24.2229 22.8282 24.2487 22.8434C24.2777 22.8604 24.2994 22.9072 24.3219 22.9527C24.3375 22.9844 24.3536 23.0156 24.3717 23.036C24.3893 23.056 24.4186 23.0601 24.4462 23.0629C24.4737 23.0657 24.4996 23.0672 24.5131 23.0843C24.5152 23.0873 24.5168 23.0911 24.518 23.0957C24.5193 23.1012 24.5113 23.1254 24.5021 23.156C24.4956 23.1778 24.4884 23.2028 24.4833 23.2266C24.5094 23.2406 24.5374 23.2557 24.5665 23.2714C24.569 23.2689 24.5715 23.2662 24.5741 23.2636C24.5742 23.2635 24.5742 23.2634 24.5743 23.2634C24.6333 23.203 24.7076 23.1172 24.7324 23.1975C24.7389 23.2179 24.7359 23.2495 24.7334 23.2781C24.731 23.3061 24.729 23.3312 24.7372 23.3398C24.7466 23.3496 24.7662 23.3393 24.7872 23.3279C24.8169 23.3119 24.8495 23.2936 24.8648 23.3268C24.8658 23.329 24.8669 23.3315 24.8681 23.334C24.8794 23.3577 24.8965 23.3927 24.9062 23.4544C24.9813 23.4946 25.0591 23.5357 25.1386 23.577C25.2711 23.6457 25.4088 23.7149 25.5486 23.7794C25.6163 23.8109 25.6703 23.8974 25.7023 24.0255C25.7337 24.1536 25.7424 24.3123 25.7205 24.4724C25.6995 24.6325 25.6441 24.7828 25.563 24.8929C25.4821 25.0029 25.3846 25.0627 25.2951 25.0631C25.1491 25.0634 25.0033 25.0599 24.8567 25.0498C24.8485 25.0512 24.8403 25.0524 24.8321 25.0535C24.7718 25.0613 24.7089 25.0914 24.6446 25.1205C24.6299 25.1273 24.615 25.1339 24.6002 25.1403Z" fill="white"/>
</g>
<defs>
<filter id="filter0_d_141_679" x="0" y="0" width="52.8135" height="56.2351" filterUnits="userSpaceOnUse" color-interpolation-filters="sRGB">
<feFlood flood-opacity="0" result="BackgroundImageFix"/>
<feColorMatrix in="SourceAlpha" type="matrix" values="0 0 0 0 0 0 0 0 0 0 0 0 0 0 0 0 0 0 127 0" result="hardAlpha"/>
<feOffset dy="2"/>
<feGaussianBlur stdDeviation="6"/>
<feComposite in2="hardAlpha" operator="out"/>
<feColorMatrix type="matrix" values="0 0 0 0 0 0 0 0 0 0 0 0 0 0 0 0 0 0 0.06 0"/>
<feBlend mode="normal" in2="BackgroundImageFix" result="effect1_dropShadow_141_679"/>
<feBlend mode="normal" in="SourceGraphic" in2="effect1_dropShadow_141_679" result="shape"/>
</filter>
</defs>
</svg>
