<svg width="50" height="54" viewBox="0 0 50 54" fill="none" xmlns="http://www.w3.org/2000/svg">
<g filter="url(#filter0_d_141_695)">
<rect x="14" y="12" width="22" height="26" rx="2" fill="#DFDFDF" shape-rendering="crispEdges"/>
<rect x="13" y="11" width="24" height="28" rx="3" stroke="white" stroke-width="2" shape-rendering="crispEdges"/>
<path d="M20.4787 27.67C20.4518 27.603 20.6462 27.4036 20.7713 27.2502C20.7734 27.2477 20.7755 27.2451 20.7777 27.2425C20.8062 27.2086 20.8311 27.1744 20.8603 27.1339C20.8997 27.0793 20.947 27.013 21.0236 26.9182C21.0811 26.8472 21.1549 26.7601 21.2548 26.6479C21.308 26.5642 21.3617 26.4804 21.4162 26.3966C21.9222 25.618 22.4552 24.8477 22.9901 24.0773C23.0759 23.9537 23.1618 23.8297 23.2479 23.7055C23.2545 23.6935 23.2613 23.6812 23.2682 23.6689C23.4006 23.4298 23.5639 23.1322 23.6962 22.9621C23.8644 22.7461 23.9864 22.6031 24.0877 22.4866C24.4607 21.9424 24.8247 21.3956 25.2019 20.8366C25.3374 20.6462 25.4181 20.4914 25.665 20.2295C25.7075 20.1904 25.7518 20.1435 25.8636 20.0835C25.9521 20.0192 26.2729 19.9722 26.4436 20.0888C26.7343 20.2927 26.6942 20.3567 26.7465 20.4174C26.8269 20.5578 26.9055 20.6974 26.9835 20.8354C27.1087 21.0567 27.2319 21.2753 27.3574 21.4803C27.4426 21.5923 27.5273 21.6916 27.6044 21.7724C27.6464 21.8165 27.6861 21.8549 27.7216 21.8866C27.7871 21.9489 27.8468 22.0041 27.8967 22.0545C28.0791 22.2449 28.3446 22.5122 28.398 22.5584C28.3968 22.5583 28.3948 22.5578 28.3917 22.557C28.341 22.5383 28.3166 22.54 28.304 22.5408C28.2844 22.5371 28.2897 22.5351 28.2834 22.5332C28.2051 22.5448 28.2176 22.5648 28.3038 22.4396C28.3174 22.4332 28.3322 22.4257 28.3491 22.4162C28.3779 22.4001 28.408 22.3787 28.4574 22.3407C28.5192 22.3088 28.5379 22.2245 28.8484 22.1542C28.9658 22.1324 29.1354 22.169 29.2195 22.2202C29.3086 22.2699 29.3497 22.3145 29.3803 22.347C29.4379 22.4122 29.458 22.4506 29.4789 22.4857C29.5168 22.5533 29.5402 22.6045 29.5654 22.6567C29.615 22.7609 29.6644 22.8644 29.7211 22.9847C29.7394 23.0234 29.7574 23.0621 29.7769 23.1042C29.8295 23.2183 29.8863 23.3463 29.9454 23.4897C29.9976 23.6163 29.9948 23.6937 29.9927 23.7574C29.9921 23.776 29.9915 23.7935 29.9923 23.8106C29.9953 23.8692 30.0394 23.9123 30.0918 23.9637C30.1595 24.0299 30.2409 24.1094 30.2629 24.252C30.3333 24.7064 30.4896 24.8496 30.607 24.9559C30.6417 24.9874 30.6729 25.0154 30.6979 25.0474C30.739 25.0999 30.7722 25.1707 30.7982 25.2454C30.8222 25.3156 30.8401 25.3898 30.8524 25.4566C30.8715 25.5638 31.0009 25.7323 31.1178 25.8461C31.1618 25.8894 31.2046 25.9578 31.2569 26.0381C31.311 26.1211 31.3754 26.2168 31.4604 26.3088C31.6759 26.5408 31.7967 26.6626 31.8928 26.7618C31.9203 26.79 31.946 26.8163 31.9719 26.8426C32.0538 26.9255 32.152 27.0323 32.2528 27.1418C32.3228 27.2179 32.394 27.2953 32.4613 27.3664L32.4013 27.2983C32.4525 27.3402 32.5004 27.3774 32.5448 27.4094C32.7684 27.656 32.9953 27.8908 33.2374 28.1084C33.3297 28.1916 33.4023 28.2972 33.4532 28.4217C33.4762 28.4695 33.4806 28.508 33.4832 28.5482C33.4907 28.7013 33.4797 28.8756 33.3973 29.0186C33.3158 29.1606 33.1761 29.2692 32.9767 29.281C32.9256 29.2842 32.8725 29.2803 32.8292 29.2794C32.7007 29.2744 32.5614 29.227 32.4402 29.146C32.1095 28.9253 31.7952 28.6801 31.5022 28.4216C31.4614 28.3856 31.4206 28.349 31.3799 28.3118C31.3694 28.2993 31.3353 28.2647 31.3264 28.2511C31.0683 27.9535 30.8054 27.6454 30.559 27.3086C30.3644 27.0425 30.1772 26.7613 30.0079 26.4648C29.9905 26.4342 29.9733 26.4035 29.9562 26.3727C29.8115 26.1896 29.676 25.9961 29.5779 25.8318C29.5555 25.7948 29.5346 25.759 29.5162 25.7261C29.4384 25.587 29.4105 25.4743 29.3866 25.3778C29.3702 25.3114 29.356 25.253 29.3296 25.1992C29.3155 25.1704 29.295 25.1313 29.2707 25.0846C29.1707 24.8932 29.0035 24.5686 28.9058 24.2515C28.8624 24.1107 28.8252 23.9419 28.7894 23.7823C28.7736 23.7118 28.7582 23.6432 28.7427 23.5799C28.707 23.4361 28.6713 23.3177 28.6323 23.2591C28.6014 23.2128 28.5724 23.1619 28.5513 23.1244C28.5416 23.1068 28.5311 23.0898 28.5386 23.0988C28.5446 23.1047 28.5491 23.1158 28.5979 23.159C28.627 23.1929 28.8296 23.3177 29.028 23.2765C29.3572 23.1734 29.26 23.1413 29.273 23.1516C29.2623 23.1587 29.2362 23.1853 29.208 23.2143C29.0663 23.3759 28.7821 23.586 28.5774 23.6555C28.5586 23.6634 28.5394 23.6704 28.5199 23.6766C28.3532 23.7216 28.2132 23.7525 27.9166 23.624C27.8794 23.6048 27.8511 23.5868 27.8241 23.5686C27.6925 23.4766 27.5915 23.3779 27.4528 23.2482C27.2958 23.0985 27.2125 22.9757 27.1428 22.8711C27.0592 22.7437 26.9994 22.6436 26.8895 22.5354C26.8708 22.5166 26.8508 22.4969 26.83 22.4774C26.6601 22.3172 26.5248 22.1418 26.4506 21.9893C26.417 21.9199 26.3725 21.8451 26.3271 21.7682C26.267 21.6662 26.2052 21.5601 26.1639 21.4558C26.1299 21.3698 26.1208 21.2887 26.1126 21.217C26.11 21.1946 26.1074 21.1731 26.1043 21.1528C26.0681 21.0903 26.0316 21.0283 25.9945 20.967C25.9842 20.9595 25.9731 20.9519 25.9616 20.9439C25.9467 20.9337 25.931 20.9228 25.9146 20.9111C25.8928 20.8968 25.8701 20.883 25.8604 20.8877C25.8599 20.8882 25.8271 20.9368 26.0256 21.0249C26.2917 21.0954 26.3886 20.9737 26.3972 20.9786C26.4144 20.9664 26.4018 20.9767 26.3892 20.9897C26.3607 21.0183 26.3177 21.0617 26.2738 21.1091C26.2062 21.1826 26.1355 21.2657 26.0716 21.3764C26.0698 21.3796 26.0679 21.3829 26.0661 21.3862C26.0217 21.4649 25.9795 21.5594 25.9375 21.654C25.875 21.795 25.8138 21.9352 25.7499 22.0195C25.7255 22.052 25.6916 22.0699 25.657 22.0892C25.6569 22.0893 25.6567 22.0893 25.6565 22.0894C25.6542 22.0907 25.6518 22.092 25.6495 22.0933C25.532 22.3226 25.4161 22.5543 25.3011 22.7864C25.2943 22.8083 25.2872 22.8304 25.2802 22.8524C25.2461 22.9594 25.213 23.0634 25.2069 23.1407C25.2007 23.224 25.1234 23.3986 25.0417 23.5826C24.9882 23.7032 24.9329 23.8276 24.8942 23.9336C24.8717 23.9953 24.8227 24.0379 24.7723 24.0815C24.7252 24.1223 24.6769 24.1641 24.6476 24.2237C24.6329 24.2536 24.622 24.2888 24.6104 24.3264C24.6002 24.3595 24.5895 24.3945 24.5749 24.4293C24.5614 24.4616 24.5124 24.5223 24.4494 24.6001C24.4105 24.6483 24.3663 24.7028 24.3217 24.7614C24.3068 24.7905 24.292 24.8195 24.2771 24.8485C24.2036 24.9918 24.1293 25.1347 24.0541 25.2771C24.0487 25.3209 24.0507 25.3629 24.0621 25.4024C24.0703 25.4307 24.0836 25.4587 24.0972 25.4873C24.1157 25.5262 24.1348 25.5665 24.1425 25.611C24.1485 25.6457 24.1401 25.677 24.121 25.6898C24.1122 25.6957 24.101 25.6977 24.0909 25.6996C24.0793 25.7016 24.069 25.7035 24.0648 25.7109C24.0617 25.7162 24.0637 25.7249 24.066 25.7355C24.0697 25.7524 24.0745 25.7744 24.062 25.7957C24.0155 25.8755 23.9564 25.962 23.8984 26.0466C23.8338 26.1407 23.7704 26.2327 23.7273 26.3106C23.6789 26.398 23.5843 26.5058 23.489 26.6138C23.4222 26.6897 23.356 26.7644 23.3045 26.8332C23.2545 26.8998 23.2181 26.9806 23.1832 27.0581C23.1409 27.1519 23.1007 27.2408 23.0383 27.3001C23.0257 27.3119 22.9936 27.3154 22.9529 27.3206C22.9242 27.3242 22.8913 27.3282 22.8586 27.3356C22.8009 27.4242 22.7422 27.512 22.6822 27.5993C22.683 27.6043 22.6837 27.6094 22.6845 27.6146C22.6846 27.6147 22.6846 27.6148 22.6846 27.6149C22.7024 27.7262 22.7252 27.8785 22.5965 27.9823C22.5908 27.9869 22.5848 27.9914 22.5786 27.9957C22.5413 28.0213 22.5011 28.0263 22.4649 28.0308C22.4296 28.0347 22.3973 28.0393 22.3759 28.0617C22.3514 28.0875 22.3416 28.1312 22.3304 28.1793C22.3147 28.2468 22.2964 28.3229 22.2316 28.3691C22.2272 28.3723 22.2224 28.3756 22.2175 28.3791C22.1706 28.4131 22.1008 28.4634 22.0044 28.4991C21.8729 28.6551 21.6826 28.8641 21.4534 29.0157C21.4211 29.0365 21.3893 29.0568 21.3574 29.0768C21.0291 29.2836 20.6907 29.4761 20.3363 29.6518C20.1634 29.7374 19.9619 29.7642 19.7813 29.7199C19.6019 29.6758 19.4537 29.5632 19.4102 29.4062C19.3621 29.2522 19.338 29.0962 19.3824 28.9371C19.4249 28.7793 19.5202 28.6385 19.6515 28.5369C19.8659 28.3714 20.0769 28.1929 20.2847 28.0093C20.2944 27.9981 20.3046 27.9866 20.3142 27.9758C20.3798 27.9028 20.4281 27.8189 20.4749 27.7326C20.4763 27.7252 20.4773 27.7182 20.4779 27.7112C20.4793 27.6968 20.4792 27.6831 20.4787 27.67Z" fill="white"/>
<path d="M23.0791 24.2764C22.9738 24.34 22.792 24.2767 22.6917 24.2372C22.6898 24.2365 22.688 24.2359 22.6861 24.2352C22.6623 24.226 22.6391 24.2198 22.6118 24.2125C22.5463 24.1942 22.4582 24.1726 22.278 24.0657C22.221 24.0498 22.1626 24.0311 22.1032 24.0089C22.0708 23.9969 22.0369 23.9834 22.0037 23.9693C21.4341 23.7289 21.0138 23.3039 20.7479 23.0255C20.744 23.0232 20.7402 23.0212 20.7364 23.0191C20.7184 23.0092 20.7015 23.0008 20.6913 22.9965C20.8155 23.0783 21.027 23.1195 21.1656 23.0955C21.3116 23.074 21.3853 23.0299 21.4331 23.0027C21.525 22.9445 21.5375 22.9208 21.5488 22.9094C21.5654 22.8874 21.5463 22.9014 21.5284 22.9095C21.4609 22.9456 21.3917 23.0001 21.3383 23.0367C21.1131 23.3168 20.8856 23.6502 20.6814 23.9831C20.6757 23.9925 20.6699 24.0021 20.6641 24.0117C20.6047 24.1102 20.5468 24.2088 20.4906 24.308C20.4332 24.4091 20.3768 24.5106 20.3208 24.6124C20.3004 24.6789 20.2836 24.7444 20.2674 24.8053C20.2451 24.8903 20.2235 24.9667 20.1956 25.0234C20.1289 25.1594 20.0079 25.2854 19.9159 25.3772C19.9007 25.3925 19.8873 25.4056 19.8738 25.4193C19.8226 25.5082 19.7712 25.5959 19.7165 25.6852C19.7071 25.6867 19.6976 25.688 19.6879 25.6892C19.5833 25.7021 19.5158 25.7722 19.4354 25.8673C19.4235 25.8816 19.411 25.8968 19.3978 25.913C19.3546 25.9658 19.3043 26.0273 19.2396 26.0951C19.1979 26.1387 19.1518 26.1408 19.1144 26.1423C19.1033 26.1428 19.093 26.1432 19.0837 26.1447C19.0519 26.1499 19.0532 26.1839 19.0545 26.2244C19.0562 26.2769 19.0584 26.3399 18.9894 26.3632C18.7697 26.4371 18.7765 26.5566 18.7815 26.6471C18.783 26.6736 18.7842 26.6978 18.7797 26.7174C18.7648 26.7811 18.6887 26.8258 18.6173 26.8479C18.5607 26.8653 18.5205 26.9619 18.5019 27.046C18.4948 27.0778 18.4701 27.1074 18.4404 27.1428C18.41 27.1789 18.3742 27.2212 18.3487 27.277C18.2841 27.4181 18.2457 27.4934 18.2145 27.5539C18.2123 27.5581 18.2102 27.5622 18.2081 27.5663C18.1987 27.582 18.1893 27.5973 18.1795 27.6128C18.1386 27.6777 18.0746 27.7587 17.99 27.8405C17.9507 27.8785 17.9071 27.9165 17.8614 27.9522C17.8112 27.9947 17.765 28.0329 17.7279 28.0668C17.5428 28.1458 17.3662 28.1967 17.1917 28.2384C17.1766 28.2433 17.171 28.2445 17.1651 28.2457C17.0695 28.2668 16.9827 28.2182 16.8924 28.1223C16.8014 28.0263 16.7136 27.8904 16.6531 27.7372C16.5929 27.5839 16.5639 27.4243 16.5793 27.2883C16.5947 27.1521 16.6537 27.0537 16.7127 27.0179C16.7167 27.0156 16.7205 27.0133 16.7245 27.011C16.8351 26.9409 16.9464 26.8627 17.0372 26.7888C17.0584 26.7714 17.0784 26.7544 17.0966 26.738C17.1038 26.72 17.1271 26.6901 17.166 26.6388C17.1997 26.5969 17.2348 26.5547 17.2713 26.5128C17.3598 26.4111 17.4522 26.3092 17.5466 26.209C17.5563 26.1987 17.5663 26.1882 17.576 26.178C17.6199 26.0637 17.6665 25.9512 17.709 25.8803C17.7442 25.8217 17.7924 25.798 17.8338 25.7775C17.8622 25.7635 17.8873 25.751 17.9027 25.7299C17.9109 25.7186 17.9213 25.7024 17.9338 25.6828C17.9848 25.6028 18.0713 25.4671 18.1954 25.3802C18.2505 25.3416 18.3252 25.3062 18.3968 25.2719C18.4765 25.2339 18.5522 25.1977 18.5912 25.1622C18.6033 25.1509 18.6111 25.1414 18.6156 25.1314C18.648 25.0558 18.7186 25.0003 18.7819 24.9477C18.8423 24.8976 18.8943 24.8525 18.8948 24.8056C18.8959 24.7487 18.9289 24.7261 18.9791 24.6897C19.0135 24.665 19.056 24.6339 19.1 24.5815C19.1511 24.5206 19.2007 24.4875 19.2432 24.4585C19.303 24.4175 19.3479 24.3863 19.3564 24.3017C19.3653 24.2086 19.3879 24.1203 19.4347 24.0684C19.4564 24.0442 19.4729 24.0136 19.4909 23.9801C19.514 23.937 19.5388 23.8901 19.5752 23.857C19.6055 23.8293 19.6494 23.8165 19.6881 23.8055C19.7002 23.802 19.7118 23.7986 19.7224 23.7948C19.7376 23.7668 19.7521 23.7394 19.7665 23.7113C19.7644 23.7043 19.762 23.6969 19.7595 23.6891C19.7474 23.6499 19.7317 23.6031 19.736 23.557C19.7372 23.5438 19.7396 23.5315 19.7431 23.52C19.7592 23.4667 19.7954 23.4301 19.8336 23.391C19.8698 23.3541 19.9073 23.3158 19.9302 23.26C19.9455 23.2227 19.9556 23.175 19.965 23.1288C19.9797 23.0589 19.9938 22.9906 20.0262 22.9542C20.0385 22.9405 20.0633 22.9362 20.0879 22.9322C20.088 22.9322 20.0881 22.9322 20.0883 22.9322C20.0899 22.9319 20.0916 22.9317 20.0932 22.9314C20.1326 22.8225 20.1716 22.711 20.212 22.5978C20.2123 22.5862 20.2126 22.575 20.2133 22.5631C20.216 22.5065 20.2193 22.451 20.2063 22.405C20.1925 22.355 20.2176 22.2652 20.2594 22.1563C20.2874 22.0847 20.3213 22.0049 20.3739 21.9101C20.4067 21.8544 20.4657 21.814 20.5849 21.7511C20.6417 21.7233 20.7138 21.6845 20.8435 21.6505C20.9672 21.615 21.1969 21.6073 21.3778 21.6931C21.4034 21.7045 21.4282 21.7171 21.4519 21.7306C21.4704 21.7376 21.4928 21.7428 21.5138 21.747C21.5361 21.7517 21.5585 21.7562 21.5794 21.764C21.5988 21.7712 21.6281 21.805 21.6602 21.8457C21.6804 21.871 21.7014 21.8987 21.7238 21.9254C21.8036 21.9682 21.8773 22.0079 21.9482 22.0453C21.9724 22.0405 21.9976 22.0297 22.0243 22.0117C22.0435 21.9988 22.0642 21.9817 22.0852 21.9642C22.1137 21.9403 22.1431 21.9155 22.1709 21.8989C22.1927 21.8859 22.2075 21.885 22.2084 21.8974C22.2088 21.9032 22.2062 21.9117 22.2039 21.9195C22.2012 21.9283 22.1989 21.9362 22.2017 21.9379C22.2036 21.939 22.2092 21.9353 22.2158 21.9308C22.2265 21.9236 22.2403 21.9143 22.2481 21.919C22.2771 21.9366 22.3052 21.9617 22.3326 21.9855C22.363 22.012 22.3923 22.0368 22.42 22.0483C22.4509 22.0612 22.4788 22.1047 22.5072 22.1467C22.527 22.176 22.5472 22.2047 22.5678 22.2225C22.588 22.2399 22.6176 22.24 22.6453 22.239C22.673 22.2381 22.6988 22.2361 22.7145 22.2511C22.717 22.2539 22.7191 22.2574 22.7208 22.2618C22.7229 22.2671 22.7183 22.2921 22.7133 22.3238C22.7098 22.3462 22.706 22.3719 22.7042 22.3962C22.732 22.4065 22.7618 22.4177 22.7927 22.4294C22.7948 22.4265 22.797 22.4235 22.7992 22.4205C22.7992 22.4205 22.7993 22.4204 22.7993 22.4203C22.8496 22.3525 22.9116 22.2574 22.9471 22.3336C22.9563 22.353 22.9576 22.3847 22.959 22.4133C22.9604 22.4414 22.9618 22.4666 22.9711 22.474C22.9817 22.4824 22.9997 22.4696 23.0191 22.4554C23.0463 22.4356 23.0762 22.413 23.0957 22.4438C23.0971 22.4459 23.0985 22.4482 23.1 22.4505C23.1145 22.4725 23.1361 22.5049 23.154 22.5647C23.234 22.5943 23.3166 22.6246 23.4009 22.6547C23.5416 22.7048 23.6873 22.7548 23.8345 22.7997C23.9059 22.8217 23.9711 22.9002 24.0201 23.0227C24.0687 23.1454 24.0987 23.3014 24.0987 23.463C24.0996 23.6245 24.065 23.7809 23.9996 23.901C23.9344 24.0209 23.8458 24.0934 23.7572 24.1059C23.6126 24.126 23.4677 24.1422 23.321 24.1521C23.3131 24.1546 23.3051 24.1569 23.2971 24.159C23.2384 24.1749 23.1802 24.2133 23.1204 24.2509C23.1068 24.2595 23.093 24.2682 23.0791 24.2764Z" fill="white"/>
</g>
<defs>
<filter id="filter0_d_141_695" x="0" y="0" width="50" height="54" filterUnits="userSpaceOnUse" color-interpolation-filters="sRGB">
<feFlood flood-opacity="0" result="BackgroundImageFix"/>
<feColorMatrix in="SourceAlpha" type="matrix" values="0 0 0 0 0 0 0 0 0 0 0 0 0 0 0 0 0 0 127 0" result="hardAlpha"/>
<feOffset dy="2"/>
<feGaussianBlur stdDeviation="6"/>
<feComposite in2="hardAlpha" operator="out"/>
<feColorMatrix type="matrix" values="0 0 0 0 0 0 0 0 0 0 0 0 0 0 0 0 0 0 0.06 0"/>
<feBlend mode="normal" in2="BackgroundImageFix" result="effect1_dropShadow_141_695"/>
<feBlend mode="normal" in="SourceGraphic" in2="effect1_dropShadow_141_695" result="shape"/>
</filter>
</defs>
</svg>
