<svg width="32" height="40" viewBox="0 0 32 40" fill="none" xmlns="http://www.w3.org/2000/svg">
<rect width="30" height="40" rx="2" fill="#3D96BC"/>
<path d="M17.6076 15.0652L19.5105 15.0652L20.3997 15.8716L20.7744 18.5435V20.672L19.3208 21.7103H18.1267L17.2606 21.2614L16.6387 17.915L17.6076 15.0652Z" fill="white"/>
<path d="M20.7744 18.5435L20.3997 15.8716L19.5105 15.0652M19.5105 15.0652L17.6076 15.0652L16.6387 17.915L17.2606 21.2614L18.1267 21.7103H19.3208L20.7744 20.672V18.5435L20.3997 15.8716L19.5105 15.0652Z" stroke="white"/>
<path d="M6.65288 15.0647L10.4589 15.0647L12.2373 16.6777L12.9869 22.0218V26.2791L10.0795 28.3559H7.69118L5.95872 27.458L4.71484 20.7647L6.65288 15.0647Z" fill="white"/>
<path d="M12.9869 22.0218L12.2374 16.6777L10.459 15.0647M10.4589 15.0647L6.65288 15.0647L4.71484 20.7647L5.95872 27.458L7.69118 28.3559H10.0795L12.9869 26.2791V22.0218L12.2373 16.6777L10.4589 15.0647Z" stroke="white"/>
<path d="M7.27741 25.5457C7.37061 25.8024 7.41036 26.4045 7.42601 26.4761C7.4258 26.4764 7.42552 26.4765 7.42506 26.476C7.42341 26.4745 7.42029 26.468 7.41364 26.4545C7.40502 26.4398 7.39458 26.4237 7.3854 26.4129C7.3654 26.3839 7.3411 26.4058 7.56568 26.5486C7.60888 26.579 7.66115 26.6121 7.72953 26.6462C7.81765 26.6721 7.91441 26.6907 8.01863 26.7014C8.60797 26.7635 9.38625 26.544 10.0314 26.183C10.2307 26.1639 10.612 25.2768 10.82 24.544C10.8247 24.5238 10.8295 24.5031 10.8344 24.4819C10.9285 24.0749 11.0298 23.5569 11.1244 23.2355C11.1928 23.0035 11.2498 22.8159 11.3008 22.6503C11.3381 22.532 11.3695 22.4296 11.3975 22.3352C11.6666 21.0809 11.6787 19.7967 11.4526 18.4822C11.4498 18.464 11.447 18.4459 11.4442 18.428C11.3808 18.0293 11.2846 17.6414 11.1399 17.2869C11.0433 17.0499 10.9256 16.8294 10.783 16.6254C10.7432 16.569 10.7011 16.5235 10.6537 16.4843C10.5456 16.4133 10.4098 16.3739 10.2541 16.3477C10.0356 16.3116 9.80092 16.3042 9.60494 16.2888C9.30177 16.266 8.95171 16.2332 8.62828 16.1952C8.52864 16.1804 8.44205 16.1842 8.35842 16.2025C8.32052 16.2109 8.28359 16.2223 8.24861 16.2358C8.06509 16.3334 7.86889 16.5237 7.67465 16.7581C7.65626 16.7689 7.63746 16.7799 7.61827 16.7913C7.53799 16.8389 7.45946 16.9021 7.37655 16.9823C7.24088 17.1067 7.1094 17.3038 6.97131 17.6073C6.88063 17.806 6.78741 18.0515 6.68147 18.3545C6.61329 18.5501 6.54939 18.6444 6.49659 18.7213C6.48109 18.7439 6.46659 18.7653 6.45343 18.7873C6.4322 18.823 6.42003 18.8623 6.41246 18.9057C6.40428 18.9536 6.40289 19.0046 6.4014 19.0617C6.39822 19.2 6.39703 19.3635 6.31189 19.5592C6.04391 20.1894 6.09746 20.5077 6.13019 20.7358C6.14057 20.8035 6.1505 20.8643 6.15331 20.9265C6.16208 21.1265 6.11113 21.4079 6.05647 21.6267C6.0516 21.6461 6.04739 21.6677 6.04378 21.691C6.01482 21.8691 6.03316 22.1631 6.06948 22.3904C6.08463 22.4873 6.08609 22.618 6.09116 22.7725C6.09636 22.9322 6.1055 23.1176 6.13683 23.3141C6.21738 23.81 6.27676 24.0694 6.32301 24.2769C6.33656 24.3363 6.34935 24.3908 6.36277 24.4458C6.40497 24.6186 6.45561 24.8323 6.514 25.044C6.56438 25.2273 6.62102 25.4102 6.67766 25.5628C6.69965 25.6225 6.72108 25.6768 6.7423 25.7272C6.86504 26.1841 7.00848 26.5713 7.2436 26.8959L7.11619 26.7726C7.13225 26.7871 7.14841 26.8005 7.1653 26.8132C7.23802 26.8686 7.32531 26.9396 7.43508 27.0248L7.39483 27.0181C7.44322 27.0532 7.50286 27.0915 7.55827 27.1332C7.73861 27.2653 7.85645 27.4262 7.84929 27.5912C7.84239 27.7552 7.72884 27.9128 7.50438 28.0225C7.43275 28.0563 7.35146 28.0844 7.25194 28.1001C7.24545 28.0989 7.22582 28.0963 7.21941 28.0947C7.00901 28.1159 6.736 28.0742 6.48416 27.9304C6.42843 27.8987 6.37416 27.8642 6.32216 27.8276C6.29869 27.8079 6.23318 27.749 6.21526 27.7241C5.78602 27.238 5.52102 26.6427 5.33648 26.0977C5.3209 26.0518 5.30583 26.0061 5.29096 25.9598C5.07248 25.2711 4.94207 24.5824 4.86773 23.8862C4.81349 23.3665 4.78956 22.8441 4.79982 22.3181C4.8009 22.2639 4.80239 22.2098 4.80424 22.1555C4.79088 21.9708 4.78246 21.7848 4.78006 21.6073C4.77536 21.3752 4.77578 21.1519 4.7845 20.972C4.7967 20.7169 4.84083 20.5314 4.88064 20.374C4.90814 20.2655 4.93372 20.1704 4.9478 20.0716C4.95535 20.0187 4.96488 19.9461 4.97756 19.8588C5.02195 19.5442 5.11594 19.035 5.2843 18.5642C5.3056 18.5046 5.32765 18.4452 5.35058 18.3863C5.43648 18.1658 5.55349 17.9081 5.67865 17.6598C5.85534 17.3038 6.06128 16.9739 6.14993 16.7939C6.23509 16.6153 6.35741 16.4287 6.50716 16.2587C6.6044 16.1494 6.70864 16.039 6.8141 15.9348C7.04219 15.7062 7.2857 15.5151 7.42397 15.3879C7.5887 15.2362 7.77808 15.1383 8.08571 15.072C8.25571 15.0375 8.46661 15.0178 8.71769 15.0454C8.76472 15.0512 8.81262 15.0567 8.86453 15.0621C9.15898 15.0926 9.37001 15.133 9.55044 15.1706C9.80612 15.2251 9.99655 15.2647 10.312 15.2913C10.6575 15.3173 11.0974 15.4553 11.3637 15.7243C11.4571 15.8148 11.5529 15.9235 11.6352 16.0428C11.6545 16.0705 11.6739 16.099 11.6931 16.1279C11.8086 16.3014 11.9162 16.494 11.9858 16.6795C12.0433 16.8325 12.0629 16.9683 12.0766 17.0863C12.0809 17.123 12.0847 17.1586 12.0886 17.1924C12.1303 17.3104 12.168 17.4292 12.2023 17.5479C12.2126 17.5657 12.2237 17.5846 12.2352 17.6045C12.2925 17.7035 12.3606 17.8269 12.4129 17.9879C12.4482 18.097 12.4717 18.2023 12.4881 18.3063C12.5079 18.4325 12.5204 18.5645 12.5313 18.6999C12.546 18.8838 12.5593 19.0793 12.5908 19.2983C12.6125 19.4486 12.6429 19.6196 12.6689 19.7904C12.708 20.0432 12.7367 20.2974 12.7276 20.4733C12.7243 20.5399 12.7047 20.5956 12.6849 20.6524C12.6848 20.6527 12.6847 20.6529 12.6845 20.6532C12.6832 20.657 12.6819 20.6608 12.6805 20.6647C12.6965 21.0917 12.69 21.52 12.6602 21.9486C12.6613 21.9859 12.662 22.0238 12.6625 22.0617C12.6651 22.2449 12.6622 22.4244 12.6768 22.5443C12.6859 22.6181 12.6796 22.7517 12.6618 22.9155C12.6489 23.0371 12.6332 23.1659 12.6148 23.3062C12.5886 23.5114 12.5586 23.7308 12.5416 23.9069C12.5312 24.012 12.4902 24.1026 12.4471 24.1982C12.4068 24.2877 12.3657 24.3764 12.3461 24.4827C12.3365 24.5348 12.3315 24.5932 12.3258 24.6563C12.3207 24.7117 12.3159 24.7676 12.3059 24.8296C12.2969 24.8856 12.2553 25.0057 12.1995 25.1582C12.1646 25.2539 12.1241 25.3621 12.082 25.4754C12.0018 25.7892 11.912 26.1037 11.772 26.4377C11.7565 26.5148 11.7478 26.5851 11.7491 26.6481C11.7506 26.692 11.756 26.7364 11.7615 26.7807C11.7694 26.8403 11.7737 26.9072 11.7586 26.9865C11.7452 27.0511 11.7118 27.1163 11.6731 27.1528C11.6555 27.1693 11.6378 27.1788 11.6217 27.1872C11.6031 27.1972 11.5861 27.2063 11.5731 27.223C11.5637 27.2351 11.5585 27.2513 11.5517 27.2713C11.5411 27.3027 11.5244 27.3466 11.4806 27.3946C11.3581 27.5292 11.1891 27.6714 11.0025 27.78C10.9594 27.8049 10.9153 27.8295 10.8716 27.8531C10.6845 27.9546 10.4973 28.0421 10.349 28.1146C10.1829 28.1964 9.92911 28.2754 9.66856 28.3338C9.48685 28.375 9.30188 28.4068 9.14198 28.4338C8.98544 28.4606 8.82273 28.5003 8.65914 28.5302C8.4633 28.5663 8.26491 28.5873 8.09477 28.5617C8.06032 28.5565 8.01849 28.5298 7.96711 28.4951C7.93063 28.4705 7.88947 28.4418 7.84294 28.4135C7.62993 28.3917 7.41271 28.3482 7.19827 28.2772C7.18967 28.278 7.18078 28.2787 7.17184 28.2795C7.17169 28.2795 7.17154 28.2796 7.17139 28.2796C7.04484 28.2903 6.88014 28.2946 6.69647 28.2253C6.60908 28.1948 6.51086 28.1425 6.40291 28.0452C6.32873 27.978 6.29084 27.9122 6.25872 27.8524C6.22687 27.793 6.19967 27.7394 6.14043 27.6755C6.07363 27.6027 5.97698 27.5214 5.88104 27.4073C5.82812 27.3444 5.77627 27.2719 5.73321 27.192C5.65937 27.0478 5.63296 26.9509 5.62566 26.8544C5.6249 26.8433 5.62414 26.8311 5.62377 26.8204C5.61803 26.7096 5.6214 26.5666 5.65825 26.4276C5.6202 26.0413 5.61127 25.6804 5.60741 25.3201C5.60254 24.7205 5.61952 24.1295 5.64316 23.5391C5.65499 23.2523 5.7273 22.9759 5.84698 22.7728C5.96683 22.5695 6.12295 22.4561 6.28449 22.4566C6.44609 22.4553 6.6023 22.5672 6.7255 22.7653C6.84856 22.9635 6.92781 23.2322 6.95138 23.5121C6.98952 23.9692 7.03239 24.4254 7.08116 24.8759C7.08569 24.8994 7.09015 24.9232 7.09441 24.9467C7.12617 25.1214 7.18134 25.2805 7.23819 25.4378C7.25121 25.4733 7.26441 25.5097 7.27741 25.5457Z" fill="#042A21"/>
<path d="M20.5634 23.9072C20.6438 24.1251 20.6533 24.5408 20.6803 24.7711C20.6807 24.7753 20.6812 24.7795 20.6817 24.7837C20.6873 24.8379 20.6961 24.8891 20.7075 24.9485C20.7366 25.0899 20.7684 25.2811 20.8565 25.6779C20.8982 25.7875 20.9427 25.8951 20.9896 25.9998C21.0854 26.2133 21.1957 26.4183 21.31 26.5855C21.4702 26.8157 21.6118 26.9424 21.8842 27.072C22.1544 27.1991 22.5394 27.3016 22.9447 27.4097C23.2385 27.4911 23.4998 27.5274 23.7402 27.5041C23.7525 27.5016 23.7648 27.4988 23.7772 27.4959C24.0113 27.4475 24.3312 27.2746 24.5881 27.1562C24.7204 27.0969 24.8421 27.0405 24.9522 26.9913C25.0726 26.9423 25.169 26.8951 25.2534 26.8491C25.7187 26.528 26.0525 26.0271 26.3195 25.3895C26.3812 25.2707 26.3928 25.0685 26.3603 24.7741C26.3699 24.8006 26.3803 24.7706 26.283 24.683C26.2645 24.6661 26.2431 24.6476 26.2186 24.6271C26.251 24.6383 26.1194 24.5777 25.9948 24.5612C25.8645 24.5387 25.7146 24.5281 25.5626 24.5255C25.2739 24.5209 24.9703 24.5418 24.6751 24.5799C24.6776 24.5799 24.6787 24.5799 24.6781 24.5804C24.6743 24.593 24.5811 24.6774 24.5154 24.7824C24.4165 24.9307 24.3341 25.1027 24.2632 25.2409C24.1812 25.4006 24.0921 25.5778 24.0117 25.7513C23.9467 25.8848 23.8999 26.0501 23.875 26.1994C23.8671 26.2463 23.8611 26.2913 23.8568 26.3337C23.8591 26.5708 23.8953 26.8193 23.9573 27.0601C23.9544 27.0777 23.9514 27.0953 23.9484 27.1136C23.9126 27.3349 23.986 27.6265 24.1735 27.9451C24.2048 27.9963 24.2406 28.0463 24.2717 28.0811C24.2713 28.087 24.3591 28.1514 24.4953 28.2151C24.6406 28.2844 24.7172 28.3491 24.7762 28.4022C24.7936 28.4177 24.811 28.4326 24.8281 28.4457C24.8884 28.4913 24.9694 28.4972 25.0644 28.5036C25.1884 28.512 25.3372 28.5215 25.5038 28.6223C25.5251 28.6353 25.5464 28.6479 25.5676 28.6601C26.0539 28.9429 26.3209 28.9512 26.5226 28.9581C26.5846 28.9602 26.6399 28.9617 26.6953 28.971C26.8729 29.0005 27.1038 29.1096 27.2731 29.2087C27.4077 29.2876 27.7072 29.3539 27.9408 29.3891C28.0279 29.402 28.1422 29.4397 28.2751 29.4838C28.4137 29.5299 28.5737 29.5834 28.7517 29.627C29.204 29.7388 29.4475 29.8094 29.6781 29.9005C29.7123 29.9142 29.7516 29.9313 29.7875 29.9481C29.8152 29.9608 29.8423 29.9737 29.8692 29.9869C30.0547 30.077 30.2729 30.2173 30.4687 30.3798C30.7047 30.5735 30.9067 30.7926 31.0538 30.9554C31.3399 31.3657 31.5482 31.7778 31.74 32.182C31.7457 32.1912 31.7587 32.2209 31.7636 32.2305C31.788 32.2933 31.8119 32.3578 31.835 32.4251C31.8851 32.5703 31.9151 32.7383 31.9121 32.8901C31.9123 33.0405 31.8808 33.1918 31.829 33.2897C31.7227 33.4959 31.5657 33.5953 31.4018 33.6048C31.237 33.6133 31.0752 33.5154 30.9412 33.3634C30.8752 33.2875 30.82 33.228 30.767 33.1576C30.7107 33.0782 30.6619 32.9996 30.6165 32.9021C30.5959 32.8578 30.5735 32.8123 30.5497 32.766L30.5696 32.8068C30.3465 32.4385 30.1161 32.087 29.8688 31.7973C29.6341 31.5218 29.3906 31.3152 29.1191 31.1762C29.0253 31.1287 28.8429 31.0576 28.6785 30.9968C28.2968 30.8561 27.8893 30.7183 27.4843 30.5756C27.4426 30.561 27.4014 30.5464 27.3592 30.5315C27.0037 30.4561 26.6476 30.3757 26.4005 30.3055C26.1971 30.2478 26.0566 30.1764 25.9386 30.1159C25.8559 30.0737 25.7848 30.0369 25.7065 30.0112C25.6648 29.9976 25.6079 29.9803 25.5384 29.9588C25.4307 29.9256 25.2942 29.8832 25.1426 29.8317C24.9016 29.7498 24.6239 29.6489 24.3582 29.5206C24.1652 29.4235 23.9515 29.3166 23.6743 29.1054C23.5905 29.0391 23.4971 28.955 23.4142 28.8483C23.1975 28.5438 23.1322 28.3124 23.0599 28.1874C22.9086 27.9106 22.8271 27.5716 22.7854 27.2715C22.7445 26.9847 22.7391 26.7317 22.706 26.5865C22.667 26.4125 22.6802 26.2579 22.7244 26.031C22.7573 25.8734 22.8015 25.6788 22.9024 25.4139C22.9173 25.3754 22.933 25.3387 22.9493 25.3037C23.0467 25.0987 23.1401 24.9558 23.2241 24.8341C23.362 24.638 23.4668 24.4982 23.6071 24.25C23.7665 23.9835 24.0095 23.6572 24.4631 23.5632C24.4926 23.5579 24.5233 23.5535 24.555 23.5503C24.6502 23.5427 24.7547 23.5309 24.8633 23.5209C25.0317 23.5053 25.2102 23.4942 25.3754 23.5069C25.5116 23.5174 25.6247 23.5515 25.7242 23.5843C25.7555 23.5945 25.7848 23.6045 25.814 23.6138C25.9244 23.6206 26.0364 23.6311 26.1529 23.6492C26.1728 23.6473 26.1938 23.6452 26.2158 23.6434C26.3286 23.6372 26.4686 23.6218 26.6861 23.7072C26.7455 23.7318 26.8108 23.7668 26.8746 23.8152C27.0222 23.9232 27.2204 24.0951 27.3297 24.406C27.3555 24.4827 27.373 24.5658 27.3795 24.6495C27.3836 24.7672 27.3945 24.9062 27.4025 25.0731C27.4098 25.2278 27.4125 25.4218 27.3695 25.6258C27.3585 25.6785 27.3445 25.7314 27.3276 25.7835C27.2785 25.9515 27.2209 26.1205 27.1575 26.2355C27.1289 26.2879 27.0887 26.3261 27.0486 26.363C27.0484 26.3631 27.0481 26.3633 27.0479 26.3634C27.0452 26.3659 27.0425 26.3684 27.0398 26.3709C26.8832 26.7268 26.6801 27.08 26.4149 27.3974C26.3946 27.4274 26.3736 27.4573 26.3522 27.4867C26.2478 27.6308 26.1322 27.7631 26.0638 27.8608C26.0095 27.9391 25.865 28.074 25.6747 28.2063C25.6203 28.2458 25.5628 28.2869 25.5026 28.3294C25.3535 28.435 25.1888 28.548 25.0436 28.6461C24.9589 28.7034 24.86 28.7287 24.7554 28.7515C24.6577 28.7727 24.5559 28.7917 24.4496 28.8333C24.3962 28.8541 24.3393 28.881 24.2763 28.9078C24.2212 28.9313 24.1614 28.9549 24.0966 28.9737C24.0371 28.9911 23.8966 29.0072 23.7206 29.0069C23.6118 29.0069 23.4896 29.0005 23.366 28.9884C23.1042 28.9906 22.8542 28.9633 22.6146 28.9206C22.5609 28.9114 22.5078 28.9022 22.4537 28.8927C22.3955 28.8984 22.3426 28.9106 22.2977 28.9314C22.2654 28.9463 22.2363 28.9662 22.2063 28.9865C22.1647 29.0139 22.1225 29.0423 22.0669 29.0595C22.0238 29.073 21.9766 29.0709 21.9483 29.0539C21.9352 29.0459 21.9264 29.035 21.9184 29.025C21.9094 29.0136 21.9009 29.0034 21.8884 29.0004C21.8793 28.9982 21.8683 29.0018 21.8549 29.006C21.8334 29.0128 21.8052 29.0214 21.7677 29.0116C21.6286 28.9756 21.466 28.9214 21.2999 28.8541C21.1156 28.78 20.9279 28.6869 20.7756 28.6053C20.6049 28.5162 20.3771 28.333 20.1926 28.1217C20.0624 27.9749 19.9537 27.8205 19.8666 27.6916C19.8553 27.675 19.8438 27.6583 19.8322 27.6416C19.7595 27.5373 19.6818 27.4374 19.6107 27.3391C19.5121 27.2033 19.4259 27.0702 19.3858 26.9422C19.3778 26.9166 19.3857 26.8753 19.3966 26.825C19.4045 26.7895 19.4135 26.7485 19.4194 26.7044C19.3526 26.5555 19.2931 26.4046 19.2401 26.2522C19.235 26.2481 19.2298 26.2438 19.2245 26.2394C19.2244 26.2394 19.2243 26.2393 19.2242 26.2393C19.1051 26.1421 18.9409 25.9976 18.9362 25.7306C18.9352 25.6631 18.9549 25.6163 18.9726 25.5738C18.9901 25.5322 19.0062 25.4961 19.0006 25.4492C18.9942 25.3959 18.9647 25.3393 18.9333 25.2754C18.8893 25.187 18.8417 25.0851 18.8505 24.9745C18.8511 24.9669 18.8518 24.9588 18.8524 24.9504C18.8586 24.8702 18.8694 24.7516 18.9116 24.6331C18.8915 24.3574 18.8883 24.0834 18.9005 23.8096C18.9033 23.7542 18.9061 23.7002 18.909 23.6456C18.9355 23.1396 18.9672 22.6349 18.9997 22.1285C19.0157 21.8823 19.0901 21.647 19.2106 21.4719C19.3312 21.2975 19.4871 21.1979 19.6487 21.1992C19.8102 21.1969 19.9667 21.2948 20.0891 21.4673C20.2114 21.6406 20.2887 21.874 20.3082 22.1192C20.3397 22.5188 20.3717 22.9182 20.4019 23.3179C20.4055 23.3389 20.4089 23.3605 20.4122 23.3809C20.4345 23.5253 20.4764 23.6583 20.5198 23.7927C20.5233 23.8022 20.5268 23.8117 20.5303 23.8211C20.5412 23.85 20.5523 23.8787 20.5634 23.9072Z" fill="#042A21"/>
<path d="M17.6545 16.2352C17.6467 16.3234 17.6035 16.4294 17.5483 16.5357C17.4901 16.6478 17.4218 16.7555 17.377 16.8301C17.3755 16.8326 17.374 16.8353 17.3725 16.8378C17.3527 16.8708 17.3371 16.9029 17.3198 16.94C17.2799 17.029 17.2193 17.1499 17.1071 17.3725C17.0908 17.4412 17.0778 17.5072 17.0676 17.5715C17.0584 17.6302 17.0517 17.6871 17.0469 17.7513C16.9907 18.4886 17.1644 19.3626 17.484 20.1543C17.4897 20.1645 17.4954 20.1747 17.501 20.1846C17.5093 20.1992 17.5177 20.2139 17.5258 20.2279C17.5085 20.208 17.67 20.3555 17.7813 20.4467C17.935 20.5828 18.0703 20.6824 18.1788 20.764C18.2905 20.8262 18.4078 20.8867 18.5309 20.948C18.5864 21.0462 18.9859 20.9766 19.4064 20.7933C19.4538 20.7896 19.6294 20.645 19.7628 20.4956C19.923 20.321 20.081 20.118 20.2341 19.9098C20.2676 19.8641 20.3007 19.8185 20.3341 19.772C20.4334 19.6335 20.5243 19.491 20.6049 19.3452C20.6541 19.2269 20.6911 19.1122 20.7207 19.0059C20.7624 18.8564 20.789 18.7239 20.8174 18.6181C20.8874 18.3644 20.9753 18.0789 21.024 17.8486C21.0321 17.8112 21.0394 17.7756 21.0457 17.7423C21.0542 17.5547 21.0524 17.3613 21.047 17.1595C21.0538 17.1463 21.0609 17.1329 21.0682 17.1192C21.0789 17.0991 21.0883 17.0784 21.0967 17.0568C21.1562 16.9873 21.1468 16.8692 21.0404 16.6578C20.9878 16.5532 20.9102 16.4251 20.8082 16.2637C20.7422 16.1596 20.7311 16.0857 20.7226 16.0255C20.7222 16.0229 20.7218 16.0202 20.7214 16.0176C20.7198 16.0035 20.718 15.9902 20.7152 15.9773C20.7039 15.9256 20.6549 15.8979 20.5969 15.8672C20.5214 15.8272 20.432 15.783 20.38 15.6668C20.2072 15.2937 20.0053 15.2381 19.8696 15.2028C19.8289 15.1924 19.7915 15.1832 19.7588 15.1686C19.652 15.1206 19.5408 15.002 19.4601 14.8994C19.3967 14.8173 19.2115 14.7384 19.0617 14.7025C19.0058 14.6889 18.9384 14.653 18.8587 14.6136C18.7762 14.5728 18.6785 14.5273 18.5676 14.4986C18.5068 14.4827 18.4522 14.4696 18.4033 14.4585C18.4183 14.4929 18.4358 14.5015 18.4172 14.521C18.412 14.5278 18.4051 14.5353 18.3972 14.5441C18.3907 14.5514 18.3828 14.5595 18.3734 14.569L18.5158 14.4576C18.4736 14.5143 18.4275 14.5791 18.3851 14.6472C18.3163 14.7568 18.2586 14.8749 18.2298 14.9685C18.1659 15.0655 18.1102 15.1664 18.0663 15.2663L18.0779 15.2267C18.0259 15.3744 17.9763 15.5433 17.9292 15.7133C17.8839 15.8772 17.7823 16.0276 17.6413 16.1285C17.5003 16.2296 17.3323 16.2729 17.1697 16.2462C17.0073 16.219 16.8619 16.1236 16.7634 15.9774C16.6649 15.8314 16.6225 15.6464 16.645 15.4627C16.6688 15.2712 16.6949 15.079 16.7355 14.8732C16.7379 14.8666 16.7426 14.8461 16.7453 14.8397C16.8019 14.6261 16.8806 14.4242 16.9769 14.2326C17.1171 13.9546 17.2944 13.6973 17.5112 13.4664C17.5395 13.4424 17.6193 13.3717 17.6528 13.3556C17.8972 13.2034 18.2666 13.0618 18.6894 13.1504C18.7578 13.1649 18.825 13.1851 18.889 13.2101C19.175 13.3222 19.4526 13.4576 19.7179 13.6144C19.7478 13.6321 19.7785 13.6507 19.8084 13.6691C20.0776 13.779 20.3384 13.9159 20.5104 14.0322C20.6526 14.1279 20.734 14.2255 20.8018 14.3095C20.8484 14.3675 20.8883 14.4191 20.9374 14.4628C20.9639 14.4864 20.9998 14.5172 21.0435 14.5562C21.2209 14.7114 21.5112 15.0018 21.6907 15.3268C21.6911 15.3275 21.6915 15.3283 21.6919 15.329C21.7619 15.4582 21.8352 15.6224 21.9026 15.7913C22.0011 16.0327 22.0769 16.2907 22.1369 16.4213C22.2225 16.597 22.2722 16.8437 22.2515 17.0869C22.2467 17.1306 22.2415 17.1741 22.2362 17.2166C22.2136 17.4021 22.1892 17.5686 22.2092 17.6669C22.2331 17.7845 22.2109 17.8838 22.1722 18.03C22.1449 18.1315 22.1099 18.2559 22.0675 18.4262C22.0179 18.623 21.9555 18.7558 21.9006 18.8655C21.8222 19.0202 21.7597 19.1306 21.7192 19.3203C21.6739 19.5311 21.5932 19.7421 21.4937 19.8849C21.4485 19.9501 21.4027 20.0276 21.3534 20.1065C21.2957 20.1989 21.2335 20.2925 21.1629 20.3729C21.1538 20.3831 21.1447 20.393 21.1354 20.4027C21.0719 20.4688 21.0018 20.5103 20.9391 20.5474C20.9198 20.5586 20.9008 20.57 20.8834 20.581C20.8401 20.6397 20.7968 20.6981 20.7524 20.7572C20.7494 20.7697 20.746 20.7833 20.7426 20.7973C20.7256 20.8674 20.7037 20.9541 20.6518 21.0459C20.5693 21.1911 20.4572 21.293 20.3242 21.3981C20.2179 21.48 20.1083 21.5653 19.9351 21.6751C19.9061 21.693 19.8745 21.7114 19.8397 21.7295C19.7743 21.7662 19.7045 21.8089 19.6323 21.8509C19.4923 21.9329 19.3388 22.0119 19.2137 22.0375C19.1671 22.0472 19.1217 22.0392 19.0764 22.0301C19.0762 22.0301 19.076 22.03 19.0758 22.0299C19.0727 22.0293 19.0697 22.0287 19.0666 22.0281C18.8035 22.1126 18.4265 22.1522 18.0874 22.0235C18.0628 22.0153 18.0371 22.0066 18.012 21.9981C17.9891 21.9942 17.9665 21.9903 17.9435 21.986C17.832 21.9658 17.7214 21.9431 17.6409 21.9434C17.5535 21.9436 17.3617 21.8796 17.151 21.7866C17.0133 21.7261 16.8671 21.6515 16.7387 21.5807C16.6635 21.5394 16.6104 21.4696 16.5582 21.3928C16.5093 21.3205 16.4609 21.2429 16.3892 21.1628C16.3535 21.1226 16.3101 21.0788 16.2649 21.0248C16.2432 20.9989 16.2206 20.9697 16.1992 20.9382C16.188 20.9246 16.1769 20.91 16.166 20.8942C16.1443 20.8632 16.1148 20.7818 16.0819 20.6798C16.0619 20.6176 16.0391 20.5443 16.0157 20.4709C15.921 20.2883 15.8345 20.102 15.7561 19.9105C15.7251 19.8762 15.6906 19.8474 15.6527 19.8287C15.6254 19.8153 15.5951 19.8058 15.5641 19.7958C15.5218 19.7819 15.4782 19.7677 15.4389 19.7407C15.4081 19.7196 15.3892 19.6886 15.392 19.6638C15.3932 19.6522 15.399 19.6418 15.4043 19.6324C15.4103 19.6217 15.4157 19.6122 15.4129 19.6032C15.4109 19.5967 15.403 19.5916 15.3933 19.5852C15.3779 19.5749 15.3582 19.562 15.3504 19.5355C15.3212 19.4365 15.2975 19.322 15.2773 19.2079C15.2547 19.0811 15.2367 18.9566 15.2157 18.8571C15.192 18.7463 15.1922 18.5815 15.2008 18.4164C15.2065 18.301 15.2161 18.1858 15.2199 18.0868C15.2236 17.9899 15.2108 17.8887 15.2014 17.7888C15.1965 17.737 15.1925 17.6856 15.1921 17.6359C15.1917 17.5692 15.1978 17.5029 15.216 17.4445C15.2225 17.4235 15.2504 17.4002 15.2859 17.3713C15.311 17.3515 15.3399 17.3282 15.3677 17.3025C15.388 17.1737 15.4165 17.0474 15.4505 16.927C15.4484 16.9219 15.4462 16.9166 15.444 16.9112C15.444 16.9111 15.4439 16.9111 15.4438 16.911C15.3936 16.7915 15.3316 16.6173 15.4605 16.4574C15.493 16.4176 15.5327 16.4 15.5681 16.385C15.6031 16.37 15.6341 16.3575 15.6518 16.3278C15.6721 16.2937 15.6745 16.2455 15.6779 16.193C15.683 16.1184 15.6893 16.0369 15.7467 15.978C15.7505 15.9741 15.7547 15.97 15.759 15.9656C15.7999 15.9237 15.8614 15.8618 15.9473 15.8172C15.9687 15.7812 15.9894 15.7477 16.0114 15.7124C16.1084 15.5589 16.208 15.4064 16.3099 15.2553C16.5156 14.9508 16.7285 14.6511 16.9612 14.3495C17.0754 14.2027 17.2393 14.0929 17.4321 14.0465C17.5413 14.0229 17.6069 14.0176 17.7919 14.0247C17.8402 14.0856 17.888 14.1569 17.8789 14.236C17.8719 14.3149 17.9192 14.3847 17.9046 14.4616C18.1065 14.4558 18.0757 14.5305 18.1154 14.5988C18.1587 14.738 18.138 14.9035 18.0669 15.0492C17.9501 15.2879 17.8359 15.5406 17.7234 15.7931C17.7193 15.8073 17.7149 15.8216 17.7104 15.8358C17.6777 15.9401 17.6682 16.0509 17.6604 16.1596C17.6584 16.185 17.6565 16.2102 17.6545 16.2352Z" fill="#042A21"/>
<path d="M6.35288 14.7128C6.34033 14.6742 6.33095 14.6293 6.32414 14.5797C6.28178 14.3524 6.3505 13.8123 6.44265 13.5698C6.44442 13.5641 6.44606 13.559 6.44777 13.5535C6.47053 13.483 6.48977 13.4199 6.51237 13.3492C6.56567 13.183 6.63843 12.9766 6.82375 12.5929C6.82618 12.5879 6.82863 12.5828 6.83112 12.5777C6.87164 12.4569 6.91296 12.3373 6.95529 12.2184C7.38319 11.0214 7.86706 9.85581 8.39527 8.68886C8.43702 8.59665 8.47926 8.50598 8.52256 8.4157C8.52925 8.39854 8.53604 8.3812 8.54289 8.36381C8.67315 8.02831 8.86371 7.60862 9.03548 7.36456C9.25109 7.05455 9.43017 6.85731 9.58114 6.70469C9.77651 6.47106 9.99243 6.25686 10.2001 6.06713C10.7363 5.5619 11.4037 5.2202 12.014 4.97934C12.1964 4.90488 12.38 4.84239 12.5634 4.78847C12.9186 4.68429 13.2731 4.61149 13.6245 4.55376C13.9224 4.50495 14.2184 4.46809 14.5118 4.43708C14.5389 4.43425 14.5656 4.43158 14.5922 4.42907C14.7852 4.39653 14.9789 4.3696 15.1644 4.3569C15.426 4.33827 15.6768 4.35136 15.8779 4.39246C16.3752 4.48942 16.8254 4.77091 17.1129 4.96311C17.1615 4.99547 17.2056 5.02549 17.2468 5.05348C17.3782 5.12552 17.5066 5.19767 17.6339 5.26937C17.7561 5.33898 17.8851 5.42126 18.008 5.5161C18.0213 5.53541 18.0345 5.55531 18.0473 5.57547C18.2093 5.82823 18.4164 6.0675 18.6903 6.42765C18.7312 6.48137 18.7734 6.53745 18.818 6.59765C18.9068 6.7177 18.9988 6.85053 19.0946 6.99826C19.1886 7.14366 19.2084 7.23567 19.2249 7.31086C19.2297 7.33292 19.2343 7.35383 19.2401 7.37388C19.2599 7.44258 19.3187 7.49075 19.3875 7.54749C19.4769 7.62128 19.5842 7.71054 19.6457 7.8788C19.8401 8.41441 20.0348 8.58088 20.1845 8.7086C20.2281 8.74581 20.2677 8.77997 20.3017 8.81921C20.3121 8.83125 20.3223 8.84398 20.3323 8.85726C20.3355 8.8619 20.3431 8.87704 20.3461 8.88183C20.4389 9.02026 20.5113 9.22676 20.5483 9.3948C20.5817 9.54121 20.7269 9.79873 20.8416 9.99914C20.8854 10.0745 20.9243 10.1844 20.9657 10.3147C21.0087 10.4496 21.0541 10.6063 21.1131 10.7706C21.2605 11.1864 21.317 11.4087 21.366 11.5865C21.3795 11.6366 21.3919 11.6847 21.4041 11.7312C21.4274 11.821 21.4508 11.9216 21.4741 12.0299C21.4753 12.0356 21.4767 12.0529 21.4777 12.0586C21.4903 12.1311 21.5027 12.2068 21.5146 12.2821C21.5503 12.5072 21.583 12.7332 21.6154 12.9047C21.6287 13.3541 21.6308 13.7997 21.6308 14.2443C21.6307 14.4726 21.5686 14.6947 21.4555 14.8615C21.3423 15.0284 21.1883 15.1265 21.0238 15.1351C20.8593 15.1436 20.696 15.0619 20.5659 14.9086C20.4358 14.7553 20.3503 14.5429 20.3244 14.3186C20.2725 13.8665 20.2184 13.4155 20.1634 12.969C20.1317 12.7128 20.0997 12.4574 20.0659 12.2078L20.0694 12.2357C20.0198 11.9554 19.9688 11.6805 19.9124 11.4128C19.8378 11.0584 19.7483 10.7203 19.6322 10.3897C19.6202 10.3556 19.6081 10.3217 19.5956 10.2876C19.4506 10.0278 19.2879 9.77671 19.1778 9.59342C19.163 9.56879 19.1494 9.54469 19.1367 9.52111L19.1557 9.55495C19.0829 9.43417 19.0406 9.32987 19.0035 9.23876C18.9728 9.16356 18.9456 9.09732 18.9064 9.0369C18.8855 9.0046 18.8558 8.96108 18.8197 8.90843C18.673 8.69427 18.4212 8.33213 18.235 7.97847C18.1527 7.82179 18.0674 7.63283 17.9846 7.45846C17.9549 7.39587 17.9256 7.33547 17.8975 7.27976C17.8048 7.10116 17.7197 6.95397 17.6531 6.88678C17.4956 6.72621 17.3636 6.54627 17.2353 6.42201C17.1683 6.3561 17.0964 6.2975 17.0251 6.25148C16.9546 6.20618 16.8939 6.17311 16.8435 6.15695C16.7121 6.11499 16.6225 6.04463 16.4908 5.94547C16.3995 5.87723 16.2875 5.79386 16.131 5.71029C15.9508 5.61478 15.8333 5.54886 15.7282 5.49714C15.5813 5.42625 15.4616 5.38173 15.272 5.40345C15.0628 5.42844 14.8385 5.4648 14.6541 5.46718C14.6389 5.46736 14.6232 5.4679 14.6069 5.46874C14.5309 5.47279 14.4479 5.48221 14.3627 5.49279C14.2249 5.50985 14.0817 5.53003 13.9493 5.53412C13.8402 5.53747 13.747 5.52051 13.6639 5.50651C13.638 5.50214 13.6131 5.49812 13.5891 5.49506C13.5042 5.51131 13.4199 5.52906 13.3364 5.54862C13.324 5.55666 13.311 5.56543 13.2975 5.57455C13.2299 5.62038 13.1484 5.67731 13.0445 5.72493C12.8803 5.80048 12.7299 5.83164 12.5729 5.87289C12.5244 5.88567 12.4755 5.8995 12.4262 5.91606C12.3447 5.94411 12.2616 5.97679 12.1772 6.02045C12.0816 6.06985 11.9796 6.13543 11.8833 6.20299C11.7398 6.30312 11.6104 6.40829 11.5097 6.46452C11.4718 6.48557 11.4302 6.49103 11.3886 6.49722C11.3884 6.49722 11.3882 6.49722 11.388 6.49722C11.3852 6.49764 11.3824 6.4981 11.3795 6.49854C11.2457 6.61103 11.122 6.73271 11.0081 6.86333C10.9303 6.95147 10.8564 7.03859 10.7871 7.12605C10.774 7.14833 10.761 7.17072 10.7483 7.19288C10.6861 7.30133 10.6328 7.40698 10.6144 7.48741C10.594 7.57437 10.493 7.7501 10.401 7.949C10.3402 8.07888 10.282 8.21812 10.2441 8.33732C10.222 8.40681 10.173 8.4597 10.123 8.51503C10.0762 8.56711 10.0285 8.62153 10.0019 8.69307C9.9888 8.72858 9.97945 8.77095 9.9706 8.81437C9.9626 8.85307 9.95393 8.89505 9.94225 8.93629C9.93109 8.97532 9.8862 9.05335 9.83004 9.15557C9.81655 9.18007 9.8023 9.20624 9.78755 9.23394C9.76476 9.27659 9.73966 9.32536 9.71588 9.37278C9.64295 9.59653 9.57114 9.81983 9.4985 10.0449C9.49827 10.0969 9.50523 10.1453 9.52156 10.1877C9.53334 10.218 9.55042 10.2462 9.56779 10.2754C9.59147 10.3149 9.61571 10.3564 9.62924 10.405C9.63978 10.443 9.63518 10.4818 9.61722 10.5023C9.60885 10.5119 9.5977 10.5175 9.58766 10.5225C9.57615 10.5282 9.56589 10.5334 9.56251 10.5431C9.56008 10.5501 9.56321 10.5595 9.56694 10.5711C9.57289 10.5895 9.58052 10.6134 9.57051 10.6419C9.53347 10.7473 9.48448 10.8651 9.43669 10.9803C9.3835 11.1085 9.33171 11.2339 9.29885 11.3369C9.26204 11.4523 9.18104 11.6065 9.1003 11.761C9.0441 11.8685 8.98764 11.9773 8.94641 12.072C8.90565 12.1657 8.8819 12.2691 8.85896 12.3697C8.83177 12.4894 8.80494 12.607 8.75255 12.6935C8.74175 12.7115 8.70964 12.7271 8.6696 12.7462C8.64126 12.7596 8.60878 12.7752 8.57678 12.7954C8.53404 12.9155 8.49066 13.0349 8.44662 13.1545C8.44765 13.1576 8.44869 13.1608 8.44975 13.164C8.45045 13.1663 8.45115 13.1686 8.45187 13.1709C8.45192 13.171 8.45197 13.1711 8.45203 13.1712C8.49274 13.2958 8.54726 13.4682 8.42402 13.6296C8.393 13.6699 8.35412 13.6902 8.31979 13.7067C8.28555 13.7246 8.25567 13.7383 8.24013 13.7703C8.2231 13.8047 8.22498 13.8541 8.22921 13.9032C8.23467 13.9737 8.24461 14.0448 8.20631 14.0958C8.20367 14.0994 8.20083 14.1031 8.19797 14.107C8.17065 14.1448 8.13347 14.1937 8.0715 14.2507C8.05362 14.3446 8.04199 14.4664 8.03147 14.6015C8.02138 14.7355 8.01087 14.8675 8.00002 15.001C7.96291 15.4569 7.92198 15.9123 7.88186 16.3678C7.86213 16.5897 7.78466 16.8012 7.66221 16.9572C7.53958 17.1142 7.38297 17.2001 7.22143 17.1997C7.05983 17.199 6.90412 17.1104 6.78368 16.9512C6.66337 16.7929 6.58921 16.5793 6.57341 16.3563C6.54799 15.9925 6.52302 15.6299 6.50071 15.2665C6.49757 15.2477 6.49454 15.2287 6.49171 15.2096C6.4707 15.0678 6.42679 14.9359 6.38288 14.8042C6.37279 14.774 6.36269 14.743 6.35288 14.7128Z" fill="#042A21"/>
</svg>
