<svg width="30" height="40" viewBox="0 0 30 40" fill="none" xmlns="http://www.w3.org/2000/svg">
<rect width="30" height="40" rx="2" fill="#189271"/>
<path d="M10.6663 10.3908C11.4628 10.6634 12.4415 11.0599 12.9539 11.2611C12.9998 10.7626 13.0312 10.1445 13.1427 9.57542C13.4137 8.95621 13.6956 8.29521 14.4046 7.86198C15.1059 7.43338 15.7161 7.22796 16.3616 7.42883C16.7069 7.5363 17.0924 7.81704 17.5367 8.26806C18.015 8.75355 18.6568 9.42571 18.9959 9.25006C19.1259 9.18274 19.2642 8.86159 19.5426 8.50005C19.8703 8.07432 20.2981 7.50408 20.803 7.5113C21.6016 7.52272 22.2852 7.54474 22.8013 8.03025C23.6979 8.87386 24.3607 9.5089 24.4076 10.5505C24.4476 11.4426 24.489 12.472 24.2138 13.1836C23.9837 13.7789 22.189 15.1348 22.729 15.571C22.9947 15.7856 23.5583 15.9206 23.8525 16.5125C24.0082 16.8257 24.1448 18.0561 23.8485 18.8696C23.7661 19.0958 23.3434 20.0605 22.5327 21.2345C22.1375 21.8067 21.9646 21.9916 21.8237 22.0799C21.682 22.1688 21.5306 22.2829 21.2535 22.2603C20.1038 22.1667 19.2832 21.8055 19.025 21.9582C18.9006 22.0318 18.9017 22.425 18.475 23.3268C18.0901 24.1404 17.879 24.5381 17.3121 24.858C16.3506 25.4005 15.4618 25.7032 14.3668 25.2774C13.6094 24.9829 12.954 24.6685 12.5032 23.8578C11.8377 22.6614 11.3439 21.8616 11.1688 21.9502C11.0501 22.0102 10.8967 22.149 10.7513 22.233C10.2971 22.4954 9.85878 22.8102 8.67257 22.595C7.88664 22.4523 7.36889 22.3563 7.00353 21.8555C6.73952 21.4936 6.49195 21.0443 6.49416 20.3541C6.49695 19.4808 6.50626 18.6021 6.72686 18.0454C6.92891 17.5354 7.10732 17.1057 7.37652 16.8394C7.91847 16.3034 8.32226 16.0106 8.84349 15.8995C8.96118 15.8744 9.04537 15.8558 8.95271 15.761C8.65266 15.4539 8.17909 15.0974 7.93628 14.689C7.64691 14.2023 7.43446 13.5515 7.692 13.0329C7.97683 12.4593 8.68092 11.0689 9.63857 10.5493C9.89154 10.412 10.2701 10.2551 10.6663 10.3908Z" fill="white"/>
<path d="M13.3006 11.3885C13.2129 11.3796 11.7658 10.7672 10.6663 10.3908C10.2701 10.2551 9.89154 10.412 9.63857 10.5493C8.68092 11.0689 7.97683 12.4593 7.692 13.0329C7.43446 13.5515 7.64691 14.2023 7.93628 14.689C8.17909 15.0974 8.65266 15.4539 8.95271 15.761C9.04537 15.8558 8.96118 15.8744 8.84349 15.8995C8.32226 16.0106 7.91847 16.3034 7.37652 16.8394C7.10732 17.1057 6.92891 17.5354 6.72686 18.0454C6.50626 18.6021 6.49695 19.4808 6.49416 20.3541C6.49195 21.0443 6.73952 21.4936 7.00353 21.8555C7.36889 22.3563 7.88664 22.4523 8.67257 22.595C9.85878 22.8102 10.2971 22.4954 10.7513 22.233C10.8967 22.149 11.0501 22.0102 11.1688 21.9502C11.3439 21.8616 11.8377 22.6614 12.5032 23.8578C12.954 24.6685 13.6094 24.9829 14.3668 25.2774C15.4618 25.7032 16.3506 25.4005 17.3121 24.858C17.879 24.5381 18.0901 24.1404 18.475 23.3268C18.9017 22.425 18.9006 22.0318 19.025 21.9582C19.2832 21.8055 20.1038 22.1667 21.2535 22.2603C21.5306 22.2829 21.682 22.1688 21.8237 22.0799C21.9646 21.9916 22.1375 21.8067 22.5327 21.2345C23.3434 20.0605 23.7661 19.0958 23.8485 18.8696C24.1448 18.0561 24.0082 16.8257 23.8525 16.5125C23.5583 15.9206 22.9947 15.7856 22.729 15.571C22.189 15.1348 23.9837 13.7789 24.2138 13.1836C24.489 12.472 24.4476 11.4426 24.4076 10.5505C24.3607 9.5089 23.6979 8.87386 22.8013 8.03025C22.2852 7.54474 21.6016 7.52272 20.803 7.5113C20.2981 7.50408 19.8703 8.07432 19.5426 8.50005C19.2642 8.86159 19.1259 9.18274 18.9959 9.25006C18.6568 9.42571 18.015 8.75355 17.5367 8.26806C17.0924 7.81704 16.7069 7.5363 16.3616 7.42883C15.7161 7.22796 15.1059 7.43338 14.4046 7.86198C13.6956 8.29521 13.4137 8.95621 13.1427 9.57542C13.0212 10.1956 12.9948 10.874 12.9412 11.3924C12.9292 11.5208 12.9235 11.6823 12.9176 11.8486" stroke="white" stroke-width="2"/>
<path d="M5.49187 26.8687C5.84238 26.9467 6.17064 27.0679 6.42632 27.1782C6.68306 27.3637 6.79112 27.4453 6.89619 27.5267C7.42857 27.9429 8.13254 28.5388 8.59894 29.0648C8.78721 29.3481 8.98982 29.9096 8.88277 30.5599C8.75658 31.3264 8.61742 32.2111 8.0872 32.4609C7.82687 32.5836 7.3762 32.7135 6.83449 32.613C5.80217 32.4216 4.38335 32.0071 3.89375 31.2819C3.67928 30.9642 3.48481 30.416 3.59371 29.7414L3.59654 29.7239C3.78132 28.5792 3.94361 27.5738 4.5602 27.1546C4.86855 26.945 5.19059 26.8017 5.49187 26.8687Z" fill="white"/>
<path d="M5.2962 27.7984C5.36346 27.8883 5.39176 27.8318 5.30511 27.8502C5.30396 27.8504 5.30279 27.8506 5.30161 27.8509C5.28614 27.8534 5.27101 27.8597 5.25176 27.8687C5.22062 27.8834 5.17966 27.9034 5.09488 27.9411C5.08226 27.9402 5.06507 27.9385 5.03611 27.9446C5.02194 27.9614 5.00498 27.9828 4.98557 28.0104C4.76412 28.3079 4.56555 29.1193 4.37858 29.8681C4.36525 29.9133 4.35373 29.9587 4.34407 30.0043C4.3439 30.0116 4.34379 30.0191 4.34374 30.0266C4.34095 30.1729 4.36837 30.3425 4.36611 30.4538C4.36199 30.5965 4.3683 30.6972 4.37549 30.7788C4.39165 30.829 4.41078 30.8771 4.43073 30.9193C4.55146 31.2066 5.06326 31.5404 5.56673 31.7354C5.74992 31.8084 5.94077 31.8711 6.13531 31.9238C6.31482 31.9724 6.49686 32.0132 6.68135 32.0473C6.77026 32.052 6.85769 32.0531 6.93843 32.0524C6.9533 32.0516 6.96765 32.0505 6.98184 32.0492C7.08834 32.0396 7.17768 32.02 7.25013 32.0112C7.4233 31.9915 7.62347 31.9761 7.76581 31.9406C7.7888 31.9351 7.80998 31.9295 7.82894 31.9238C7.8303 31.923 7.83165 31.9222 7.83298 31.9214C7.84695 31.9035 7.87465 31.8698 7.91253 31.7889C7.92114 31.7873 7.93001 31.7857 7.93923 31.7837C8.05519 31.7563 8.11596 31.6317 8.17894 31.4019C8.20662 31.3011 8.23516 31.1786 8.27131 31.0284C8.29453 30.9315 8.33706 30.8858 8.37201 30.8483C8.38227 30.8372 8.39186 30.8268 8.40002 30.816C8.42799 30.7788 8.41291 30.7315 8.39494 30.6755C8.37658 30.6184 8.35518 30.5518 8.37393 30.4761C8.37822 30.4603 8.38515 30.4443 8.39554 30.4276C8.54864 30.167 8.44176 30.0267 8.37056 29.9522C8.34882 29.9287 8.32879 29.9085 8.3155 29.8869C8.27291 29.817 8.27465 29.7079 8.28394 29.616C8.29325 29.5436 8.2072 29.4288 8.13158 29.3888C8.12791 29.3868 8.12441 29.3846 8.12109 29.3823L8.16966 29.4454C8.13401 29.4204 8.09685 29.3799 8.05316 29.3338C8.00103 29.2788 7.93885 29.2151 7.8588 29.1596C7.65598 29.0196 7.54468 28.9475 7.45601 28.8889C7.43064 28.8722 7.407 28.8567 7.3832 28.8414C7.30802 28.7931 7.21792 28.7293 7.12576 28.6656C7.01542 28.5892 6.9023 28.5132 6.81027 28.4623C6.68797 28.3444 6.56474 28.2263 6.44066 28.1094C6.3723 28.0449 6.3034 27.9816 6.22919 27.9155C6.1259 27.8232 6.05869 27.6837 6.04834 27.5261C6.03748 27.3682 6.0845 27.2064 6.18007 27.0723C6.27647 26.9388 6.41461 26.8423 6.56887 26.8031C6.72264 26.7638 6.87833 26.7848 7.00499 26.8618C7.09494 26.9164 7.18844 26.975 7.27854 27.0336C7.44205 27.1405 7.60169 27.2489 7.75875 27.3616C8.05496 27.5744 8.3425 27.8019 8.61313 28.0593C8.78851 28.2266 8.95956 28.4031 9.12486 28.5984C9.13626 28.6145 9.1753 28.6582 9.18437 28.6757C9.19928 28.699 9.21388 28.723 9.22726 28.746C9.24644 28.779 9.26389 28.8113 9.28044 28.8435C9.45569 29.0822 9.57168 29.3358 9.62744 29.5249C9.67339 29.681 9.6671 29.8022 9.65861 29.9032C9.65255 29.9727 9.64504 30.034 9.64893 30.0949C9.651 30.1278 9.65451 30.1726 9.65696 30.227C9.66242 30.3444 9.6619 30.5074 9.63375 30.6835C9.61568 30.799 9.58949 30.9267 9.54882 31.0495C9.51047 31.1653 9.44976 31.3003 9.38684 31.4304C9.29755 31.617 9.20029 31.7923 9.17966 31.8935C9.14492 32.0712 9.04088 32.271 8.9058 32.4452C8.77911 32.6126 8.61825 32.7469 8.53196 32.8412C8.47694 32.9031 8.41114 32.9478 8.33257 32.9817C8.28292 33.0023 8.22808 33.0176 8.164 33.0324C8.06743 33.0545 7.95095 33.0764 7.79518 33.1047C7.61525 33.1364 7.48423 33.1257 7.37602 33.1131C7.22297 33.0936 7.11455 33.0716 6.94347 33.0923C6.87769 33.0998 6.81026 33.1028 6.74409 33.1006C6.63769 33.1 6.53496 33.088 6.45198 33.0615C6.39409 33.043 6.32602 33.0296 6.25569 33.015C6.16212 32.9955 6.06409 32.9738 5.97872 32.936C5.90868 32.9049 5.85652 32.8576 5.81106 32.8155C5.79684 32.8024 5.78324 32.7898 5.76996 32.7783C5.71226 32.7623 5.65445 32.7458 5.59668 32.7291C5.58585 32.7311 5.57437 32.7335 5.56239 32.736C5.50232 32.7482 5.42779 32.7625 5.3432 32.753C5.20918 32.7378 5.10525 32.6807 4.99742 32.6177C4.91329 32.5684 4.82724 32.5157 4.71929 32.4723C4.64601 32.4429 4.55837 32.415 4.4709 32.3836C4.34132 32.3375 4.21181 32.2822 4.1361 32.218C4.10788 32.1942 4.09229 32.1594 4.07827 32.1252C4.07823 32.1251 4.07818 32.1249 4.07814 32.1247C4.07718 32.1224 4.0762 32.1201 4.07525 32.1178C3.8712 31.9923 3.66469 31.8399 3.4819 31.6167C3.47021 31.6059 3.45858 31.5948 3.44709 31.5834C3.44062 31.5772 3.43417 31.5709 3.42776 31.5646C3.34349 31.4812 3.27122 31.3953 3.20937 31.345C3.14164 31.2908 3.04092 31.1171 2.96424 30.9231C2.91309 30.7962 2.87089 30.6613 2.8349 30.5496C2.81379 30.4846 2.82748 30.4176 2.84395 30.3518C2.8593 30.2897 2.8769 30.2281 2.87105 30.1613C2.86812 30.1279 2.85969 30.0916 2.85146 30.0527C2.84422 30.0181 2.8371 29.9821 2.83412 29.9436C2.83134 29.9085 2.84774 29.8302 2.8745 29.7338C2.88358 29.7008 2.89367 29.6667 2.90468 29.6302C2.9127 29.6068 2.92076 29.5826 2.92856 29.5577C2.93982 29.4072 2.95201 29.255 2.96698 29.1006C2.95458 29.0658 2.93629 29.0338 2.9104 29.0066C2.89184 28.987 2.86869 28.9691 2.84513 28.9504C2.81305 28.925 2.77994 28.8986 2.7557 28.866C2.73676 28.8405 2.73237 28.8134 2.74507 28.7981C2.75098 28.7909 2.76046 28.7864 2.76903 28.7823C2.77885 28.7775 2.78759 28.7733 2.78869 28.7664C2.78946 28.7614 2.78435 28.755 2.77818 28.7472C2.76833 28.7348 2.75564 28.7186 2.7591 28.698C2.77188 28.6216 2.79443 28.5359 2.81835 28.4498C2.84474 28.3548 2.87286 28.2599 2.88821 28.1815C2.90539 28.0934 2.96197 27.9734 3.0255 27.8516C3.06952 27.7671 3.11747 27.6802 3.15469 27.6036C3.19145 27.5276 3.21475 27.4409 3.24295 27.3536C3.27615 27.2498 3.31771 27.1441 3.38608 27.0724C3.39998 27.0578 3.4343 27.0503 3.47712 27.0422C3.50737 27.0366 3.54246 27.0299 3.57769 27.0205C3.64785 26.9207 3.72974 26.8222 3.82523 26.7295C3.82613 26.7238 3.82712 26.718 3.8281 26.7121C3.8281 26.712 3.82809 26.7119 3.82809 26.7117C3.8453 26.6063 3.88336 26.4597 4.02399 26.3659C4.04899 26.3495 4.0791 26.3366 4.11532 26.3291C4.1605 26.3196 4.2001 26.331 4.2354 26.3416C4.27017 26.352 4.30094 26.3617 4.33108 26.3501C4.36549 26.3369 4.3951 26.3014 4.43084 26.2625C4.48044 26.2082 4.54374 26.1466 4.63454 26.1382C4.6407 26.1376 4.64735 26.1371 4.65426 26.1365C4.7195 26.1306 4.82103 26.1236 4.93137 26.1531C5.13972 26.1102 5.39564 26.1 5.64725 26.1703C5.70024 26.1872 5.75238 26.2049 5.80379 26.2235C6.11908 26.3376 6.40855 26.4809 6.68405 26.6398C6.81819 26.7175 6.91863 26.8501 6.95831 27.0069C6.99785 27.1637 6.97321 27.3297 6.89277 27.4697C6.8137 27.6107 6.69324 27.7216 6.55814 27.789C6.42242 27.8559 6.28296 27.8729 6.16185 27.8396C5.96434 27.7849 5.76606 27.7419 5.57424 27.7122C5.56366 27.7126 5.55308 27.7128 5.54261 27.713C5.46472 27.714 5.38766 27.741 5.31448 27.7709C5.30588 27.7744 5.29731 27.7779 5.28878 27.7815C5.29108 27.7872 5.29357 27.7929 5.2962 27.7984Z" fill="#042A21"/>
<path d="M11.262 10.4347C11.2158 10.2796 11.3217 10.0121 11.3928 9.86618C11.3941 9.86349 11.3953 9.8608 11.3965 9.85811C11.413 9.82345 11.4264 9.78954 11.4427 9.74986C11.4836 9.65553 11.5312 9.52424 11.7246 9.27486C11.7416 9.24329 11.7593 9.21186 11.7778 9.18063C11.8027 9.13851 11.8282 9.09733 11.8554 9.05578C12.0246 8.79039 12.2893 8.49406 12.562 8.29646C12.8326 8.09799 13.0386 7.99198 13.234 7.87067C13.4208 7.75089 13.6135 7.64387 13.8099 7.54855C13.8183 7.54295 13.8268 7.5373 13.8354 7.53162C14.0015 7.42091 14.2158 7.29565 14.367 7.25411C14.5589 7.20082 14.6932 7.18007 14.8032 7.16559C14.9811 7.11242 15.1607 7.06609 15.3374 7.02579C15.822 6.91463 16.2315 6.91327 16.6431 6.89861C16.8266 6.89375 17.0078 6.89039 17.1877 6.88597C17.3534 6.88193 17.5181 6.87792 17.6822 6.8734C17.7275 6.86545 17.7717 6.85691 17.8147 6.84825C17.8792 6.83873 17.9425 6.83203 18.0038 6.82832C18.1684 6.81833 18.3191 6.83072 18.4362 6.86C18.7231 6.92959 18.9812 7.11663 19.1378 7.25825C19.1641 7.28159 19.1878 7.30354 19.2098 7.32405C19.3476 7.41674 19.4744 7.51468 19.5937 7.6135C19.5967 7.6253 19.5995 7.63735 19.6022 7.6496C19.6354 7.8019 19.7443 7.91185 19.9036 8.08497C19.9424 8.12715 19.984 8.17286 20.028 8.2234C20.0678 8.26893 20.1083 8.31859 20.1491 8.37361C20.2087 8.45445 20.2115 8.51637 20.2133 8.56578C20.2138 8.58034 20.2142 8.59394 20.2158 8.60685C20.2213 8.65094 20.2633 8.67121 20.3128 8.69677C20.3769 8.72979 20.4546 8.77272 20.4732 8.87858C20.5276 9.21253 20.6496 9.29456 20.7513 9.36425C20.7806 9.38464 20.8067 9.40273 20.8266 9.42521C20.8909 9.4974 20.9133 9.62897 20.9102 9.7324C20.9082 9.81425 20.9902 9.94337 21.065 10.0303C21.0731 10.0399 21.0805 10.0507 21.0873 10.0625C21.0916 10.0707 21.0978 10.0978 21.1015 10.1063C21.118 10.1441 21.1309 10.1916 21.1439 10.2436C21.1628 10.3194 21.182 10.4061 21.2161 10.4953C21.3015 10.7213 21.3352 10.842 21.3636 10.9392C21.3715 10.9668 21.3787 10.9928 21.3859 11.0185C21.4086 11.1 21.4292 11.2018 21.4479 11.3049C21.4703 11.4281 21.4899 11.5533 21.5118 11.6484C21.5046 11.7787 21.4934 11.908 21.4792 12.0367C21.4799 12.0424 21.4778 12.0597 21.4783 12.0654C21.4606 12.1893 21.4376 12.3168 21.4101 12.4399C21.3802 12.5737 21.2868 12.6823 21.1528 12.7446C21.0184 12.8072 20.8542 12.8247 20.6918 12.7973C20.5294 12.7697 20.3809 12.6962 20.2745 12.5952C20.1682 12.4941 20.1123 12.3796 20.1116 12.278C20.1114 12.1834 20.1071 12.0911 20.1004 11.996L20.0996 12.0203C20.0875 11.9012 20.0738 11.783 20.059 11.6659C20.0257 11.4017 19.9877 11.1426 19.9504 10.8945C19.927 10.74 19.9 10.59 19.8675 10.4535L19.8848 10.5068C19.8778 10.4859 19.8706 10.4642 19.8639 10.4438C19.8574 10.424 19.8513 10.4049 19.8449 10.3856C19.7502 10.2453 19.6606 10.1186 19.6076 10.0282C19.564 9.95349 19.5583 9.88942 19.5526 9.83402C19.5487 9.796 19.5448 9.76249 19.5289 9.73467C19.5203 9.71986 19.5074 9.69993 19.4918 9.67666C19.4279 9.57995 19.3168 9.42915 19.2507 9.27205C19.2216 9.20175 19.1959 9.11301 19.1662 9.02895C19.163 9.01973 19.1597 9.01056 19.1563 9.00147C19.0998 8.87362 19.0478 8.76233 18.9971 8.7263C18.901 8.65758 18.8264 8.55156 18.7591 8.46256C18.6952 8.37757 18.6375 8.30797 18.5821 8.29772C18.5161 8.28574 18.4874 8.24579 18.4418 8.18893C18.4103 8.14988 18.3706 8.10259 18.3072 8.05931C18.2343 8.00997 18.1896 7.96656 18.1486 7.93048C18.0917 7.8807 18.0408 7.84507 17.9578 7.86988C17.9045 7.88633 17.8546 7.90201 17.8084 7.91102C17.7589 7.91736 17.7118 7.91866 17.6696 7.91309C17.6234 7.907 17.5707 7.90862 17.5159 7.91056C17.4434 7.91312 17.3675 7.91622 17.2979 7.90239C17.2407 7.89099 17.1927 7.86021 17.1501 7.83311C17.1368 7.82466 17.124 7.81662 17.1117 7.80959C17.0661 7.81141 17.0207 7.81364 16.9753 7.81646C16.9682 7.82191 16.9607 7.82792 16.953 7.83414C16.9138 7.86538 16.8661 7.90383 16.8067 7.92524C16.7124 7.95916 16.6282 7.94716 16.5391 7.93571C16.4697 7.92684 16.3976 7.91832 16.3184 7.93313C16.2641 7.94328 16.2048 7.96419 16.1471 7.986C16.0614 8.01826 15.9815 8.05251 15.9226 8.0529C15.9003 8.05305 15.878 8.03751 15.8556 8.02226C15.8555 8.02216 15.8554 8.02206 15.8553 8.02195C15.8538 8.02092 15.8522 8.01993 15.8507 8.0189C15.7921 8.03972 15.7363 8.06239 15.6858 8.08669C15.6068 8.12236 15.5291 8.15964 15.4528 8.19862C15.4424 8.208 15.4317 8.21745 15.421 8.22688C15.3695 8.27257 15.3211 8.31767 15.2969 8.36419C15.2706 8.41454 15.1793 8.47607 15.0869 8.5444C15.0262 8.58903 14.9649 8.63647 14.9196 8.68286C14.8934 8.70983 14.8536 8.70755 14.8125 8.70566C14.774 8.70395 14.7343 8.70268 14.7046 8.72541C14.6899 8.73678 14.6765 8.7544 14.6629 8.77297C14.6509 8.78936 14.638 8.80698 14.6232 8.82203C14.6093 8.83607 14.5671 8.84845 14.5129 8.86592C14.4797 8.87651 14.4416 8.88928 14.4033 8.90496C14.3262 8.97107 14.2513 9.03886 14.1787 9.108C14.1726 9.11357 14.1665 9.11909 14.1604 9.12456C14.1492 9.15584 14.1443 9.18897 14.1469 9.22474C14.1489 9.25034 14.1551 9.27798 14.1613 9.30639C14.1695 9.34522 14.1779 9.38533 14.1769 9.42286C14.1759 9.4524 14.164 9.47255 14.147 9.47298C14.1391 9.47319 14.13 9.46928 14.1218 9.46582C14.1123 9.46183 14.1039 9.45827 14.0995 9.46179C14.0962 9.46434 14.0964 9.47187 14.0966 9.48102C14.0969 9.49565 14.0974 9.51438 14.0843 9.5245C14.0364 9.56154 13.9797 9.59592 13.9288 9.62676C13.872 9.6612 13.823 9.69119 13.7934 9.72012C13.7598 9.75286 13.7012 9.77106 13.6478 9.78955C13.6104 9.8025 13.5742 9.81666 13.5482 9.83561C13.5227 9.85412 13.5107 9.88798 13.5001 9.92163C13.4871 9.9622 13.4752 10.0032 13.438 10.0216C13.4303 10.0255 13.4047 10.0186 13.3719 10.0113C13.3488 10.0059 13.3218 10.0007 13.296 9.99744C13.2795 10.0228 13.2627 10.0486 13.2453 10.0759C13.2362 10.0898 13.227 10.1043 13.2178 10.1192C13.22 10.1222 13.2223 10.1253 13.2246 10.1283C13.2246 10.1284 13.2247 10.1284 13.2248 10.1285C13.2767 10.1992 13.3543 10.2849 13.267 10.3215C13.2447 10.3311 13.2121 10.3299 13.1826 10.3293C13.1536 10.3287 13.1276 10.3285 13.1175 10.34C13.1061 10.3531 13.1143 10.3775 13.1238 10.4036C13.137 10.4405 13.1527 10.4808 13.117 10.5049C13.1146 10.5066 13.1119 10.5084 13.1092 10.5102C13.0837 10.5281 13.046 10.5553 12.9817 10.577C12.935 10.6836 12.8901 10.7964 12.8478 10.9132C12.7774 11.1078 12.7137 11.3144 12.6611 11.5253C12.6352 11.6279 12.5548 11.7228 12.4313 11.7954C12.3077 11.8673 12.1516 11.9113 11.99 11.9105C11.8285 11.9105 11.6721 11.8622 11.5531 11.7701C11.4342 11.6782 11.3643 11.5522 11.3565 11.4237C11.3441 11.2147 11.3403 11.0041 11.3497 10.7895C11.3483 10.7779 11.347 10.7663 11.3459 10.7547C11.3379 10.6688 11.3082 10.5834 11.2805 10.4956C11.2741 10.4755 11.2678 10.4551 11.262 10.4347Z" fill="#042A21"/>
<path d="M24.2399 14.4897C24.3004 14.4939 24.3711 14.5165 24.4444 14.552C24.6436 14.65 24.8219 14.8244 24.916 14.9342C24.9186 14.9371 24.9211 14.94 24.9237 14.9429C24.9565 14.9806 24.988 15.0144 25.0233 15.054C25.1052 15.1473 25.2194 15.2811 25.3481 15.5572C25.3984 15.628 25.4447 15.6979 25.4876 15.7667C25.5543 15.8734 25.614 15.9769 25.6693 16.0756C26.1078 16.8987 26.1535 17.6084 26.2243 18.3025C26.2265 18.3125 26.2287 18.3226 26.2309 18.3328C26.2549 18.4416 26.2809 18.5642 26.2986 18.6782C26.3152 18.7839 26.3237 18.8862 26.3198 18.9687C26.3086 19.2022 26.2773 19.3672 26.2449 19.5016C26.2182 19.7549 26.1553 20.0297 26.0549 20.2722C25.8228 20.7941 25.5698 21.0932 25.3287 21.4553C25.2157 21.6185 25.1039 21.7806 24.9954 21.943C24.9054 22.0777 24.817 22.2121 24.7299 22.3473C24.7169 22.3673 24.7036 22.387 24.69 22.4065C24.6237 22.5264 24.5539 22.6351 24.485 22.7304C24.3884 22.8641 24.2937 22.9721 24.208 23.0474C24.0001 23.2308 23.7333 23.3563 23.5407 23.4374C23.5094 23.4506 23.4792 23.4631 23.452 23.4744C23.312 23.561 23.1724 23.6428 23.0332 23.7218C23.0207 23.7206 23.0083 23.7191 22.9955 23.7175C22.8864 23.7041 22.7829 23.7322 22.6531 23.7851C22.5874 23.812 22.5154 23.8433 22.433 23.8762C22.3197 23.9215 22.1867 23.97 22.0274 24.012C21.9247 24.0388 21.863 24.0198 21.8138 24.0043C21.7993 23.9997 21.7856 23.9954 21.7723 23.9925C21.7267 23.9825 21.6899 24.0152 21.6454 24.0534C21.5881 24.1028 21.5163 24.1619 21.4039 24.145C21.0494 24.0889 20.9202 24.1828 20.8159 24.2587C20.7853 24.2806 20.758 24.3002 20.7288 24.3126C20.6645 24.3399 20.5781 24.3411 20.4972 24.3289C20.4554 24.3235 20.4147 24.3149 20.3781 24.3044C20.2865 24.2788 20.1098 24.3162 19.97 24.3518C19.9173 24.3656 19.8461 24.363 19.7627 24.3571C19.6764 24.351 19.5772 24.3411 19.4687 24.3429C19.1942 24.3461 19.0492 24.3294 18.9344 24.3183C18.9287 24.3177 18.9231 24.3171 18.9176 24.3166C18.9076 24.3152 18.8791 24.3042 18.8691 24.3021C18.844 24.2976 18.8202 24.2932 18.7963 24.2889C18.7051 24.2723 18.5941 24.2443 18.482 24.2131C18.3479 24.1759 18.2121 24.1339 18.105 24.1068C17.8878 23.9893 17.6755 23.8588 17.4627 23.7037C17.4581 23.7016 17.446 23.6926 17.4415 23.6903C17.4109 23.6664 17.3781 23.6403 17.3438 23.6117C17.1986 23.4935 17.1099 23.3009 17.1297 23.1399C17.1457 22.9754 17.2378 22.8346 17.3644 22.7298C17.4918 22.6252 17.648 22.5664 17.7898 22.5417C17.9346 22.5198 18.0326 22.512 18.107 22.5489C18.1264 22.5588 18.1478 22.5696 18.1717 22.5815L18.154 22.5702C18.3307 22.6511 18.5255 22.724 18.7221 22.7915C18.9184 22.8588 19.1183 22.9213 19.317 22.9818L19.2669 22.9669C19.342 22.9836 19.4155 22.9991 19.4886 23.0133C19.6697 23.0487 19.8485 23.0723 20.0304 23.083C20.0491 23.0841 20.0679 23.0851 20.0866 23.086C20.1902 23.0589 20.291 23.0279 20.3777 23.0021C20.4267 22.9891 20.4715 22.978 20.5107 22.9698C20.6102 22.9488 20.6841 22.9618 20.7479 22.9724C20.7918 22.9796 20.8304 22.9858 20.8676 22.9786C20.8877 22.9747 20.9145 22.9683 20.9469 22.9602C21.0797 22.9274 21.2964 22.866 21.5015 22.852C21.5928 22.8461 21.7024 22.8499 21.8077 22.8493C21.9579 22.849 22.0996 22.8385 22.1561 22.799C22.1695 22.7897 22.1834 22.7809 22.1978 22.7725C22.3016 22.7139 22.4253 22.6758 22.535 22.6405C22.6561 22.6017 22.7603 22.566 22.8022 22.5136C22.8523 22.4509 22.913 22.4342 23.0021 22.4075C23.0635 22.3891 23.1394 22.3655 23.23 22.3175C23.3345 22.2619 23.4138 22.2347 23.4808 22.2101C23.5743 22.1754 23.6457 22.1452 23.6956 22.048C23.7504 21.9402 23.798 21.8442 23.8544 21.7877C23.8609 21.7812 23.8671 21.7741 23.8731 21.7666C23.8983 21.7331 23.9225 21.6952 23.9477 21.656C23.9919 21.5869 24.0384 21.5142 24.0947 21.4574C24.1411 21.4107 24.1974 21.384 24.2471 21.3604C24.2627 21.353 24.2776 21.3458 24.2913 21.3385C24.3194 21.2955 24.3472 21.2524 24.3748 21.2088C24.375 21.199 24.3751 21.1886 24.3751 21.1778C24.3756 21.1234 24.376 21.0566 24.3984 20.9889C24.4338 20.8817 24.5 20.8111 24.569 20.7363C24.6228 20.678 24.6783 20.6173 24.7203 20.5358C24.7488 20.4805 24.7732 20.4126 24.7953 20.3467C24.8283 20.2486 24.8556 20.1547 24.8938 20.1028C24.9081 20.0835 24.9349 20.0736 24.9611 20.064C24.9612 20.064 24.9614 20.064 24.9615 20.064C24.9633 20.0633 24.965 20.0627 24.9668 20.062C24.9832 20.0126 24.9964 19.965 25.0029 19.9269C25.0219 19.835 25.0301 19.7494 25.0309 19.6587C25.0274 19.6463 25.0239 19.6336 25.0203 19.6213C25.0027 19.5606 24.9819 19.502 24.9492 19.4637C24.914 19.422 24.8933 19.3211 24.8615 19.2095C24.8409 19.1367 24.8163 19.0603 24.7866 18.9987C24.776 18.9762 24.7775 18.9539 24.7833 18.9292C24.7867 18.9116 24.792 18.8938 24.7974 18.8758C24.8103 18.8324 24.8235 18.7878 24.8108 18.7438C24.8044 18.7217 24.7918 18.699 24.7783 18.6748C24.7664 18.6535 24.7537 18.6311 24.7441 18.607C24.7352 18.5846 24.737 18.531 24.7389 18.4626C24.74 18.4203 24.7411 18.3724 24.7397 18.3226C24.7022 18.198 24.6638 18.0749 24.6242 17.955C24.6007 17.9336 24.5725 17.9168 24.539 17.9066C24.5149 17.8993 24.4872 17.8949 24.4588 17.8905C24.4203 17.8844 24.3804 17.8784 24.3465 17.8654C24.32 17.8552 24.3063 17.839 24.3125 17.8242C24.3153 17.8173 24.3224 17.8108 24.3287 17.8048C24.336 17.798 24.3425 17.7919 24.341 17.7869C24.3398 17.7833 24.3328 17.7811 24.3243 17.7784C24.3108 17.7741 24.2932 17.7686 24.2888 17.7544C24.2723 17.7012 24.2602 17.6404 24.2474 17.5819C24.2332 17.5169 24.2184 17.4558 24.1977 17.4113C24.1747 17.3616 24.1697 17.2831 24.1625 17.2088C24.1574 17.1569 24.1514 17.1072 24.1394 17.0699C24.1309 17.0435 24.1131 17.0223 24.0936 17.0051C24.0826 16.9926 24.0714 16.9804 24.0604 16.9685C24.0125 16.917 23.9677 16.8702 23.9579 16.8152C23.9559 16.804 23.9704 16.7798 23.9885 16.7495C24.0013 16.7281 24.0159 16.7034 24.0278 16.6783C23.9931 16.6227 23.9597 16.5693 23.9274 16.5185C23.9234 16.5186 23.9193 16.5188 23.9152 16.519C23.9151 16.519 23.915 16.519 23.9149 16.519C23.8209 16.5228 23.698 16.5369 23.7011 16.4367C23.7016 16.411 23.7173 16.3823 23.7311 16.356C23.7447 16.3303 23.7565 16.307 23.7509 16.2929C23.7444 16.2768 23.7194 16.2739 23.6931 16.2723C23.656 16.2698 23.6173 16.2713 23.6159 16.2345C23.6158 16.232 23.6157 16.2292 23.6156 16.2264C23.614 16.1998 23.6119 16.1616 23.6237 16.1007C23.6035 16.0787 23.5837 16.0586 23.5637 16.0399C23.5101 15.9957 23.4509 15.9526 23.387 15.9112C23.2213 15.8037 23.0241 15.7085 22.8148 15.635C22.7132 15.599 22.6227 15.5123 22.5542 15.3857C22.4866 15.2589 22.4421 15.1033 22.4411 14.9416C22.4388 14.7802 22.5016 14.623 22.6172 14.5094C22.7321 14.3958 22.888 14.3372 23.0413 14.3463C23.2904 14.3612 23.5417 14.3966 23.7971 14.4636C23.8111 14.4653 23.8253 14.4672 23.8394 14.4694C23.9435 14.4854 24.0511 14.4825 24.1626 14.4859C24.1883 14.4868 24.214 14.4879 24.2399 14.4897Z" fill="#042A21"/>
<path d="M11.0845 11.083C11.0056 11.1595 10.857 11.1265 10.7752 11.1087C10.7737 11.1084 10.7722 11.1081 10.7707 11.1078C10.7513 11.1036 10.7328 11.1024 10.7114 11.1011C10.6601 11.0981 10.5909 11.0939 10.4471 11.0447C10.405 11.0466 10.3637 11.0478 10.3218 11.048C10.0113 11.0502 9.67269 11.0229 9.43407 11.0021C9.45176 10.9812 9.44793 10.9513 9.40053 10.9557C9.39938 10.957 9.39818 10.9583 9.39692 10.9597C9.37296 10.9855 9.32552 11.044 9.26627 11.0698C9.19062 11.1021 9.12767 11.1312 9.07452 11.156C8.85205 11.3616 8.63589 11.6524 8.45466 11.9623C8.39782 12.0596 8.34376 12.1605 8.29328 12.2634C8.24687 12.3581 8.20219 12.4552 8.1593 12.553C8.14686 12.6166 8.13874 12.6784 8.13069 12.7365C8.13015 12.7403 8.12962 12.7442 8.12908 12.748C8.13235 12.7967 8.13639 12.8439 8.13104 12.88C8.11679 12.9717 8.06031 13.0794 8.02178 13.1684C8.01547 13.1827 8.00958 13.1966 8.00438 13.2096C8.00168 13.2857 8.00221 13.3644 8.00533 13.4433C7.99837 13.4479 7.99114 13.4525 7.98374 13.4572C7.89157 13.5152 7.88462 13.602 7.88048 13.7379C7.87874 13.7973 7.87762 13.8664 7.87114 13.9482C7.86701 14.0011 7.83338 14.0284 7.8059 14.0514C7.79782 14.0581 7.79028 14.0644 7.78422 14.0708C7.76345 14.0929 7.78678 14.1153 7.8145 14.1413C7.85048 14.1753 7.89386 14.2146 7.85855 14.2712C7.74663 14.4533 7.83687 14.5279 7.90382 14.5792C7.92357 14.5946 7.94146 14.6083 7.95215 14.6231C7.98674 14.6708 7.96573 14.7457 7.9329 14.8059C7.90668 14.8534 7.9503 14.9366 8.00064 14.9952C8.01959 15.0172 8.02543 15.0504 8.03262 15.089C8.04001 15.1288 8.04902 15.1754 8.07564 15.221C8.1096 15.279 8.13588 15.3226 8.15695 15.3569L8.05592 15.13C8.08866 15.1549 8.11357 15.1738 8.1359 15.1905C8.14866 15.2 8.16068 15.2091 8.17262 15.2178C8.21056 15.2453 8.253 15.2822 8.2957 15.3175C8.34683 15.3598 8.39856 15.3999 8.44318 15.4221C8.50112 15.5214 8.57026 15.6232 8.58392 15.6621L8.50854 15.6142C8.50721 15.6142 8.50589 15.6142 8.50456 15.6142C8.47146 15.6127 8.45232 15.689 8.4691 15.8162C8.48231 15.9431 8.49138 16.1053 8.4634 16.2676C8.43555 16.4298 8.38354 16.5831 8.29322 16.6895C8.20652 16.7958 8.05296 16.8398 7.89764 16.7735C7.89011 16.7703 7.88269 16.767 7.87522 16.7636C7.8637 16.7539 7.82227 16.7346 7.81205 16.7235C7.59699 16.5939 7.46358 16.4778 7.32927 16.3546C7.1791 16.2139 7.04936 16.0681 6.93717 15.9123C6.91393 15.8591 6.82871 15.723 6.82701 15.665C6.82289 15.6482 6.81893 15.6313 6.81515 15.6143C6.78257 15.4681 6.75935 15.3221 6.74354 15.1761C6.74191 15.1611 6.7404 15.146 6.73891 15.1309C6.68039 15.0155 6.62873 14.8974 6.60636 14.8121C6.58786 14.7418 6.60456 14.6873 6.61911 14.6413C6.62913 14.6095 6.63817 14.5815 6.63428 14.5543C6.6322 14.5396 6.62821 14.5197 6.62353 14.4956C6.60424 14.3976 6.57461 14.2284 6.6122 14.0724C6.62874 14.0033 6.66329 13.9233 6.69766 13.8478C6.74666 13.7401 6.79551 13.6415 6.78503 13.5897C6.76641 13.4986 6.79494 13.3957 6.82281 13.3058C6.84927 13.22 6.87496 13.1456 6.85477 13.0971C6.83065 13.0391 6.8516 12.995 6.88423 12.9314C6.90709 12.8867 6.93528 12.8332 6.96176 12.7556C6.99247 12.6663 7.03488 12.6072 7.07159 12.5589C7.12434 12.4893 7.16409 12.4416 7.16937 12.3377C7.17059 12.3169 7.17266 12.2962 7.17564 12.2757C7.17956 12.2012 7.19495 12.1332 7.22955 12.0876C7.24866 12.0625 7.26297 12.0299 7.27794 11.9958C7.29765 11.9509 7.31854 11.9034 7.35301 11.8675C7.38131 11.8381 7.42439 11.8229 7.46241 11.8096C7.47427 11.8055 7.48562 11.8015 7.49592 11.7973C7.50922 11.7693 7.52263 11.7407 7.53565 11.7122C7.53329 11.7054 7.53054 11.6981 7.52773 11.6905C7.5136 11.6525 7.49651 11.6054 7.49951 11.559C7.50403 11.4859 7.54723 11.4398 7.59279 11.3921C7.62852 11.3545 7.66547 11.3162 7.68817 11.2608C7.70339 11.2235 7.71368 11.1759 7.72401 11.1293C7.73952 11.0596 7.7559 10.9907 7.79023 10.9542C7.803 10.9407 7.82808 10.9372 7.85294 10.9339C7.85308 10.9339 7.85322 10.9339 7.85336 10.9339C7.85505 10.9337 7.85671 10.9334 7.85839 10.9332C7.90315 10.8239 7.94991 10.7131 8.00243 10.6004C8.004 10.5885 8.00574 10.5767 8.00752 10.5649C8.0158 10.5081 8.02696 10.4504 8.01946 10.4029C8.01182 10.3506 8.05147 10.2591 8.10416 10.1603C8.13872 10.0954 8.17926 10.0273 8.21103 9.96541C8.23017 9.92863 8.27118 9.91724 8.31481 9.90559C8.35573 9.89459 8.39618 9.88575 8.42596 9.85417C8.44074 9.83848 8.45335 9.81718 8.46759 9.79447C8.47991 9.77463 8.49476 9.75273 8.51257 9.73346C8.52911 9.71565 8.57991 9.69317 8.64875 9.66862C8.69098 9.65363 8.7414 9.63723 8.79394 9.62122C8.91863 9.54686 9.06704 9.48604 9.22407 9.45325C9.2337 9.44618 9.24298 9.43873 9.25185 9.43086C9.26337 9.41457 9.27337 9.39579 9.28143 9.3741C9.28987 9.35141 9.29651 9.3247 9.30357 9.29739C9.31326 9.26023 9.32168 9.22202 9.33703 9.19086C9.34884 9.16652 9.36493 9.15592 9.37657 9.16468C9.38175 9.16878 9.38612 9.17694 9.39006 9.18433C9.39459 9.19278 9.39861 9.20031 9.4028 9.19977C9.40582 9.19937 9.40852 9.19294 9.41188 9.18515C9.41724 9.17272 9.4243 9.15666 9.43678 9.15525C9.48204 9.1501 9.53332 9.15214 9.58093 9.15471C9.63552 9.15749 9.68622 9.16078 9.72612 9.15474C9.77114 9.14793 9.8355 9.16907 9.89903 9.1906C9.94298 9.20561 9.98728 9.22072 10.0244 9.22665C10.0613 9.23245 10.0984 9.21915 10.1351 9.20626C10.1791 9.19077 10.2205 9.17596 10.2567 9.19593C10.2639 9.19998 10.273 9.22494 10.2844 9.25616C10.2925 9.27829 10.3017 9.3036 10.3122 9.32692C10.3576 9.32667 10.4022 9.32754 10.4474 9.32938C10.449 9.32598 10.4506 9.32253 10.4522 9.319C10.4523 9.31891 10.4523 9.31883 10.4523 9.31875C10.4889 9.2391 10.5399 9.13018 10.6106 9.19532C10.6286 9.21188 10.6398 9.24242 10.6499 9.2699C10.6598 9.29689 10.6687 9.32105 10.6817 9.32618C10.6966 9.33198 10.7142 9.31551 10.7333 9.29761C10.7603 9.27247 10.7905 9.24441 10.8203 9.27091C10.8223 9.27272 10.8245 9.2747 10.8268 9.27669C10.8483 9.29554 10.8805 9.32345 10.9119 9.3794C11.0068 9.39506 11.1006 9.41346 11.1951 9.43361C11.352 9.46719 11.5076 9.50562 11.6637 9.54396C11.7391 9.56281 11.8099 9.63961 11.8621 9.7616C11.913 9.88375 11.9423 10.0402 11.9404 10.2018C11.9397 10.3633 11.907 10.5192 11.8519 10.6401C11.7955 10.7608 11.7212 10.8356 11.6449 10.8523C11.5202 10.8792 11.396 10.906 11.2729 10.9308C11.2665 10.9341 11.26 10.9373 11.2535 10.9402C11.2052 10.9623 11.1605 11.0072 11.1154 11.0522C11.1049 11.0625 11.0947 11.0729 11.0845 11.083Z" fill="#042A21"/>
<path d="M7.55489 18.5586C7.54167 18.7392 7.37251 19.0263 7.28479 19.1988C7.28319 19.2019 7.28159 19.205 7.28 19.2082C7.25901 19.2486 7.24203 19.2881 7.22241 19.335C7.1758 19.4478 7.11372 19.5953 6.9533 19.9203C6.93299 19.9851 6.91145 20.0537 6.88957 20.1217C6.88147 20.1471 6.87361 20.173 6.86598 20.1993C6.63287 21.0049 6.69228 22.1858 6.93955 23.0833C6.94095 23.0902 6.94241 23.0968 6.94404 23.1034C6.94652 23.1078 6.94908 23.1121 6.95178 23.1165C6.98682 23.1881 7.1627 23.3378 7.31664 23.4743C7.50197 23.6449 7.65865 23.7753 7.77966 23.8822C7.832 23.9186 7.88414 23.9546 7.93774 23.9914C8.39631 24.3014 9.36862 24.4517 10.1712 24.4818C10.4513 24.4918 10.7334 24.4878 11.008 24.4661C11.196 24.4511 11.3836 24.4279 11.5558 24.3938C11.5739 24.3895 11.5889 24.3834 11.6078 24.3726C11.644 24.3359 11.69 24.2698 11.7576 24.1662C11.8129 24.0908 11.8483 24.0039 12.0282 23.854C12.2093 23.7153 12.4491 23.6849 12.6084 23.7124C12.7731 23.7385 12.8885 23.8 12.9802 23.8642C13.0588 23.9202 13.1236 23.9844 13.1778 24.054C13.4529 24.4014 13.5748 24.7929 13.6591 25.0483C13.6741 25.0948 13.6878 25.1378 13.7004 25.1767C13.7948 25.3832 13.8861 25.5672 13.9812 25.6989C13.9814 25.7115 13.9815 25.7241 13.9816 25.737C13.982 25.7795 13.9898 25.8196 14.0043 25.8571C14.0337 25.9449 14.1029 26.015 14.2896 26.0878C14.4003 26.1305 14.5534 26.171 14.7521 26.2103C14.8808 26.2354 14.9455 26.2767 15 26.3113C15.0164 26.3214 15.031 26.3307 15.0462 26.3386C15.099 26.3656 15.1602 26.3487 15.2325 26.3278C15.3256 26.3007 15.437 26.2669 15.5802 26.313C16.0399 26.4583 16.2578 26.3773 16.4147 26.3191C16.4617 26.3018 16.5046 26.2861 16.547 26.2776C16.6883 26.2503 16.8857 26.2819 17.0371 26.3233C17.0494 26.3266 17.0629 26.3293 17.0775 26.3313C17.1918 26.3506 17.3766 26.3134 17.5086 26.2595C17.565 26.2372 17.6408 26.2257 17.7292 26.2069C17.8202 26.1876 17.9241 26.1602 18.0244 26.1072C18.2755 25.9712 18.3845 25.8727 18.4763 25.7956C18.5023 25.773 18.5257 25.7519 18.5493 25.7296C18.6234 25.6599 18.7154 25.5718 18.8105 25.4705C18.9042 25.3712 19.0023 25.2581 19.0957 25.1484L18.9876 25.2771C18.9912 25.266 18.9957 25.2527 18.9999 25.2389C19.1338 25.0514 19.2816 24.7002 19.3983 24.3707C19.4054 24.3508 19.413 24.3315 19.4214 24.3121L19.4184 24.3237C19.4801 24.1787 19.5685 24.0772 19.6934 23.9702C19.8334 23.8557 20.0013 23.7975 20.1645 23.8201C20.3275 23.8433 20.475 23.9407 20.5746 24.1013C20.6638 24.2392 20.6986 24.4509 20.6742 24.6388C20.6736 24.6407 20.6724 24.6466 20.6717 24.6485C20.6685 24.6723 20.6645 24.6957 20.6595 24.7194C20.5639 25.1391 20.4843 25.5387 20.2208 26.0268C20.2106 26.0445 20.1994 26.0632 20.1881 26.0814C20.1695 26.1048 20.1173 26.1743 20.0941 26.1931C19.7904 26.5262 19.3521 26.9543 18.816 27.2016C18.4318 27.385 18.0141 27.4892 17.6107 27.5262C17.5696 27.53 17.5263 27.5334 17.4859 27.5359C17.3436 27.5647 17.2042 27.5856 17.0689 27.599C16.9094 27.6175 16.7639 27.6315 16.6472 27.6374C16.4774 27.646 16.3551 27.6219 16.2501 27.6009C16.1761 27.5864 16.1152 27.5735 16.0477 27.5733C16.0119 27.5731 15.9652 27.5742 15.9065 27.5751C15.6676 27.5786 15.2616 27.5827 14.8738 27.4985C14.7025 27.4612 14.5001 27.3973 14.3038 27.3191C14.0211 27.2105 13.7465 27.0505 13.593 26.9718C13.4218 26.891 13.2413 26.7403 13.116 26.567C13.0497 26.4762 12.9964 26.3841 12.9522 26.2979C12.8377 26.0718 12.7789 25.8884 12.7107 25.8003C12.6305 25.6949 12.6041 25.5914 12.5673 25.4478C12.5417 25.3488 12.5118 25.2294 12.4525 25.0903C12.3839 24.9308 12.3449 24.8275 12.3065 24.7422C12.3037 24.7359 12.3009 24.7298 12.298 24.7238C12.3325 24.7211 12.387 24.8372 12.6404 24.715C12.6511 24.7102 12.6362 24.7297 12.6184 24.7638C12.5388 24.9152 12.331 25.2015 12.0487 25.3143C11.9593 25.3521 11.8547 25.3881 11.742 25.4093C11.7142 25.4146 11.6856 25.42 11.6563 25.4253C11.5194 25.45 11.3768 25.4698 11.2467 25.4674C11.1402 25.4653 11.0507 25.4401 10.9723 25.417C10.9474 25.4098 10.9249 25.4028 10.9024 25.3967C10.8194 25.402 10.7376 25.4064 10.6548 25.4102C10.6417 25.4158 10.6279 25.422 10.6135 25.4283C10.5407 25.46 10.4509 25.4982 10.3383 25.5169C10.1601 25.5463 10.0036 25.5256 9.83988 25.5005C9.71229 25.4809 9.58034 25.4586 9.4274 25.4527C9.32302 25.4487 9.20365 25.4513 9.08367 25.4512C8.90604 25.4514 8.72908 25.4453 8.60847 25.4129C8.56437 25.4011 8.52716 25.3741 8.49243 25.3474C8.49228 25.3473 8.49214 25.3471 8.49199 25.347C8.48961 25.3451 8.48722 25.3434 8.48485 25.3415C8.18503 25.2997 7.88457 25.2489 7.55387 25.125C7.52335 25.1172 7.49169 25.1081 7.46103 25.0985C7.41275 25.0838 7.35861 25.0638 7.31011 25.0445C7.23601 25.02 7.16807 25.0006 7.11207 24.9934C7.02204 24.9817 6.8331 24.8947 6.62167 24.7838C6.4839 24.7115 6.33516 24.6259 6.20361 24.5459C6.12669 24.4992 6.07236 24.4248 6.01902 24.3434C5.96911 24.2671 5.92002 24.1853 5.84918 24.1044C5.81382 24.064 5.77142 24.021 5.72801 23.9716C5.68977 23.928 5.6506 23.8792 5.61558 23.8239C5.59532 23.7918 5.56769 23.7302 5.54135 23.648C5.53004 23.6099 5.51748 23.5632 5.50653 23.517C5.48774 23.439 5.47017 23.354 5.45216 23.2662C5.3715 23.0442 5.30637 22.8261 5.25064 22.6045C5.22348 22.5607 5.19291 22.5252 5.15723 22.498C5.13168 22.4786 5.10252 22.4626 5.07292 22.447C5.03259 22.4254 4.99091 22.4025 4.955 22.3664C4.92694 22.3383 4.91209 22.3027 4.91786 22.2759C4.92056 22.2635 4.92762 22.2532 4.934 22.2439C4.94133 22.2333 4.94783 22.2236 4.94618 22.2136C4.94497 22.2063 4.93775 22.1996 4.929 22.1913C4.91503 22.178 4.89696 22.1605 4.89249 22.1306C4.87589 22.0196 4.86681 21.8919 4.86125 21.7662C4.8549 21.6261 4.85298 21.4893 4.84496 21.3791C4.83576 21.2561 4.85724 21.0784 4.88768 20.9009C4.9087 20.7769 4.93382 20.6529 4.95142 20.5455C4.96856 20.4404 4.97037 20.3281 4.97607 20.2174C4.98272 20.0848 4.99551 19.9538 5.04196 19.8506C5.05137 19.8296 5.08252 19.8085 5.12177 19.783C5.1496 19.7648 5.18152 19.7445 5.21291 19.7202C5.22603 19.6749 5.24009 19.6297 5.25511 19.5847C5.27787 19.5168 5.30283 19.4433 5.32823 19.3711C5.32633 19.366 5.32443 19.3608 5.32247 19.3556C5.32241 19.3555 5.32236 19.3554 5.3223 19.3553C5.27681 19.2405 5.21648 19.0776 5.34284 18.9196C5.37478 18.8801 5.41397 18.8621 5.44939 18.8457C5.48435 18.8291 5.51494 18.8162 5.53229 18.7849C5.55204 18.7492 5.55345 18.6996 5.55584 18.6445C5.5592 18.5672 5.56421 18.4799 5.62046 18.4143C5.62431 18.4097 5.62849 18.4049 5.63279 18.3998C5.67361 18.3514 5.73436 18.281 5.82175 18.2235C5.94418 17.9909 6.08103 17.7608 6.23939 17.5363C6.5053 17.1652 6.8236 16.7915 7.29557 16.5155C7.43541 16.4352 7.59846 16.3889 7.75081 16.3878C7.83433 16.3922 7.91623 16.4082 7.99115 16.4363C8.18213 16.5069 8.31328 16.6566 8.30541 16.8198C8.31017 16.9814 8.29751 17.1362 8.2322 17.2811C8.20686 17.3379 8.1746 17.391 8.13592 17.4402C8.10393 17.5061 8.06928 17.5596 8.01944 17.6056C7.88564 17.728 7.74819 17.9206 7.62761 18.1433C7.62291 18.1561 7.61813 18.1689 7.61325 18.1817C7.5768 18.2768 7.56668 18.3812 7.5596 18.4861C7.55798 18.5102 7.55651 18.5344 7.55489 18.5586Z" fill="#042A21"/>
<path d="M20.3821 6.52276C20.5113 6.41986 20.7748 6.41902 20.9117 6.42463C20.9142 6.42468 20.9167 6.42474 20.9192 6.42479C20.9517 6.42592 20.9823 6.42431 21.0183 6.42252C21.1026 6.41863 21.2179 6.41287 21.4514 6.45161C21.5187 6.44679 21.5853 6.44332 21.652 6.44127C22.3712 6.42045 23.065 6.50496 23.7571 6.62108C23.7659 6.62119 23.7749 6.6213 23.7838 6.62141C23.8385 6.62202 23.9033 6.62322 23.9625 6.62546C24.1589 6.63394 24.3522 6.68035 24.4745 6.73972C24.7052 6.85209 24.8274 6.95923 24.922 7.04567C25.5051 7.46518 25.8201 7.97938 26.1482 8.37437C26.166 8.39607 26.1845 8.41822 26.2019 8.4386C26.3376 8.59262 26.4345 8.75702 26.5111 8.91652C26.5965 9.09529 26.6573 9.27073 26.7082 9.44192C26.7513 9.53746 26.7925 9.62878 26.8283 9.71193C26.8787 9.82962 26.9194 9.93506 26.9402 10.0227C26.9908 10.2358 26.9866 10.477 26.9799 10.6534C26.9788 10.6825 26.9777 10.7095 26.9768 10.7344C26.9981 10.8723 27.0181 11.0086 27.037 11.1448C27.031 11.1543 27.0248 11.1638 27.0184 11.1736C26.9387 11.2943 26.9466 11.437 26.9556 11.6595C26.9589 11.7406 26.9623 11.8327 26.9615 11.9392C26.9685 11.982 26.9373 12.0962 26.9276 12.1386C26.9194 12.1581 26.9109 12.1781 26.9019 12.1985C26.8652 12.2813 26.8163 12.3103 26.7764 12.3343C26.7646 12.3413 26.7536 12.3479 26.7439 12.3551C26.7108 12.3795 26.7173 12.4226 26.7244 12.4742C26.7337 12.5405 26.7438 12.6217 26.6712 12.6883C26.4398 12.899 26.4552 13.0436 26.466 13.1586C26.4692 13.192 26.4718 13.2224 26.4677 13.2498C26.4541 13.339 26.3701 13.432 26.2904 13.4915C26.2271 13.5392 26.1833 13.6792 26.1612 13.7946C26.1531 13.838 26.1242 13.8868 26.0898 13.9433C26.0541 14.0022 26.0125 14.0694 25.9805 14.1508C25.9001 14.3554 25.8501 14.4637 25.8104 14.5499C25.7988 14.5748 25.7879 14.5978 25.7772 14.6206C25.7427 14.6938 25.6939 14.7806 25.6411 14.8691C25.5781 14.975 25.5095 15.0826 25.4566 15.1731C25.3538 15.2735 25.2492 15.3733 25.0872 15.4911C25.0828 15.4958 25.0663 15.5065 25.0617 15.5111C24.9762 15.5607 24.9036 15.602 24.827 15.65C24.7428 15.7025 24.62 15.7122 24.4823 15.6723C24.3444 15.6324 24.2042 15.5459 24.0924 15.4249C23.981 15.3037 23.9059 15.1565 23.8864 15.01C23.8667 14.864 23.9059 14.7306 23.9944 14.6406C24.0734 14.5601 24.16 14.4786 24.2376 14.407L24.216 14.4238C24.2465 14.3817 24.3125 14.2943 24.3705 14.2082C24.5035 14.013 24.6406 13.7931 24.7834 13.5792C24.8838 13.4286 24.9838 13.2765 25.0832 13.1228C25.0935 13.107 25.1038 13.091 25.114 13.0753C25.1568 12.9223 25.1983 12.7713 25.2371 12.671C25.2693 12.5881 25.3179 12.5413 25.3595 12.5007C25.388 12.4728 25.4132 12.4479 25.4267 12.4167C25.434 12.3999 25.4428 12.3765 25.4532 12.3484C25.4962 12.2329 25.5641 12.0385 25.6712 11.8826C25.7085 11.8286 25.7576 11.7706 25.8068 11.7131L25.7631 11.9699C25.7697 11.9475 25.7765 11.9251 25.7832 11.9031C25.8266 11.7611 25.866 11.6274 25.85 11.5622C25.8219 11.4463 25.8361 11.3142 25.8475 11.1958C25.8585 11.0838 25.8669 10.9856 25.8357 10.9328C25.7984 10.8696 25.8076 10.814 25.8202 10.7293C25.829 10.6715 25.8394 10.5999 25.836 10.5047C25.8321 10.3956 25.8449 10.3162 25.8553 10.2496C25.8697 10.1549 25.8795 10.0836 25.8238 9.99119C25.762 9.88916 25.711 9.78719 25.7014 9.70172C25.6972 9.66279 25.6833 9.62056 25.6681 9.57901C25.6479 9.52335 25.6253 9.46863 25.6187 9.41448C25.6131 9.36973 25.6269 9.32492 25.6376 9.28415C25.641 9.2716 25.6439 9.25924 25.646 9.2477C25.6293 9.21818 25.6116 9.19031 25.593 9.16468C25.5859 9.16331 25.5782 9.16217 25.5702 9.16112C25.5304 9.15586 25.4829 9.15345 25.4475 9.14151C25.4464 9.14113 25.4453 9.14075 25.4442 9.14036C25.3543 9.08167 25.3097 9.00432 25.2646 8.92498C25.2291 8.86219 25.193 8.79753 25.135 8.74049C25.0955 8.70176 25.044 8.66403 24.9937 8.6286C24.9187 8.5755 24.8458 8.52724 24.8128 8.47743C24.8004 8.45873 24.8011 8.43129 24.8016 8.40392C24.8016 8.40378 24.8017 8.40363 24.8017 8.40349C24.8017 8.40163 24.8017 8.39979 24.8018 8.39794C24.6886 8.30967 24.5739 8.23303 24.4609 8.17395C24.449 8.17177 24.4372 8.16962 24.4255 8.16764C24.3684 8.15786 24.3148 8.15288 24.2723 8.16738C24.2261 8.18267 24.1486 8.16483 24.0766 8.16195C24.0293 8.15962 23.9844 8.16293 23.9494 8.17641C23.929 8.18426 23.9166 8.16123 23.9008 8.13776C23.8907 8.12241 23.8795 8.10698 23.8663 8.10064C23.8555 8.09762 23.8444 8.09616 23.8327 8.09691C23.8129 8.09819 23.791 8.10539 23.7673 8.11312C23.7462 8.11991 23.7245 8.12716 23.7023 8.1311C23.6818 8.13475 23.6353 8.12074 23.5773 8.10324C23.5417 8.09244 23.5002 8.08024 23.4566 8.06982C23.3415 8.07699 23.2243 8.08425 23.109 8.09145C23.0843 8.10868 23.0626 8.13145 23.0449 8.16108C23.0323 8.18233 23.0212 8.20788 23.0099 8.23401C22.9948 8.26958 22.9792 8.30634 22.9584 8.3354C22.9421 8.35811 22.9235 8.36679 22.9114 8.35678C22.9058 8.35211 22.9017 8.34351 22.8979 8.33573C22.8935 8.32682 22.8897 8.3189 22.8846 8.31898C22.881 8.31905 22.877 8.32515 22.8722 8.33254C22.8645 8.34434 22.8543 8.35956 22.8399 8.35972C22.7861 8.36029 22.7242 8.35381 22.6643 8.3477C22.5977 8.34089 22.5321 8.33458 22.4802 8.33857C22.422 8.34303 22.3393 8.31921 22.2565 8.29607C22.1987 8.27991 22.1407 8.26411 22.0912 8.2579C22.0426 8.2518 21.992 8.26512 21.9437 8.27832C21.8857 8.29416 21.8297 8.30979 21.7821 8.29078C21.7725 8.28691 21.76 8.26222 21.744 8.23136C21.7327 8.20948 21.7197 8.18449 21.705 8.16155C21.6443 8.16343 21.584 8.16465 21.5236 8.16545C21.5217 8.16894 21.5196 8.17249 21.5176 8.17611C21.5176 8.1762 21.5176 8.17628 21.5175 8.17636C21.4723 8.25813 21.411 8.37009 21.3159 8.31116C21.2912 8.29623 21.2744 8.26684 21.2591 8.2404C21.2441 8.21444 21.2307 8.19123 21.2133 8.18745C21.1937 8.18318 21.1721 8.20149 21.1486 8.22153C21.1155 8.24968 21.0812 8.28114 21.0402 8.25882C21.0374 8.2573 21.0344 8.25562 21.0312 8.25396C21.0013 8.23818 20.9588 8.2149 20.9119 8.16446C20.7911 8.16397 20.6722 8.16472 20.5663 8.16843C20.4809 8.1709 20.3995 8.1779 20.3535 8.17942C20.297 8.16846 20.3447 8.21641 20.4319 7.94832C20.4303 7.95174 20.4287 7.95514 20.4272 7.9585C20.3861 8.04581 20.2941 8.11521 20.1636 8.16056C20.0328 8.20716 19.8751 8.21917 19.7136 8.21946C19.5522 8.20219 19.4013 8.1302 19.2969 8.01665C19.1925 7.90362 19.1449 7.76067 19.1604 7.63056C19.161 7.62555 19.1616 7.6205 19.1623 7.61543C19.2861 7.17053 19.5424 7.0433 19.678 6.94426C19.8303 6.8496 19.9486 6.79877 20.0651 6.75181C20.0767 6.74508 20.0884 6.73853 20.1001 6.73225C20.1892 6.68529 20.2606 6.62363 20.3319 6.56363C20.3484 6.54985 20.3651 6.53613 20.3821 6.52276Z" fill="#042A21"/>
<path d="M12.8535 15.377C12.9175 15.4598 12.8719 15.6104 12.8517 15.7047C12.8514 15.7064 12.851 15.7081 12.8507 15.7098C12.8458 15.7318 12.8441 15.7527 12.8424 15.7776C12.8388 15.8373 12.8328 15.9164 12.7914 16.0952C12.7956 16.1464 12.7998 16.198 12.8038 16.2498C12.8206 16.4712 12.8424 16.7126 12.8664 16.8907C12.8576 16.8912 12.8103 16.8665 12.8375 16.9183C12.8627 16.965 12.9597 17.0426 13.089 17.1114C13.095 17.113 13.1011 17.1147 13.1073 17.1164C13.2259 17.1493 13.3979 17.1837 13.5047 17.2373C13.6404 17.3056 13.7385 17.3595 13.8189 17.4055C13.9808 17.4598 14.149 17.5131 14.3214 17.5686C14.5748 17.6599 14.8285 17.6905 15.0775 17.6376C15.1948 17.6129 15.3113 17.5697 15.4256 17.509C15.5311 17.4531 15.6349 17.3833 15.7391 17.3021C15.7915 17.2434 15.8388 17.1816 15.8838 17.1225C15.935 17.0551 15.9836 16.991 16.0323 16.9383C16.0309 16.9363 16.0307 16.9339 16.0316 16.9311C16.0348 16.9212 16.0493 16.9041 16.071 16.8784C16.082 16.8653 16.0945 16.8507 16.1119 16.8298C16.121 16.819 16.1304 16.8076 16.1469 16.7877C16.1556 16.7774 16.165 16.7657 16.1847 16.7436C16.1957 16.7315 16.2079 16.7176 16.2345 16.6923C16.2895 16.665 16.2199 16.6248 16.5744 16.5209C16.7089 16.4988 16.9685 16.505 17.1789 16.678C17.3803 16.8507 17.4127 17.0106 17.4377 17.1082C17.4528 17.1805 17.4564 17.2413 17.4572 17.2841C17.4824 17.5315 17.4631 17.6696 17.4512 17.8227C17.4431 17.8315 17.4348 17.8402 17.4263 17.8485C17.32 17.9547 17.2917 18.093 17.2452 18.3025C17.2252 18.3929 17.2018 18.4965 17.1696 18.6134C17.1489 18.6885 17.1076 18.72 17.0739 18.7457C17.064 18.7532 17.0548 18.7604 17.0469 18.768C17.02 18.7943 17.0364 18.8296 17.056 18.8717C17.0816 18.9258 17.1132 18.9875 17.0658 19.0522C16.9437 19.2188 16.9859 19.3108 17.0386 19.3235C17.0502 19.3211 17.0622 19.3158 17.0727 19.3088C17.0887 19.2984 17.1011 19.284 17.1052 19.2715C17.1163 19.2239 17.0627 19.2222 17.068 19.276C17.065 19.3139 17.1524 19.3229 17.2374 19.3092C17.269 19.3042 17.3066 19.3163 17.3558 19.3304C17.4065 19.345 17.4691 19.3615 17.5436 19.3626C17.6817 19.3644 17.779 19.3664 17.8542 19.369C17.8722 19.3677 17.8878 19.3661 17.9024 19.3644C17.9178 19.3625 17.9323 19.3606 17.9462 19.3582C17.9907 19.3506 18.0427 19.3437 18.0918 19.3321C18.1507 19.3185 18.2051 19.2979 18.2387 19.272C18.2929 19.2759 18.3625 19.2617 18.3564 19.2794L18.3028 19.3133C18.3203 19.3143 18.3509 19.3001 18.3641 19.2997C18.3655 19.2997 18.3672 19.3003 18.369 19.3014C18.3624 19.3479 18.4242 19.4094 18.547 19.3716C18.6772 19.3463 18.841 19.325 19.0036 19.3522C19.1656 19.3795 19.318 19.4433 19.4171 19.563C19.51 19.6584 19.5302 19.8828 19.4164 20.0691C19.4078 20.0845 19.3986 20.0992 19.3889 20.1133C19.2989 20.2423 19.2036 20.3443 19.0841 20.4406C19.0745 20.4454 19.0488 20.4652 19.0389 20.4692C18.8256 20.6037 18.6548 20.6604 18.4675 20.7066C18.1551 20.7798 17.8359 20.7772 17.5371 20.7115C17.4914 20.7018 17.4457 20.6916 17.3987 20.6804C17.2116 20.635 17.0147 20.5867 16.7806 20.4943C16.7565 20.4847 16.7317 20.4743 16.7066 20.4632C16.4926 20.4223 16.1758 20.2924 15.9783 20.0265C15.8375 19.8408 15.801 19.6458 15.7975 19.5104C15.7975 19.4958 15.7979 19.4818 15.7984 19.4683C15.8016 19.3868 15.811 19.3295 15.8087 19.2712C15.8076 19.2412 15.8056 19.2026 15.8048 19.1561C15.8 18.9706 15.8211 18.7112 15.9034 18.5107C15.9396 18.4215 15.9965 18.3247 16.0507 18.2358C16.1282 18.1086 16.1996 17.9954 16.2 17.931C16.2009 17.8181 16.246 17.7029 16.2802 17.6081C16.3131 17.5175 16.3346 17.4477 16.3083 17.4168C16.2801 17.3863 16.2783 17.3455 16.3197 17.4219C16.337 17.4468 16.3652 17.5186 16.4768 17.5962C16.594 17.6773 16.7333 17.6701 16.7688 17.6574C16.9767 17.6065 16.9784 17.5623 17.0085 17.5467C17.0321 17.5263 17.0394 17.5178 17.0472 17.5096C17.0892 17.4536 17.0057 17.5498 16.9751 17.5747C16.9345 17.612 16.8932 17.6444 16.8524 17.6737C16.8032 17.7091 16.7553 17.7403 16.7043 17.7747C16.663 17.7989 16.6261 17.832 16.5913 17.8878C16.5237 17.9961 16.4344 18.0993 16.3387 18.1516C16.2952 18.1754 16.2497 18.2091 16.2006 18.2435C16.1358 18.2891 16.0639 18.3362 15.9882 18.3619C15.9257 18.3832 15.8629 18.3801 15.8083 18.3758C15.7912 18.3745 15.7748 18.3732 15.7594 18.3723C15.7138 18.3948 15.6672 18.4164 15.6198 18.4371C15.614 18.445 15.608 18.4536 15.6016 18.4625C15.5698 18.5071 15.5279 18.5619 15.463 18.6019C15.3603 18.6651 15.2531 18.6735 15.1433 18.6746C15.0568 18.6755 14.97 18.672 14.8709 18.6849C14.8041 18.6937 14.7275 18.7094 14.6504 18.7213C14.5363 18.7393 14.4222 18.7483 14.3468 18.7267C14.318 18.7186 14.2971 18.6954 14.2761 18.6721C14.276 18.6719 14.2759 18.6718 14.2758 18.6717C14.2744 18.6701 14.273 18.6685 14.2716 18.667C14.2104 18.6627 14.1519 18.6573 14.0912 18.6498C13.9909 18.6396 13.889 18.6307 13.7856 18.6221C13.7715 18.6245 13.7573 18.6268 13.7432 18.6291C13.6744 18.6402 13.6068 18.6508 13.5585 18.6753C13.5065 18.702 13.3885 18.6997 13.2598 18.6939C13.1758 18.6903 13.0863 18.6847 13.0103 18.6863C12.9652 18.6871 12.9309 18.6566 12.8949 18.6246C12.8614 18.5947 12.8277 18.5639 12.7822 18.5554C12.7595 18.5512 12.7333 18.5521 12.7045 18.5525C12.6792 18.5529 12.6525 18.5531 12.6252 18.5494C12.5994 18.5457 12.5505 18.5171 12.4857 18.4765C12.4465 18.4518 12.4004 18.422 12.3518 18.3911C12.2087 18.3406 12.0573 18.2738 11.903 18.1724C11.8615 18.1638 11.8195 18.1602 11.7784 18.1651C11.749 18.1686 11.7185 18.1764 11.6866 18.1835C11.6433 18.193 11.5975 18.2016 11.5483 18.1949C11.5098 18.1895 11.4763 18.168 11.4661 18.1425C11.4613 18.1307 11.4615 18.1182 11.4617 18.1069C11.4619 18.0939 11.4623 18.0825 11.4553 18.0748C11.4503 18.0692 11.4405 18.0673 11.4285 18.0647C11.4093 18.0606 11.3842 18.0546 11.3643 18.0301C11.2904 17.9391 11.2194 17.819 11.1661 17.6959C11.1081 17.5635 11.0713 17.4325 11.0426 17.3279C11.0418 17.3252 11.041 17.3225 11.0402 17.3198C11.016 17.241 11.0179 17.1339 11.0238 17.0312C11.0276 16.9586 11.0333 16.889 11.0319 16.8316C11.0304 16.7737 11.0105 16.7183 10.9917 16.6629C10.9692 16.5971 10.9484 16.5333 10.9636 16.4756C10.9667 16.464 10.9905 16.4482 11.0203 16.4284C11.0414 16.4144 11.0655 16.3983 11.0876 16.3805C11.0823 16.3112 11.0791 16.2416 11.0777 16.172C11.0742 16.1697 11.0706 16.1673 11.067 16.1649C11.0669 16.1649 11.0668 16.1648 11.0667 16.1648C10.9847 16.1114 10.8725 16.0334 10.9364 15.9181C10.9527 15.889 10.9832 15.8707 11.0106 15.8544C11.0376 15.8384 11.0618 15.8244 11.067 15.8036C11.073 15.78 11.0569 15.7517 11.0396 15.7204C11.0153 15.6767 10.9888 15.6261 11.0175 15.5778C11.0195 15.5746 11.0216 15.571 11.0238 15.5674C11.0443 15.5327 11.0751 15.4804 11.1349 15.4325C11.1622 15.2774 11.1995 15.1199 11.2529 14.9573C11.3468 14.6893 11.459 14.3917 11.7652 14.1005C11.823 14.048 11.8946 14.0048 11.9706 13.9789C12.0554 13.9639 12.1499 13.9712 12.2425 14.0049C12.3846 14.0591 12.5522 14.1794 12.5382 14.3486C12.5607 14.5124 12.6577 14.6423 12.6753 14.7695C12.6913 14.8464 12.6934 14.9134 12.6805 14.9685C12.7011 14.9823 12.7179 14.9875 12.725 14.9899C12.7533 14.9968 12.7371 15.0748 12.7373 15.1806C12.7391 15.1867 12.7409 15.1928 12.7424 15.1989C12.7539 15.2444 12.7899 15.2942 12.8276 15.3432C12.8362 15.3546 12.845 15.3658 12.8535 15.377Z" fill="#042A21"/>
</svg>
