<svg width="37" height="40" viewBox="0 0 37 40" fill="none" xmlns="http://www.w3.org/2000/svg">
<rect x="6.53711" y="0.5" width="29" height="39" rx="1.5" fill="#E3A369" stroke="#E3A369"/>
<path d="M14.1653 19.9156L17.4836 16.468H20.5479L23.2293 18.0001L25.9106 21.0646V27.4488V31.2793L21.5694 33.1946L15.5064 31.2793L13.0156 26.8104L14.1653 19.9156Z" fill="white" stroke="white"/>
<path d="M34.9568 18.3063L34.2706 20.2717L33.0591 20.8279L31.7209 20.7089L30.1045 19.984L28.9457 17.4599L28.9457 15.8722L29.6191 14.4002L32.3638 14.0569L34.1598 15.3717L34.9568 18.3063Z" fill="white" stroke="white"/>
<path d="M0.00430685 16.4109C-0.0273777 16.2066 0.115483 15.8389 0.235556 15.6187C0.237633 15.6147 0.239718 15.6107 0.241812 15.6067C0.269238 15.5553 0.294618 15.5039 0.328143 15.4417C0.339735 15.4203 0.352244 15.3978 0.366246 15.3739C0.459874 15.2166 0.624129 14.9668 0.993922 14.7329C1.10818 14.6427 1.22479 14.5683 1.33945 14.5058C2.2313 14.0582 2.95584 14.039 3.67982 13.97C4.06287 13.9359 4.43024 13.9807 4.76144 14.0638C4.77642 14.0662 4.79164 14.0686 4.80702 14.0712C5.10488 14.119 5.45034 14.2221 5.64209 14.3285C5.88709 14.463 6.03577 14.5724 6.15601 14.6636C6.88567 15.098 7.50906 15.6073 8.12299 16.1118C8.31478 16.2703 8.50495 16.429 8.69502 16.5868C8.87007 16.7322 9.04434 16.8773 9.21841 17.0222C9.32899 17.0958 9.43648 17.1634 9.53562 17.2262C9.53759 17.2275 9.53954 17.2287 9.5415 17.2299C9.6812 17.3192 9.8023 17.3969 9.89363 17.4688C10.1225 17.6493 10.3437 17.89 10.5081 18.0716C10.5345 18.1008 10.5593 18.1283 10.5822 18.1535C10.7355 18.2818 10.8759 18.3986 11.0291 18.529C11.034 18.5426 11.0389 18.5565 11.0437 18.5707C11.102 18.7455 11.251 18.8871 11.4782 19.1102C11.5789 19.2092 11.6914 19.3209 11.8212 19.4625C11.9023 19.5511 11.9232 19.622 11.9391 19.6785C11.9438 19.6951 11.9482 19.7107 11.9536 19.7253C11.9725 19.7755 12.0244 19.7967 12.085 19.8214C12.1667 19.8567 12.2642 19.8988 12.3201 20.0149C12.5057 20.3939 12.6811 20.4718 12.8184 20.5342C12.8582 20.5521 12.893 20.5672 12.9243 20.5895C13.0269 20.663 13.1142 20.8119 13.1644 20.9364C13.2051 21.0357 13.3592 21.1759 13.4853 21.2724C13.5353 21.3118 13.5815 21.3707 13.6405 21.4478C13.6993 21.5248 13.767 21.6149 13.8516 21.7019C14.0652 21.9223 14.1712 22.0396 14.2565 22.1305C14.28 22.1554 14.303 22.1803 14.325 22.2032C14.3949 22.2762 14.4747 22.3658 14.5479 22.4362C14.5902 22.4769 14.6309 22.5116 14.6663 22.5361L14.6517 22.5219C14.7149 22.5707 14.7734 22.6145 14.8247 22.6494C14.9371 22.7708 15.0438 22.8872 15.1447 22.9898C15.2297 23.0772 15.3021 23.1443 15.4069 23.2271C15.5187 23.3158 15.6099 23.4569 15.6436 23.6188C15.6779 23.7811 15.6529 23.9504 15.5699 24.0927C15.4861 24.2344 15.3505 24.3393 15.1873 24.384C15.0244 24.4284 14.8478 24.409 14.6906 24.3221C14.5496 24.2447 14.3891 24.143 14.2527 24.0405C14.0891 23.9194 13.942 23.7984 13.8017 23.6812C13.7551 23.6423 13.7094 23.6038 13.6646 23.5662C13.6622 23.5635 13.6538 23.5563 13.6515 23.5535C13.31 23.2283 13.131 22.9456 12.9338 22.6773C12.7777 22.4575 12.6206 22.2388 12.4621 22.0255C12.4461 22.0039 12.4298 21.982 12.4133 21.9598C12.2428 21.8098 12.0681 21.6577 11.9577 21.5487C11.8622 21.4535 11.8196 21.372 11.7774 21.296C11.7479 21.2432 11.7259 21.2015 11.6904 21.1645C11.6716 21.1449 11.6448 21.1188 11.6118 21.0867C11.4827 20.9616 11.2517 20.7426 11.0848 20.5125C11.0062 20.4055 10.9336 20.2814 10.8544 20.1543C10.7489 19.9804 10.6394 19.8105 10.565 19.7564C10.4289 19.656 10.3046 19.5077 10.1933 19.3769C10.0829 19.248 9.99578 19.1457 9.91599 19.1085C9.82192 19.0653 9.77038 18.9989 9.69516 18.9023C9.64303 18.8354 9.57444 18.7494 9.47478 18.6493C9.36095 18.5349 9.28888 18.4389 9.22678 18.3567C9.14221 18.2437 9.07991 18.1603 8.93599 18.0834C8.90269 18.0657 8.8694 18.0471 8.8366 18.0278C8.71509 17.9571 8.60261 17.8782 8.5246 17.7967C8.47965 17.7497 8.4227 17.7025 8.36327 17.6538C8.28458 17.5891 8.20168 17.5217 8.13666 17.4475C8.08302 17.3862 8.05242 17.3193 8.02501 17.26C8.01644 17.2415 8.00817 17.2238 7.99967 17.2072C7.94978 17.1668 7.89996 17.1269 7.8494 17.0873C7.83809 17.0848 7.82603 17.0824 7.81348 17.0798C7.75045 17.0669 7.67358 17.0517 7.59445 17.0122C7.46969 16.9501 7.38613 16.8629 7.29729 16.7718C7.2278 16.7007 7.1554 16.6274 7.05761 16.5631C6.99145 16.5197 6.90956 16.4771 6.82941 16.4369C6.70941 16.3763 6.59143 16.3196 6.52259 16.26C6.49683 16.2376 6.48395 16.2053 6.4703 16.1727C6.47026 16.1725 6.47022 16.1723 6.47018 16.1721C6.46926 16.1699 6.46833 16.1678 6.46741 16.1656C6.27454 16.0592 6.07821 15.9604 5.88125 15.8726C5.86245 15.8682 5.84358 15.8637 5.82495 15.8594C5.73308 15.8376 5.6452 15.8194 5.57948 15.8246C5.50833 15.83 5.36295 15.7831 5.21117 15.7445C5.11238 15.7192 5.01048 15.6972 4.92634 15.6901C4.87686 15.6858 4.84198 15.6529 4.80301 15.619C4.76708 15.5875 4.73071 15.5561 4.6824 15.5491C4.65841 15.5456 4.63137 15.5479 4.60311 15.5508C4.5784 15.5535 4.55191 15.5566 4.52555 15.5567C4.5009 15.5568 4.45166 15.5357 4.38695 15.5122C4.34746 15.4978 4.30203 15.4826 4.25452 15.4708C4.12614 15.474 4.00571 15.4894 3.89472 15.5162C3.89427 15.5166 3.89383 15.5171 3.8934 15.5175C3.86217 15.54 3.83657 15.567 3.81803 15.5995C3.80442 15.6234 3.79412 15.651 3.78345 15.6793C3.76857 15.7179 3.75338 15.7577 3.72984 15.7913C3.71133 15.8175 3.68784 15.8303 3.66883 15.8235C3.66007 15.8202 3.65261 15.8128 3.64584 15.8061C3.63809 15.7984 3.63117 15.7916 3.62424 15.7929C3.61924 15.7938 3.61496 15.8008 3.60972 15.8092C3.60135 15.8226 3.59051 15.84 3.5707 15.8437C3.49555 15.8576 3.41051 15.8667 3.32874 15.8762C3.23673 15.887 3.15009 15.8983 3.08242 15.9169C3.00777 15.9375 2.89665 15.9382 2.78944 15.9418C2.71454 15.9443 2.64176 15.9482 2.58332 15.9594C2.52638 15.9702 2.47459 16.0012 2.42971 16.0313C2.37507 16.0677 2.33099 16.1025 2.28304 16.1032C2.27353 16.1032 2.25251 16.0856 2.22612 16.0639C2.20739 16.0486 2.1858 16.0313 2.16317 16.017C2.11408 16.0437 2.07213 16.0698 2.03747 16.0943C2.03836 16.0979 2.03928 16.1016 2.04027 16.1053C2.04031 16.1054 2.04034 16.1055 2.04037 16.1055C2.06022 16.1918 2.11969 16.2846 2.05174 16.2666C2.0336 16.2632 2.00537 16.2504 1.97916 16.2402C1.95346 16.2302 1.9297 16.2225 1.92065 16.2279C1.91758 16.2297 1.91615 16.2327 1.91595 16.2367C1.91368 16.249 1.91745 16.2672 1.92155 16.2872C1.92994 16.3268 1.93998 16.3728 1.89966 16.4021C1.89691 16.4041 1.8939 16.4063 1.89084 16.4086C1.86167 16.4308 1.81856 16.4665 1.74897 16.4984C1.68442 16.6423 1.62398 16.8048 1.5683 16.9733C1.47561 17.2547 1.39469 17.5546 1.32864 17.8559C1.29626 18.0032 1.21109 18.1385 1.08546 18.238C0.959584 18.3369 0.803991 18.3978 0.642328 18.3977C0.480887 18.3998 0.323936 18.3286 0.207692 18.2009C0.0914798 18.0735 0.0271376 17.9015 0.0263949 17.7281C0.0253717 17.4471 0.0350771 17.1659 0.0613737 16.8796C0.0608245 16.8642 0.0604439 16.8488 0.060289 16.8334C0.0591565 16.7193 0.0365292 16.6068 0.0169653 16.4912C0.0124906 16.4645 0.0081628 16.4378 0.00430685 16.4109Z" fill="#042A21"/>
<path d="M16.5188 27.1233C16.5921 27.3366 16.6102 27.7105 16.6272 27.9842C16.6262 28.0069 16.6259 28.0249 16.6264 28.04C16.6265 28.0414 16.6266 28.0429 16.6267 28.0443C16.6276 28.0626 16.6321 28.0782 16.64 28.0978C16.6687 28.1449 16.6585 28.2106 16.9335 28.4745C17.0249 28.537 17.1293 28.5999 17.2418 28.6622C17.8278 28.9829 18.5694 29.2695 19.2986 29.5849C19.9159 29.859 20.6515 29.9336 21.4187 29.8447C21.4367 29.8413 21.4558 29.8376 21.4745 29.8339C21.713 29.7871 21.9892 29.7145 22.2388 29.6475C22.3358 29.6224 22.4241 29.5934 22.5003 29.5692C22.7817 29.4778 22.9817 29.3588 23.1469 29.2546C23.3896 29.0658 23.6254 28.8286 23.8659 28.569C24.325 28.1146 24.4676 27.1035 24.6146 26.1852C24.6467 25.9718 24.6771 25.7567 24.7066 25.5407C24.7326 25.3506 24.7536 25.1637 24.7696 24.9777C24.8011 24.6128 24.8143 24.2477 24.8039 23.8884C24.7838 23.6783 24.7533 23.4842 24.7188 23.3038C24.6705 23.0522 24.6145 22.8353 24.5729 22.6576C24.4759 22.2287 24.3492 21.7592 24.2106 21.4127C24.1887 21.3564 24.1664 21.3021 24.1456 21.2533C24.036 21.0482 23.9126 20.8478 23.7788 20.6239C23.7485 20.5742 23.7166 20.5263 23.6826 20.479C23.6786 20.4612 23.6745 20.4431 23.6702 20.4246C23.6135 20.1943 23.4293 19.9622 23.0515 19.6846C22.8859 19.5642 22.6811 19.436 22.424 19.3009C22.2581 19.2144 22.1814 19.1458 22.1182 19.0887C22.0994 19.072 22.0818 19.0564 22.0632 19.0422C21.9994 18.9935 21.9141 18.9849 21.8141 18.9773C21.6838 18.9675 21.5302 18.9595 21.3496 18.8668C21.0725 18.7257 20.8507 18.664 20.677 18.6377C20.5221 18.6174 20.4091 18.6513 20.3168 18.6826C20.2645 18.7007 20.2178 18.7188 20.1694 18.7312C20.0141 18.7694 19.7762 18.7813 19.5773 18.7916C19.4796 18.7955 19.3275 18.8437 19.1692 18.9109C19.1176 18.9372 19.0603 18.9792 19.0096 19.0258C18.9598 19.0719 18.8787 19.1254 18.7815 19.2052C18.6812 19.2871 18.5646 19.3969 18.4569 19.5373C18.1867 19.8956 18.0601 20.117 17.9561 20.2874C17.9269 20.3364 17.8994 20.3831 17.873 20.4293C17.7887 20.5762 17.6825 20.7587 17.5791 20.9473C17.4552 21.1728 17.3354 21.4071 17.2541 21.591C17.0547 21.9142 16.8612 22.2453 16.6758 22.5804L16.7254 22.4493C16.6874 22.5634 16.6553 22.6788 16.6291 22.7967C16.6065 22.8981 16.5765 22.9979 16.5391 23.0955C16.4932 23.2132 16.4351 23.3433 16.3592 23.4562C16.2212 23.6634 16.0433 23.7567 15.8811 23.7315C15.718 23.7062 15.5788 23.578 15.4708 23.3891C15.4118 23.284 15.3643 23.1553 15.3413 22.9956C15.3226 22.8668 15.3206 22.7263 15.3379 22.585C15.3579 22.4207 15.3867 22.2566 15.4239 22.0948C15.4315 22.072 15.4538 22.0054 15.4656 21.9844C15.6365 21.5944 15.8189 21.2079 16.0174 20.8268C16.3451 20.2011 16.709 19.5868 17.1772 19.0069C17.5139 18.6046 17.8664 18.199 18.4574 17.8805C18.5176 17.8496 18.5861 17.8182 18.6539 17.7916C18.7004 17.7691 18.7483 17.7482 18.7975 17.7292C19.1495 17.5777 19.5509 17.444 19.8695 17.3958C20.1558 17.3503 20.3842 17.3741 20.5756 17.4088C20.7 17.4315 20.8107 17.4591 20.9233 17.4828C20.9289 17.484 20.9345 17.4851 20.9401 17.4862C20.9899 17.4959 21.0589 17.5085 21.1425 17.5249C21.4808 17.5897 22.0655 17.728 22.5649 17.9815C22.7864 18.0925 23.0333 18.2481 23.2581 18.4156C23.5814 18.6532 23.8506 18.9191 24.0024 19.0359C24.2728 19.2379 24.5269 19.552 24.6992 19.8588C24.7381 19.9271 24.773 19.9937 24.8053 20.0592C24.8897 20.2337 24.9735 20.3916 25.0445 20.481C25.156 20.6213 25.2153 20.7655 25.292 20.9841C25.3446 21.1362 25.406 21.3244 25.4847 21.5794C25.5749 21.8749 25.6036 22.0927 25.6238 22.275C25.6507 22.5328 25.6618 22.7236 25.7329 23.0023C25.8113 23.3121 25.8544 23.6433 25.8439 23.9023C25.8394 24.0218 25.8404 24.1533 25.8386 24.2954C25.8364 24.4781 25.8289 24.6728 25.8014 24.8484C25.7789 24.9905 25.7363 25.1099 25.6981 25.2101C25.6862 25.2419 25.6746 25.2726 25.6641 25.3025C25.6524 25.4181 25.6404 25.5277 25.6266 25.6439C25.6273 25.6487 25.628 25.6535 25.6287 25.6584C25.631 25.6729 25.6334 25.688 25.6359 25.7034C25.6525 25.8059 25.6731 25.9308 25.6714 26.0841C25.6688 26.3258 25.6233 26.5334 25.5727 26.7527C25.5331 26.9244 25.4911 27.1018 25.4601 27.3132C25.4391 27.4565 25.4211 27.623 25.3965 27.7914C25.3613 28.0396 25.3053 28.2982 25.2267 28.4697C25.1975 28.5345 25.1555 28.5837 25.1128 28.6308C25.1126 28.631 25.1124 28.6312 25.1122 28.6313C25.1093 28.6345 25.1064 28.6377 25.1035 28.6409C25.0116 28.8673 24.8844 29.0954 24.7236 29.2974C24.6072 29.4467 24.4863 29.5984 24.3563 29.749C24.3351 29.7791 24.3132 29.8094 24.2911 29.8395C24.1835 29.9863 24.0676 30.1273 23.9984 30.232C23.9245 30.3448 23.6804 30.5815 23.3594 30.7855C23.151 30.9198 22.9121 31.0351 22.7097 31.1163C22.6938 31.1228 22.6777 31.1286 22.6614 31.1337C22.5774 31.1609 22.4891 31.1664 22.3978 31.171C22.3003 31.1757 22.1996 31.1794 22.0944 31.2081C22.0424 31.2224 21.9862 31.2432 21.926 31.2648C21.8731 31.2837 21.8162 31.3033 21.7564 31.3193C21.7001 31.3343 21.5716 31.3455 21.405 31.3527C21.3016 31.3572 21.1851 31.36 21.0615 31.3614C20.7384 31.3997 20.4069 31.4135 20.0714 31.3945C19.9997 31.4061 19.9368 31.4227 19.8841 31.4465C19.8464 31.4636 19.8134 31.4853 19.7786 31.5071C19.7313 31.5367 19.6816 31.5668 19.6154 31.5855C19.5636 31.6002 19.5049 31.5985 19.469 31.5814C19.4522 31.5734 19.4403 31.5623 19.4296 31.5522C19.4173 31.5407 19.4064 31.5304 19.391 31.5273C19.3801 31.525 19.3673 31.5286 19.3516 31.5327C19.3265 31.5393 19.2935 31.5477 19.2485 31.5372C19.0816 31.4984 18.8949 31.4374 18.7162 31.3661C18.6815 31.3523 18.647 31.3381 18.6128 31.3236C18.4854 31.2689 18.3632 31.2178 18.2596 31.1812C18.1184 31.1313 17.927 31.0313 17.7329 30.9284C17.5984 30.857 17.4602 30.783 17.3405 30.7252C17.2211 30.6678 17.0908 30.6251 16.9607 30.5796C16.8058 30.5256 16.6534 30.4682 16.5375 30.3858C16.5139 30.369 16.4948 30.3309 16.4699 30.2822C16.4522 30.2476 16.4323 30.208 16.4077 30.1677C16.2499 30.0802 16.0908 29.9826 15.9318 29.867C15.9242 29.8658 15.9164 29.8644 15.9085 29.8631C15.9084 29.8631 15.9082 29.8631 15.9081 29.8631C15.7332 29.8322 15.463 29.7744 15.258 29.4378C15.2076 29.3523 15.1947 29.2831 15.1846 29.2217C15.1747 29.1607 15.1682 29.1078 15.1351 29.0431C15.098 28.9699 15.0372 28.8915 14.9773 28.7973C14.893 28.6662 14.8122 28.4999 14.8088 28.3237C14.8085 28.3118 14.8084 28.2991 14.8083 28.2858C14.8082 28.2566 14.8086 28.2242 14.8102 28.1894C14.82 28.113 14.8364 28.0167 14.8705 27.922C14.8527 27.5682 14.8499 27.221 14.8546 26.8758C14.863 26.3007 14.8928 25.732 14.9315 25.1654C14.9505 24.8916 15.0302 24.6257 15.155 24.4358C15.2801 24.2456 15.4382 24.1408 15.5994 24.1427C15.7614 24.1411 15.9154 24.2605 16.0334 24.4515C16.1513 24.6437 16.2234 24.905 16.2399 25.1717C16.2665 25.61 16.2989 26.0452 16.3378 26.4773C16.3418 26.4999 16.3457 26.5227 16.3494 26.5451C16.3773 26.7129 16.429 26.8666 16.4821 27.0186C16.4943 27.0536 16.5067 27.0885 16.5188 27.1233Z" fill="#042A21"/>
<path d="M24.4575 17.9158C24.6832 17.6386 25.1703 17.4625 25.4088 17.4029C25.4133 17.4017 25.4178 17.4004 25.4223 17.3991C25.4808 17.3833 25.534 17.367 25.5959 17.3489C25.743 17.3068 25.9442 17.2492 26.3493 17.2123C26.4642 17.1859 26.5774 17.1626 26.6911 17.1417C26.7185 17.1367 26.746 17.1318 26.7737 17.127C27.2754 17.0469 27.6628 17.0922 28.065 17.1664C28.2133 17.199 28.4225 17.2337 28.6929 17.4228C28.9716 17.6185 29.1166 17.9284 29.1655 18.0895C29.3929 18.7851 29.409 19.538 29.487 19.976C29.4903 19.9861 29.4936 19.9961 29.497 20.006C29.5217 20.0784 29.5505 20.145 29.5805 20.2021C29.599 20.2337 29.6204 20.262 29.6601 20.311C29.7398 20.4094 29.8802 20.4931 29.992 20.5531C30.2338 20.6418 30.5299 20.7028 30.8529 20.7691C31.0752 20.8244 31.3353 20.8058 31.56 20.7189C31.6691 20.6816 31.7795 20.5901 31.8985 20.4261C32.0342 20.2392 32.1585 19.9971 32.2718 19.7474C32.3759 19.5171 32.4735 19.2743 32.5661 19.031C32.5997 18.9106 32.628 18.7959 32.6552 18.684C32.6606 18.6603 32.6656 18.6371 32.6703 18.6144C32.7054 18.4459 32.7265 18.2956 32.7506 18.1746C32.8104 17.8832 32.8874 17.5548 32.9244 17.2998C32.9307 17.2582 32.9361 17.2187 32.9406 17.1824C32.9393 16.982 32.9247 16.7875 32.9061 16.5653C32.9057 16.5635 32.9053 16.5618 32.9049 16.56C32.9111 16.5557 32.9174 16.551 32.9238 16.5457C33.0017 16.4793 32.9737 16.3434 32.7773 16.1351C32.6915 16.0441 32.5736 15.9393 32.4185 15.8171C32.3183 15.7385 32.2804 15.6731 32.2491 15.619C32.2399 15.6031 32.2311 15.5882 32.2213 15.5745C32.1874 15.5273 32.1264 15.5157 32.0544 15.5033C31.9606 15.4869 31.8489 15.4694 31.7432 15.3654C31.585 15.2105 31.446 15.1208 31.3258 15.0617C31.2433 15.027 31.1703 15.0451 31.1137 15.0642C31.0821 15.0748 31.0544 15.0859 31.0272 15.0907C30.9412 15.1055 30.8146 15.0738 30.6983 15.0482C30.6075 15.025 30.4286 15.0967 30.3175 15.1842C30.2956 15.2009 30.268 15.2162 30.2373 15.2319C30.222 15.2407 30.2048 15.2497 30.1854 15.2621C30.1442 15.2882 30.0909 15.3322 30.0447 15.4117C29.928 15.6184 29.8691 15.7875 29.8211 15.9097C29.8074 15.9458 29.7946 15.98 29.7821 16.0147C29.7422 16.1244 29.6876 16.2644 29.6294 16.4124C29.6248 16.4242 29.6201 16.4361 29.6154 16.448L29.6539 16.3515C29.619 16.5046 29.5887 16.6661 29.5741 16.7934C29.4651 17.1302 29.3637 17.4796 29.2724 17.8314C29.2659 17.8564 29.2584 17.8808 29.2498 17.9051L29.2541 17.8791C29.2087 18.0144 29.1305 18.1292 29.0223 18.2312C28.897 18.3492 28.7389 18.4313 28.5739 18.4292C28.4096 18.4272 28.2495 18.3546 28.1319 18.2023C28.0306 18.0711 27.9748 17.8829 27.9763 17.696C27.9773 17.6917 27.9787 17.6786 27.9798 17.6744C27.9807 17.6468 27.9827 17.6195 27.986 17.592C28.0344 17.1906 28.094 16.7903 28.1792 16.3859C28.2121 16.2309 28.2488 16.0752 28.2932 15.9162C28.3006 15.898 28.3193 15.8428 28.3293 15.8259C28.4596 15.5294 28.5921 15.2133 28.8106 14.8729C28.9947 14.5925 29.2667 14.2502 29.7168 14.0548C29.7852 14.0257 29.8542 13.9995 29.9238 13.976C29.9663 13.9617 30.0089 13.9484 30.0517 13.9361C30.3858 13.7889 30.7712 13.7139 31.0684 13.7284C31.3128 13.7386 31.4964 13.811 31.6428 13.8858C31.7433 13.9374 31.8288 13.991 31.918 14.0408C31.9185 14.0411 31.9189 14.0413 31.9193 14.0415C31.945 14.0553 31.9832 14.0743 32.0314 14.0979C32.2247 14.1934 32.5918 14.3676 32.8973 14.6163C33.0325 14.7262 33.1814 14.8737 33.3175 15.0295C33.514 15.2504 33.6754 15.4971 33.7771 15.6187C33.9579 15.8211 34.1083 16.1813 34.0952 16.5302C34.0951 16.5307 34.0951 16.5312 34.0951 16.5317C34.0848 16.7266 34.0724 16.9157 34.098 17.0214C34.1289 17.1481 34.1121 17.2587 34.0808 17.4191C34.0587 17.5305 34.0296 17.6675 33.9956 17.8521C33.9557 18.0663 33.9003 18.212 33.8513 18.3337C33.7811 18.5054 33.7248 18.6287 33.6952 18.8348C33.6836 18.9141 33.668 18.9939 33.6482 19.0718C33.615 19.2082 33.5748 19.3327 33.5236 19.4368C33.4887 19.5074 33.4559 19.5922 33.4206 19.6817C33.3745 19.7989 33.3248 19.922 33.2614 20.0289C33.2095 20.1161 33.1452 20.1806 33.0886 20.2353C33.0707 20.2527 33.0534 20.2699 33.0375 20.2861C33.0034 20.3591 32.9672 20.4343 32.9306 20.5075C32.9289 20.5221 32.9273 20.5374 32.9256 20.5533C32.9175 20.6323 32.9048 20.7325 32.8582 20.8451C32.7836 21.0232 32.6652 21.1638 32.5109 21.301C32.3904 21.4069 32.2448 21.5132 32.0638 21.615C32.0402 21.6282 32.0159 21.6415 31.9908 21.6544C31.8965 21.7042 31.7943 21.7538 31.6886 21.7958C31.4955 21.8737 31.2888 21.9208 31.1425 21.9154C31.0879 21.9136 31.0408 21.8942 30.9954 21.8736C30.9952 21.8735 30.995 21.8734 30.9948 21.8733C30.9918 21.8719 30.9887 21.8705 30.9857 21.8691C30.8879 21.8717 30.7896 21.8681 30.6913 21.8581C30.4997 21.8414 30.2968 21.8266 30.0849 21.8009C30.0587 21.8014 30.0321 21.8015 30.0055 21.8014C29.8755 21.8012 29.744 21.7943 29.6501 21.8035C29.5494 21.8127 29.3055 21.7714 29.0232 21.6467C28.8393 21.5662 28.6414 21.44 28.4878 21.304C28.3977 21.2252 28.3418 21.118 28.2993 21.0079C28.2806 20.96 28.2649 20.9126 28.2482 20.8636C28.2335 20.8159 28.2171 20.7688 28.1944 20.7223C28.1735 20.6794 28.1469 20.6351 28.1201 20.5876C28.0966 20.5458 28.0729 20.5015 28.0531 20.4546C28.0347 20.4109 28.0165 20.3073 28.0035 20.1843C27.9952 20.1081 27.9886 20.0248 27.9816 19.9412C27.9291 19.7265 27.8875 19.532 27.8414 19.3505C27.8163 19.3154 27.7868 19.2874 27.752 19.2678C27.7271 19.2536 27.6986 19.2438 27.6693 19.2336C27.6296 19.2197 27.5885 19.2059 27.553 19.1832C27.5252 19.1652 27.5102 19.1413 27.5153 19.1213C27.5177 19.112 27.5244 19.1037 27.5305 19.0961C27.5374 19.0875 27.5436 19.0798 27.5416 19.0728C27.5401 19.0677 27.5328 19.0638 27.5238 19.0591C27.5096 19.0516 27.491 19.0416 27.4852 19.0217C27.4634 18.9464 27.4437 18.8611 27.4216 18.7787C27.4154 18.7554 27.409 18.7323 27.4022 18.7094C27.403 18.7053 27.4483 18.8138 27.5437 18.904C27.6736 19.0294 27.801 19.0249 27.7467 18.9963C27.7309 18.99 27.7143 18.9836 27.6976 18.9773C27.6236 18.9496 27.5458 18.9251 27.4802 18.9137C27.4158 18.9025 27.3492 18.913 27.291 18.9261C27.2207 18.9418 27.1644 18.9612 27.1212 18.947C27.1136 18.9446 27.1026 18.9271 27.0884 18.9042C27.0843 18.9007 27.08 18.8971 27.0757 18.8933C27.054 18.8746 27.029 18.8533 27.0016 18.8346C26.9003 18.8532 26.8006 18.8718 26.701 18.8912C26.6983 18.8953 26.6954 18.8994 26.6926 18.9036C26.6926 18.9037 26.6925 18.9038 26.6925 18.9039C26.6276 18.9995 26.5454 19.1291 26.3839 19.1045C26.343 19.0983 26.3113 19.0755 26.2832 19.0548C26.2558 19.0345 26.2301 19.0167 26.202 19.0197C26.1705 19.023 26.1388 19.0498 26.1071 19.0788C26.0611 19.12 26.0143 19.1657 25.95 19.1614C25.9457 19.1611 25.941 19.1607 25.9361 19.1605C25.8898 19.1577 25.8225 19.1545 25.7456 19.1277C25.5783 19.1835 25.4353 19.2604 25.3886 19.2896C25.3712 19.2992 25.367 19.2972 25.3642 19.2843C25.2476 19.5181 25.1479 19.7754 25.0678 20.0406C25.0178 20.2045 24.9205 20.3554 24.7884 20.4642C24.6558 20.5732 24.5002 20.6353 24.3386 20.6377C24.177 20.6408 24.0201 20.5444 23.9137 20.3815C23.8069 20.2198 23.76 20.004 23.7831 19.7921C23.8207 19.4503 23.8828 19.1084 23.9859 18.7617C23.9886 18.7536 23.9914 18.7455 23.9943 18.7375C24.005 18.7017 24.0175 18.6658 24.0308 18.632C24.1328 18.3777 24.2535 18.1867 24.3729 18.0235C24.4014 17.9856 24.4284 17.9506 24.4575 17.9158Z" fill="#042A21"/>
<path d="M28.2107 14.0691C28.0851 14.0117 27.9768 13.8188 27.9097 13.6928C27.9064 13.6853 27.903 13.678 27.8998 13.6711C27.899 13.6695 27.8983 13.668 27.8975 13.6665C27.8879 13.6461 27.8756 13.6279 27.8606 13.6065C27.8232 13.5544 27.7747 13.4843 27.6669 13.2964C27.6231 13.2523 27.5784 13.2076 27.5339 13.1628C27.042 12.6719 26.4869 12.1345 25.9432 11.5894C25.9354 11.5836 25.9275 11.5777 25.9195 11.5717C25.765 11.4559 25.5718 11.3121 25.4725 11.1952C25.3455 11.0461 25.2649 10.938 25.1995 10.8479C24.9847 10.6348 24.7685 10.4222 24.55 10.2122C24.3323 10.0013 24.1049 9.80172 23.8669 9.62294C23.7216 9.51384 23.5717 9.41213 23.4173 9.32079C23.2753 9.23677 23.131 9.16134 22.9844 9.09577C22.8918 9.06978 22.8037 9.0525 22.7229 9.03912C22.6081 9.01973 22.5091 9.00863 22.4298 8.99039C22.2416 8.94644 22.04 8.8705 21.8808 8.82498C21.855 8.81745 21.8306 8.81062 21.8075 8.80465C21.6765 8.79776 21.5438 8.79855 21.4067 8.80448C21.3979 8.79767 21.389 8.79061 21.3797 8.78339C21.2753 8.70161 21.142 8.69339 20.9317 8.6951C20.9171 8.69523 20.9026 8.69572 20.8874 8.6966C20.8164 8.70089 20.7396 8.71216 20.6449 8.73607C20.5839 8.75186 20.5389 8.73508 20.5 8.72199C20.4886 8.7182 20.4777 8.71485 20.4673 8.71298C20.4313 8.70672 20.4124 8.742 20.3925 8.78395C20.3661 8.83881 20.3392 8.90379 20.2492 8.91903C19.9551 8.97654 19.8962 9.13945 19.8593 9.24879C19.8481 9.28172 19.8376 9.31192 19.8221 9.33673C19.8142 9.34946 19.8045 9.36175 19.7934 9.37362C19.7628 9.41241 19.7073 9.43244 19.6508 9.45082C19.5968 9.46704 19.5714 9.56995 19.58 9.65827C19.5826 9.6917 19.5687 9.72948 19.5537 9.77977C19.5384 9.83127 19.5223 9.89577 19.5247 9.9722C19.5319 10.1662 19.5445 10.2801 19.5526 10.3697C19.5552 10.3951 19.5575 10.4196 19.5602 10.4438C19.5688 10.5201 19.5748 10.6159 19.5825 10.7152C19.5916 10.8338 19.6028 10.9561 19.6202 11.0501C19.6106 11.1418 19.601 11.2327 19.5912 11.3264L19.5879 11.2472C19.5859 11.369 19.5798 11.4047 19.5839 11.4462C19.5857 11.4533 19.5878 11.4628 19.5906 11.4751C19.6081 11.5582 19.6044 11.6845 19.5557 11.8099C19.5002 11.9536 19.3901 12.0801 19.2483 12.1637C19.1063 12.2472 18.944 12.2845 18.7935 12.2711C18.662 12.2589 18.5464 12.2074 18.4582 12.0992C18.4458 12.084 18.4331 12.066 18.4207 12.0456C18.2848 11.8254 18.2245 11.5639 18.1933 11.3788C18.1936 11.3653 18.1887 11.3251 18.1905 11.3118C18.182 11.2054 18.1744 11.1008 18.1685 10.9929C18.1511 10.6644 18.1448 10.3268 18.1947 9.95891C18.2311 9.70279 18.2897 9.42463 18.4235 9.13279C18.4375 9.10255 18.452 9.07309 18.4676 9.04293C18.5484 8.77651 18.7233 8.50551 18.8756 8.35869C18.8881 8.34623 18.9006 8.33448 18.9131 8.3234C18.9827 8.25956 19.0519 8.22709 19.1129 8.19882C19.1594 8.17727 19.2014 8.15794 19.2362 8.128C19.2548 8.11204 19.2801 8.08895 19.3113 8.06113C19.4366 7.9499 19.6765 7.74248 19.9978 7.63884C20.1376 7.5935 20.3175 7.5659 20.488 7.56354C20.6588 7.5601 20.8156 7.5809 20.9275 7.59206C20.9631 7.5968 20.9938 7.59786 21.0177 7.59376C21.1566 7.56973 21.3226 7.59121 21.4719 7.61572C21.6143 7.63877 21.7401 7.66463 21.8154 7.64501C21.9064 7.62167 21.9806 7.64422 22.0879 7.68142C22.1628 7.70754 22.2531 7.74052 22.3779 7.77607C22.5219 7.81743 22.6161 7.86906 22.6946 7.91365C22.805 7.97708 22.8838 8.02626 23.0261 8.04078C23.1853 8.05762 23.3411 8.09817 23.4494 8.16573C23.4967 8.19545 23.5574 8.22423 23.6169 8.25361C23.6965 8.29291 23.7796 8.33619 23.8459 8.39173C23.9017 8.43812 23.9325 8.49365 23.9619 8.54444C23.9709 8.5602 23.9796 8.57537 23.9883 8.58941C24.0342 8.61701 24.0806 8.64537 24.1277 8.67439C24.1379 8.67484 24.1493 8.67534 24.1603 8.67548C24.2163 8.6765 24.286 8.67878 24.359 8.70617C24.4708 8.74707 24.5475 8.82266 24.6229 8.90038C24.6839 8.96264 24.7424 9.02494 24.8264 9.08163C24.884 9.12056 24.9507 9.15546 25.0201 9.19357C25.1126 9.24407 25.2009 9.29323 25.2578 9.34747C25.2634 9.35277 25.2685 9.3581 25.2733 9.36345C25.2922 9.38478 25.2982 9.41561 25.304 9.44618C25.3041 9.44634 25.3041 9.4465 25.3041 9.44666C25.3045 9.44874 25.3049 9.45079 25.3053 9.45286C25.4556 9.55594 25.6085 9.65864 25.7609 9.75944C25.7765 9.76546 25.7922 9.77163 25.8077 9.77775C25.8834 9.80767 25.9562 9.83609 26.016 9.84109C26.0804 9.84613 26.198 9.91404 26.3213 9.98505C26.4031 10.0324 26.4857 10.0798 26.5601 10.114C26.6032 10.1337 26.6237 10.1769 26.6447 10.2215C26.6648 10.2634 26.6852 10.3064 26.7246 10.3319C26.7444 10.3447 26.769 10.3536 26.7961 10.3639C26.8198 10.3728 26.8448 10.3822 26.8686 10.3948C26.8908 10.4066 26.9252 10.4492 26.971 10.5052C26.9992 10.5397 27.0304 10.5782 27.0653 10.6175C27.1797 10.6947 27.2926 10.7719 27.4062 10.8516C27.4399 10.856 27.4741 10.8539 27.5085 10.8433C27.5333 10.8357 27.559 10.8234 27.5857 10.8112C27.622 10.7946 27.6594 10.7773 27.6971 10.7702C27.7266 10.7646 27.7497 10.7719 27.7549 10.7889C27.7573 10.7969 27.7559 10.8068 27.7547 10.8158C27.7533 10.826 27.752 10.8352 27.7568 10.8389C27.7602 10.8416 27.7677 10.8397 27.7769 10.8377C27.7916 10.8344 27.8106 10.8301 27.8247 10.8413C27.8769 10.8828 27.9307 10.9351 27.9842 10.9875C28.0425 11.0447 28.1017 11.103 28.1527 11.1415C28.2115 11.186 28.2738 11.2716 28.3364 11.3589C28.3797 11.4194 28.4238 11.4812 28.4657 11.5287C28.5077 11.5762 28.5626 11.6101 28.618 11.6455C28.6831 11.6866 28.7475 11.7289 28.7778 11.7872C28.7838 11.7989 28.778 11.8283 28.7701 11.8647C28.7646 11.8904 28.7582 11.9199 28.7546 11.9495C28.8107 12.0059 28.8666 12.0651 28.9222 12.1272C28.9266 12.127 28.9312 12.1269 28.9358 12.1266C28.9359 12.1266 28.936 12.1266 28.9361 12.1266C29.0398 12.1211 29.1864 12.119 29.2284 12.2688C29.2382 12.3059 29.2299 12.3437 29.2215 12.3767C29.2133 12.4092 29.2057 12.438 29.2177 12.4612C29.2314 12.4874 29.2668 12.5057 29.3046 12.5256C29.3502 12.5491 29.4039 12.5809 29.4259 12.6327C29.4282 12.639 29.4299 12.6457 29.4309 12.6529C29.4314 12.6568 29.4319 12.6609 29.4325 12.6652C29.4381 12.706 29.4457 12.7652 29.4307 12.8412C29.509 12.9798 29.5844 13.1197 29.6582 13.2614C29.7814 13.4978 29.8991 13.737 30.0151 13.979C30.0709 14.0963 30.0758 14.2434 30.0228 14.3867C29.9668 14.5197 29.8749 14.6936 29.7154 14.7101C29.5884 14.8438 29.4281 14.8571 29.2806 14.8567C29.1324 14.8495 29.0042 14.791 28.9216 14.6977C28.7864 14.5442 28.6495 14.3916 28.5129 14.2375C28.5042 14.2307 28.4955 14.2237 28.487 14.2166C28.4232 14.1631 28.3447 14.1288 28.265 14.0931C28.2468 14.085 28.2288 14.0773 28.2107 14.0691Z" fill="#042A21"/>
</svg>
