<svg width="30" height="40" viewBox="0 0 30 40" fill="none" xmlns="http://www.w3.org/2000/svg">
<rect width="30" height="40" rx="2" fill="#F08060"/>
<path d="M13.444 4.61279L8.25847 6.28809L7.78027 14.9832L10.0936 16.8977L17.9112 15.8607L18.5494 9.23966L16.5551 4.61279H13.444Z" fill="white" stroke="white"/>
<path d="M18.8949 26.7996L16.2703 23.2737L9.50523 25.1639L8.64307 27.4274L11.463 33.1292L16.6854 31.8992L19.7019 29.1758L18.8949 26.7996Z" fill="white" stroke="white"/>
<path d="M10.6997 10.886C10.7776 11.1146 10.7475 11.5548 10.7315 11.7971C10.7312 11.8015 10.731 11.8059 10.7307 11.8104C10.7269 11.8676 10.7261 11.9224 10.7254 11.9857C10.7236 12.1374 10.7208 12.3422 10.6763 12.7692C10.6796 12.8929 10.6823 13.0159 10.6844 13.139C10.6845 13.1421 10.6845 13.1453 10.6846 13.1484C10.6893 13.413 10.6959 13.6764 10.7115 13.9174C10.7245 14.1572 10.7638 14.3814 10.7729 14.3903C10.63 14.1973 10.6521 14.3101 10.8098 14.3537C10.9575 14.4095 11.1669 14.461 11.3838 14.5096C11.5761 14.559 11.8698 14.5756 12.1619 14.5745C12.1776 14.573 12.1934 14.5715 12.2092 14.57C12.518 14.5407 12.9173 14.4806 13.1758 14.4731C13.5045 14.4636 13.7331 14.4616 13.9211 14.4619C14.1629 14.4388 14.4064 14.4143 14.6512 14.3899C15.1075 14.3454 15.4157 14.2311 15.6989 13.8905C15.6965 13.9509 15.7962 13.602 15.8211 13.3583C15.8588 13.0815 15.8858 12.7906 15.9094 12.4989C15.9124 12.4608 15.9153 12.4205 15.9178 12.3815C15.9361 12.0875 15.9411 11.7835 15.9402 11.4795C15.9255 11.302 15.906 11.133 15.8871 10.9762C15.8606 10.7559 15.8355 10.5596 15.8258 10.3972C15.8089 10.1161 15.8136 9.80667 15.8213 9.53305C15.8245 9.43123 15.8267 9.33568 15.8271 9.24993C15.8275 9.20079 15.8272 9.15408 15.8262 9.1109C15.7956 8.87871 15.7436 8.64854 15.6782 8.52515C15.6807 8.51443 15.6832 8.50339 15.6856 8.49238C15.6938 8.45141 15.6964 8.41895 15.6726 8.36201C15.6351 8.2533 15.5212 8.12831 15.307 7.97997C15.1753 7.88847 15.0055 7.78784 14.7919 7.67013C14.6541 7.59447 14.5937 7.52807 14.5447 7.47341C14.5302 7.45736 14.5164 7.44229 14.5019 7.42853C14.4517 7.38116 14.3792 7.37231 14.293 7.362C14.2495 7.35681 14.2025 7.35129 14.1528 7.34013C14.148 7.35505 14.0886 7.34213 14.0128 7.30584C13.567 7.11815 13.2886 7.21015 13.1206 7.2653C13.0689 7.28256 13.0209 7.29839 12.9731 7.30708C12.8168 7.33506 12.5927 7.30683 12.4213 7.26935C12.2855 7.23928 12.0143 7.27737 11.8094 7.32477C11.7321 7.34259 11.6262 7.34673 11.5021 7.35206C11.3731 7.35758 11.224 7.3644 11.065 7.38908C10.9987 7.39943 10.9359 7.4091 10.8796 7.41797C10.7062 7.45935 10.6244 7.51508 10.5528 7.56225C10.5347 7.57476 10.5176 7.5873 10.5006 7.60053C10.5031 7.60046 10.5057 7.6002 10.5085 7.59979C10.5551 7.58672 10.5501 7.57931 10.5113 7.7009C10.4691 7.83615 10.4229 8.04828 10.3968 8.20952C10.3454 8.36187 10.2928 8.52034 10.2374 8.68116L10.2513 8.62475C10.1995 8.80334 10.1683 9.04977 10.1488 9.30097C10.141 9.39957 10.1213 9.49827 10.0903 9.59208L10.0889 9.55597C10.0583 9.63299 10.0161 9.68565 9.97039 9.77142C9.88557 9.93591 9.75923 10.0775 9.59848 10.115C9.43852 10.1526 9.26402 10.118 9.10367 9.97749C9.01917 9.90281 8.94284 9.76911 8.89928 9.6348C8.89929 9.62884 8.89778 9.61102 8.89813 9.60507C8.86492 9.50407 8.84485 9.39426 8.84042 9.28049C8.83069 8.98794 8.82534 8.68876 8.8792 8.34288C8.88185 8.33337 8.88758 8.30436 8.89095 8.29508C8.9308 8.12145 8.96932 7.94731 9.01297 7.76532C9.0591 7.57773 9.10463 7.38604 9.19235 7.15606C9.27665 6.94089 9.44127 6.58962 9.82369 6.37444C10.0464 6.24658 10.3062 6.1514 10.5709 6.11019C10.6513 6.09746 10.7322 6.08922 10.8129 6.08534C11.1472 6.06956 11.483 6.05861 11.8203 6.05381C11.8609 6.05323 11.9014 6.05279 11.9421 6.0524C12.2722 6.00202 12.6048 5.96058 12.8435 5.94816C13.04 5.93777 13.1851 5.96224 13.3092 5.98443C13.3952 5.99976 13.4714 6.01409 13.5496 6.01626C13.5925 6.01749 13.6494 6.01809 13.721 6.0201C13.8189 6.02302 13.9388 6.02748 14.0854 6.04359C14.2405 6.06664 14.3788 6.06579 14.6804 6.19427C14.8036 6.25363 14.9301 6.31953 15.0516 6.39241C15.2145 6.49022 15.4006 6.62181 15.5781 6.76036C15.8328 6.95643 16.0635 7.17721 16.1989 7.27866C16.3443 7.38438 16.4922 7.53581 16.6106 7.72358C16.6777 7.8276 16.7516 7.97821 16.7909 8.10131C16.8894 8.4082 16.8986 8.63166 16.9461 8.75786C16.9992 8.90638 16.9982 9.03648 16.9896 9.22367C16.9857 9.30323 16.9801 9.39392 16.9753 9.50143C16.9723 9.5629 16.9701 9.63303 16.9694 9.70861C16.9672 9.94085 16.9472 10.1057 16.9299 10.2454C16.9054 10.4425 16.8865 10.5899 16.9259 10.8105C16.9695 11.0552 16.9956 11.3127 16.9796 11.5159C16.9723 11.6085 16.972 11.7141 16.9709 11.8251C16.9694 11.9715 16.9663 12.1269 16.9442 12.2689C16.9259 12.386 16.8878 12.4819 16.8529 12.5668C16.8523 12.5684 16.8516 12.57 16.8509 12.5717C16.8408 12.5957 16.8312 12.6185 16.8225 12.6404C16.8158 12.7314 16.8091 12.8215 16.8024 12.9132C16.8062 12.9285 16.8107 12.9436 16.8151 12.9609C16.8375 13.0446 16.8648 13.1486 16.8703 13.2758C16.8786 13.4781 16.8412 13.6549 16.7875 13.8524C16.7378 14.0109 16.7151 14.1683 16.5609 14.4463C16.5454 14.4718 16.528 14.4981 16.5083 14.5245C16.4416 14.6184 16.3621 14.7296 16.2689 14.8355C16.1108 15.0187 15.9086 15.1753 15.7543 15.2413C15.6966 15.2665 15.6388 15.2717 15.5839 15.2742C15.5836 15.2742 15.5833 15.2741 15.5831 15.2741C15.5793 15.2743 15.5755 15.2745 15.5718 15.2747C15.3263 15.3932 15.0734 15.468 14.8247 15.5183C14.7281 15.5386 14.6313 15.5591 14.5343 15.5798C14.5079 15.5892 14.4811 15.5985 14.4546 15.6077C14.3248 15.6528 14.1983 15.6966 14.1183 15.7431C14.0315 15.7935 13.8027 15.8505 13.5575 15.9085C13.3971 15.9464 13.2296 15.9845 13.0924 16.0223C13.0121 16.0443 12.9315 16.0332 12.8487 16.0211C12.7711 16.0099 12.6917 15.9978 12.6071 16.0111C12.5643 16.0178 12.5196 16.0306 12.4701 16.044C12.4271 16.0558 12.3812 16.0681 12.3324 16.0769C12.2878 16.085 12.1842 16.0812 12.0506 16.0724C11.9672 16.0669 11.8734 16.0595 11.771 16.0511C11.5708 16.06 11.3614 16.061 11.1267 16.0311C11.0645 16.0236 11.0015 16.0157 10.9377 16.0069C10.8822 16.0152 10.832 16.0295 10.7889 16.0517C10.758 16.0676 10.7299 16.0883 10.7006 16.1092C10.6608 16.1377 10.6187 16.1667 10.5631 16.1844C10.5201 16.1983 10.4714 16.1959 10.442 16.1784C10.4284 16.1702 10.4192 16.1591 10.4109 16.1489C10.4012 16.1373 10.3926 16.1269 10.3796 16.1235C10.3701 16.1211 10.3588 16.1244 10.3445 16.1282C10.3213 16.1341 10.292 16.1418 10.251 16.1297C10.1002 16.0839 9.91446 16.016 9.69474 15.8774C9.4939 15.7529 9.2512 15.5284 9.11252 15.2574C9.0996 15.2333 9.08401 15.2036 9.06883 15.1731C8.95238 14.9445 8.91304 14.6564 8.90543 14.444C8.89868 14.2902 8.90129 14.1504 8.89832 14.0344C8.89547 13.9204 8.87572 13.8063 8.85791 13.6963C8.83657 13.565 8.81807 13.439 8.83567 13.3338C8.83923 13.3119 8.86361 13.2848 8.89421 13.2515C8.91345 13.2304 8.93516 13.2063 8.95576 13.1789C8.95839 13.1756 8.96099 13.1723 8.96357 13.169C8.96131 13.0388 8.96056 12.9097 8.96093 12.7808C8.95748 12.7763 8.95397 12.7716 8.95039 12.7669C8.95031 12.7668 8.95022 12.7667 8.95014 12.7666C8.86931 12.662 8.75888 12.5176 8.82221 12.3137C8.83831 12.2615 8.86857 12.2293 8.8958 12.1997C8.92255 12.1708 8.94649 12.1445 8.95131 12.1072C8.95676 12.0647 8.93988 12.0138 8.92155 11.9594C8.89581 11.8822 8.8671 11.7963 8.89296 11.7098C8.89473 11.7039 8.89667 11.6975 8.89861 11.6909C8.91701 11.6281 8.94426 11.5354 8.99957 11.4429C9.01336 11.1693 9.03006 10.8962 9.04859 10.6226C9.07751 10.1968 9.11094 9.76853 9.14475 9.344C9.14704 9.31419 9.14933 9.28562 9.15162 9.25743C9.16938 9.03564 9.24521 8.82381 9.36659 8.66738C9.42736 8.59008 9.4968 8.52791 9.57125 8.48674C9.60847 8.46604 9.64694 8.45035 9.68621 8.43947C9.70584 8.43441 9.72567 8.43004 9.74565 8.42744C9.75563 8.4262 9.76565 8.42513 9.7757 8.42442C9.77821 8.42424 9.78073 8.42417 9.78324 8.42403C9.7845 8.42392 9.78576 8.42387 9.78702 8.42384C9.78733 8.42383 9.78765 8.42383 9.78796 8.42383C9.78812 8.42382 9.78828 8.42382 9.78844 8.42382C9.78847 8.42382 9.78851 8.42382 9.78855 8.42382C9.78856 8.42382 9.78857 8.42382 9.78858 8.42382C9.78858 8.42382 9.78858 8.42382 9.78858 8.42382C9.78858 8.42382 9.78859 8.42382 9.78859 8.42382C9.78859 8.42382 9.78859 8.42382 9.78859 8.42382C9.78859 8.42382 9.78859 8.42382 9.78859 8.42382C9.78859 8.42382 9.78859 8.42382 9.78859 8.42382C9.78859 8.42382 9.78859 8.42382 9.78859 8.42382C9.78859 8.42382 9.78859 8.42382 9.78859 8.42382C9.78859 8.42382 9.78859 8.42382 9.78859 8.42382C9.83362 8.42382 9.6625 8.42382 9.70753 8.42382C9.70753 8.42382 9.70753 8.42382 9.70753 8.42382C9.70753 8.42382 9.70753 8.42382 9.70753 8.42382C9.70753 8.42382 9.70753 8.42382 9.70753 8.42382C9.70753 8.42382 9.70752 8.42382 9.70752 8.42382C9.70752 8.42382 9.70751 8.42382 9.70751 8.42382C9.70749 8.42382 9.70747 8.42382 9.70745 8.42382C9.70737 8.42382 9.70729 8.42382 9.70721 8.42382C9.70658 8.42383 9.70595 8.42388 9.70532 8.42392C9.70029 8.42406 9.69524 8.42418 9.69019 8.42418C9.68514 8.42418 9.6801 8.42406 9.67506 8.42392C9.67443 8.42388 9.6738 8.42383 9.67317 8.42382C9.6731 8.42382 9.67302 8.42382 9.67294 8.42382C9.67293 8.42382 9.67292 8.42382 9.67291 8.42382C9.6729 8.42382 9.6729 8.42382 9.67289 8.42382C9.67289 8.42382 9.67289 8.42382 9.67289 8.42382C9.67289 8.42382 9.67289 8.42382 9.67289 8.42382C9.67289 8.42382 9.67289 8.42382 9.67289 8.42382C9.67289 8.42382 9.67289 8.42382 9.67289 8.42382C9.67289 8.42382 9.67289 8.42382 9.67289 8.42382C9.67289 8.42382 9.67289 8.42382 9.67289 8.42382C9.58936 8.42382 9.90676 8.42382 9.82323 8.42382C9.82323 8.42382 9.82323 8.42382 9.82323 8.42382C9.82323 8.42382 9.82323 8.42382 9.82323 8.42382C9.82323 8.42382 9.82323 8.42382 9.82323 8.42382C9.82323 8.42382 9.82323 8.42382 9.82323 8.42382C9.82323 8.42382 9.82323 8.42382 9.82323 8.42382C9.82324 8.42382 9.82324 8.42382 9.82324 8.42382C9.82326 8.42382 9.82328 8.42382 9.8233 8.42382C9.82334 8.42382 9.82338 8.42382 9.82342 8.42382C9.82358 8.42382 9.82373 8.42382 9.82389 8.42383C9.8242 8.42383 9.82452 8.42383 9.82483 8.42384C9.82609 8.42387 9.82735 8.42392 9.82861 8.42403C9.83112 8.42417 9.83364 8.42424 9.83615 8.42443C9.8462 8.42514 9.85622 8.4262 9.8662 8.42744C9.88617 8.43005 9.906 8.43442 9.92562 8.43948C9.96488 8.45036 10.0033 8.46604 10.0405 8.48675C10.115 8.52792 10.1844 8.59009 10.2451 8.66738C10.3665 8.82381 10.4423 9.03563 10.4601 9.25743C10.4624 9.28562 10.4647 9.31419 10.467 9.344C10.4933 9.67458 10.5196 10.0075 10.5443 10.3386C10.5477 10.3573 10.5509 10.3763 10.554 10.3953C10.5768 10.5355 10.6225 10.6661 10.6683 10.7961C10.6789 10.8262 10.6894 10.8559 10.6997 10.886Z" fill="#042A21"/>
<path d="M11.4501 25.7791C11.3798 25.8293 11.2251 25.8828 11.2494 25.8765C11.2952 25.8601 11.3413 25.7927 11.3269 25.7929C11.3267 25.7928 11.3264 25.7927 11.3261 25.7926C11.3218 25.7917 11.3159 25.7988 11.3064 25.8156C11.2835 25.8596 11.2372 25.9436 11.1047 26.3113C11.0915 26.3745 11.0778 26.4403 11.0633 26.508C11.0553 26.5457 11.0481 26.5829 11.0415 26.6202C10.9717 27.0151 10.9897 27.371 11.0772 27.8868C11.1956 28.6179 11.3068 29.3556 11.4666 30.0284C11.4715 30.0426 11.4764 30.0568 11.4813 30.071C11.5768 30.352 11.7134 30.6541 11.78 30.8144C11.806 30.8801 11.8305 30.9352 11.8547 30.9844C11.8481 31.0171 11.891 31.0827 11.9433 31.1343C12.1347 31.2726 12.4714 31.3846 12.8161 31.4604C13.1862 31.5412 13.9019 31.4204 14.4946 31.3086C14.8056 31.2487 15.1189 31.181 15.432 31.1097C15.524 31.0888 15.6161 31.0675 15.7088 31.046C15.9105 30.9991 16.1116 30.9542 16.3132 30.9112C16.4834 30.8604 16.6443 30.8104 16.794 30.7652C17.003 30.7017 17.191 30.6478 17.3325 30.6143C17.3845 30.6019 17.436 30.5903 17.4765 30.5802C17.5081 30.5763 17.575 30.5403 17.4629 30.5975C17.3173 30.7398 17.4687 30.5956 17.5143 30.4022C17.5012 30.4671 17.5131 30.4266 17.515 30.4145C17.5222 30.3797 17.5285 30.3369 17.5339 30.2954C17.5367 30.0612 17.5312 29.8097 17.525 29.5593C17.5318 29.5431 17.5388 29.5266 17.546 29.5097C17.636 29.2963 17.639 29.0338 17.6415 28.617C17.6425 28.4355 17.6435 28.2253 17.6512 27.9777C17.6562 27.817 17.6906 27.7363 17.7187 27.669C17.7269 27.6495 17.7347 27.6311 17.7409 27.6124C17.7623 27.5481 17.7398 27.4805 17.7131 27.4005C17.6785 27.296 17.6369 27.1719 17.6754 27.0078C17.6791 26.9919 17.6826 26.9762 17.6859 26.9608C17.7895 26.5198 17.6527 26.3456 17.5612 26.243C17.5324 26.2111 17.5056 26.1842 17.4847 26.1552C17.4183 26.0614 17.3732 25.9142 17.3278 25.7816C17.2958 25.6768 17.1242 25.5216 16.9625 25.4101C16.9234 25.3827 16.8813 25.3434 16.8329 25.2946C16.8156 25.2775 16.7977 25.2602 16.7785 25.243C16.7224 25.193 16.6555 25.1463 16.5602 25.12C16.3152 25.0574 16.1148 25.0521 15.9689 25.0408C15.9258 25.0382 15.8851 25.0359 15.844 25.0341C15.7298 25.0288 15.5877 25.0197 15.4363 25.0101L15.5326 25.0165C15.5109 25.018 15.4894 25.0194 15.4681 25.0209C15.2613 25.0353 15.0523 25.0516 14.8943 25.0733C14.4855 25.0594 14.0724 25.0453 13.6904 25.0542C13.5551 25.0578 13.4425 25.0349 13.3284 24.995L13.3467 24.9913C13.3044 24.9718 13.3081 24.9355 13.268 24.9098C13.1455 24.8318 12.9691 24.7577 12.8851 24.6156C12.8017 24.4763 12.7657 24.298 12.9031 24.0971C12.9468 24.0334 13.0405 23.9664 13.1085 23.9233C13.1115 23.9228 13.1203 23.9206 13.1233 23.9202C13.2486 23.833 13.4137 23.7744 13.5699 23.7512C14.0336 23.684 14.4746 23.6479 14.9176 23.6202C15.1237 23.6077 15.3282 23.5981 15.533 23.5913C15.5515 23.5926 15.6065 23.5936 15.6246 23.5974C15.9561 23.6325 16.2962 23.664 16.6936 23.7732C17.0447 23.8651 17.4825 24.0868 17.7677 24.4074C17.8192 24.4634 17.8722 24.5212 17.9264 24.5818C17.9536 24.6123 17.9813 24.6436 18.009 24.6756C18.2714 24.8995 18.549 25.228 18.6829 25.5026C18.7966 25.7268 18.8251 25.9099 18.8418 26.0581C18.8528 26.1605 18.8577 26.2496 18.8724 26.336C18.8804 26.3829 18.8913 26.4454 18.9017 26.5213C18.9187 26.644 18.9333 26.7976 18.936 26.9641C18.9403 27.1799 18.9376 27.4285 18.9126 27.6634C18.8942 27.8368 18.8584 28.0374 18.824 28.229C18.7748 28.5039 18.7282 28.7591 18.7401 28.889C18.7613 29.1161 18.7374 29.3779 18.7147 29.6088C18.6932 29.8298 18.6724 30.0241 18.6953 30.1375C18.7211 30.278 18.7096 30.3692 18.663 30.5983C18.6572 30.6245 18.653 30.6488 18.6359 30.7073C18.5928 30.807 18.5564 30.9445 18.434 31.1801C18.3531 31.3311 18.2183 31.4888 18.0453 31.5793C17.8011 31.6914 17.761 31.6596 17.6708 31.6754C17.4607 31.6899 17.324 31.6892 17.1252 31.7625C16.9062 31.8428 16.6786 31.9121 16.4933 31.9354C16.4081 31.9461 16.3142 31.9668 16.2153 31.9894C16.123 32.0106 16.0302 32.0325 15.9366 32.0492C15.8959 32.0565 15.8557 32.0625 15.8165 32.0668C15.7079 32.0787 15.6133 32.0675 15.53 32.0575C15.5037 32.0544 15.4785 32.0515 15.4545 32.0494C15.3705 32.0689 15.2862 32.0887 15.2014 32.1088C15.1889 32.1169 15.1758 32.1257 15.1621 32.1348C15.0928 32.1806 15.0079 32.2368 14.8962 32.2799C14.7191 32.3482 14.5534 32.3656 14.3777 32.382C14.2406 32.3948 14.0977 32.4072 13.9358 32.4414C13.8248 32.4647 13.6989 32.4986 13.5702 32.5291C13.3794 32.5748 13.1783 32.6113 13.0273 32.6016C12.9701 32.5982 12.92 32.5776 12.8714 32.5557C12.8712 32.5556 12.871 32.5554 12.8708 32.5553C12.8673 32.5538 12.8639 32.5523 12.8605 32.5508C12.7911 32.5505 12.7178 32.5471 12.6393 32.5372C12.3744 32.5065 12.1022 32.4644 11.8185 32.3835C11.7873 32.3783 11.7556 32.3724 11.724 32.3659C11.5695 32.335 11.4129 32.2864 11.2972 32.2581C11.1934 32.2309 10.9545 32.1278 10.7156 31.8526C10.6867 31.8201 10.6576 31.7856 10.6296 31.7508C10.5019 31.5928 10.3931 31.4219 10.3077 31.2886C10.2569 31.2091 10.2424 31.1236 10.2293 31.0352C10.2178 30.9544 10.2077 30.8708 10.174 30.7922C10.1566 30.7515 10.1336 30.7117 10.1088 30.6671C10.0872 30.6284 10.0649 30.5882 10.0452 30.5439C10.0274 30.504 10.0083 30.4062 9.98754 30.2836C9.97456 30.2074 9.96089 30.1216 9.94562 30.0333C9.87151 29.8078 9.80395 29.5825 9.74084 29.3592C9.71244 29.3166 9.67994 29.2796 9.64319 29.2539C9.61688 29.2358 9.58719 29.2217 9.55679 29.2071C9.51545 29.1873 9.47252 29.1658 9.4348 29.1324C9.40545 29.1069 9.38849 29.0724 9.39258 29.0456C9.3945 29.0332 9.40087 29.0226 9.40663 29.0129C9.41323 29.0018 9.41909 28.9919 9.41671 28.9819C9.41495 28.9745 9.40732 28.9685 9.39803 28.9611C9.38321 28.9492 9.36403 28.9336 9.35737 28.9048C9.3323 28.7963 9.31188 28.6731 9.29267 28.5535C9.27497 28.4439 9.25875 28.3403 9.23957 28.2474C9.23516 28.2262 9.23047 28.2049 9.22567 28.1849C9.19766 28.0676 9.18508 27.8792 9.18229 27.6789C9.18017 27.5395 9.18345 27.3961 9.18414 27.2723C9.18463 27.1514 9.17074 27.0241 9.1628 26.8992C9.15305 26.7497 9.15225 26.6026 9.18851 26.484C9.19585 26.46 9.22486 26.433 9.26157 26.4003C9.28764 26.3769 9.31754 26.3511 9.34659 26.321C9.35756 26.2589 9.36996 26.1976 9.38393 26.1361C9.3996 26.0676 9.41586 25.9973 9.43339 25.9249C9.43107 25.9197 9.42874 25.9144 9.42633 25.9091C9.42627 25.909 9.42621 25.9089 9.42615 25.9088C9.37291 25.7878 9.29681 25.6167 9.43293 25.393C9.46792 25.3365 9.51076 25.306 9.54948 25.2791C9.58758 25.2529 9.62188 25.2297 9.64595 25.1839C9.67325 25.1322 9.68665 25.06 9.7099 24.976C9.7418 24.8593 9.79824 24.7119 9.92742 24.6018C9.93613 24.5944 9.94567 24.5865 9.9557 24.5782C10.0485 24.5006 10.2112 24.3901 10.3944 24.3497C10.4526 24.3179 10.5119 24.2906 10.5719 24.2675C10.9574 24.1362 11.1663 24.1378 11.4239 24.1106C11.8931 24.0748 12.3388 24.0741 12.7884 24.0824C13.0067 24.087 13.2188 24.1538 13.3773 24.271C13.5339 24.3883 13.6229 24.5451 13.6206 24.7066C13.6214 24.8682 13.5398 25.0238 13.4012 25.1492C13.2602 25.2744 13.0698 25.3584 12.867 25.3885C12.5367 25.4372 12.2057 25.4934 11.8886 25.558C11.8725 25.5633 11.8557 25.5686 11.8394 25.5737C11.7184 25.6117 11.6119 25.673 11.5151 25.7358C11.4932 25.7502 11.4712 25.7648 11.4501 25.7791Z" fill="#042A21"/>
<path d="M12.9003 15.0103C13.1464 15.0414 13.3762 15.2969 13.4481 15.4133C13.4497 15.4156 13.4512 15.4178 13.4528 15.42C13.4723 15.4488 13.4911 15.473 13.513 15.5022C13.5625 15.5693 13.6303 15.6633 13.6912 15.8572C13.7221 15.9042 13.7508 15.9517 13.7772 15.999C14.041 16.4808 14.1513 16.9353 14.2515 17.3906C14.2602 17.4236 14.2685 17.4575 14.2761 17.4923C14.2793 17.5008 14.2826 17.5095 14.2859 17.5184C14.3524 17.6938 14.3939 17.9086 14.3767 18.022C14.3558 18.17 14.3263 18.2562 14.3016 18.3283C14.2779 18.5581 14.2498 18.771 14.2297 18.986C14.2144 19.1491 14.2019 19.3118 14.1949 19.4738C14.1897 19.5918 14.1875 19.7096 14.1891 19.8272C14.1904 19.9355 14.1941 20.044 14.1998 20.1521C14.2173 20.2149 14.2378 20.2747 14.2568 20.3301C14.2835 20.408 14.3072 20.4773 14.3151 20.5347C14.3342 20.673 14.3063 20.8301 14.2854 20.9467C14.282 20.9656 14.2787 20.9839 14.2759 21.0005C14.2868 21.0927 14.2983 21.1857 14.31 21.2781C14.3036 21.2843 14.2969 21.2906 14.29 21.2969C14.2043 21.376 14.2054 21.4725 14.2068 21.626C14.2073 21.6922 14.2079 21.7702 14.2013 21.8609C14.1996 21.8847 14.193 21.9034 14.184 21.9189C14.185 21.9237 14.1826 21.9387 14.1833 21.9436C14.1687 21.9668 14.1489 21.9826 14.1315 21.9964C14.1229 22.0032 14.1149 22.0096 14.1084 22.0161C14.0859 22.0386 14.1074 22.0637 14.1326 22.0952C14.1654 22.1358 14.2048 22.1828 14.1632 22.2416C14.0309 22.4264 14.1072 22.5165 14.165 22.5841C14.1819 22.6044 14.1972 22.6226 14.2051 22.6407C14.231 22.6988 14.1961 22.7782 14.1515 22.8364C14.1161 22.8827 14.1407 22.9814 14.1752 23.0583C14.1883 23.0877 14.1859 23.1242 14.1826 23.1694C14.1794 23.215 14.1754 23.2691 14.1877 23.3265C14.2187 23.4741 14.2324 23.5537 14.2433 23.6169C14.2464 23.6352 14.2492 23.652 14.2522 23.6686C14.2615 23.7226 14.2669 23.7882 14.2719 23.8555C14.2779 23.9358 14.2833 24.018 14.295 24.0835C14.259 24.2255 14.2399 24.2992 14.1635 24.5436C14.1617 24.571 14.1234 24.6435 14.1165 24.6701C14.0716 24.7539 14.0058 24.8411 13.9454 24.901C13.7816 25.0581 13.6474 25.0429 13.5221 24.9826C13.3972 24.918 13.2895 24.7964 13.2047 24.6554C13.1201 24.514 13.067 24.3611 13.0382 24.2346C13.0084 24.1109 13.0069 24.012 12.9647 24.0347C12.95 24.0432 12.9253 24.0699 12.9106 24.0903L12.8711 24.1967C12.8545 24.1779 12.859 24.0078 12.8542 23.8973C12.8503 23.7128 12.8508 23.5247 12.8672 23.3378C12.8787 23.2066 12.8933 23.075 12.9104 22.9435C12.9122 22.9295 12.914 22.9165 12.9158 22.903C12.8837 22.7881 12.8546 22.6762 12.8469 22.5962C12.8404 22.5318 12.8651 22.4849 12.8862 22.4464C12.9007 22.4196 12.9136 22.3952 12.9133 22.3703C12.9132 22.357 12.9119 22.3388 12.9102 22.3165C12.9037 22.2253 12.892 22.0718 12.9392 21.9344C12.9455 21.9161 12.9534 21.8969 12.9623 21.877L12.9612 21.9123C12.9798 21.8663 13.0039 21.8162 13.0272 21.7674C13.0748 21.6688 13.1189 21.5767 13.1054 21.5297C13.0817 21.4482 13.1018 21.3534 13.1195 21.2707C13.1364 21.1915 13.1511 21.122 13.1236 21.0826C13.0906 21.0355 13.1039 20.9952 13.1234 20.9355C13.137 20.894 13.1536 20.8432 13.16 20.7738C13.1674 20.6941 13.19 20.6373 13.2092 20.5892C13.2363 20.5215 13.2566 20.4704 13.218 20.3949C13.1751 20.311 13.1474 20.2234 13.1601 20.154C13.1658 20.1223 13.164 20.0866 13.162 20.0489C13.1594 19.9993 13.1567 19.9469 13.1713 19.8992C13.1833 19.8598 13.2149 19.8267 13.2428 19.7978C13.2515 19.7888 13.2598 19.78 13.2671 19.7715C13.2662 19.74 13.2652 19.7091 13.2638 19.6776C13.2586 19.6726 13.2528 19.6673 13.2468 19.6618C13.2169 19.6342 13.1802 19.601 13.1615 19.5585C13.1318 19.4924 13.1487 19.4332 13.1664 19.3705C13.1803 19.3225 13.1946 19.2718 13.1878 19.214C13.1832 19.1754 13.169 19.1303 13.155 19.0872C13.1472 19.0627 13.1395 19.0389 13.1334 19.0165C13.123 18.9761 13.1173 18.9411 13.124 18.9116C13.128 18.8944 13.1477 18.8799 13.1672 18.8646C13.1674 18.8645 13.1675 18.8645 13.1676 18.8644C13.1689 18.8634 13.1702 18.8623 13.1715 18.8613C13.153 18.7511 13.1328 18.6427 13.1108 18.5357C13.1053 18.5267 13.0999 18.5179 13.0944 18.5085C13.0681 18.4644 13.0423 18.4224 13.0071 18.3965C12.9689 18.3685 12.9436 18.295 12.9151 18.2271C12.8964 18.1826 12.8764 18.1417 12.8519 18.1147C12.8375 18.0987 12.8555 18.0807 12.8735 18.0615C12.8904 18.0439 12.9073 18.0254 12.8989 18.0122C12.8947 18.0057 12.8844 18.0003 12.8735 17.9951C12.8638 17.9905 12.8536 17.986 12.8463 17.9803C12.8395 17.9749 12.8457 17.9571 12.8505 17.9296C12.8506 17.9291 12.8507 17.9287 12.8507 17.9282C12.8498 17.9016 12.8487 17.8717 12.8456 17.8415C12.8046 17.7714 12.7639 17.7016 12.7241 17.633C12.7011 17.6243 12.6739 17.6198 12.6417 17.6207C12.6185 17.6213 12.592 17.6247 12.5648 17.6282C12.5278 17.6329 12.4896 17.638 12.457 17.6367C12.4315 17.6356 12.4183 17.6276 12.424 17.6162C12.4267 17.611 12.4334 17.605 12.4395 17.5996C12.4464 17.5934 12.4526 17.5879 12.4511 17.5849C12.4501 17.5827 12.4433 17.5827 12.4352 17.5828C12.4222 17.5828 12.4055 17.5828 12.4013 17.5741C12.3855 17.5413 12.3743 17.5017 12.3632 17.4631C12.3507 17.42 12.3387 17.379 12.3208 17.3497C12.3009 17.3176 12.3001 17.2592 12.2988 17.2017C12.2979 17.1617 12.2967 17.1218 12.2891 17.0913C12.282 17.0618 12.2563 17.0386 12.2322 17.0188C12.2026 16.9935 12.175 16.9723 12.1797 16.9383C12.1806 16.9315 12.1994 16.9136 12.2227 16.891C12.2392 16.875 12.258 16.8566 12.2744 16.838C12.2572 16.8072 12.2408 16.777 12.2257 16.7487C12.2223 16.7495 12.2187 16.7503 12.215 16.7511C12.215 16.7511 12.2149 16.7512 12.2148 16.7512C12.1325 16.7693 12.0246 16.8023 12.056 16.734C12.0638 16.7164 12.085 16.6938 12.1039 16.6731C12.1224 16.6528 12.1386 16.6341 12.1384 16.6254C12.138 16.6155 12.1194 16.6186 12.0997 16.6229C12.0721 16.629 12.0439 16.6395 12.0573 16.6153C12.0582 16.6136 12.0592 16.6118 12.0602 16.61C12.0693 16.5923 12.084 16.5678 12.1167 16.5222C12.1112 16.4965 12.1286 16.4962 12.1827 16.4932C12.2016 16.4916 12.2239 16.4884 12.244 16.4821C12.1264 16.4497 12.0088 16.4165 11.8911 16.3847C11.818 16.3647 11.7495 16.2874 11.6989 16.1653C11.6483 16.0431 11.6194 15.8869 11.6191 15.7253C11.6187 15.5638 11.6517 15.4076 11.7108 15.2868C11.7699 15.1662 11.8498 15.0921 11.9309 15.0768C12.0613 15.0526 12.1912 15.0299 12.3216 15.0106C12.3272 15.0105 12.3327 15.0104 12.3383 15.0104C12.3572 15.0083 12.3763 15.0067 12.3953 15.0058C12.5366 14.9989 12.676 14.9927 12.8096 15.0017C12.8407 15.004 12.8702 15.0064 12.9003 15.0103Z" fill="#042A21"/>
<path d="M12.4891 4.31919C12.6586 4.23274 12.9376 4.16641 13.2009 4.12146C13.4301 4.08136 13.6247 4.07331 13.7691 4.06933C13.7758 4.06913 13.7825 4.06893 13.789 4.06876C13.8742 4.06695 13.9545 4.06383 14.0453 4.06168C14.2625 4.0574 14.554 4.0544 15.1226 4.12899C15.2885 4.13471 15.4529 4.14312 15.616 4.15367C15.9088 4.17263 16.1979 4.19711 16.4835 4.22376C17.7353 4.3446 18.9904 4.59552 20.2039 5.13814C20.5224 5.27082 20.8652 5.5437 21.0577 5.80668C21.0768 5.82902 21.095 5.8511 21.1124 5.87248C21.1131 5.87334 21.1138 5.8742 21.1145 5.87506C21.3154 6.14504 21.3434 6.31531 21.3908 6.4655C21.4309 6.61379 21.4567 6.74758 21.4779 6.87303C21.5195 7.12421 21.5414 7.34855 21.5472 7.52276C21.5604 7.96575 21.5509 8.25915 21.5428 8.50238C21.5535 8.77947 21.5621 9.0531 21.5702 9.32818C21.5997 10.4471 21.5771 11.5394 21.5717 12.6345C21.5688 13.0632 21.5671 13.4915 21.568 13.9196C21.5687 14.3139 21.5708 14.7082 21.5741 15.1017C21.5903 15.3319 21.6093 15.5486 21.6269 15.7518C21.6515 16.0365 21.673 16.2874 21.6792 16.4975C21.6837 16.649 21.6839 16.8081 21.6812 16.9638C21.6752 17.3342 21.6518 17.7029 21.6307 18.0013C21.6258 18.0702 21.621 18.1379 21.6167 18.1977C21.6191 18.5383 21.619 18.8798 21.6135 19.2225C21.6059 19.2455 21.598 19.2683 21.59 19.2912C21.4893 19.5772 21.4666 19.9405 21.4215 20.4939C21.4159 20.5651 21.41 20.6389 21.4038 20.7166C21.3889 20.9031 21.3717 21.1095 21.3496 21.3403C21.3295 21.5514 21.2874 21.6574 21.2531 21.7439C21.243 21.7696 21.2336 21.7936 21.2256 21.8178C21.1983 21.9008 21.2145 21.9915 21.2336 22.1004C21.2585 22.2402 21.2886 22.4076 21.2352 22.6231C21.0653 23.3092 21.1262 23.62 21.1676 23.8647C21.1796 23.9373 21.1904 24.0027 21.1907 24.0787C21.1905 24.1042 21.1896 24.1306 21.1857 24.1658C21.1577 24.4117 21.077 24.6356 20.9978 24.8282C20.9288 24.992 20.8828 25.3431 20.8643 25.6098C20.857 25.7124 20.828 25.8431 20.7932 26.0001C20.7571 26.1623 20.7157 26.3485 20.6876 26.552C20.6166 27.0663 20.5772 27.3391 20.5455 27.5585C20.5365 27.6205 20.5277 27.6799 20.5196 27.7376C20.5038 27.8479 20.4837 27.9738 20.4615 28.1078C20.445 28.2043 20.4265 28.3024 20.4056 28.4023C20.3437 28.7016 20.2589 29.0071 20.1876 29.2418C19.9667 29.7728 19.6276 30.298 19.2934 30.7066C19.2567 30.7523 19.2206 30.7972 19.1796 30.845C19.0961 30.9431 18.9988 31.0308 18.9085 31.0948C18.7353 31.2172 18.5705 31.2834 18.4145 31.3153C18.1779 31.3617 17.988 31.3148 17.8803 31.1904C17.7725 31.0657 17.7559 30.871 17.8238 30.6484C17.8674 30.5028 17.9491 30.3502 18.0325 30.2179C18.0761 30.1484 18.1144 30.0894 18.1563 30.0295C18.1776 29.9994 18.2006 29.965 18.2277 29.9249C18.5083 29.5061 18.7042 29.1163 18.8522 28.6671C18.9446 28.3886 19.0168 28.0982 19.0755 27.7998C19.1484 27.4331 19.2246 27.0693 19.306 26.7053C19.4134 26.2254 19.5255 25.7445 19.6396 25.2677C19.6516 25.2174 19.6632 25.1692 19.6751 25.1198C19.7253 24.709 19.7809 24.2937 19.8232 24.0238C19.8284 23.9897 19.8347 23.9526 19.8358 23.9439C19.8465 23.8597 19.8785 23.6743 19.9026 23.5642C19.923 23.4647 19.9409 23.3742 19.9456 23.2835C19.9482 23.2338 19.9505 23.1667 19.9533 23.0854C19.9645 22.7533 19.9834 22.1839 20.0614 21.6704C20.0961 21.4418 20.1509 21.1781 20.2038 20.9265C20.2255 20.8228 20.2468 20.7225 20.2664 20.6253C20.3151 20.3851 20.3519 20.1821 20.3517 20.0609C20.3517 19.7635 20.394 19.4288 20.4261 19.1316C20.457 18.8474 20.4799 18.5967 20.4568 18.4536C20.4291 18.2825 20.4461 18.1379 20.4702 17.9214C20.4868 17.7715 20.5067 17.5858 20.5162 17.3345C20.5217 17.191 20.5304 17.0674 20.5403 16.956C20.5502 16.848 20.5615 16.749 20.5719 16.6628C20.601 16.4152 20.6229 16.2293 20.5864 15.9521C20.5459 15.6439 20.5204 15.3222 20.5345 15.0688C20.541 14.9535 20.5398 14.8216 20.5385 14.6841C20.5367 14.5025 20.5347 14.3115 20.5497 14.1367C20.5621 13.9933 20.5938 13.8739 20.6218 13.7689C20.6305 13.7361 20.6389 13.7045 20.6462 13.674C20.6454 13.5594 20.6443 13.445 20.6427 13.3305C20.6375 13.3119 20.6317 13.2925 20.6257 13.2722C20.5956 13.1703 20.5586 13.045 20.5393 12.89C20.5087 12.6444 20.5242 12.4293 20.54 12.2016C20.5523 12.0252 20.5648 11.8403 20.5551 11.6297C20.5485 11.486 20.5318 11.3229 20.5147 11.1611C20.4893 10.9205 20.4628 10.6859 20.4686 10.5199C20.4709 10.458 20.4889 10.4058 20.5067 10.3515C20.5069 10.3513 20.507 10.351 20.5071 10.3508C20.5083 10.3471 20.5095 10.3435 20.5107 10.3399C20.486 10.0276 20.4573 9.71579 20.4219 9.41058C20.4116 9.3201 20.4016 9.23693 20.391 9.14743C20.3833 9.11265 20.3755 9.07797 20.3679 9.04408C20.3305 8.87547 20.2935 8.71273 20.2509 8.60936C20.2047 8.49649 20.159 8.20626 20.1054 7.90651C20.0706 7.7119 20.0316 7.50816 19.9896 7.35332C19.9649 7.26113 19.9723 7.17215 19.9784 7.08328C19.9842 7.00124 19.9883 6.91625 19.9653 6.84665C19.9539 6.81193 19.9351 6.7796 19.9195 6.76417C19.9067 6.75083 19.893 6.75349 19.917 6.79775C19.919 6.80128 19.9216 6.80522 19.9247 6.80952C19.8934 6.77286 19.8579 6.7122 19.8193 6.661C19.7924 6.6255 19.7602 6.58966 19.7115 6.55465C19.688 6.54465 19.6626 6.53516 19.6354 6.52625C19.4219 6.45019 19.2021 6.38403 18.9773 6.32543C18.9177 6.32618 18.8623 6.33447 18.8161 6.35263C18.7821 6.36543 18.7528 6.3841 18.7218 6.40296C18.6792 6.42855 18.6369 6.45557 18.5829 6.47198C18.5404 6.4847 18.4971 6.48308 18.4702 6.46633C18.4576 6.4585 18.4499 6.44785 18.4425 6.4381C18.4341 6.42695 18.4265 6.41702 18.4147 6.41436C18.4063 6.41246 18.396 6.41634 18.3833 6.421C18.3628 6.42836 18.3376 6.43824 18.3034 6.43074C18.1763 6.40284 18.0322 6.36651 17.8892 6.33356C17.7307 6.29688 17.5729 6.26434 17.4467 6.24901C17.3046 6.23157 17.1054 6.17956 16.9029 6.13251C16.761 6.09949 16.6199 6.06892 16.4953 6.05096C16.4436 6.04345 16.3901 6.0396 16.3354 6.03796C16.2612 6.03561 16.1861 6.03674 16.1127 6.03804C15.9579 6.04075 15.8101 6.04411 15.6873 6.01518C15.6625 6.00931 15.633 5.98218 15.5961 5.9483C15.5699 5.9243 15.5396 5.89686 15.5049 5.87118C15.3469 5.86096 15.1899 5.851 15.0341 5.8421C15.0285 5.84525 15.0227 5.84845 15.0168 5.85172C15.0167 5.8518 15.0166 5.85188 15.0166 5.85195C14.8849 5.92604 14.7092 6.02766 14.4742 5.96102C14.414 5.94416 14.3768 5.91383 14.3426 5.88661C14.3094 5.8599 14.2789 5.8361 14.2357 5.83185C14.1864 5.82706 14.129 5.84518 14.0686 5.86577C13.9831 5.89471 13.8922 5.92867 13.8009 5.91113C13.7947 5.90993 13.7881 5.90861 13.7812 5.90733C13.716 5.89546 13.6234 5.87971 13.5336 5.84244C13.5315 5.84188 13.5293 5.84131 13.5272 5.84074C13.1936 5.89021 12.8628 5.94295 12.5368 6.00374C11.9986 6.10544 11.449 6.22741 11.0195 6.4139C10.8096 6.50559 10.6619 6.54524 10.5425 6.52949C10.5323 6.5291 10.522 6.52882 10.5115 6.52892C10.4347 6.57935 10.3598 6.61547 10.2862 6.63921C10.2494 6.65116 10.2129 6.65976 10.1766 6.66697C10.1544 6.67743 10.0552 6.66717 10.1267 6.74112C9.93278 6.68249 9.93311 6.65092 9.85709 6.57501C9.7979 6.50238 9.75312 6.40393 9.72814 6.28699C9.72721 6.25613 9.72835 6.22401 9.73173 6.19105C9.78464 5.75538 10.1059 5.44055 10.3976 5.26261C10.8857 4.97308 11.3489 4.80401 11.812 4.6464C11.8357 4.63642 11.8602 4.62642 11.8837 4.61697C12.0611 4.54602 12.2193 4.4603 12.3788 4.37641C12.4157 4.3571 12.4523 4.33796 12.4891 4.31919Z" fill="#042A21"/>
<path d="M23.7887 25.0255C23.8077 25.0253 23.8279 25.026 23.85 25.0277C23.9742 25.017 24.3555 25.0558 24.5767 25.0336C24.5811 25.0333 24.5855 25.033 24.5898 25.0326C24.6457 25.0285 24.6982 25.0204 24.7569 25.0089C24.8065 24.9991 24.862 24.9866 24.9196 24.972C24.966 24.9658 25.0734 24.9113 24.9872 24.9759C24.9673 24.9997 24.9821 25.013 25.0256 24.9659C25.0555 24.9108 25.0947 24.8129 25.1285 24.6971C25.1874 24.4979 25.2332 24.2515 25.2793 23.9792C25.3026 23.8641 25.2899 23.703 25.2487 23.5783C25.324 23.7277 25.3247 23.6582 25.2019 23.5774C25.353 23.6641 25.3281 23.6197 25.2755 23.6184C25.2199 23.6098 25.1287 23.6064 25.0299 23.6089C25.26 23.5634 25.1698 23.5338 25.0972 23.6195C25.0158 23.6954 24.9154 23.8192 24.8192 23.955C24.6252 24.2291 24.437 24.5531 24.2549 24.8839C24.2456 24.9036 24.2361 24.9238 24.2266 24.9444C24.1903 25.0221 24.1528 25.1037 24.1143 25.1881C24.0175 25.3975 23.9384 25.7807 23.8683 26.0371C23.7879 26.3315 23.7263 26.5715 23.672 26.7699C23.6512 26.8455 23.6319 26.9168 23.6139 26.9831C23.4448 27.8722 23.3116 28.7872 23.2177 29.6934C23.1684 30.1796 23.1428 30.6632 23.1592 31.1371C23.1743 31.5596 23.2233 31.9729 23.3289 32.3564C23.4129 32.6637 23.5315 32.936 23.6965 33.2344C23.7103 33.2593 23.7267 33.2839 23.7461 33.3087C23.8385 33.4046 23.9828 33.4894 24.1415 33.562C24.2942 33.6321 24.458 33.6925 24.6161 33.7573C24.6623 33.7742 24.7082 33.7883 24.7525 33.8009C24.9367 33.8583 25.2407 33.8872 25.372 33.8738C25.2794 33.8869 25.1813 34.0008 25.1953 34.0016C25.198 34.0092 25.2233 33.9584 25.239 33.9011C25.2523 33.8552 25.2636 33.8033 25.2726 33.7524C25.2964 33.4607 25.2868 33.1082 25.2797 32.7587C25.2815 32.7526 25.2832 32.7465 25.285 32.7403C25.2899 32.7343 25.2948 32.7286 25.2996 32.723C25.3449 32.6622 25.3783 32.6269 25.2137 32.4173C25.2099 32.4028 25.1383 32.3451 24.9874 32.3012C24.811 32.2475 24.5503 32.2106 24.2269 32.1858C24.0177 32.1701 23.9068 32.1347 23.8165 32.1048C23.7899 32.0961 23.7645 32.088 23.7393 32.0814C23.6516 32.0589 23.5588 32.081 23.4483 32.1076C23.3973 32.1199 23.3428 32.1332 23.283 32.1436C23.213 32.1628 23.1471 32.1779 23.0536 32.1807C22.8165 32.1912 22.6185 32.34 22.4989 32.4642C22.3757 32.5933 22.3121 32.7145 22.2587 32.818C22.2271 32.8793 22.199 32.9356 22.1653 32.9881C22.0542 33.1597 21.8454 33.3699 21.6721 33.5247C21.6154 33.5752 21.5487 33.6563 21.479 33.7534C21.3929 33.8745 21.3062 34.0364 21.2409 34.1792C21.199 34.2708 21.1258 34.386 21.0411 34.5248C20.9533 34.6684 20.8528 34.8379 20.7605 35.03C20.5279 35.5163 20.4019 35.7817 20.2958 35.995C20.2656 36.056 20.2371 36.1129 20.208 36.1704C20.1646 36.2561 20.114 36.3517 20.0557 36.455C19.9913 36.5689 19.9187 36.6902 19.839 36.8128C19.6581 37.0893 19.4348 37.3899 19.1419 37.6215C19.0103 37.7126 18.8452 37.7915 18.7427 37.8321C18.0331 38.1096 17.4474 38.036 16.9089 37.9648C16.7865 37.9461 16.6693 37.9163 16.5618 37.8782C16.5401 37.8759 16.4784 37.8585 16.4574 37.8527C16.3067 37.7767 16.1782 37.6817 16.0704 37.5692C16.0227 37.52 15.9694 37.4595 15.9336 37.4021C15.7658 37.1052 15.8456 36.9243 15.9581 36.8102C16.0758 36.6931 16.294 36.7061 16.4753 36.6948C16.5086 36.6907 16.5347 36.682 16.571 36.6798C16.6553 36.6753 16.7502 36.6782 16.8439 36.6831L16.7574 36.662C16.8563 36.6571 16.9569 36.6582 17.0563 36.6647C17.4871 36.6954 17.9273 36.6569 18.1564 36.5292C18.254 36.4804 18.2754 36.4617 18.326 36.4184C18.4788 36.2847 18.6826 35.9902 18.8589 35.6966C19.0296 35.4122 19.2048 35.0948 19.3851 34.7822C19.6447 34.3324 19.9087 33.8776 20.2207 33.4197C20.2532 33.3723 20.2859 33.3256 20.3202 33.2776C20.3752 33.1821 20.4333 33.0861 20.4972 32.9897C20.6791 32.7083 20.8604 32.4421 21.0143 32.2441C21.1798 32.031 21.3341 31.8942 21.4742 31.7782C21.571 31.6983 21.6599 31.6292 21.7485 31.5492C21.7962 31.5063 21.8617 31.4472 21.9494 31.3774C22.1749 31.1923 22.6755 30.8716 23.2817 30.8852C23.4589 30.8876 23.6422 30.8947 23.8238 30.9108C24.0755 30.9334 24.3725 30.9781 24.6696 31.0446C25.0904 31.1348 25.5287 31.299 25.7912 31.4688C25.885 31.5257 25.9844 31.6038 26.073 31.7088C26.2438 31.8809 26.5174 32.3576 26.4732 32.7531C26.4721 32.771 26.4709 32.7887 26.4697 32.8062C26.4498 33.1123 26.428 33.3902 26.4455 33.5554C26.4643 33.7551 26.4473 33.9217 26.3573 34.2212C26.3248 34.3188 26.288 34.4318 26.1933 34.5852C26.1094 34.7296 25.8836 34.9623 25.5869 35.0066C25.5511 35.0126 25.5189 35.0166 25.4868 35.0199C25.074 35.0512 24.8309 34.979 24.6108 34.9103C24.4415 34.8532 24.2997 34.7887 24.1499 34.7139C24.0565 34.6664 23.9518 34.6222 23.8201 34.5722C23.4936 34.451 23.1047 34.2309 22.8882 33.8967C22.8527 33.8428 22.8169 33.7838 22.7835 33.7196C22.7436 33.6425 22.6983 33.5578 22.6535 33.4677C22.5592 33.2798 22.4702 33.0689 22.4201 32.8683C22.3788 32.7038 22.3738 32.5606 22.3734 32.4377C22.373 32.3984 22.3736 32.3629 22.3733 32.3269C22.3453 32.2005 22.3213 32.0716 22.3013 31.9456C22.293 31.9253 22.2842 31.9047 22.2753 31.8832C22.2299 31.7728 22.1771 31.6382 22.1445 31.465C22.0934 31.1929 22.1031 30.9506 22.1205 30.7001C22.1343 30.5056 22.1533 30.3028 22.1575 30.0731C22.1601 29.9344 22.1581 29.7781 22.158 29.6182C22.1579 29.5993 22.1578 29.5802 22.1578 29.5611C22.1574 29.3015 22.1604 29.046 22.1885 28.8707C22.199 28.8052 22.2244 28.7502 22.2496 28.696C22.2497 28.6958 22.2499 28.6955 22.25 28.6953C22.2517 28.6916 22.2534 28.6879 22.2551 28.6842C22.281 28.2544 22.3112 27.8248 22.3478 27.3942C22.3475 27.3562 22.3472 27.3182 22.3471 27.2803C22.3465 27.095 22.3478 26.9147 22.3315 26.7936C22.3245 26.7417 22.3244 26.6595 22.3295 26.5584C22.3368 26.4077 22.354 26.2151 22.3751 26.0113C22.398 25.79 22.4263 25.5562 22.452 25.3542C22.467 25.2357 22.5157 25.1277 22.5715 25.0152C22.6241 24.9094 22.6818 24.8008 22.7323 24.6677C22.7461 24.6314 22.7599 24.5924 22.7749 24.5514C22.7837 24.5249 22.7923 24.4975 22.8011 24.4694C22.818 24.4155 22.8368 24.3569 22.8595 24.2984C22.8811 24.2432 22.948 24.1316 23.0378 23.9874C23.0934 23.8978 23.1573 23.797 23.2247 23.6899C23.3746 23.389 23.5328 23.0879 23.7591 22.7738C23.7949 22.698 23.8237 22.6269 23.8422 22.5604C23.8553 22.5129 23.8626 22.4668 23.8728 22.418C23.8863 22.3525 23.9036 22.2821 23.9572 22.1959C23.9977 22.1294 24.0715 22.0606 24.1365 22.0287C24.1657 22.0143 24.1942 22.0062 24.2188 22.0001C24.2474 21.9929 24.2721 21.9875 24.301 21.9713C24.3216 21.9599 24.3405 21.9429 24.3653 21.9225C24.4065 21.8897 24.4609 21.8459 24.5753 21.8093C24.673 21.7784 24.7885 21.754 24.9136 21.7465C25.064 21.7382 25.2346 21.7353 25.4424 21.7568C25.6517 21.7859 25.9128 21.8065 26.2673 22.0391C26.3189 22.075 26.3736 22.1139 26.4284 22.1551C26.565 22.2665 26.823 22.4593 26.9927 22.9215C27.0232 23.0191 27.0462 23.1155 27.064 23.2122C27.1089 23.4546 27.1181 23.7011 27.1072 23.9156C27.1017 24.0299 27.094 24.1473 27.0799 24.2661C27.0736 24.3305 27.0687 24.3971 27.0631 24.4641C27.0485 24.6403 27.0282 24.8214 26.9709 24.9737C26.9593 25.0045 26.9253 25.0383 26.8819 25.0802C26.8511 25.11 26.8154 25.144 26.7792 25.1842C26.7185 25.3872 26.6409 25.6023 26.5062 25.8321C26.5044 25.8419 26.5026 25.8519 26.5005 25.8622C26.5005 25.8624 26.5004 25.8626 26.5004 25.8628C26.4656 26.0257 26.4022 26.2729 26.1105 26.5082C25.9598 26.622 25.842 26.6692 25.721 26.701C25.6127 26.7274 25.5459 26.7168 25.4858 26.7076C25.4275 26.6979 25.3775 26.6877 25.3137 26.6997C25.2419 26.713 25.1635 26.7488 25.0776 26.7844C24.9574 26.8344 24.82 26.8844 24.6752 26.8731C24.6653 26.8724 24.6546 26.8715 24.6437 26.8706C24.5393 26.8622 24.3846 26.8449 24.2322 26.7891C23.9587 26.7794 23.6758 26.7459 23.3717 26.6464C23.2187 26.5945 23.0504 26.5284 22.8954 26.4532C22.2689 26.1468 21.7905 25.7347 21.35 25.3162C21.3195 25.2874 21.2898 25.2581 21.2609 25.2284C20.9985 24.9584 20.8605 24.6176 20.8571 24.338C20.8504 24.0572 20.9849 23.8587 21.1486 23.8546C21.3105 23.8444 21.4652 23.8612 21.6428 23.945C21.819 24.027 21.9979 24.1508 22.1566 24.2744C22.1741 24.2882 22.1919 24.3015 22.2098 24.3144C22.5441 24.566 22.888 24.7915 23.2201 24.9475C23.2397 24.9545 23.2592 24.9614 23.2785 24.9682C23.4224 25.0188 23.5593 25.0285 23.6934 25.0269C23.7247 25.0268 23.756 25.026 23.7887 25.0255Z" fill="#042A21"/>
<circle cx="12.1655" cy="9.41715" r="0.345327" transform="rotate(38.0524 12.1655 9.41715)" fill="#042A21"/>
<path d="M12.4633 10.1817C12.4392 10.2336 12.3538 10.2414 12.3097 10.2393C12.3089 10.2393 12.308 10.2393 12.3072 10.2393C12.2966 10.239 12.2869 10.24 12.2754 10.2409C12.2485 10.2427 12.2096 10.2466 12.1352 10.2197C12.1134 10.2198 12.0916 10.2186 12.0699 10.216C11.9246 10.1993 11.7861 10.1271 11.6887 10.0263C11.6285 9.96476 11.5807 9.89166 11.5486 9.81465C11.547 9.81247 11.5453 9.81025 11.5437 9.80799C11.5111 9.76474 11.4778 9.7039 11.4778 9.65956C11.4773 9.60352 11.4867 9.56613 11.4959 9.53651C11.4988 9.37519 11.5559 9.22987 11.6367 9.11304C11.6533 9.089 11.6707 9.06617 11.689 9.04416C11.6988 9.0324 11.7087 9.02102 11.7191 9.00968C11.7463 8.97978 11.7759 8.95158 11.8076 8.92559C11.8219 8.90476 11.8361 8.88381 11.8506 8.86486C11.8709 8.83824 11.8921 8.8156 11.9126 8.8031C11.9622 8.77239 12.0306 8.77022 12.0779 8.77498C12.0857 8.77567 12.093 8.77648 12.0997 8.77722C12.1358 8.76819 12.1731 8.76184 12.2113 8.75868C12.2136 8.76206 12.2159 8.76559 12.2182 8.76923C12.2461 8.81481 12.2806 8.81797 12.3369 8.83323C12.3611 8.83999 12.3891 8.84937 12.419 8.86654C12.4383 8.87772 12.4402 8.89825 12.4412 8.91457C12.4415 8.91939 12.4417 8.9239 12.4423 8.92776C12.4442 8.94096 12.457 8.93531 12.4732 8.92953C12.4937 8.9218 12.5207 8.91453 12.527 8.94321C12.5277 8.94648 12.5284 8.94962 12.5291 8.95262C12.546 9.03193 12.5877 9.02287 12.627 9.02168C12.6385 9.02112 12.6491 9.02099 12.6569 9.02345C12.6825 9.03143 12.6898 9.06715 12.6845 9.0972C12.6806 9.12099 12.7112 9.14371 12.7412 9.16208C12.7525 9.16889 12.7585 9.18259 12.7646 9.19888C12.771 9.2158 12.7774 9.23534 12.7914 9.255C12.8263 9.30525 12.8396 9.3369 12.8502 9.36172C12.8532 9.36889 12.8558 9.37564 12.8584 9.38245C12.8667 9.40397 12.8729 9.4316 12.8771 9.46024C12.8822 9.49451 12.8845 9.53019 12.8888 9.55865C12.8652 9.62583 12.8298 9.68763 12.7876 9.7411C12.7658 9.76888 12.7163 9.77762 12.6547 9.75936C12.5928 9.74134 12.5249 9.69871 12.4602 9.64784C12.3955 9.59694 12.3369 9.54296 12.2898 9.50384C12.2431 9.46432 12.2124 9.44344 12.2075 9.43861C12.198 9.42851 12.186 9.42214 12.1759 9.41937C12.1636 9.41583 12.1545 9.41781 12.1548 9.41895C12.1549 9.41968 12.1571 9.42007 12.1606 9.4191C12.1609 9.419 12.1613 9.41887 12.1617 9.41875C12.1435 9.42788 12.1298 9.44098 12.1262 9.44709C12.1232 9.4522 12.1328 9.44669 12.1402 9.44102C12.1453 9.43718 12.1495 9.43346 12.1492 9.43434C12.149 9.43482 12.1483 9.43591 12.1475 9.43724C12.1463 9.43936 12.1449 9.44216 12.1445 9.44398C12.1438 9.44677 12.1466 9.4476 12.1537 9.43769C12.1588 9.43053 12.167 9.41516 12.1723 9.39949C12.1803 9.37717 12.1819 9.35462 12.1787 9.36086C12.1734 9.37186 12.173 9.36161 12.1699 9.35246C12.1673 9.34376 12.163 9.33643 12.1621 9.35023C12.161 9.36672 12.1598 9.36011 12.1557 9.35068C12.153 9.34415 12.1489 9.33632 12.1444 9.33397C12.1393 9.33124 12.1326 9.32137 12.126 9.31342C12.1169 9.30215 12.1077 9.29493 12.1115 9.31441C12.1158 9.33601 12.1203 9.34924 12.1134 9.34601C12.1102 9.34458 12.109 9.34644 12.1079 9.34837C12.1064 9.35095 12.1053 9.3535 12.0979 9.3502C12.0918 9.34747 12.0786 9.33827 12.0662 9.33088C12.0624 9.32856 12.0587 9.32641 12.0554 9.32462C12.0544 9.32596 12.0535 9.32734 12.0526 9.32877C12.052 9.32984 12.0513 9.33093 12.0508 9.33203C12.0526 9.33394 12.0546 9.33601 12.0567 9.33813C12.0672 9.34878 12.0807 9.36105 12.087 9.36792C12.0971 9.37874 12.0883 9.37624 12.078 9.37564C12.0701 9.375 12.0616 9.37536 12.0628 9.38003C12.0637 9.38318 12.069 9.38804 12.0746 9.3922C12.0828 9.39853 12.0916 9.40303 12.0853 9.4043C12.083 9.40478 12.0729 9.40412 12.0629 9.4038C12.0628 9.4038 12.0628 9.4038 12.0627 9.40379C12.062 9.40377 12.0614 9.40375 12.0607 9.40373C12.0674 9.41193 12.0758 9.41879 12.0851 9.42372C12.0877 9.424 12.0903 9.42424 12.0928 9.42443C12.1052 9.42539 12.1173 9.42524 12.134 9.42289C12.1521 9.42041 12.1627 9.41876 12.1733 9.41505C12.1803 9.41264 12.1872 9.4094 12.1962 9.40452C12.2014 9.40162 12.1916 9.40511 12.1819 9.40951C12.1728 9.41353 12.1637 9.41831 12.166 9.4171C12.1671 9.41647 12.1708 9.41435 12.1747 9.41191C12.1781 9.40978 12.1817 9.4074 12.1837 9.40581C12.1857 9.40434 12.1806 9.40681 12.1745 9.41065C12.1708 9.41301 12.1667 9.41589 12.1634 9.41845C12.1685 9.41445 12.1727 9.40986 12.1761 9.40517C12.1822 9.39842 12.1899 9.38951 12.1996 9.37792C12.2065 9.36961 12.2148 9.35962 12.2231 9.3493C12.2344 9.33525 12.2459 9.32052 12.2543 9.30827C12.261 9.2987 12.2628 9.29427 12.2593 9.29758C12.2591 9.29773 12.2589 9.2979 12.2587 9.29808C12.257 9.29974 12.2545 9.30258 12.2522 9.30518C12.2493 9.30848 12.2468 9.31144 12.2466 9.31118C12.2465 9.31099 12.2482 9.30839 12.2503 9.30523C12.2536 9.30018 12.2577 9.29359 12.2571 9.29279C12.2548 9.28985 12.2499 9.2895 12.2452 9.28947C12.2399 9.28939 12.2349 9.28966 12.2329 9.28601C12.2305 9.28187 12.2202 9.28983 12.2115 9.29884C12.2054 9.30508 12.2 9.31169 12.1967 9.31411C12.1934 9.31648 12.1928 9.30971 12.1916 9.30304C12.1903 9.29505 12.1879 9.28726 12.1837 9.29685C12.1828 9.2988 12.1803 9.31108 12.1776 9.3265C12.1756 9.33743 12.1736 9.34995 12.1718 9.36151C12.1703 9.36133 12.1687 9.36172 12.1672 9.36262C12.1672 9.36092 12.1672 9.3592 12.1672 9.35743C12.1672 9.35739 12.1672 9.35735 12.1672 9.35731C12.1679 9.31748 12.1615 9.26296 12.1575 9.29576C12.1567 9.30409 12.1572 9.31935 12.1579 9.33307C12.1586 9.34654 12.1595 9.35857 12.1594 9.36114C12.1592 9.36405 12.1577 9.35589 12.1556 9.34709C12.1528 9.33472 12.1484 9.32113 12.1494 9.33435C12.1494 9.33525 12.1495 9.33624 12.1496 9.33723C12.1504 9.3466 12.1518 9.36048 12.1582 9.3876C12.1584 9.39522 12.1602 9.40391 12.1638 9.4127C12.1698 9.42736 12.1811 9.4422 12.1966 9.45266C12.204 9.45796 12.2325 9.48323 12.2819 9.51888C12.3311 9.55498 12.3965 9.59819 12.4602 9.64784C12.5239 9.69745 12.5806 9.75214 12.6133 9.80731C12.646 9.86221 12.6509 9.91239 12.6313 9.94157C12.5998 9.98881 12.5611 10.0336 12.5158 10.0728C12.5139 10.0757 12.5119 10.0785 12.5099 10.0813C12.4948 10.1018 12.4848 10.1315 12.4723 10.1613C12.4695 10.1682 12.4665 10.175 12.4633 10.1817Z" fill="#042A21"/>
<path d="M14.5229 10.1694C14.4764 10.3544 14.2911 10.7681 14.1061 10.7217C13.9212 10.6752 13.8089 10.4876 13.8554 10.3026C13.9019 10.1176 14.0895 10.0054 14.2745 10.0518C14.4594 10.0983 14.5694 9.98444 14.5229 10.1694Z" fill="#042A21"/>
<path d="M14.9002 10.5291C14.9272 10.5649 14.8945 10.5994 14.8762 10.6174C14.8759 10.6177 14.8756 10.618 14.8752 10.6184C14.8709 10.6227 14.8681 10.6274 14.8647 10.6329C14.8567 10.646 14.846 10.6641 14.8034 10.6911C14.7981 10.7028 14.7922 10.7143 14.7857 10.7257C14.7039 10.845 14.6341 10.9747 14.3179 11.0804C14.3139 11.0821 14.3098 11.0838 14.3056 11.0855C14.2307 11.1196 14.09 11.1316 14.0121 11.0958C14.0102 11.0947 14.0084 11.0936 14.0066 11.0924C13.9602 11.0616 13.934 11.0328 13.9144 11.0085C13.7804 10.915 13.6928 10.7851 13.6415 10.6531C13.6253 10.6114 13.6123 10.569 13.602 10.5259C13.5926 10.4862 13.586 10.4457 13.5825 10.4046C13.5734 10.3809 13.5641 10.3574 13.5567 10.3346C13.5463 10.3027 13.5395 10.2724 13.5408 10.2486C13.5412 10.2405 13.5422 10.2324 13.5438 10.2243C13.5534 10.1745 13.5846 10.1275 13.6111 10.0957C13.6161 10.0896 13.6209 10.084 13.6254 10.0788C13.6386 10.0436 13.6547 10.0089 13.674 9.97541C13.6781 9.97543 13.6823 9.97555 13.6866 9.97574C13.7401 9.97848 13.7625 9.95175 13.807 9.91415C13.8264 9.89805 13.85 9.88037 13.881 9.86554C13.9011 9.85601 13.9192 9.86602 13.9331 9.87448C13.9373 9.87698 13.9411 9.87934 13.9446 9.88107C13.9566 9.887 13.9593 9.87317 13.9636 9.85661C13.969 9.83528 13.9784 9.80888 14.0059 9.81988C14.0897 9.85709 14.1057 9.81648 14.1283 9.78216C14.1344 9.77237 14.1404 9.76361 14.1469 9.75857C14.1682 9.7421 14.2018 9.75648 14.2235 9.77803C14.2409 9.79482 14.2771 9.78263 14.3093 9.7685C14.3196 9.76385 14.3318 9.7653 14.3457 9.76849C14.346 9.76853 14.3464 9.76859 14.3467 9.76865C14.3492 9.76907 14.3524 9.76954 14.3568 9.76156C14.3676 9.7413 14.3716 9.73078 14.3758 9.72251C14.377 9.72014 14.3781 9.71797 14.3793 9.71569C14.383 9.70849 14.388 9.70244 14.3961 9.69594C14.4057 9.68821 14.4204 9.67952 14.4423 9.66846C14.4756 9.6782 14.5035 9.6529 14.6749 9.72503C14.764 9.7633 14.8597 9.88636 14.8761 9.96293C14.8983 10.0417 14.8924 10.0833 14.8894 10.1151C14.8803 10.1783 14.8362 10.1982 14.7732 10.2043C14.7098 10.2088 14.6308 10.1965 14.551 10.1765C14.4711 10.1564 14.3959 10.1298 14.3378 10.1101C14.28 10.0909 14.2431 10.0769 14.2354 10.0988C14.2327 10.1109 14.2256 10.1312 14.2412 10.1872C14.2516 10.2424 14.3329 10.3351 14.3911 10.3561C14.5018 10.3981 14.4883 10.3835 14.4845 10.3936C14.46 10.4081 14.3807 10.4245 14.3062 10.4172C14.2672 10.4138 14.2271 10.4061 14.1884 10.3944C14.1886 10.3937 14.1888 10.3929 14.189 10.392C14.1891 10.3916 14.1892 10.3912 14.1893 10.3908C14.1862 10.4109 14.1891 10.4297 14.1921 10.4361C14.1946 10.4415 14.1956 10.4305 14.1951 10.4212C14.1949 10.4148 14.1943 10.4092 14.1949 10.41C14.1952 10.4104 14.1957 10.4116 14.1964 10.413C14.1988 10.4188 14.2077 10.4268 14.2011 10.4079C14.198 10.3997 14.1898 10.3843 14.1797 10.3712C14.1656 10.3521 14.1479 10.3381 14.1511 10.3443C14.1571 10.355 14.1484 10.3495 14.1392 10.3467C14.1306 10.3439 14.1222 10.3431 14.1331 10.3517C14.1462 10.3618 14.1401 10.3589 14.13 10.3569C14.1231 10.3553 14.1144 10.3542 14.1099 10.3566C14.1052 10.3591 14.0947 10.3593 14.085 10.3603C14.0841 10.3604 14.0833 10.3604 14.0825 10.3605C14.068 10.3619 14.0568 10.3655 14.075 10.3735C14.0953 10.3822 14.1087 10.386 14.1021 10.3899C14.0992 10.3918 14.1 10.3938 14.101 10.3958C14.1023 10.3984 14.1037 10.4008 14.0968 10.405C14.0912 10.4085 14.0761 10.4142 14.063 10.4202C14.059 10.422 14.0551 10.4238 14.0517 10.4256C14.0527 10.4282 14.0538 10.4308 14.0552 10.4334C14.0578 10.4329 14.0606 10.4324 14.0636 10.4319C14.0783 10.4292 14.096 10.4248 14.1052 10.4235C14.1198 10.4212 14.1129 10.4272 14.1067 10.4355C14.1018 10.4417 14.0973 10.4491 14.102 10.4508C14.1051 10.452 14.1122 10.4504 14.1188 10.4482C14.1288 10.445 14.1375 10.4403 14.135 10.4462C14.1341 10.4485 14.1279 10.4564 14.122 10.4645C14.1219 10.4645 14.1219 10.4646 14.1218 10.4646C14.1214 10.4652 14.121 10.4657 14.1207 10.4663C14.1312 10.4653 14.1414 10.4621 14.1505 10.457C14.1522 10.455 14.1538 10.453 14.1554 10.451C14.163 10.4412 14.1696 10.4311 14.1769 10.4159C14.185 10.3995 14.1894 10.3897 14.1924 10.3789C14.1933 10.3757 14.1941 10.3725 14.1948 10.3689C14.183 10.3614 14.1705 10.3545 14.1588 10.3478C14.1461 10.3407 14.1328 10.3509 14.1221 10.3622C14.112 10.3727 14.104 10.384 14.0942 10.3833C14.0893 10.3829 14.0836 10.3798 14.0774 10.3767C14.072 10.374 14.066 10.3713 14.0609 10.3703C14.0562 10.3693 14.0488 10.378 14.0444 10.388C14.0417 10.3942 14.0396 10.401 14.0386 10.4063C14.027 10.4058 14.0205 10.4035 14.0165 10.3993C14.0104 10.3926 14.0025 10.3838 13.9922 10.3728C13.9848 10.3649 13.9758 10.3555 13.9666 10.346C13.954 10.3331 13.9408 10.3199 13.9301 10.3097C13.9217 10.3017 13.918 10.2988 13.9213 10.3023C13.9229 10.3039 13.9259 10.3069 13.9286 10.3096C13.9317 10.3127 13.9345 10.3155 13.9344 10.3154C13.9343 10.3154 13.932 10.3132 13.9293 10.3106C13.9249 10.3065 13.9192 10.3013 13.919 10.3011C13.918 10.3007 13.9202 10.3019 13.923 10.3024C13.9261 10.303 13.9297 10.3027 13.9293 10.2994C13.9288 10.2958 13.9406 10.2993 13.9533 10.3012C13.9621 10.3026 13.9713 10.3033 13.9762 10.3018C13.981 10.3002 13.978 10.2931 13.9749 10.2862C13.9712 10.278 13.9675 10.2701 13.9785 10.2714C13.9807 10.2716 13.9921 10.277 14.0064 10.2836C14.0165 10.2882 14.0281 10.2935 14.0389 10.298C14.0421 10.2925 14.0457 10.2871 14.0497 10.2818C14.0483 10.2808 14.0469 10.2797 14.0455 10.2787C14.0454 10.2787 14.0454 10.2786 14.0454 10.2786C14.013 10.2548 13.9678 10.2238 14.0013 10.2297C14.0098 10.2312 14.0241 10.2365 14.0371 10.2413C14.0498 10.246 14.0612 10.2501 14.0644 10.2495C14.068 10.2487 14.0618 10.2425 14.055 10.236C14.0454 10.2267 14.0346 10.2166 14.0484 10.218C14.0494 10.2181 14.0504 10.2182 14.0515 10.2183C14.0614 10.2193 14.076 10.2206 14.1035 10.2273C14.1167 10.2162 14.1309 10.2053 14.1457 10.194C14.1704 10.1755 14.1966 10.1565 14.2217 10.1377C14.234 10.1285 14.2735 10.1287 14.3344 10.1363C14.3954 10.1435 14.4726 10.1569 14.551 10.1765C14.6293 10.1961 14.7034 10.222 14.7577 10.2535C14.8123 10.2839 14.8424 10.3159 14.8441 10.3393C14.8468 10.3774 14.8487 10.4142 14.8486 10.451C14.8495 10.4533 14.8503 10.4555 14.8511 10.4578C14.8567 10.4745 14.8732 10.4943 14.8892 10.515C14.8929 10.5197 14.8966 10.5244 14.9002 10.5291Z" fill="#042A21"/>
<circle cx="12.6502" cy="12.5637" r="0.345327" transform="rotate(176.568 12.6502 12.5637)" fill="#042A21"/>
<path d="M11.9207 12.1882C11.9044 12.1333 11.9632 12.0709 11.9977 12.0433C11.9983 12.0427 11.9989 12.0422 11.9995 12.0417C12.0076 12.0348 12.0143 12.0277 12.0222 12.0194C12.0412 12.0002 12.0678 11.9715 12.1414 11.9423C12.1576 11.9278 12.1747 11.9143 12.1927 11.9019C12.3126 11.8182 12.4642 11.7805 12.6039 11.7915C12.6898 11.7977 12.774 11.8208 12.8491 11.8572C12.8517 11.8578 12.8545 11.8584 12.8572 11.859C12.9103 11.8698 12.9755 11.8933 13.0049 11.9265C13.0424 11.9682 13.0601 12.0024 13.0728 12.0307C13.1775 12.1535 13.231 12.3002 13.2479 12.4412C13.2514 12.4702 13.2534 12.4988 13.2543 12.5274C13.2547 12.5427 13.2548 12.5578 13.2546 12.5732C13.254 12.6136 13.2506 12.6543 13.244 12.6948C13.2471 12.7199 13.2503 12.745 13.252 12.7688C13.2544 12.8022 13.2536 12.8332 13.2465 12.8561C13.2297 12.912 13.1799 12.9589 13.1413 12.9867C13.135 12.9913 13.129 12.9956 13.1234 12.9995C13.1024 13.0301 13.0786 13.0596 13.0521 13.0873C13.0482 13.0863 13.0441 13.0851 13.04 13.0839C12.9889 13.0683 12.9609 13.0888 12.9087 13.1146C12.886 13.1256 12.8589 13.1371 12.8251 13.144C12.8032 13.1485 12.7882 13.1344 12.7766 13.1228C12.7732 13.1194 12.7701 13.1162 12.7671 13.1136C12.7569 13.105 12.751 13.1177 12.7428 13.1327C12.7325 13.1521 12.7171 13.1755 12.6934 13.1582C12.6907 13.1562 12.6881 13.1543 12.6856 13.1525C12.6204 13.1043 12.5951 13.1387 12.5665 13.1656C12.5583 13.1736 12.5504 13.1808 12.5429 13.1841C12.5185 13.1951 12.4893 13.1732 12.4734 13.1471C12.4606 13.1267 12.4226 13.13 12.388 13.1361C12.3749 13.1385 12.3614 13.1322 12.346 13.124C12.3301 13.1156 12.3123 13.1052 12.2888 13.0997C12.2294 13.0852 12.1985 13.0703 12.174 13.0587C12.167 13.0554 12.1606 13.052 12.1541 13.0487C12.1337 13.038 12.1108 13.0214 12.0886 13.0027C12.0621 12.9805 12.0367 12.9553 12.0147 12.9367C11.9878 12.8708 11.9734 12.8011 11.9696 12.7331C11.9675 12.6978 11.9988 12.6585 12.0571 12.6313C12.1154 12.6039 12.1945 12.5908 12.2767 12.5861C12.3589 12.5813 12.4386 12.5829 12.4997 12.5811C12.5608 12.5797 12.5977 12.575 12.6046 12.5754C12.6184 12.5767 12.6316 12.5735 12.641 12.5689C12.6526 12.5634 12.658 12.5559 12.6571 12.5552C12.6565 12.5547 12.6546 12.5559 12.6527 12.5589C12.6525 12.5592 12.6523 12.5596 12.6521 12.5599C12.6596 12.541 12.6612 12.5221 12.6599 12.5152C12.6587 12.5094 12.6552 12.5199 12.6534 12.529C12.6521 12.5353 12.6514 12.5409 12.6511 12.5399C12.6509 12.5395 12.6507 12.5382 12.6504 12.5367C12.6499 12.5343 12.6491 12.5313 12.6482 12.5297C12.6469 12.5271 12.6443 12.5283 12.6455 12.5404C12.6464 12.5492 12.6504 12.5661 12.6568 12.5814C12.6656 12.6034 12.6794 12.6214 12.6777 12.6146C12.6743 12.6028 12.6814 12.6102 12.6898 12.615C12.6975 12.6198 12.7056 12.6225 12.6972 12.6115C12.687 12.5985 12.6923 12.6026 12.7016 12.607C12.708 12.6101 12.7162 12.6132 12.7212 12.612C12.7268 12.6107 12.7383 12.6136 12.7486 12.6152C12.7628 12.6176 12.7745 12.6169 12.7588 12.6048C12.7412 12.5915 12.7291 12.5846 12.7364 12.5824C12.7398 12.5814 12.7394 12.5792 12.739 12.577C12.7383 12.5741 12.7376 12.5714 12.7453 12.569C12.7516 12.567 12.7676 12.5651 12.7818 12.5625C12.7862 12.5617 12.7904 12.5609 12.7941 12.56C12.7939 12.5584 12.7937 12.5567 12.7934 12.5551C12.7932 12.5538 12.7929 12.5526 12.7926 12.5514C12.79 12.5512 12.7871 12.551 12.7841 12.5508C12.7692 12.5497 12.751 12.5495 12.7417 12.5485C12.727 12.5471 12.7352 12.5431 12.7433 12.5368C12.7496 12.532 12.7558 12.5261 12.7518 12.5234C12.749 12.5216 12.7418 12.5215 12.7349 12.5221C12.7245 12.5228 12.715 12.5253 12.7188 12.5202C12.7203 12.5182 12.7283 12.5121 12.736 12.5057C12.736 12.5056 12.7361 12.5056 12.7361 12.5056C12.7366 12.5051 12.7372 12.5047 12.7377 12.5043C12.7272 12.5026 12.7164 12.503 12.7061 12.5055C12.704 12.507 12.7019 12.5085 12.6999 12.5101C12.69 12.5176 12.681 12.5256 12.6701 12.5385C12.6581 12.5524 12.6513 12.5606 12.6458 12.5704C12.6422 12.5768 12.6391 12.5838 12.6357 12.5934C12.6337 12.5991 12.6387 12.59 12.643 12.5802C12.6472 12.5712 12.6508 12.5616 12.6499 12.564C12.6495 12.5652 12.6482 12.5692 12.6469 12.5736C12.6457 12.5775 12.6446 12.5817 12.6441 12.5842C12.6436 12.5866 12.6458 12.5814 12.6478 12.5745C12.6491 12.5702 12.6502 12.5654 12.651 12.5613C12.6498 12.5676 12.6497 12.5739 12.6503 12.5797C12.6502 12.5887 12.6503 12.6005 12.6507 12.6156C12.651 12.6264 12.6514 12.6394 12.652 12.6526C12.6529 12.6707 12.6541 12.6893 12.6558 12.7041C12.6572 12.7156 12.6587 12.7202 12.6592 12.7153C12.6593 12.7151 12.6593 12.7149 12.6593 12.7146C12.6595 12.7122 12.6595 12.7084 12.6595 12.705C12.6594 12.7006 12.6594 12.6967 12.6597 12.6968C12.6599 12.6968 12.6603 12.6999 12.6609 12.7037C12.6618 12.7096 12.663 12.7173 12.664 12.7175C12.6677 12.7182 12.6716 12.7152 12.6751 12.7121C12.6792 12.7086 12.6827 12.7051 12.6867 12.7065C12.6912 12.708 12.6936 12.6952 12.6942 12.6828C12.6946 12.674 12.6943 12.6655 12.6952 12.6615C12.696 12.6576 12.701 12.6622 12.7063 12.6664C12.7126 12.6715 12.7195 12.6758 12.7163 12.6658C12.7157 12.6638 12.7094 12.6529 12.7013 12.6395C12.6955 12.6301 12.6887 12.6193 12.6824 12.6095C12.6837 12.6086 12.6846 12.6073 12.6851 12.6056C12.6862 12.6069 12.6874 12.6082 12.6886 12.6095C12.6886 12.6095 12.6886 12.6096 12.6886 12.6096C12.7145 12.6399 12.7554 12.6765 12.7367 12.6493C12.7317 12.6425 12.7212 12.6314 12.7116 12.6216C12.7022 12.612 12.6935 12.6036 12.692 12.6015C12.6902 12.5993 12.6967 12.6044 12.7041 12.6096C12.7143 12.617 12.7266 12.6243 12.7172 12.615C12.7165 12.6144 12.7158 12.6137 12.7151 12.613C12.7083 12.6065 12.698 12.597 12.6753 12.5809C12.6701 12.5754 12.663 12.57 12.6545 12.5659C12.6403 12.5589 12.622 12.5552 12.6035 12.5576C12.5944 12.5585 12.5563 12.5585 12.4956 12.5646C12.4349 12.5701 12.3573 12.5811 12.2767 12.5861C12.1961 12.5911 12.1174 12.5877 12.0564 12.568C11.9955 12.5485 11.9586 12.5142 11.9539 12.4794C11.9463 12.4231 11.9456 12.3639 11.9536 12.3046C11.9531 12.3011 11.9526 12.2976 11.9523 12.2942C11.95 12.2689 11.9378 12.24 11.9275 12.2094C11.9251 12.2024 11.9228 12.1953 11.9207 12.1882Z" fill="#042A21"/>
<circle cx="12.1655" cy="9.41715" r="0.345327" transform="rotate(38.0524 12.1655 9.41715)" fill="#042A21"/>
<path d="M12.4633 10.1817C12.4392 10.2336 12.3538 10.2414 12.3097 10.2393C12.3089 10.2393 12.308 10.2393 12.3072 10.2393C12.2966 10.239 12.2869 10.24 12.2754 10.2409C12.2485 10.2427 12.2096 10.2466 12.1352 10.2197C12.1134 10.2198 12.0916 10.2186 12.0699 10.216C11.9246 10.1993 11.7861 10.1271 11.6887 10.0263C11.6285 9.96476 11.5807 9.89166 11.5486 9.81465C11.547 9.81247 11.5453 9.81025 11.5437 9.80799C11.5111 9.76474 11.4778 9.7039 11.4778 9.65956C11.4773 9.60352 11.4867 9.56613 11.4959 9.53651C11.4988 9.37519 11.5559 9.22987 11.6367 9.11304C11.6533 9.089 11.6707 9.06617 11.689 9.04416C11.6988 9.0324 11.7087 9.02102 11.7191 9.00968C11.7463 8.97978 11.7759 8.95158 11.8076 8.92559C11.8219 8.90476 11.8361 8.88381 11.8506 8.86486C11.8709 8.83824 11.8921 8.8156 11.9126 8.8031C11.9622 8.77239 12.0306 8.77022 12.0779 8.77498C12.0857 8.77567 12.093 8.77648 12.0997 8.77722C12.1358 8.76819 12.1731 8.76184 12.2113 8.75868C12.2136 8.76206 12.2159 8.76559 12.2182 8.76923C12.2461 8.81481 12.2806 8.81797 12.3369 8.83323C12.3611 8.83999 12.3891 8.84937 12.419 8.86654C12.4383 8.87772 12.4402 8.89825 12.4412 8.91457C12.4415 8.91939 12.4417 8.9239 12.4423 8.92776C12.4442 8.94096 12.457 8.93531 12.4732 8.92953C12.4937 8.9218 12.5207 8.91453 12.527 8.94321C12.5277 8.94648 12.5284 8.94962 12.5291 8.95262C12.546 9.03193 12.5877 9.02287 12.627 9.02168C12.6385 9.02112 12.6491 9.02099 12.6569 9.02345C12.6825 9.03143 12.6898 9.06715 12.6845 9.0972C12.6806 9.12099 12.7112 9.14371 12.7412 9.16208C12.7525 9.16889 12.7585 9.18259 12.7646 9.19888C12.771 9.2158 12.7774 9.23534 12.7914 9.255C12.8263 9.30525 12.8396 9.3369 12.8502 9.36172C12.8532 9.36889 12.8558 9.37564 12.8584 9.38245C12.8667 9.40397 12.8729 9.4316 12.8771 9.46024C12.8822 9.49451 12.8845 9.53019 12.8888 9.55865C12.8652 9.62583 12.8298 9.68763 12.7876 9.7411C12.7658 9.76888 12.7163 9.77762 12.6547 9.75936C12.5928 9.74134 12.5249 9.69871 12.4602 9.64784C12.3955 9.59694 12.3369 9.54296 12.2898 9.50384C12.2431 9.46432 12.2124 9.44344 12.2075 9.43861C12.198 9.42851 12.186 9.42214 12.1759 9.41937C12.1636 9.41583 12.1545 9.41781 12.1548 9.41895C12.1549 9.41968 12.1571 9.42007 12.1606 9.4191C12.1609 9.419 12.1613 9.41887 12.1617 9.41875C12.1435 9.42788 12.1298 9.44098 12.1262 9.44709C12.1232 9.4522 12.1328 9.44669 12.1402 9.44102C12.1453 9.43718 12.1495 9.43346 12.1492 9.43434C12.149 9.43482 12.1483 9.43591 12.1475 9.43724C12.1463 9.43936 12.1449 9.44216 12.1445 9.44398C12.1438 9.44677 12.1466 9.4476 12.1537 9.43769C12.1588 9.43053 12.167 9.41516 12.1723 9.39949C12.1803 9.37717 12.1819 9.35462 12.1787 9.36086C12.1734 9.37186 12.173 9.36161 12.1699 9.35246C12.1673 9.34376 12.163 9.33643 12.1621 9.35023C12.161 9.36672 12.1598 9.36011 12.1557 9.35068C12.153 9.34415 12.1489 9.33632 12.1444 9.33397C12.1393 9.33124 12.1326 9.32137 12.126 9.31342C12.1169 9.30215 12.1077 9.29493 12.1115 9.31441C12.1158 9.33601 12.1203 9.34924 12.1134 9.34601C12.1102 9.34458 12.109 9.34644 12.1079 9.34837C12.1064 9.35095 12.1053 9.3535 12.0979 9.3502C12.0918 9.34747 12.0786 9.33827 12.0662 9.33088C12.0624 9.32856 12.0587 9.32641 12.0554 9.32462C12.0544 9.32596 12.0535 9.32734 12.0526 9.32877C12.052 9.32984 12.0513 9.33093 12.0508 9.33203C12.0526 9.33394 12.0546 9.33601 12.0567 9.33813C12.0672 9.34878 12.0807 9.36105 12.087 9.36792C12.0971 9.37874 12.0883 9.37624 12.078 9.37564C12.0701 9.375 12.0616 9.37536 12.0628 9.38003C12.0637 9.38318 12.069 9.38804 12.0746 9.3922C12.0828 9.39853 12.0916 9.40303 12.0853 9.4043C12.083 9.40478 12.0729 9.40412 12.0629 9.4038C12.0628 9.4038 12.0628 9.4038 12.0627 9.40379C12.062 9.40377 12.0614 9.40375 12.0607 9.40373C12.0674 9.41193 12.0758 9.41879 12.0851 9.42372C12.0877 9.424 12.0903 9.42424 12.0928 9.42443C12.1052 9.42539 12.1173 9.42524 12.134 9.42289C12.1521 9.42041 12.1627 9.41876 12.1733 9.41505C12.1803 9.41264 12.1872 9.4094 12.1962 9.40452C12.2014 9.40162 12.1916 9.40511 12.1819 9.40951C12.1728 9.41353 12.1637 9.41831 12.166 9.4171C12.1671 9.41647 12.1708 9.41435 12.1747 9.41191C12.1781 9.40978 12.1817 9.4074 12.1837 9.40581C12.1857 9.40434 12.1806 9.40681 12.1745 9.41065C12.1708 9.41301 12.1667 9.41589 12.1634 9.41845C12.1685 9.41445 12.1727 9.40986 12.1761 9.40517C12.1822 9.39842 12.1899 9.38951 12.1996 9.37792C12.2065 9.36961 12.2148 9.35962 12.2231 9.3493C12.2344 9.33525 12.2459 9.32052 12.2543 9.30827C12.261 9.2987 12.2628 9.29427 12.2593 9.29758C12.2591 9.29773 12.2589 9.2979 12.2587 9.29808C12.257 9.29974 12.2545 9.30258 12.2522 9.30518C12.2493 9.30848 12.2468 9.31144 12.2466 9.31118C12.2465 9.31099 12.2482 9.30839 12.2503 9.30523C12.2536 9.30018 12.2577 9.29359 12.2571 9.29279C12.2548 9.28985 12.2499 9.2895 12.2452 9.28947C12.2399 9.28939 12.2349 9.28966 12.2329 9.28601C12.2305 9.28187 12.2202 9.28983 12.2115 9.29884C12.2054 9.30508 12.2 9.31169 12.1967 9.31411C12.1934 9.31648 12.1928 9.30971 12.1916 9.30304C12.1903 9.29505 12.1879 9.28726 12.1837 9.29685C12.1828 9.2988 12.1803 9.31108 12.1776 9.3265C12.1756 9.33743 12.1736 9.34995 12.1718 9.36151C12.1703 9.36133 12.1687 9.36172 12.1672 9.36262C12.1672 9.36092 12.1672 9.3592 12.1672 9.35743C12.1672 9.35739 12.1672 9.35735 12.1672 9.35731C12.1679 9.31748 12.1615 9.26296 12.1575 9.29576C12.1567 9.30409 12.1572 9.31935 12.1579 9.33307C12.1586 9.34654 12.1595 9.35857 12.1594 9.36114C12.1592 9.36405 12.1577 9.35589 12.1556 9.34709C12.1528 9.33472 12.1484 9.32113 12.1494 9.33435C12.1494 9.33525 12.1495 9.33624 12.1496 9.33723C12.1504 9.3466 12.1518 9.36048 12.1582 9.3876C12.1584 9.39522 12.1602 9.40391 12.1638 9.4127C12.1698 9.42736 12.1811 9.4422 12.1966 9.45266C12.204 9.45796 12.2325 9.48323 12.2819 9.51888C12.3311 9.55498 12.3965 9.59819 12.4602 9.64784C12.5239 9.69745 12.5806 9.75214 12.6133 9.80731C12.646 9.86221 12.6509 9.91239 12.6313 9.94157C12.5998 9.98881 12.5611 10.0336 12.5158 10.0728C12.5139 10.0757 12.5119 10.0785 12.5099 10.0813C12.4948 10.1018 12.4848 10.1315 12.4723 10.1613C12.4695 10.1682 12.4665 10.175 12.4633 10.1817Z" fill="#042A21"/>
</svg>
