<svg width="30" height="40" viewBox="0 0 30 40" fill="none" xmlns="http://www.w3.org/2000/svg">
<rect x="0.5" y="0.5" width="29" height="39" rx="1.5" stroke="#CFCFCF" stroke-dasharray="4 4"/>
<path d="M11.047 25.21C9.18497 25.21 7.88297 24.188 7.61697 22.564L9.33897 22.326C9.52097 23.194 10.095 23.81 11.075 23.81C12.209 23.81 12.881 23.054 12.881 21.794C12.881 20.52 12.265 19.666 11.117 19.666C10.207 19.666 9.61897 20.184 9.38097 21.08L7.79897 20.926L8.38697 15.27H14.113V16.684H9.66097L9.33897 19.484C9.80097 18.742 10.557 18.35 11.579 18.35C13.455 18.35 14.603 19.638 14.603 21.724C14.603 23.824 13.231 25.21 11.047 25.21ZM22.3484 25H15.5164V23.684C16.6224 22.956 17.8544 22.018 18.9184 21.01C20.0244 19.974 20.4164 19.19 20.4164 18.126C20.4164 17.062 19.8704 16.474 18.8904 16.474C17.8964 16.474 17.3084 17.09 17.3084 18.056C17.3084 18.294 17.3364 18.588 17.4064 18.91L15.6704 18.742C15.6004 18.476 15.5724 18.21 15.5724 17.972C15.5724 16.194 16.8744 15.06 18.9744 15.06C21.0324 15.06 22.2504 16.138 22.2504 18.042C22.2504 19.386 21.6204 20.534 20.2624 21.766C19.5624 22.396 18.8204 22.956 17.8544 23.558H22.3484V25Z" fill="#CFCFCF"/>
</svg>
