<svg width="54" height="64" viewBox="0 0 54 64" fill="none" xmlns="http://www.w3.org/2000/svg">
<g filter="url(#filter0_d_226_1280)">
<rect x="12" y="8" width="30" height="40" rx="2" fill="#189271"/>
<rect x="12.5" y="8.5" width="29" height="39" rx="1.5" stroke="white"/>
</g>
<path d="M25.8581 33H19.0261V31.684C20.1321 30.956 21.3641 30.018 22.4281 29.01C23.5341 27.974 23.9261 27.19 23.9261 26.126C23.9261 25.062 23.3801 24.474 22.4001 24.474C21.4061 24.474 20.8181 25.09 20.8181 26.056C20.8181 26.294 20.8461 26.588 20.9161 26.91L19.1801 26.742C19.1101 26.476 19.0821 26.21 19.0821 25.972C19.0821 24.194 20.3841 23.06 22.4841 23.06C24.5421 23.06 25.7601 24.138 25.7601 26.042C25.7601 27.386 25.1301 28.534 23.7721 29.766C23.0721 30.396 22.3301 30.956 21.3641 31.558H25.8581V33ZM30.8664 33.21C28.3184 33.21 26.9184 31.292 26.9184 28.142C26.9184 24.978 28.3184 23.06 30.8664 23.06C33.4144 23.06 34.8284 24.978 34.8284 28.142C34.8284 31.292 33.4144 33.21 30.8664 33.21ZM30.8664 31.838C32.3224 31.838 33.0784 30.466 33.0784 28.142C33.0784 25.804 32.3224 24.432 30.8664 24.432C29.4104 24.432 28.6684 25.804 28.6684 28.142C28.6684 30.466 29.4104 31.838 30.8664 31.838Z" fill="white"/>
<defs>
<filter id="filter0_d_226_1280" x="0" y="0" width="54" height="64" filterUnits="userSpaceOnUse" color-interpolation-filters="sRGB">
<feFlood flood-opacity="0" result="BackgroundImageFix"/>
<feColorMatrix in="SourceAlpha" type="matrix" values="0 0 0 0 0 0 0 0 0 0 0 0 0 0 0 0 0 0 127 0" result="hardAlpha"/>
<feOffset dy="4"/>
<feGaussianBlur stdDeviation="6"/>
<feComposite in2="hardAlpha" operator="out"/>
<feColorMatrix type="matrix" values="0 0 0 0 0 0 0 0 0 0 0 0 0 0 0 0 0 0 0.08 0"/>
<feBlend mode="normal" in2="BackgroundImageFix" result="effect1_dropShadow_226_1280"/>
<feBlend mode="normal" in="SourceGraphic" in2="effect1_dropShadow_226_1280" result="shape"/>
</filter>
</defs>
</svg>
