<svg width="30" height="40" viewBox="0 0 30 40" fill="none" xmlns="http://www.w3.org/2000/svg">
<rect x="0.5" y="0.5" width="29" height="39" rx="1.5" stroke="#CFCFCF" stroke-dasharray="4 4"/>
<path d="M15.4503 25.21C13.5883 25.21 12.2863 24.188 12.0203 22.564L13.7423 22.326C13.9243 23.194 14.4983 23.81 15.4783 23.81C16.6123 23.81 17.2843 23.054 17.2843 21.794C17.2843 20.52 16.6683 19.666 15.5203 19.666C14.6103 19.666 14.0223 20.184 13.7843 21.08L12.2023 20.926L12.7903 15.27H18.5163V16.684H14.0643L13.7423 19.484C14.2043 18.742 14.9603 18.35 15.9823 18.35C17.8583 18.35 19.0063 19.638 19.0063 21.724C19.0063 23.824 17.6343 25.21 15.4503 25.21Z" fill="#CFCFCF"/>
</svg>
