<svg width="30" height="40" viewBox="0 0 30 40" fill="none" xmlns="http://www.w3.org/2000/svg">
<rect x="0.5" y="0.5" width="29" height="39" rx="1.5" stroke="#CFCFCF" stroke-dasharray="4 4"/>
<path d="M12.3403 25H10.6183V17.804C10.2823 18.196 9.56832 18.392 8.98032 18.392H8.53232V16.838H8.81232C9.86232 16.824 10.6043 16.306 10.9123 15.27H12.3403V25ZM18.4162 25.21C15.8682 25.21 14.4682 23.292 14.4682 20.142C14.4682 16.978 15.8682 15.06 18.4162 15.06C20.9642 15.06 22.3782 16.978 22.3782 20.142C22.3782 23.292 20.9642 25.21 18.4162 25.21ZM18.4162 23.838C19.8722 23.838 20.6282 22.466 20.6282 20.142C20.6282 17.804 19.8722 16.432 18.4162 16.432C16.9602 16.432 16.2182 17.804 16.2182 20.142C16.2182 22.466 16.9602 23.838 18.4162 23.838Z" fill="#CFCFCF"/>
</svg>
