<svg width="54" height="64" viewBox="0 0 54 64" fill="none" xmlns="http://www.w3.org/2000/svg">
<g filter="url(#filter0_d_226_1276)">
<rect x="12" y="8" width="30" height="40" rx="2" fill="#E3A369"/>
<rect x="12.5" y="8.5" width="29" height="39" rx="1.5" stroke="white"/>
</g>
<path d="M26.9503 33.21C25.0883 33.21 23.7863 32.188 23.5203 30.564L25.2423 30.326C25.4243 31.194 25.9983 31.81 26.9783 31.81C28.1123 31.81 28.7843 31.054 28.7843 29.794C28.7843 28.52 28.1683 27.666 27.0203 27.666C26.1103 27.666 25.5223 28.184 25.2843 29.08L23.7023 28.926L24.2903 23.27H30.0163V24.684H25.5643L25.2423 27.484C25.7043 26.742 26.4603 26.35 27.4823 26.35C29.3583 26.35 30.5063 27.638 30.5063 29.724C30.5063 31.824 29.1343 33.21 26.9503 33.21Z" fill="white"/>
<defs>
<filter id="filter0_d_226_1276" x="0" y="0" width="54" height="64" filterUnits="userSpaceOnUse" color-interpolation-filters="sRGB">
<feFlood flood-opacity="0" result="BackgroundImageFix"/>
<feColorMatrix in="SourceAlpha" type="matrix" values="0 0 0 0 0 0 0 0 0 0 0 0 0 0 0 0 0 0 127 0" result="hardAlpha"/>
<feOffset dy="4"/>
<feGaussianBlur stdDeviation="6"/>
<feComposite in2="hardAlpha" operator="out"/>
<feColorMatrix type="matrix" values="0 0 0 0 0 0 0 0 0 0 0 0 0 0 0 0 0 0 0.08 0"/>
<feBlend mode="normal" in2="BackgroundImageFix" result="effect1_dropShadow_226_1276"/>
<feBlend mode="normal" in="SourceGraphic" in2="effect1_dropShadow_226_1276" result="shape"/>
</filter>
</defs>
</svg>
