<svg width="30" height="40" viewBox="0 0 30 40" fill="none" xmlns="http://www.w3.org/2000/svg">
<rect x="0.5" y="0.5" width="29" height="39" rx="1.5" stroke="#CFCFCF" stroke-dasharray="4 4"/>
<path d="M14.3581 25H7.52613V23.684C8.63213 22.956 9.86413 22.018 10.9281 21.01C12.0341 19.974 12.4261 19.19 12.4261 18.126C12.4261 17.062 11.8801 16.474 10.9001 16.474C9.90613 16.474 9.31813 17.09 9.31813 18.056C9.31813 18.294 9.34613 18.588 9.41613 18.91L7.68013 18.742C7.61013 18.476 7.58213 18.21 7.58213 17.972C7.58213 16.194 8.88413 15.06 10.9841 15.06C13.0421 15.06 14.2601 16.138 14.2601 18.042C14.2601 19.386 13.6301 20.534 12.2721 21.766C11.5721 22.396 10.8301 22.956 9.86413 23.558H14.3581V25ZM19.3664 25.21C16.8184 25.21 15.4184 23.292 15.4184 20.142C15.4184 16.978 16.8184 15.06 19.3664 15.06C21.9144 15.06 23.3284 16.978 23.3284 20.142C23.3284 23.292 21.9144 25.21 19.3664 25.21ZM19.3664 23.838C20.8224 23.838 21.5784 22.466 21.5784 20.142C21.5784 17.804 20.8224 16.432 19.3664 16.432C17.9104 16.432 17.1684 17.804 17.1684 20.142C17.1684 22.466 17.9104 23.838 19.3664 23.838Z" fill="#CFCFCF"/>
</svg>
