<svg width="40" height="52" viewBox="0 0 40 52" fill="none" xmlns="http://www.w3.org/2000/svg">
<rect x="0.5" y="0.5" width="39" height="51" rx="0.5" stroke="#CFCFCF" stroke-dasharray="4 4"/>
<path d="M19.9505 31.6144C18.0885 31.6144 16.7865 30.5924 16.5205 28.9684L18.2425 28.7304C18.4245 29.5984 18.9985 30.2144 19.9785 30.2144C21.1125 30.2144 21.7845 29.4584 21.7845 28.1984C21.7845 26.9244 21.1685 26.0704 20.0205 26.0704C19.1105 26.0704 18.5225 26.5884 18.2845 27.4844L16.7025 27.3304L17.2905 21.6744H23.0165V23.0884H18.5645L18.2425 25.8884C18.7045 25.1464 19.4605 24.7544 20.4825 24.7544C22.3585 24.7544 23.5065 26.0424 23.5065 28.1284C23.5065 30.2284 22.1345 31.6144 19.9505 31.6144Z" fill="#CFCFCF"/>
</svg>
