<svg width="40" height="52" viewBox="0 0 40 52" fill="none" xmlns="http://www.w3.org/2000/svg">
<rect x="0.5" y="0.5" width="39" height="51" rx="0.5" stroke="#CFCFCF" stroke-dasharray="4 4"/>
<path d="M16.9136 30.4044H15.1916V23.2084C14.8556 23.6004 14.1416 23.7964 13.5536 23.7964H13.1056V22.2424H13.3856C14.4356 22.2284 15.1776 21.7104 15.4856 20.6744H16.9136V30.4044ZM22.9895 30.6144C20.4415 30.6144 19.0415 28.6964 19.0415 25.5464C19.0415 22.3824 20.4415 20.4644 22.9895 20.4644C25.5375 20.4644 26.9515 22.3824 26.9515 25.5464C26.9515 28.6964 25.5375 30.6144 22.9895 30.6144ZM22.9895 29.2424C24.4455 29.2424 25.2015 27.8704 25.2015 25.5464C25.2015 23.2084 24.4455 21.8364 22.9895 21.8364C21.5335 21.8364 20.7915 23.2084 20.7915 25.5464C20.7915 27.8704 21.5335 29.2424 22.9895 29.2424Z" fill="#CFCFCF"/>
</svg>
