<svg width="40" height="52" viewBox="0 0 40 52" fill="none" xmlns="http://www.w3.org/2000/svg">
<rect x="0.5" y="0.5" width="39" height="51" rx="0.5" stroke="#CFCFCF" stroke-dasharray="4 4"/>
<path d="M18.9314 30.4044H12.0994V29.0884C13.2054 28.3604 14.4374 27.4224 15.5014 26.4144C16.6074 25.3784 16.9994 24.5944 16.9994 23.5304C16.9994 22.4664 16.4534 21.8784 15.4734 21.8784C14.4794 21.8784 13.8914 22.4944 13.8914 23.4604C13.8914 23.6984 13.9194 23.9924 13.9894 24.3144L12.2534 24.1464C12.1834 23.8804 12.1554 23.6144 12.1554 23.3764C12.1554 21.5984 13.4574 20.4644 15.5574 20.4644C17.6154 20.4644 18.8334 21.5424 18.8334 23.4464C18.8334 24.7904 18.2034 25.9384 16.8454 27.1704C16.1454 27.8004 15.4034 28.3604 14.4374 28.9624H18.9314V30.4044ZM23.9396 30.6144C21.3916 30.6144 19.9916 28.6964 19.9916 25.5464C19.9916 22.3824 21.3916 20.4644 23.9396 20.4644C26.4876 20.4644 27.9016 22.3824 27.9016 25.5464C27.9016 28.6964 26.4876 30.6144 23.9396 30.6144ZM23.9396 29.2424C25.3956 29.2424 26.1516 27.8704 26.1516 25.5464C26.1516 23.2084 25.3956 21.8364 23.9396 21.8364C22.4836 21.8364 21.7416 23.2084 21.7416 25.5464C21.7416 27.8704 22.4836 29.2424 23.9396 29.2424Z" fill="#CFCFCF"/>
</svg>
