<svg width="30" height="40" viewBox="0 0 30 40" fill="none" xmlns="http://www.w3.org/2000/svg">
<rect x="0.5" y="0.5" width="29" height="39" rx="1.5" stroke="#CFCFCF" stroke-dasharray="4 4"/>
<path d="M10.4787 22.67C10.4518 22.603 10.6462 22.4036 10.7713 22.2502C10.7734 22.2477 10.7755 22.2451 10.7777 22.2425C10.8062 22.2086 10.8311 22.1744 10.8603 22.1339C10.8997 22.0793 10.947 22.013 11.0236 21.9182C11.0811 21.8472 11.1549 21.7601 11.2548 21.6479C11.308 21.5642 11.3617 21.4804 11.4162 21.3966C11.9222 20.618 12.4552 19.8477 12.9901 19.0773C13.0759 18.9537 13.1618 18.8297 13.2479 18.7055C13.2545 18.6935 13.2613 18.6812 13.2682 18.6689C13.4006 18.4298 13.5639 18.1322 13.6962 17.9621C13.8644 17.7461 13.9864 17.6031 14.0877 17.4866C14.4607 16.9424 14.8247 16.3956 15.2019 15.8366C15.3374 15.6462 15.4181 15.4914 15.665 15.2295C15.7075 15.1904 15.7518 15.1435 15.8636 15.0835C15.9521 15.0192 16.2729 14.9722 16.4436 15.0888C16.7343 15.2927 16.6942 15.3567 16.7465 15.4174C16.8269 15.5578 16.9055 15.6974 16.9835 15.8354C17.1087 16.0567 17.2319 16.2753 17.3574 16.4803C17.4426 16.5923 17.5273 16.6916 17.6044 16.7724C17.6464 16.8165 17.6861 16.8549 17.7216 16.8866C17.7871 16.9489 17.8468 17.0041 17.8967 17.0545C18.0791 17.2449 18.3446 17.5122 18.398 17.5584C18.3968 17.5583 18.3948 17.5578 18.3917 17.557C18.341 17.5383 18.3166 17.54 18.304 17.5408C18.2844 17.5371 18.2897 17.5351 18.2834 17.5332C18.2051 17.5448 18.2176 17.5648 18.3038 17.4396C18.3174 17.4332 18.3322 17.4257 18.3491 17.4162C18.3779 17.4001 18.408 17.3787 18.4574 17.3407C18.5192 17.3088 18.5379 17.2245 18.8484 17.1542C18.9658 17.1324 19.1354 17.169 19.2195 17.2202C19.3086 17.2699 19.3497 17.3145 19.3803 17.347C19.4379 17.4122 19.458 17.4506 19.4789 17.4857C19.5168 17.5533 19.5402 17.6045 19.5654 17.6567C19.615 17.7609 19.6644 17.8644 19.7211 17.9847C19.7394 18.0234 19.7574 18.0621 19.7769 18.1042C19.8295 18.2183 19.8863 18.3463 19.9454 18.4897C19.9976 18.6163 19.9948 18.6937 19.9927 18.7574C19.9921 18.776 19.9915 18.7935 19.9923 18.8106C19.9953 18.8692 20.0394 18.9123 20.0918 18.9637C20.1595 19.0299 20.2409 19.1094 20.2629 19.252C20.3333 19.7064 20.4896 19.8496 20.607 19.9559C20.6417 19.9874 20.6729 20.0154 20.6979 20.0474C20.739 20.0999 20.7722 20.1707 20.7982 20.2454C20.8222 20.3156 20.8401 20.3898 20.8524 20.4566C20.8715 20.5638 21.0009 20.7323 21.1178 20.8461C21.1618 20.8894 21.2046 20.9578 21.2569 21.0381C21.311 21.1211 21.3754 21.2168 21.4604 21.3088C21.6759 21.5408 21.7967 21.6626 21.8928 21.7618C21.9203 21.79 21.946 21.8163 21.9719 21.8426C22.0538 21.9255 22.152 22.0323 22.2528 22.1418C22.3228 22.2179 22.394 22.2953 22.4613 22.3664L22.4013 22.2983C22.4525 22.3402 22.5004 22.3774 22.5448 22.4094C22.7684 22.656 22.9953 22.8908 23.2374 23.1084C23.3297 23.1916 23.4023 23.2972 23.4532 23.4217C23.4762 23.4695 23.4806 23.508 23.4832 23.5482C23.4907 23.7013 23.4797 23.8756 23.3973 24.0186C23.3158 24.1606 23.1761 24.2692 22.9767 24.281C22.9256 24.2842 22.8725 24.2803 22.8292 24.2794C22.7007 24.2744 22.5614 24.227 22.4402 24.146C22.1095 23.9253 21.7952 23.6801 21.5022 23.4216C21.4614 23.3856 21.4206 23.349 21.3799 23.3118C21.3694 23.2993 21.3353 23.2647 21.3264 23.2511C21.0683 22.9535 20.8054 22.6454 20.559 22.3086C20.3644 22.0425 20.1772 21.7613 20.0079 21.4648C19.9905 21.4342 19.9733 21.4035 19.9562 21.3727C19.8115 21.1896 19.676 20.9961 19.5779 20.8318C19.5555 20.7948 19.5346 20.759 19.5162 20.7261C19.4384 20.587 19.4105 20.4743 19.3866 20.3778C19.3702 20.3114 19.356 20.253 19.3296 20.1992C19.3155 20.1704 19.295 20.1313 19.2707 20.0846C19.1707 19.8932 19.0035 19.5686 18.9058 19.2515C18.8624 19.1107 18.8252 18.9419 18.7894 18.7823C18.7736 18.7118 18.7582 18.6432 18.7427 18.5799C18.707 18.4361 18.6713 18.3177 18.6323 18.2591C18.6014 18.2128 18.5724 18.1619 18.5513 18.1244C18.5416 18.1068 18.5311 18.0898 18.5386 18.0988C18.5446 18.1047 18.5491 18.1158 18.5979 18.159C18.627 18.1929 18.8296 18.3177 19.028 18.2765C19.3572 18.1734 19.26 18.1413 19.273 18.1516C19.2623 18.1587 19.2362 18.1853 19.208 18.2143C19.0663 18.3759 18.7821 18.586 18.5774 18.6555C18.5586 18.6634 18.5394 18.6704 18.5199 18.6766C18.3532 18.7216 18.2132 18.7525 17.9166 18.624C17.8794 18.6048 17.8511 18.5868 17.8241 18.5686C17.6925 18.4766 17.5915 18.3779 17.4528 18.2482C17.2958 18.0985 17.2125 17.9757 17.1428 17.8711C17.0592 17.7437 16.9994 17.6436 16.8895 17.5354C16.8708 17.5166 16.8508 17.4969 16.83 17.4774C16.6601 17.3172 16.5248 17.1418 16.4506 16.9893C16.417 16.9199 16.3725 16.8451 16.3271 16.7682C16.267 16.6662 16.2052 16.5601 16.1639 16.4558C16.1299 16.3698 16.1208 16.2887 16.1126 16.217C16.11 16.1946 16.1074 16.1731 16.1043 16.1528C16.0681 16.0903 16.0316 16.0283 15.9945 15.967C15.9842 15.9595 15.9731 15.9519 15.9616 15.9439C15.9467 15.9337 15.931 15.9228 15.9146 15.9111C15.8928 15.8968 15.8701 15.883 15.8604 15.8877C15.8599 15.8882 15.8271 15.9368 16.0256 16.0249C16.2917 16.0954 16.3886 15.9737 16.3972 15.9786C16.4144 15.9664 16.4018 15.9767 16.3892 15.9897C16.3607 16.0183 16.3177 16.0617 16.2738 16.1091C16.2062 16.1826 16.1355 16.2657 16.0716 16.3764C16.0698 16.3796 16.0679 16.3829 16.0661 16.3862C16.0217 16.4649 15.9795 16.5594 15.9375 16.654C15.875 16.795 15.8138 16.9352 15.7499 17.0195C15.7255 17.052 15.6916 17.0699 15.657 17.0892C15.6569 17.0893 15.6567 17.0893 15.6565 17.0894C15.6542 17.0907 15.6518 17.092 15.6495 17.0933C15.532 17.3226 15.4161 17.5543 15.3011 17.7864C15.2943 17.8083 15.2872 17.8304 15.2802 17.8524C15.2461 17.9594 15.213 18.0634 15.2069 18.1407C15.2007 18.224 15.1234 18.3986 15.0417 18.5826C14.9882 18.7032 14.9329 18.8276 14.8942 18.9336C14.8717 18.9953 14.8227 19.0379 14.7723 19.0815C14.7252 19.1223 14.6769 19.1641 14.6476 19.2237C14.6329 19.2536 14.622 19.2888 14.6104 19.3264C14.6002 19.3595 14.5895 19.3945 14.5749 19.4293C14.5614 19.4616 14.5124 19.5223 14.4494 19.6001C14.4105 19.6483 14.3663 19.7028 14.3217 19.7614C14.3068 19.7905 14.292 19.8195 14.2771 19.8485C14.2036 19.9918 14.1293 20.1347 14.0541 20.2771C14.0487 20.3209 14.0507 20.3629 14.0621 20.4024C14.0703 20.4307 14.0836 20.4587 14.0972 20.4873C14.1157 20.5262 14.1348 20.5665 14.1425 20.611C14.1485 20.6457 14.1401 20.677 14.121 20.6898C14.1122 20.6957 14.101 20.6977 14.0909 20.6996C14.0793 20.7016 14.069 20.7035 14.0648 20.7109C14.0617 20.7162 14.0637 20.7249 14.066 20.7355C14.0697 20.7524 14.0745 20.7744 14.062 20.7957C14.0155 20.8755 13.9564 20.962 13.8984 21.0466C13.8338 21.1407 13.7704 21.2327 13.7273 21.3106C13.6789 21.398 13.5843 21.5058 13.489 21.6138C13.4222 21.6897 13.356 21.7644 13.3045 21.8332C13.2545 21.8998 13.2181 21.9806 13.1832 22.0581C13.1409 22.1519 13.1007 22.2408 13.0383 22.3001C13.0257 22.3119 12.9936 22.3154 12.9529 22.3206C12.9242 22.3242 12.8913 22.3282 12.8586 22.3356C12.8009 22.4242 12.7422 22.512 12.6822 22.5993C12.683 22.6043 12.6837 22.6094 12.6845 22.6146C12.6846 22.6147 12.6846 22.6148 12.6846 22.6149C12.7024 22.7262 12.7252 22.8785 12.5965 22.9823C12.5908 22.9869 12.5848 22.9914 12.5786 22.9957C12.5413 23.0213 12.5011 23.0263 12.4649 23.0308C12.4296 23.0347 12.3973 23.0393 12.3759 23.0617C12.3514 23.0875 12.3416 23.1312 12.3304 23.1793C12.3147 23.2468 12.2964 23.3229 12.2316 23.3691C12.2272 23.3723 12.2224 23.3756 12.2175 23.3791C12.1706 23.4131 12.1008 23.4634 12.0044 23.4991C11.8729 23.6551 11.6826 23.8641 11.4534 24.0157C11.4211 24.0365 11.3893 24.0568 11.3574 24.0768C11.0291 24.2836 10.6907 24.4761 10.3363 24.6518C10.1634 24.7374 9.96195 24.7642 9.78126 24.7199C9.60186 24.6758 9.45366 24.5632 9.41024 24.4062C9.36213 24.2522 9.33797 24.0962 9.3824 23.9371C9.42493 23.7793 9.5202 23.6385 9.65146 23.5369C9.86595 23.3714 10.0769 23.1929 10.2847 23.0093C10.2944 22.9981 10.3046 22.9866 10.3142 22.9758C10.3798 22.9028 10.4281 22.8189 10.4749 22.7326C10.4763 22.7252 10.4773 22.7182 10.4779 22.7112C10.4793 22.6968 10.4792 22.6831 10.4787 22.67Z" fill="#CFCFCF"/>
<path d="M13.079 19.2763C12.9737 19.3398 12.7919 19.2765 12.6915 19.2371C12.6897 19.2364 12.6878 19.2357 12.686 19.235C12.6621 19.2258 12.6389 19.2197 12.6116 19.2123C12.5462 19.194 12.458 19.1724 12.2778 19.0655C12.2208 19.0496 12.1624 19.0309 12.103 19.0087C12.0707 18.9967 12.0368 18.9833 12.0037 18.9692C11.434 18.7287 11.0136 18.3036 10.7477 18.0252C10.7438 18.023 10.7401 18.0209 10.7362 18.0188C10.7183 18.009 10.7015 18.0006 10.6913 17.9964C10.8156 18.0782 11.0275 18.1194 11.166 18.0953C11.312 18.0737 11.3857 18.0296 11.4334 18.0024C11.5252 17.9442 11.5377 17.9206 11.5489 17.9092C11.5654 17.8873 11.5462 17.9013 11.5283 17.9095C11.4608 17.9457 11.3916 18.0002 11.3381 18.0369C11.1129 18.3171 10.8854 18.6505 10.6812 18.9834C10.6755 18.9927 10.6698 19.0021 10.6641 19.0115C10.6046 19.1102 10.5466 19.2089 10.4903 19.3083C10.433 19.4095 10.3765 19.5109 10.3205 19.6128C10.3001 19.6792 10.2833 19.7448 10.2671 19.8057C10.2447 19.8906 10.2232 19.9671 10.1953 20.0238C10.1285 20.1599 10.0076 20.2857 9.91551 20.3777C9.90037 20.3929 9.88684 20.406 9.87339 20.4198C9.82214 20.5087 9.77082 20.5963 9.71602 20.6856C9.70668 20.6871 9.69715 20.6884 9.68748 20.6896C9.583 20.7026 9.51556 20.7723 9.43539 20.8672C9.42337 20.8816 9.41079 20.897 9.39738 20.9134C9.3542 20.9661 9.30379 21.0277 9.23907 21.0955C9.19747 21.1391 9.15144 21.1411 9.11391 21.1427C9.10286 21.1432 9.09251 21.1437 9.08322 21.1452C9.05149 21.1502 9.05274 21.1843 9.05399 21.2249C9.05583 21.2773 9.05787 21.3404 8.98891 21.3636C8.76918 21.4376 8.77595 21.5571 8.781 21.6476C8.78246 21.6742 8.78375 21.6983 8.77919 21.7179C8.76421 21.7817 8.68824 21.8263 8.61673 21.8484C8.56034 21.8657 8.51976 21.9626 8.50126 22.0466C8.49438 22.0782 8.46913 22.1084 8.43993 22.1432C8.40903 22.1799 8.37376 22.2216 8.34804 22.2776C8.28336 22.4188 8.24511 22.4939 8.21382 22.5545C8.2044 22.5723 8.19686 22.5873 8.18767 22.6043C8.16977 22.6385 8.14603 22.6773 8.11797 22.7192C8.10574 22.7387 8.04941 22.7785 8.03429 22.7958C8.01022 22.8197 7.98567 22.8429 7.96122 22.8651C7.874 22.9442 7.78877 23.011 7.72805 23.0666C7.54288 23.1457 7.3662 23.1966 7.19168 23.2383C7.1766 23.2431 7.17098 23.2443 7.16515 23.2456C7.06951 23.2667 6.98269 23.2181 6.89236 23.1222C6.80142 23.0262 6.71357 22.8903 6.65305 22.7371C6.59287 22.5838 6.56395 22.4241 6.57929 22.2881C6.59473 22.152 6.65374 22.0535 6.71276 22.0178C6.71674 22.0155 6.72054 22.0132 6.72452 22.0109C6.83512 21.9408 6.94649 21.8626 7.03722 21.7886C7.0882 21.7471 7.13267 21.7062 7.16018 21.6753L7.07937 21.7493C7.13502 21.6764 7.20164 21.5926 7.27072 21.5134C7.35933 21.4115 7.45144 21.3099 7.5461 21.2095C7.55601 21.199 7.56556 21.189 7.57537 21.1786C7.61939 21.0641 7.66594 20.9518 7.70851 20.8808C7.74373 20.8221 7.79195 20.7984 7.83324 20.778C7.86168 20.7639 7.88685 20.7515 7.90219 20.7304C7.91043 20.7191 7.9208 20.7028 7.93329 20.6833C7.98433 20.6033 8.07084 20.4674 8.19495 20.3806C8.24981 20.3423 8.32501 20.3063 8.39632 20.2724C8.47629 20.2343 8.55254 20.1976 8.59132 20.1621C8.60311 20.151 8.6107 20.1417 8.61519 20.1317C8.6476 20.0562 8.71824 20.0007 8.78152 19.948C8.84195 19.8979 8.89388 19.8529 8.89444 19.8059C8.89559 19.7491 8.92861 19.7264 8.97875 19.6901C9.01317 19.6654 9.05562 19.6342 9.09973 19.5818C9.15083 19.521 9.20036 19.4879 9.24291 19.4588C9.30271 19.4179 9.34754 19.3866 9.35607 19.3021C9.36496 19.209 9.38767 19.1206 9.43446 19.0687C9.45616 19.0445 9.47268 19.0139 9.49063 18.9805C9.51374 18.9373 9.53851 18.8904 9.57494 18.8573C9.60525 18.8296 9.6492 18.8168 9.68787 18.8058C9.69996 18.8023 9.71154 18.7989 9.72212 18.7951C9.73734 18.7671 9.75185 18.7397 9.76622 18.7116C9.76417 18.7046 9.76177 18.6972 9.75931 18.6894C9.74715 18.6502 9.73145 18.6034 9.73575 18.5573C9.737 18.5439 9.73948 18.5315 9.743 18.5198C9.75921 18.4668 9.7953 18.4303 9.8334 18.3913C9.86954 18.3544 9.90712 18.316 9.93001 18.2603C9.94527 18.223 9.95542 18.1752 9.96481 18.1291C9.97949 18.0592 9.99359 17.9909 10.0261 17.9544C10.0383 17.9407 10.0631 17.9365 10.0877 17.9325C10.0878 17.9325 10.0879 17.9325 10.0881 17.9325C10.0897 17.9322 10.0914 17.9319 10.0931 17.9316C10.1324 17.8227 10.1714 17.7112 10.2118 17.598C10.2122 17.5865 10.2124 17.5753 10.2131 17.5634C10.2158 17.5067 10.2191 17.4512 10.2061 17.4052C10.1923 17.3553 10.2174 17.2654 10.2591 17.1566C10.2872 17.085 10.321 17.0052 10.3734 16.9105C10.4061 16.8549 10.4651 16.8145 10.5837 16.7519C10.6401 16.7243 10.7114 16.6857 10.8406 16.6513C10.9631 16.6157 11.1917 16.6062 11.3739 16.6912C11.4009 16.7031 11.4271 16.7163 11.4519 16.7304C11.4704 16.7373 11.4926 16.7425 11.5134 16.7466C11.5357 16.7513 11.5582 16.7559 11.5791 16.7637C11.5985 16.7709 11.6278 16.8047 11.6599 16.8453C11.6801 16.8707 11.7012 16.8984 11.7236 16.9251C11.8034 16.9679 11.8771 17.0076 11.948 17.0451C11.9722 17.0402 11.9974 17.0294 12.0241 17.0115C12.0433 16.9985 12.064 16.9815 12.085 16.964C12.1135 16.9401 12.1429 16.9153 12.1707 16.8986C12.1925 16.8856 12.2073 16.8847 12.2082 16.8971C12.2086 16.9029 12.206 16.9115 12.2037 16.9192C12.2011 16.9281 12.1987 16.936 12.2015 16.9376C12.2035 16.9388 12.209 16.9351 12.2157 16.9306C12.2263 16.9234 12.2401 16.914 12.2479 16.9188C12.2769 16.9364 12.3051 16.9614 12.3325 16.9853C12.3628 17.0118 12.3922 17.0365 12.4198 17.0481C12.4508 17.061 12.4786 17.1045 12.5071 17.1465C12.5269 17.1758 12.5471 17.2046 12.5677 17.2223C12.5879 17.2397 12.6175 17.2398 12.6452 17.2389C12.6729 17.2379 12.6988 17.2359 12.7145 17.2511C12.7169 17.2538 12.719 17.2573 12.7208 17.2616C12.7229 17.2669 12.7182 17.292 12.7132 17.3236C12.7097 17.346 12.7059 17.3717 12.7041 17.396C12.7319 17.4064 12.7617 17.4176 12.7926 17.4292C12.7947 17.4263 12.7969 17.4234 12.7991 17.4204C12.7991 17.4203 12.7992 17.4202 12.7992 17.4202C12.8495 17.3524 12.9116 17.2573 12.947 17.3335C12.9562 17.3529 12.9575 17.3846 12.9589 17.4132C12.9603 17.4413 12.9617 17.4664 12.971 17.4739C12.9816 17.4822 12.9996 17.4694 13.019 17.4553C13.0462 17.4354 13.0761 17.4129 13.0957 17.4437C13.097 17.4458 13.0984 17.4481 13.1 17.4504C13.1144 17.4723 13.1361 17.5047 13.154 17.5645C13.2339 17.5941 13.3165 17.6244 13.4009 17.6545C13.5415 17.7047 13.6872 17.7546 13.8345 17.7996C13.9059 17.8216 13.9711 17.9 14.0201 18.0226C14.0687 18.1453 14.0987 18.3013 14.0987 18.4629C14.0996 18.6244 14.065 18.7808 13.9996 18.9009C13.9343 19.0208 13.8458 19.0933 13.7572 19.1058C13.6126 19.1259 13.4676 19.1421 13.3209 19.152C13.313 19.1544 13.305 19.1568 13.2971 19.1589C13.2384 19.1748 13.1801 19.2131 13.1203 19.2508C13.1067 19.2594 13.0929 19.268 13.079 19.2763Z" fill="#CFCFCF"/>
</svg>
