<svg width="40" height="52" viewBox="0 0 40 52" fill="none" xmlns="http://www.w3.org/2000/svg">
<rect x="0.5" y="0.5" width="39" height="51" rx="0.5" stroke="#CFCFCF" stroke-dasharray="4 4"/>
<path d="M15.6202 30.6144C13.7582 30.6144 12.4562 29.5924 12.1902 27.9684L13.9122 27.7304C14.0942 28.5984 14.6682 29.2144 15.6482 29.2144C16.7822 29.2144 17.4542 28.4584 17.4542 27.1984C17.4542 25.9244 16.8382 25.0704 15.6902 25.0704C14.7802 25.0704 14.1922 25.5884 13.9542 26.4844L12.3722 26.3304L12.9602 20.6744H18.6862V22.0884H14.2342L13.9122 24.8884C14.3742 24.1464 15.1302 23.7544 16.1522 23.7544C18.0282 23.7544 19.1762 25.0424 19.1762 27.1284C19.1762 29.2284 17.8042 30.6144 15.6202 30.6144ZM26.9216 30.4044H20.0896V29.0884C21.1956 28.3604 22.4276 27.4224 23.4916 26.4144C24.5976 25.3784 24.9896 24.5944 24.9896 23.5304C24.9896 22.4664 24.4436 21.8784 23.4636 21.8784C22.4696 21.8784 21.8816 22.4944 21.8816 23.4604C21.8816 23.6984 21.9096 23.9924 21.9796 24.3144L20.2436 24.1464C20.1736 23.8804 20.1456 23.6144 20.1456 23.3764C20.1456 21.5984 21.4476 20.4644 23.5476 20.4644C25.6056 20.4644 26.8236 21.5424 26.8236 23.4464C26.8236 24.7904 26.1936 25.9384 24.8356 27.1704C24.1356 27.8004 23.3936 28.3604 22.4276 28.9624H26.9216V30.4044Z" fill="#CFCFCF"/>
</svg>
