<svg preserveAspectRatio="none" width="100%" height="100%" overflow="visible" style="display: block;" viewBox="0 0 20 20" fill="none" xmlns="http://www.w3.org/2000/svg">
<g id="Frame">
<path id="Vector" d="M10 15.625C11.3261 15.625 12.5979 15.0982 13.5355 14.1605C14.4732 13.2229 15 11.9511 15 10.625V9.375M10 15.625C8.67392 15.625 7.40215 15.0982 6.46447 14.1605C5.52678 13.2229 5 11.9511 5 10.625V9.375M10 15.625V18.75M6.875 18.75H13.125M10 13.125C9.33696 13.125 8.70107 12.8616 8.23223 12.3928C7.76339 11.9239 7.5 11.288 7.5 10.625V3.75C7.5 3.08696 7.76339 2.45107 8.23223 1.98223C8.70107 1.51339 9.33696 1.25 10 1.25C10.663 1.25 11.2989 1.51339 11.7678 1.98223C12.2366 2.45107 12.5 3.08696 12.5 3.75V10.625C12.5 11.288 12.2366 11.9239 11.7678 12.3928C11.2989 12.8616 10.663 13.125 10 13.125Z" stroke="var(--stroke-0, #E14316)" stroke-width="1.5" stroke-linecap="round" stroke-linejoin="round"/>
</g>
</svg>
