<svg preserveAspectRatio="none" width="100%" height="100%" overflow="visible" style="display: block;" viewBox="0 0 48.8913 89.1512" fill="none" xmlns="http://www.w3.org/2000/svg">
<path id="Vector 9773" d="M3.40447 0.169761C2.11715 -0.329394 0.668916 0.309546 0.169761 1.59687C-0.329394 2.8842 0.309546 4.33243 1.59687 4.83158L2.50067 2.50067L3.40447 0.169761ZM22.2985 87.3182C22.6672 88.6487 24.0447 89.4285 25.3753 89.0598L47.0582 83.0514C48.3888 82.6827 49.1685 81.3051 48.7998 79.9746C48.4311 78.644 47.0536 77.8643 45.723 78.233L26.4493 83.5738L21.1085 64.3001C20.7398 62.9695 19.3623 62.1897 18.0317 62.5584C16.7011 62.9271 15.9214 64.3047 16.2901 65.6353L22.2985 87.3182ZM2.50067 2.50067L1.59687 4.83158C10.71 8.36517 22.697 16.6432 29.0274 29.8489C35.2818 42.896 36.2334 61.2136 22.5321 85.4191L24.7077 86.6506L26.8833 87.8821C41.2323 62.5325 40.6254 42.4762 33.5362 27.6876C26.523 13.0577 13.3813 4.03823 3.40447 0.169761L2.50067 2.50067Z" fill="var(--stroke-0, #E4DCD4)"/>
</svg>
