<svg width="22" height="22" viewBox="0 0 22 22" fill="none" xmlns="http://www.w3.org/2000/svg">
<path d="M13.5117 8.24999L13.1945 16.5M8.8055 16.5L8.48833 8.24999M14.4375 4.94357C15.5043 5.02616 16.5677 5.14755 17.6257 5.30749C17.9392 5.35516 18.2508 5.40557 18.5625 5.45966M17.6257 5.30749L16.6467 18.0336C16.6067 18.5517 16.3726 19.0356 15.9913 19.3886C15.6099 19.7416 15.1093 19.9376 14.5897 19.9375H7.41033C6.89067 19.9376 6.3901 19.7416 6.00873 19.3886C5.62736 19.0356 5.39329 18.5517 5.35333 18.0336L4.37433 5.30749M4.37433 5.30749C4.06083 5.35424 3.74917 5.40466 3.4375 5.45874M4.37433 5.30749C5.43229 5.14755 6.49572 5.02616 7.5625 4.94357M14.4375 4.94357V4.10391C14.4375 3.02224 13.6033 2.12024 12.5217 2.08632C11.5075 2.05391 10.4925 2.05391 9.47833 2.08632C8.39667 2.12024 7.5625 3.02316 7.5625 4.10391V4.94357M14.4375 4.94357C12.1492 4.76673 9.85076 4.76673 7.5625 4.94357" stroke="#068089" stroke-width="1.5" stroke-linecap="round" stroke-linejoin="round"/>
</svg>
