<svg width="22" height="22" viewBox="0 0 22 22" fill="none" xmlns="http://www.w3.org/2000/svg">
<path d="M2.29199 10.9998C2.29199 6.89469 2.29199 4.84212 3.5673 3.56681C4.8426 2.2915 6.89518 2.2915 11.0003 2.2915C15.1055 2.2915 17.158 2.2915 18.4334 3.56681C19.7087 4.84212 19.7087 6.89469 19.7087 10.9998C19.7087 15.105 19.7087 17.1576 18.4334 18.4329C17.158 19.7082 15.1055 19.7082 11.0003 19.7082C6.89518 19.7082 4.8426 19.7082 3.5673 18.4329C2.29199 17.1576 2.29199 15.105 2.29199 10.9998Z" stroke="#B42800" stroke-width="1.5"/>
<path d="M11 7.3335V14.6668" stroke="#B42800" stroke-width="1.5" stroke-linecap="round" stroke-linejoin="round"/>
<path d="M8.25 9.1665V12.8332" stroke="#B42800" stroke-width="1.5" stroke-linecap="round" stroke-linejoin="round"/>
<path d="M5.5 10.0835V11.9168" stroke="#B42800" stroke-width="1.5" stroke-linecap="round" stroke-linejoin="round"/>
<path d="M13.75 9.1665V12.8332" stroke="#B42800" stroke-width="1.5" stroke-linecap="round" stroke-linejoin="round"/>
<path d="M16.5 10.0835V11.9168" stroke="#B42800" stroke-width="1.5" stroke-linecap="round" stroke-linejoin="round"/>
</svg>
